<svg width="50" height="50" viewBox="0 0 50 50" fill="none" xmlns="http://www.w3.org/2000/svg">
<g clip-path="url(#clip0_402_2)">
<path d="M22.6402 49.9533H27.3598C29.1589 49.9533 30.5374 48.8552 30.958 47.1262L31.9627 42.757L32.7103 42.5L36.5187 44.8365C38.0374 45.7944 39.7897 45.5608 41.0748 44.2757L44.3458 41.028C45.6309 39.7431 45.8645 37.9673 44.9066 36.472L42.5234 32.687L42.8037 31.986L47.173 30.958C48.8786 30.5374 50 29.1355 50 27.3598V22.7337C50 20.958 48.9019 19.5561 47.173 19.1355L42.8505 18.0841L42.5467 17.3364L44.93 13.5514C45.8879 12.0561 45.6543 10.3038 44.3692 8.99533L41.0982 5.7243C39.8365 4.46262 38.0841 4.22897 36.5654 5.16356L32.7571 7.5L31.9627 7.19626L30.958 2.82711C30.5374 1.09813 29.1589 0 27.3598 0H22.6402C20.8411 0 19.4626 1.09813 19.0421 2.82711L18.0141 7.19626L17.2196 7.5L13.4346 5.16356C11.9159 4.22897 10.1402 4.46262 8.87851 5.7243L5.63084 8.99533C4.3458 10.3038 4.08879 12.0561 5.0701 13.5514L7.42991 17.3364L7.14954 18.0841L2.82711 19.1355C1.09813 19.5561 0 20.958 0 22.7337V27.3598C0 29.1355 1.1215 30.5374 2.82711 30.958L7.19626 31.986L7.45328 32.687L5.09347 36.472C4.11215 37.9673 4.36916 39.7431 5.65421 41.028L8.90188 44.2757C10.1869 45.5608 11.9626 45.7944 13.4813 44.8365L17.2664 42.5L18.0141 42.757L19.0421 47.1262C19.4626 48.8552 20.8411 49.9533 22.6402 49.9533ZM23.0141 46.3084C22.6168 46.3084 22.4065 46.1449 22.3364 45.771L20.9346 39.9767C19.5094 39.6262 18.1776 39.0654 17.1729 38.4346L12.0795 41.5654C11.7991 41.7757 11.4953 41.729 11.215 41.4487L8.45795 38.6916C8.20094 38.4346 8.17758 38.1542 8.36449 37.8271L11.4953 32.7804C10.9579 31.799 10.3504 30.4673 9.97665 29.042L4.18224 27.6636C3.80841 27.5935 3.64486 27.3832 3.64486 26.986V23.0841C3.64486 22.6636 3.78505 22.4767 4.18224 22.4065L9.95327 21.0047C10.3272 19.486 11.0281 18.1075 11.4486 17.243L8.34112 12.1963C8.13085 11.8458 8.15421 11.5655 8.41122 11.2851L11.1916 8.57477C11.472 8.2944 11.729 8.24767 12.0795 8.45795L17.1262 11.5187C18.1308 10.9579 19.5561 10.3738 20.958 9.97664L22.3364 4.18224C22.4065 3.80841 22.6168 3.64486 23.0141 3.64486H26.986C27.3832 3.64486 27.5935 3.80841 27.6402 4.18224L29.0654 10.0234C30.5141 10.3972 31.7757 10.9813 32.8271 11.5421L37.8972 8.45795C38.271 8.24767 38.5047 8.2944 38.8084 8.57477L41.5654 11.2851C41.8458 11.5655 41.8458 11.8458 41.6356 12.1963L38.528 17.243C38.972 18.1075 39.6496 19.486 40.0234 21.0047L45.8178 22.4065C46.1917 22.4767 46.3552 22.6636 46.3552 23.0841V26.986C46.3552 27.3832 46.1683 27.5935 45.8178 27.6636L40.0001 29.042C39.6262 30.4673 39.0421 31.799 38.4814 32.7804L41.6122 37.8271C41.7991 38.1542 41.7991 38.4346 41.5187 38.6916L38.785 41.4487C38.4814 41.729 38.201 41.7757 37.8972 41.5654L32.8037 38.4346C31.7991 39.0654 30.4907 39.6262 29.0654 39.9767L27.6402 45.771C27.5935 46.1449 27.3832 46.3084 26.986 46.3084H23.0141ZM25 33.9019C29.8832 33.9019 33.9019 29.8832 33.9019 24.9767C33.9019 20.1168 29.8832 16.0981 25 16.0981C20.1168 16.0981 16.0748 20.1168 16.0748 24.9767C16.0748 29.8598 20.0934 33.9019 25 33.9019ZM25 30.2803C22.1028 30.2803 19.7197 27.8972 19.7197 24.9767C19.7197 22.1028 22.1028 19.7197 25 19.7197C27.8505 19.7197 30.2337 22.1028 30.2337 24.9767C30.2337 27.8738 27.8505 30.2803 25 30.2803Z" fill="white" style="fill:white;fill:white;fill-opacity:1;"/>
</g>
<defs>
<clipPath id="clip0_402_2">
<rect width="50" height="49.9766" fill="white" style="fill:white;fill:white;fill-opacity:1;"/>
</clipPath>
</defs>
</svg>
