<?xml version="1.0" encoding="UTF-8"?>
<!--Generator: Apple Native CoreSVG 175.5-->
<!DOCTYPE svg
PUBLIC "-//W3C//DTD SVG 1.1//EN"
       "http://www.w3.org/Graphics/SVG/1.1/DTD/svg11.dtd">
<svg version="1.1" xmlns="http://www.w3.org/2000/svg" xmlns:xlink="http://www.w3.org/1999/xlink" width="54.3359" height="54.3105">
 <g>
  <rect height="54.3105" opacity="0" width="54.3359" x="0" y="0"/>
  <path d="M24.6035 54.2852L29.7324 54.2852C31.6875 54.2852 33.1855 53.0918 33.6426 51.2129L34.7344 46.4648L35.5469 46.1855L39.6855 48.7246C41.3359 49.7656 43.2402 49.5117 44.6367 48.1152L48.1914 44.5859C49.5879 43.1895 49.8418 41.2598 48.8008 39.6348L46.2109 35.5215L46.5156 34.7598L51.2637 33.6426C53.1172 33.1855 54.3359 31.6621 54.3359 29.7324L54.3359 24.7051C54.3359 22.7754 53.1426 21.252 51.2637 20.7949L46.5664 19.6523L46.2363 18.8398L48.8262 14.7266C49.8672 13.1016 49.6133 11.1973 48.2168 9.77539L44.6621 6.2207C43.291 4.84961 41.3867 4.5957 39.7363 5.61133L35.5977 8.15039L34.7344 7.82031L33.6426 3.07227C33.1855 1.19336 31.6875 0 29.7324 0L24.6035 0C22.6484 0 21.1504 1.19336 20.6934 3.07227L19.5762 7.82031L18.7129 8.15039L14.5996 5.61133C12.9492 4.5957 11.0195 4.84961 9.64844 6.2207L6.11914 9.77539C4.72266 11.1973 4.44336 13.1016 5.50977 14.7266L8.07422 18.8398L7.76953 19.6523L3.07227 20.7949C1.19336 21.252 0 22.7754 0 24.7051L0 29.7324C0 31.6621 1.21875 33.1855 3.07227 33.6426L7.82031 34.7598L8.09961 35.5215L5.53516 39.6348C4.46875 41.2598 4.74805 43.1895 6.14453 44.5859L9.67383 48.1152C11.0703 49.5117 13 49.7656 14.6504 48.7246L18.7637 46.1855L19.5762 46.4648L20.6934 51.2129C21.1504 53.0918 22.6484 54.2852 24.6035 54.2852ZM25.0098 50.3242C24.5781 50.3242 24.3496 50.1465 24.2734 49.7402L22.75 43.4434C21.2012 43.0625 19.7539 42.4531 18.6621 41.7676L13.127 45.1699C12.8223 45.3984 12.4922 45.3477 12.1875 45.043L9.19141 42.0469C8.91211 41.7676 8.88672 41.4629 9.08984 41.1074L12.4922 35.623C11.9082 34.5566 11.248 33.1094 10.8418 31.5605L4.54492 30.0625C4.13867 29.9863 3.96094 29.7578 3.96094 29.3262L3.96094 25.0859C3.96094 24.6289 4.11328 24.4258 4.54492 24.3496L10.8164 22.8262C11.2227 21.1758 11.9844 19.6777 12.4414 18.7383L9.06445 13.2539C8.83594 12.873 8.86133 12.5684 9.14062 12.2637L12.1621 9.31836C12.4668 9.01367 12.7461 8.96289 13.127 9.19141L18.6113 12.5176C19.7031 11.9082 21.252 11.2734 22.7754 10.8418L24.2734 4.54492C24.3496 4.13867 24.5781 3.96094 25.0098 3.96094L29.3262 3.96094C29.7578 3.96094 29.9863 4.13867 30.0371 4.54492L31.5859 10.8926C33.1602 11.2988 34.5312 11.9336 35.6738 12.543L41.1836 9.19141C41.5898 8.96289 41.8438 9.01367 42.1738 9.31836L45.1699 12.2637C45.4746 12.5684 45.4746 12.873 45.2461 13.2539L41.8691 18.7383C42.3516 19.6777 43.0879 21.1758 43.4941 22.8262L49.791 24.3496C50.1973 24.4258 50.375 24.6289 50.375 25.0859L50.375 29.3262C50.375 29.7578 50.1719 29.9863 49.791 30.0625L43.4688 31.5605C43.0625 33.1094 42.4277 34.5566 41.8184 35.623L45.2207 41.1074C45.4238 41.4629 45.4238 41.7676 45.1191 42.0469L42.1484 45.043C41.8184 45.3477 41.5137 45.3984 41.1836 45.1699L35.6484 41.7676C34.5566 42.4531 33.1348 43.0625 31.5859 43.4434L30.0371 49.7402C29.9863 50.1465 29.7578 50.3242 29.3262 50.3242ZM27.168 36.8418C32.4746 36.8418 36.8418 32.4746 36.8418 27.1426C36.8418 21.8613 32.4746 17.4941 27.168 17.4941C21.8613 17.4941 17.4688 21.8613 17.4688 27.1426C17.4688 32.4492 21.8359 36.8418 27.168 36.8418ZM27.168 32.9062C24.0195 32.9062 21.4297 30.3164 21.4297 27.1426C21.4297 24.0195 24.0195 21.4297 27.168 21.4297C30.2656 21.4297 32.8555 24.0195 32.8555 27.1426C32.8555 30.291 30.2656 32.9062 27.168 32.9062Z" fill="#ffffff" fill-opacity="0.85"/>
 </g>
</svg>
