<svg width="50" height="51" viewBox="0 0 50 51" fill="none" xmlns="http://www.w3.org/2000/svg">
<g clip-path="url(#clip0_402_11)">
<path d="M8.52798 50.0544H41.4721C47.1754 50.0544 50 47.2299 50 41.635V8.47367C50 2.87888 47.1754 0.0543213 41.4721 0.0543213H8.52798C2.8517 0.0543213 0 2.85171 0 8.47367V41.635C0 47.257 2.8517 50.0544 8.52798 50.0544ZM8.5823 45.6817C5.86638 45.6817 4.37262 44.2423 4.37262 41.4177V8.69094C4.37262 5.86639 5.86638 4.42696 8.5823 4.42696H41.4177C44.1065 4.42696 45.6274 5.86639 45.6274 8.69094V41.4177C45.6274 44.2423 44.1065 45.6817 41.4177 45.6817H8.5823Z" fill="white" style="fill:white;fill:white;fill-opacity:1;"/>
<path d="M33.5143 31.749C34.7095 31.749 35.5242 30.8257 35.5242 29.5763V16.7572C35.5242 15.1548 34.628 14.5302 33.2428 14.5302H20.3695C19.0929 14.5302 18.2781 15.3178 18.2781 16.5128C18.2781 17.7078 19.1201 18.4953 20.4237 18.4953H25.3667L29.3861 18.0608L25.1495 21.9988L15.1276 32.0207C14.7474 32.4008 14.503 32.944 14.503 33.4872C14.503 34.7095 15.2906 35.4971 16.4856 35.4971C17.1374 35.4971 17.6534 35.2525 18.0337 34.8724L28.0283 24.8778L31.9392 20.6952L31.5318 24.9322V29.6307C31.5318 30.907 32.3195 31.749 33.5143 31.749Z" fill="white" style="fill:white;fill:white;fill-opacity:1;"/>
</g>
<defs>
<clipPath id="clip0_402_11">
<rect width="50" height="50.0544" fill="white" style="fill:white;fill:white;fill-opacity:1;"/>
</clipPath>
</defs>
</svg>
