<svg xmlns="http://www.w3.org/2000/svg" xmlns:xlink="http://www.w3.org/1999/xlink" version="1.1" width="3300" height="2200">
 <!--glyph: "", point size: 100.0, font version: "17.1d1e1", template writer version: "65.1"-->
<style>

.hierarchical-1:primary {fill:#262626;}
.SFSymbolsPreview262626 {fill:#262626;}
.hierarchical-2:secondary {fill:#7f7f7f;}
.SFSymbolsPreview7F7F7F {fill:#7f7f7f;}
</style>
 <g id="Notes">
  <rect height="2200" id="artboard" style="fill:white;opacity:1" width="3300" x="0" y="0"/>
  <line style="fill:none;stroke:black;opacity:1;stroke-width:0.5;" x1="263" x2="3036" y1="292" y2="292"/>
  <text style="stroke:none;fill:black;font-family:sans-serif;font-size:13;font-weight:bold;" transform="matrix(1 0 0 1 263 322)">Weight/Scale Variations</text>
  <text style="stroke:none;fill:black;font-family:sans-serif;font-size:13;text-anchor:middle;" transform="matrix(1 0 0 1 559.711 322)">Ultralight</text>
  <text style="stroke:none;fill:black;font-family:sans-serif;font-size:13;text-anchor:middle;" transform="matrix(1 0 0 1 856.422 322)">Thin</text>
  <text style="stroke:none;fill:black;font-family:sans-serif;font-size:13;text-anchor:middle;" transform="matrix(1 0 0 1 1153.13 322)">Light</text>
  <text style="stroke:none;fill:black;font-family:sans-serif;font-size:13;text-anchor:middle;" transform="matrix(1 0 0 1 1449.84 322)">Regular</text>
  <text style="stroke:none;fill:black;font-family:sans-serif;font-size:13;text-anchor:middle;" transform="matrix(1 0 0 1 1746.56 322)">Medium</text>
  <text style="stroke:none;fill:black;font-family:sans-serif;font-size:13;text-anchor:middle;" transform="matrix(1 0 0 1 2043.27 322)">Semibold</text>
  <text style="stroke:none;fill:black;font-family:sans-serif;font-size:13;text-anchor:middle;" transform="matrix(1 0 0 1 2339.98 322)">Bold</text>
  <text style="stroke:none;fill:black;font-family:sans-serif;font-size:13;text-anchor:middle;" transform="matrix(1 0 0 1 2636.69 322)">Heavy</text>
  <text style="stroke:none;fill:black;font-family:sans-serif;font-size:13;text-anchor:middle;" transform="matrix(1 0 0 1 2933.4 322)">Black</text>
  <line style="fill:none;stroke:black;opacity:1;stroke-width:0.5;" x1="263" x2="3036" y1="1903" y2="1903"/>
  <g transform="matrix(1 0 0 1 263 1933)">
   <path d="M9.24805 0.830078Q10.8691 0.830078 12.2949 0.214844Q13.7207-0.400391 14.8096-1.49414Q15.8984-2.58789 16.5186-4.01367Q17.1387-5.43945 17.1387-7.05078Q17.1387-8.66211 16.5186-10.0879Q15.8984-11.5137 14.8047-12.6074Q13.7109-13.7012 12.2852-14.3164Q10.8594-14.9316 9.23828-14.9316Q7.62695-14.9316 6.20117-14.3164Q4.77539-13.7012 3.69141-12.6074Q2.60742-11.5137 1.9873-10.0879Q1.36719-8.66211 1.36719-7.05078Q1.36719-5.43945 1.9873-4.01367Q2.60742-2.58789 3.69629-1.49414Q4.78516-0.400391 6.21094 0.214844Q7.63672 0.830078 9.24805 0.830078ZM9.24805-0.654297Q7.91992-0.654297 6.7627-1.14746Q5.60547-1.64062 4.73145-2.51953Q3.85742-3.39844 3.36426-4.56055Q2.87109-5.72266 2.87109-7.05078Q2.87109-8.37891 3.35938-9.54102Q3.84766-10.7031 4.72168-11.582Q5.5957-12.4609 6.75293-12.9541Q7.91016-13.4473 9.23828-13.4473Q10.5762-13.4473 11.7334-12.9541Q12.8906-12.4609 13.7695-11.582Q14.6484-10.7031 15.1465-9.54102Q15.6445-8.37891 15.6445-7.05078Q15.6445-5.72266 15.1514-4.56055Q14.6582-3.39844 13.7842-2.51953Q12.9102-1.64062 11.748-1.14746Q10.5859-0.654297 9.24805-0.654297ZM5.6543-7.05078Q5.6543-6.72852 5.85938-6.52832Q6.06445-6.32812 6.40625-6.32812L8.51562-6.32812L8.51562-4.20898Q8.51562-3.88672 8.71094-3.67676Q8.90625-3.4668 9.23828-3.4668Q9.56055-3.4668 9.77051-3.67676Q9.98047-3.88672 9.98047-4.20898L9.98047-6.32812L12.0898-6.32812Q12.4219-6.32812 12.627-6.52832Q12.832-6.72852 12.832-7.05078Q12.832-7.38281 12.627-7.58789Q12.4219-7.79297 12.0898-7.79297L9.98047-7.79297L9.98047-9.90234Q9.98047-10.2344 9.77051-10.4443Q9.56055-10.6543 9.23828-10.6543Q8.90625-10.6543 8.71094-10.4443Q8.51562-10.2344 8.51562-9.90234L8.51562-7.79297L6.40625-7.79297Q6.06445-7.79297 5.85938-7.58789Q5.6543-7.38281 5.6543-7.05078Z"/>
  </g>
  <g transform="matrix(1 0 0 1 281.867 1933)">
   <path d="M11.709 2.91016Q13.75 2.91016 15.5518 2.12891Q17.3535 1.34766 18.7305-0.0292969Q20.1074-1.40625 20.8887-3.20801Q21.6699-5.00977 21.6699-7.05078Q21.6699-9.0918 20.8887-10.8936Q20.1074-12.6953 18.7305-14.0723Q17.3535-15.4492 15.5469-16.2305Q13.7402-17.0117 11.6992-17.0117Q9.6582-17.0117 7.85645-16.2305Q6.05469-15.4492 4.68262-14.0723Q3.31055-12.6953 2.5293-10.8936Q1.74805-9.0918 1.74805-7.05078Q1.74805-5.00977 2.5293-3.20801Q3.31055-1.40625 4.6875-0.0292969Q6.06445 1.34766 7.86621 2.12891Q9.66797 2.91016 11.709 2.91016ZM11.709 1.25Q9.98047 1.25 8.47656 0.605469Q6.97266-0.0390625 5.83496-1.17676Q4.69727-2.31445 4.05762-3.81836Q3.41797-5.32227 3.41797-7.05078Q3.41797-8.7793 4.05762-10.2832Q4.69727-11.7871 5.83008-12.9297Q6.96289-14.0723 8.4668-14.7119Q9.9707-15.3516 11.6992-15.3516Q13.4277-15.3516 14.9316-14.7119Q16.4355-14.0723 17.5781-12.9297Q18.7207-11.7871 19.3652-10.2832Q20.0098-8.7793 20.0098-7.05078Q20.0098-5.32227 19.3701-3.81836Q18.7305-2.31445 17.5928-1.17676Q16.4551-0.0390625 14.9463 0.605469Q13.4375 1.25 11.709 1.25ZM7.17773-7.05078Q7.17773-6.69922 7.41211-6.47461Q7.64648-6.25 8.01758-6.25L10.8887-6.25L10.8887-3.36914Q10.8887-2.99805 11.1133-2.76855Q11.3379-2.53906 11.6895-2.53906Q12.0605-2.53906 12.29-2.76855Q12.5195-2.99805 12.5195-3.36914L12.5195-6.25L15.4004-6.25Q15.7715-6.25 16.001-6.47461Q16.2305-6.69922 16.2305-7.05078Q16.2305-7.42188 16.001-7.65137Q15.7715-7.88086 15.4004-7.88086L12.5195-7.88086L12.5195-10.752Q12.5195-11.1328 12.29-11.3623Q12.0605-11.5918 11.6895-11.5918Q11.3379-11.5918 11.1133-11.3574Q10.8887-11.123 10.8887-10.752L10.8887-7.88086L8.01758-7.88086Q7.63672-7.88086 7.40723-7.65137Q7.17773-7.42188 7.17773-7.05078Z"/>
  </g>
  <g transform="matrix(1 0 0 1 305.646 1933)">
   <path d="M14.9707 5.66406Q17.0605 5.66406 18.96 5.01465Q20.8594 4.36523 22.4512 3.19336Q24.043 2.02148 25.2197 0.429688Q26.3965-1.16211 27.0459-3.06641Q27.6953-4.9707 27.6953-7.05078Q27.6953-9.14062 27.0459-11.04Q26.3965-12.9395 25.2197-14.5312Q24.043-16.123 22.4512-17.2998Q20.8594-18.4766 18.9551-19.126Q17.0508-19.7754 14.9609-19.7754Q12.8711-19.7754 10.9717-19.126Q9.07227-18.4766 7.48535-17.2998Q5.89844-16.123 4.72168-14.5312Q3.54492-12.9395 2.90039-11.04Q2.25586-9.14062 2.25586-7.05078Q2.25586-4.9707 2.90527-3.06641Q3.55469-1.16211 4.72656 0.429688Q5.89844 2.02148 7.49023 3.19336Q9.08203 4.36523 10.9814 5.01465Q12.8809 5.66406 14.9707 5.66406ZM14.9707 3.84766Q13.1641 3.84766 11.5283 3.2959Q9.89258 2.74414 8.53516 1.74805Q7.17773 0.751953 6.17676-0.610352Q5.17578-1.97266 4.62891-3.6084Q4.08203-5.24414 4.08203-7.05078Q4.08203-8.86719 4.62891-10.5029Q5.17578-12.1387 6.17188-13.501Q7.16797-14.8633 8.52539-15.8594Q9.88281-16.8555 11.5186-17.4023Q13.1543-17.9492 14.9609-17.9492Q16.7773-17.9492 18.4131-17.4023Q20.0488-16.8555 21.4111-15.8594Q22.7734-14.8633 23.7695-13.501Q24.7656-12.1387 25.3174-10.5029Q25.8691-8.86719 25.8691-7.05078Q25.8789-5.24414 25.332-3.6084Q24.7852-1.97266 23.7842-0.610352Q22.7832 0.751953 21.4209 1.74805Q20.0586 2.74414 18.4229 3.2959Q16.7871 3.84766 14.9707 3.84766ZM9.19922-7.05078Q9.19922-6.66992 9.45801-6.4209Q9.7168-6.17188 10.1172-6.17188L14.0625-6.17188L14.0625-2.2168Q14.0625-1.81641 14.3115-1.55762Q14.5605-1.29883 14.9512-1.29883Q15.3516-1.29883 15.6104-1.55273Q15.8691-1.80664 15.8691-2.2168L15.8691-6.17188L19.8242-6.17188Q20.2246-6.17188 20.4785-6.4209Q20.7324-6.66992 20.7324-7.05078Q20.7324-7.46094 20.4785-7.71484Q20.2246-7.96875 19.8242-7.96875L15.8691-7.96875L15.8691-11.9141Q15.8691-12.3242 15.6104-12.583Q15.3516-12.8418 14.9512-12.8418Q14.5605-12.8418 14.3115-12.583Q14.0625-12.3242 14.0625-11.9141L14.0625-7.96875L10.1172-7.96875Q9.70703-7.96875 9.45312-7.71484Q9.19922-7.46094 9.19922-7.05078Z"/>
  </g>
  <text style="stroke:none;fill:black;font-family:sans-serif;font-size:13;font-weight:bold;" transform="matrix(1 0 0 1 263 1953)">Design Variations</text>
  <text style="stroke:none;fill:black;font-family:sans-serif;font-size:13;" transform="matrix(1 0 0 1 263 1971)">Symbols are supported in up to nine weights and three scales.</text>
  <text style="stroke:none;fill:black;font-family:sans-serif;font-size:13;" transform="matrix(1 0 0 1 263 1989)">For optimal layout with text and other symbols, vertically align</text>
  <text style="stroke:none;fill:black;font-family:sans-serif;font-size:13;" transform="matrix(1 0 0 1 263 2007)">symbols with the adjacent text.</text>
  <line style="fill:none;stroke:#00AEEF;stroke-width:0.5;opacity:1.0;" x1="776" x2="776" y1="1919" y2="1933"/>
  <g transform="matrix(1 0 0 1 776 1933)">
   <path d="M3.31055 0.15625Q3.70117 0.15625 3.91602-0.00976562Q4.13086-0.175781 4.26758-0.585938L5.52734-4.0332L11.2891-4.0332L12.5488-0.585938Q12.6855-0.175781 12.9004-0.00976562Q13.1152 0.15625 13.4961 0.15625Q13.8867 0.15625 14.1162-0.0585938Q14.3457-0.273438 14.3457-0.644531Q14.3457-0.869141 14.2383-1.17188L9.6582-13.3691Q9.48242-13.8184 9.17969-14.043Q8.87695-14.2676 8.4082-14.2676Q7.5-14.2676 7.17773-13.3789L2.59766-1.16211Q2.49023-0.859375 2.49023-0.634766Q2.49023-0.263672 2.70996-0.0537109Q2.92969 0.15625 3.31055 0.15625ZM6.00586-5.51758L8.37891-12.0898L8.42773-12.0898L10.8008-5.51758Z"/>
  </g>
  <line style="fill:none;stroke:#00AEEF;stroke-width:0.5;opacity:1.0;" x1="793.197" x2="793.197" y1="1919" y2="1933"/>
  <text style="stroke:none;fill:black;font-family:sans-serif;font-size:13;font-weight:bold;" transform="matrix(1 0 0 1 776 1953)">Margins</text>
  <text style="stroke:none;fill:black;font-family:sans-serif;font-size:13;" transform="matrix(1 0 0 1 776 1971)">Leading and trailing margins on the left and right side of each symbol</text>
  <text style="stroke:none;fill:black;font-family:sans-serif;font-size:13;" transform="matrix(1 0 0 1 776 1989)">can be adjusted by modifying the x-location of the margin guidelines.</text>
  <text style="stroke:none;fill:black;font-family:sans-serif;font-size:13;" transform="matrix(1 0 0 1 776 2007)">Modifications are automatically applied proportionally to all</text>
  <text style="stroke:none;fill:black;font-family:sans-serif;font-size:13;" transform="matrix(1 0 0 1 776 2025)">scales and weights.</text>
  <g transform="matrix(1 0 0 1 1289 1933)">
   <path d="M2.8418 1.86523L4.54102 3.57422Q5.18555 4.22852 5.90332 4.17969Q6.62109 4.13086 7.31445 3.35938L18.0078-8.42773L17.041-9.4043L6.42578 2.27539Q6.16211 2.57812 5.89355 2.61719Q5.625 2.65625 5.27344 2.30469L4.10156 1.14258Q3.75 0.791016 3.79395 0.522461Q3.83789 0.253906 4.14062-0.0195312L15.6152-10.8203L14.6387-11.7871L3.04688-0.898438Q2.30469-0.214844 2.25098 0.498047Q2.19727 1.21094 2.8418 1.86523ZM9.25781-16.3281Q8.94531-16.0254 8.90625-15.6348Q8.86719-15.2441 9.04297-14.9512Q9.21875-14.6777 9.55566-14.541Q9.89258-14.4043 10.3809-14.5215Q11.4746-14.7754 12.5977-14.7314Q13.7207-14.6875 14.7949-13.9844L14.209-12.5293Q13.9551-11.9043 14.0674-11.4404Q14.1797-10.9766 14.5801-10.5664L16.875-8.25195Q17.2363-7.88086 17.5781-7.82227Q17.9199-7.76367 18.3398-7.8418L19.4043-8.03711L20.0684-7.36328L20.0293-6.80664Q20-6.43555 20.1221-6.12305Q20.2441-5.81055 20.6055-5.44922L21.3672-4.70703Q21.7285-4.3457 22.1533-4.33105Q22.5781-4.31641 22.9297-4.66797L25.8398-7.58789Q26.1914-7.93945 26.1816-8.35449Q26.1719-8.76953 25.8105-9.13086L25.0391-9.89258Q24.6875-10.2539 24.3799-10.3857Q24.0723-10.5176 23.7109-10.4883L23.1348-10.4395L22.4902-11.0742L22.7344-12.1973Q22.832-12.6172 22.6953-12.9834Q22.5586-13.3496 22.1191-13.7891L19.9219-15.9766Q18.6719-17.2168 17.2607-17.8369Q15.8496-18.457 14.4189-18.4814Q12.9883-18.5059 11.665-17.959Q10.3418-17.4121 9.25781-16.3281ZM10.752-15.957Q11.6602-16.6211 12.7002-16.9043Q13.7402-17.1875 14.8047-17.085Q15.8691-16.9824 16.8701-16.5137Q17.8711-16.0449 18.7012-15.2051L21.1328-12.793Q21.3086-12.6172 21.3525-12.4512Q21.3965-12.2852 21.3379-12.0312L21.0156-10.5469L22.5195-9.0625L23.5059-9.12109Q23.6914-9.13086 23.7891-9.09668Q23.8867-9.0625 24.0332-8.91602L24.6094-8.33984L22.168-5.89844L21.5918-6.47461Q21.4453-6.62109 21.4062-6.71875Q21.3672-6.81641 21.377-7.01172L21.4453-7.98828L19.9512-9.47266L18.4277-9.21875Q18.1836-9.16992 18.042-9.2041Q17.9004-9.23828 17.7148-9.41406L15.7129-11.416Q15.5176-11.5918 15.4932-11.7529Q15.4688-11.9141 15.5859-12.1875L16.4648-14.2773Q15.293-15.3711 13.8281-15.791Q12.3633-16.2109 10.8398-15.7617Q10.7227-15.7324 10.6885-15.8057Q10.6543-15.8789 10.752-15.957Z"/>
  </g>
  <text style="stroke:none;fill:black;font-family:sans-serif;font-size:13;font-weight:bold;" transform="matrix(1 0 0 1 1289 1953)">Exporting</text>
  <text style="stroke:none;fill:black;font-family:sans-serif;font-size:13;" transform="matrix(1 0 0 1 1289 1971)">Symbols should be outlined when exporting to ensure the</text>
  <text style="stroke:none;fill:black;font-family:sans-serif;font-size:13;" transform="matrix(1 0 0 1 1289 1989)">design is preserved when submitting to Xcode.</text>
  <text id="template-version" style="stroke:none;fill:black;font-family:sans-serif;font-size:13;text-anchor:end;" transform="matrix(1 0 0 1 3036 1933)">Template v.3.0</text>
  <text style="stroke:none;fill:black;font-family:sans-serif;font-size:13;text-anchor:end;" transform="matrix(1 0 0 1 3036 1951)">Requires Xcode 13 or greater</text>
  <text id="descriptive-name" style="stroke:none;fill:black;font-family:sans-serif;font-size:13;text-anchor:end;" transform="matrix(1 0 0 1 3036 1969)">Symbol moniker: eyeShield</text>
  <text style="stroke:none;fill:black;font-family:sans-serif;font-size:13;text-anchor:end;" transform="matrix(1 0 0 1 3036 1987)">Typeset at 100 points</text>
  <text style="stroke:none;fill:black;font-family:sans-serif;font-size:13;" transform="matrix(1 0 0 1 263 726)">Small</text>
  <text style="stroke:none;fill:black;font-family:sans-serif;font-size:13;" transform="matrix(1 0 0 1 263 1156)">Medium</text>
  <text style="stroke:none;fill:black;font-family:sans-serif;font-size:13;" transform="matrix(1 0 0 1 263 1586)">Large</text>
 </g>
 <g id="Guides">
  <g id="H-reference" style="fill:#27AAE1;stroke:none;" transform="matrix(1 0 0 1 339 696)">
   <path d="M0.976562 0L3.66211 0L29.3457-67.1387L30.0293-67.1387L30.0293-70.459L28.125-70.459ZM11.6699-24.4629L46.9727-24.4629L46.2402-26.709L12.4512-26.709ZM55.127 0L57.7637 0L30.6152-70.459L29.4434-70.459L29.4434-67.1387Z"/>
  </g>
  <line id="Baseline-S" style="fill:none;stroke:#27AAE1;opacity:1;stroke-width:0.5;" x1="263" x2="3036" y1="696" y2="696"/>
  <line id="Capline-S" style="fill:none;stroke:#27AAE1;opacity:1;stroke-width:0.5;" x1="263" x2="3036" y1="625.541" y2="625.541"/>
  <g id="H-reference" style="fill:#27AAE1;stroke:none;" transform="matrix(1 0 0 1 339 1126)">
   <path d="M0.976562 0L3.66211 0L29.3457-67.1387L30.0293-67.1387L30.0293-70.459L28.125-70.459ZM11.6699-24.4629L46.9727-24.4629L46.2402-26.709L12.4512-26.709ZM55.127 0L57.7637 0L30.6152-70.459L29.4434-70.459L29.4434-67.1387Z"/>
  </g>
  <line id="Baseline-M" style="fill:none;stroke:#27AAE1;opacity:1;stroke-width:0.5;" x1="263" x2="3036" y1="1126" y2="1126"/>
  <line id="Capline-M" style="fill:none;stroke:#27AAE1;opacity:1;stroke-width:0.5;" x1="263" x2="3036" y1="1055.54" y2="1055.54"/>
  <g id="H-reference" style="fill:#27AAE1;stroke:none;" transform="matrix(1 0 0 1 339 1556)">
   <path d="M0.976562 0L3.66211 0L29.3457-67.1387L30.0293-67.1387L30.0293-70.459L28.125-70.459ZM11.6699-24.4629L46.9727-24.4629L46.2402-26.709L12.4512-26.709ZM55.127 0L57.7637 0L30.6152-70.459L29.4434-70.459L29.4434-67.1387Z"/>
  </g>
  <line id="Baseline-L" style="fill:none;stroke:#27AAE1;opacity:1;stroke-width:0.5;" x1="263" x2="3036" y1="1556" y2="1556"/>
  <line id="Capline-L" style="fill:none;stroke:#27AAE1;opacity:1;stroke-width:0.5;" x1="263" x2="3036" y1="1485.54" y2="1485.54"/>
  <line id="left-margin-Ultralight-S" style="fill:none;stroke:#00AEEF;stroke-width:0.5;opacity:1.0;" x1="515.351" x2="515.351" y1="600.784" y2="720.121"/>
  <line id="right-margin-Ultralight-S" style="fill:none;stroke:#00AEEF;stroke-width:0.5;opacity:1.0;" x1="604.071" x2="604.071" y1="600.784" y2="720.121"/>
  <line id="left-margin-Regular-S" style="fill:none;stroke:#00AEEF;stroke-width:0.5;opacity:1.0;" x1="1401.75" x2="1401.75" y1="600.784" y2="720.121"/>
  <line id="right-margin-Regular-S" style="fill:none;stroke:#00AEEF;stroke-width:0.5;opacity:1.0;" x1="1497.94" x2="1497.94" y1="600.784" y2="720.121"/>
  <line id="left-margin-Black-S" style="fill:none;stroke:#00AEEF;stroke-width:0.5;opacity:1.0;" x1="2883.2" x2="2883.2" y1="600.784" y2="720.121"/>
  <line id="right-margin-Black-S" style="fill:none;stroke:#00AEEF;stroke-width:0.5;opacity:1.0;" x1="2983.6" x2="2983.6" y1="600.784" y2="720.121"/>
 </g>
 <g id="Symbols">
  <g id="Black-L" transform="matrix(1,0,0,1,2853.3999999999996,1440.77)">

  <path d="M37.73106666666666 24.419733333333333C39.56153333333333 20.66453333333333 43.431333333333335 18 47.9672 18H111.196C115.79999999999998 18 119.71133333333333 20.7426 121.50866666666667 24.5804 122.93 27.614866666666664 124.87 30.382133333333332 127.244 32.75626666666666 129.618 35.130266666666664 132.38533333333334 37.06999999999999 135.41933333333333 38.4912 139.25733333333332 40.288599999999995 142 44.199866666666665 142 48.803799999999995V112.57466666666666C142 117.11666666666667 139.32866666666666 120.99000000000001 135.56599999999997 122.81733333333332 132.676 124.22133333333332 130.03666666666666 126.09866666666666 127.75933333333333 128.37666666666667 125.59866666666666 130.53733333333332 123.79733333333333 133.024 122.41999999999999 135.74066666666664 120.55799999999999 139.41266666666667 116.73066666666666 142 112.26333333333334 142H48.4828C43.946866666666665 142 40.07713333333333 139.33533333333332 38.2466 135.57999999999998 36.84486666666666 132.70466666666664 34.97333333333333 130.07799999999997 32.705533333333335 127.81 30.340933333333332 125.44533333333334 27.586266666666663 123.512 24.565999999999995 122.092 20.735599999999998 120.29199999999999 18 116.38399999999999 18 111.786V47.9672C18 43.431333333333335 20.66453333333333 39.56153333333333 24.419733333333333 37.73106666666666 27.2954 36.32926666666666 29.922066666666666 34.4578 32.18993333333333 32.18993333333333M52.275533333333335 36.666666666666664C50.3334 39.82599999999999 48.0238 42.75473333333333 45.389266666666664 45.389266666666664 42.754666666666665 48.0238 39.82599999999999 50.3334 36.666666666666664 52.275533333333335V107.41199999999999C40.023333333333326 109.41733333333333 43.12753333333333 111.83333333333333 45.9048 114.61066666666666 48.53933333333333 117.24533333333332 50.84893333333333 120.17399999999999 52.791133333333335 123.33333333333333H108.02733333333333C109.894 120.39 112.08333333333333 117.65333333333332 114.56 115.17733333333332 117.20866666666666 112.52866666666667 120.15466666666666 110.208 123.33333333333333 108.25933333333333V53.184599999999996C119.95733333333334 51.17333333333333 116.83599999999998 48.74686666666666 114.04466666666667 45.955533333333335 111.25333333333333 43.16426666666666 108.82666666666667 40.0428 106.81533333333334 36.666666666666664H52.275533333333335ZM37.73106666666666 24.419733333333333C36.32926666666666 27.2954 34.4578 29.922066666666666 32.18993333333333 32.18993333333333Z" class="hierarchical-1:primary "/><path d="M53.33333333333333 66.63319999999999C54.0436 66.43046666666666 54.74313333333333 66.18686666666666 55.42826666666666 65.90306666666666 57.77653333333333 64.93039999999999 59.910133333333334 63.50473333333333 61.70739999999999 61.70746666666666 63.504666666666665 59.9102 64.93033333333332 57.77653333333333 65.90299999999999 55.42826666666666 66.18679999999999 54.74313333333333 66.43046666666666 54.0436 66.63313333333333 53.33333333333333L93.37333333333333 53.33333333333333C93.59066666666666 54.1422 93.86133333333333 54.937866666666665 94.18266666666666 55.715 95.15533333333333 58.063266666666664 96.58133333333333 60.196933333333334 98.37866666666667 61.99419999999999 100.176 63.791466666666665 102.30933333333333 65.21713333333332 104.65799999999999 66.18979999999999 105.31533333333334 66.46213333333333 105.986 66.69733333333333 106.66666666666666 66.89533333333333V94.12866666666667C106.07533333333333 94.31 105.49199999999999 94.51866666666666 104.91866666666665 94.75666666666666 102.57066666666665 95.72933333333333 100.43666666666667 97.15466666666666 98.63933333333333 98.952 96.842 100.74933333333333 95.41666666666666 102.88266666666667 94.44399999999999 105.23133333333334 94.24866666666665 105.70333333333333 94.072 106.18199999999999 93.91466666666668 106.66666666666666H66.78399999999999C66.6048 106.084 66.39806666666667 105.50933333333333 66.16406666666666 104.94466666666666 65.19139999999999 102.596 63.76573333333333 100.46266666666665 61.96846666666666 98.66533333333332 60.1712 96.868 58.03753333333333 95.44266666666665 55.68926666666667 94.47 54.9204 94.15133333333333 54.13333333333333 93.88333333333333 53.33333333333333 93.66733333333333V66.63319999999999Z" class="hierarchical-2:secondary "/></g>
  <g id="Regular-L" transform="matrix(1,0,0,1,1369.845,1440.77)">

  <path d="M37.73106666666666 24.419733333333333C39.56153333333333 20.66453333333333 43.431333333333335 18 47.9672 18H111.196C115.79999999999998 18 119.71133333333333 20.7426 121.50866666666667 24.5804 122.93 27.614866666666664 124.87 30.382133333333332 127.244 32.75626666666666 129.618 35.130266666666664 132.38533333333334 37.06999999999999 135.41933333333333 38.4912 139.25733333333332 40.288599999999995 142 44.199866666666665 142 48.803799999999995V112.57466666666666C142 117.11666666666667 139.32866666666666 120.99000000000001 135.56599999999997 122.81733333333332 132.676 124.22133333333332 130.03666666666666 126.09866666666666 127.75933333333333 128.37666666666667 125.59866666666666 130.53733333333332 123.79733333333333 133.024 122.41999999999999 135.74066666666664 120.55799999999999 139.41266666666667 116.73066666666666 142 112.26333333333334 142H48.4828C43.946866666666665 142 40.07713333333333 139.33533333333332 38.2466 135.57999999999998 36.84486666666666 132.70466666666664 34.97333333333333 130.07799999999997 32.705533333333335 127.81 30.340933333333332 125.44533333333334 27.586266666666663 123.512 24.565999999999995 122.092 20.735599999999998 120.29199999999999 18 116.38399999999999 18 111.786V47.9672C18 43.431333333333335 20.66453333333333 39.56153333333333 24.419733333333333 37.73106666666666 27.2954 36.32926666666666 29.922066666666666 34.4578 32.18993333333333 32.18993333333333M52.275533333333335 36.666666666666664C50.3334 39.82599999999999 48.0238 42.75473333333333 45.389266666666664 45.389266666666664 42.754666666666665 48.0238 39.82599999999999 50.3334 36.666666666666664 52.275533333333335V107.41199999999999C40.023333333333326 109.41733333333333 43.12753333333333 111.83333333333333 45.9048 114.61066666666666 48.53933333333333 117.24533333333332 50.84893333333333 120.17399999999999 52.791133333333335 123.33333333333333H108.02733333333333C109.894 120.39 112.08333333333333 117.65333333333332 114.56 115.17733333333332 117.20866666666666 112.52866666666667 120.15466666666666 110.208 123.33333333333333 108.25933333333333V53.184599999999996C119.95733333333334 51.17333333333333 116.83599999999998 48.74686666666666 114.04466666666667 45.955533333333335 111.25333333333333 43.16426666666666 108.82666666666667 40.0428 106.81533333333334 36.666666666666664H52.275533333333335ZM37.73106666666666 24.419733333333333C36.32926666666666 27.2954 34.4578 29.922066666666666 32.18993333333333 32.18993333333333Z" class="hierarchical-1:primary "/><path d="M53.33333333333333 66.63319999999999C54.0436 66.43046666666666 54.74313333333333 66.18686666666666 55.42826666666666 65.90306666666666 57.77653333333333 64.93039999999999 59.910133333333334 63.50473333333333 61.70739999999999 61.70746666666666 63.504666666666665 59.9102 64.93033333333332 57.77653333333333 65.90299999999999 55.42826666666666 66.18679999999999 54.74313333333333 66.43046666666666 54.0436 66.63313333333333 53.33333333333333L93.37333333333333 53.33333333333333C93.59066666666666 54.1422 93.86133333333333 54.937866666666665 94.18266666666666 55.715 95.15533333333333 58.063266666666664 96.58133333333333 60.196933333333334 98.37866666666667 61.99419999999999 100.176 63.791466666666665 102.30933333333333 65.21713333333332 104.65799999999999 66.18979999999999 105.31533333333334 66.46213333333333 105.986 66.69733333333333 106.66666666666666 66.89533333333333V94.12866666666667C106.07533333333333 94.31 105.49199999999999 94.51866666666666 104.91866666666665 94.75666666666666 102.57066666666665 95.72933333333333 100.43666666666667 97.15466666666666 98.63933333333333 98.952 96.842 100.74933333333333 95.41666666666666 102.88266666666667 94.44399999999999 105.23133333333334 94.24866666666665 105.70333333333333 94.072 106.18199999999999 93.91466666666668 106.66666666666666H66.78399999999999C66.6048 106.084 66.39806666666667 105.50933333333333 66.16406666666666 104.94466666666666 65.19139999999999 102.596 63.76573333333333 100.46266666666665 61.96846666666666 98.66533333333332 60.1712 96.868 58.03753333333333 95.44266666666665 55.68926666666667 94.47 54.9204 94.15133333333333 54.13333333333333 93.88333333333333 53.33333333333333 93.66733333333333V66.63319999999999Z" class="hierarchical-2:secondary "/></g>
  <g id="Ultralight-L" transform="matrix(1,0,0,1,479.711,1440.77)">

  <path d="M37.73106666666666 24.419733333333333C39.56153333333333 20.66453333333333 43.431333333333335 18 47.9672 18H111.196C115.79999999999998 18 119.71133333333333 20.7426 121.50866666666667 24.5804 122.93 27.614866666666664 124.87 30.382133333333332 127.244 32.75626666666666 129.618 35.130266666666664 132.38533333333334 37.06999999999999 135.41933333333333 38.4912 139.25733333333332 40.288599999999995 142 44.199866666666665 142 48.803799999999995V112.57466666666666C142 117.11666666666667 139.32866666666666 120.99000000000001 135.56599999999997 122.81733333333332 132.676 124.22133333333332 130.03666666666666 126.09866666666666 127.75933333333333 128.37666666666667 125.59866666666666 130.53733333333332 123.79733333333333 133.024 122.41999999999999 135.74066666666664 120.55799999999999 139.41266666666667 116.73066666666666 142 112.26333333333334 142H48.4828C43.946866666666665 142 40.07713333333333 139.33533333333332 38.2466 135.57999999999998 36.84486666666666 132.70466666666664 34.97333333333333 130.07799999999997 32.705533333333335 127.81 30.340933333333332 125.44533333333334 27.586266666666663 123.512 24.565999999999995 122.092 20.735599999999998 120.29199999999999 18 116.38399999999999 18 111.786V47.9672C18 43.431333333333335 20.66453333333333 39.56153333333333 24.419733333333333 37.73106666666666 27.2954 36.32926666666666 29.922066666666666 34.4578 32.18993333333333 32.18993333333333M52.275533333333335 36.666666666666664C50.3334 39.82599999999999 48.0238 42.75473333333333 45.389266666666664 45.389266666666664 42.754666666666665 48.0238 39.82599999999999 50.3334 36.666666666666664 52.275533333333335V107.41199999999999C40.023333333333326 109.41733333333333 43.12753333333333 111.83333333333333 45.9048 114.61066666666666 48.53933333333333 117.24533333333332 50.84893333333333 120.17399999999999 52.791133333333335 123.33333333333333H108.02733333333333C109.894 120.39 112.08333333333333 117.65333333333332 114.56 115.17733333333332 117.20866666666666 112.52866666666667 120.15466666666666 110.208 123.33333333333333 108.25933333333333V53.184599999999996C119.95733333333334 51.17333333333333 116.83599999999998 48.74686666666666 114.04466666666667 45.955533333333335 111.25333333333333 43.16426666666666 108.82666666666667 40.0428 106.81533333333334 36.666666666666664H52.275533333333335ZM37.73106666666666 24.419733333333333C36.32926666666666 27.2954 34.4578 29.922066666666666 32.18993333333333 32.18993333333333Z" class="hierarchical-1:primary "/><path d="M53.33333333333333 66.63319999999999C54.0436 66.43046666666666 54.74313333333333 66.18686666666666 55.42826666666666 65.90306666666666 57.77653333333333 64.93039999999999 59.910133333333334 63.50473333333333 61.70739999999999 61.70746666666666 63.504666666666665 59.9102 64.93033333333332 57.77653333333333 65.90299999999999 55.42826666666666 66.18679999999999 54.74313333333333 66.43046666666666 54.0436 66.63313333333333 53.33333333333333L93.37333333333333 53.33333333333333C93.59066666666666 54.1422 93.86133333333333 54.937866666666665 94.18266666666666 55.715 95.15533333333333 58.063266666666664 96.58133333333333 60.196933333333334 98.37866666666667 61.99419999999999 100.176 63.791466666666665 102.30933333333333 65.21713333333332 104.65799999999999 66.18979999999999 105.31533333333334 66.46213333333333 105.986 66.69733333333333 106.66666666666666 66.89533333333333V94.12866666666667C106.07533333333333 94.31 105.49199999999999 94.51866666666666 104.91866666666665 94.75666666666666 102.57066666666665 95.72933333333333 100.43666666666667 97.15466666666666 98.63933333333333 98.952 96.842 100.74933333333333 95.41666666666666 102.88266666666667 94.44399999999999 105.23133333333334 94.24866666666665 105.70333333333333 94.072 106.18199999999999 93.91466666666668 106.66666666666666H66.78399999999999C66.6048 106.084 66.39806666666667 105.50933333333333 66.16406666666666 104.94466666666666 65.19139999999999 102.596 63.76573333333333 100.46266666666665 61.96846666666666 98.66533333333332 60.1712 96.868 58.03753333333333 95.44266666666665 55.68926666666667 94.47 54.9204 94.15133333333333 54.13333333333333 93.88333333333333 53.33333333333333 93.66733333333333V66.63319999999999Z" class="hierarchical-2:secondary "/></g>
  <g id="Black-M" transform="matrix(1,0,0,1,2869.3999999999996,1026.77)">

  <path d="M30.184853333333333 19.535786666666667C31.649226666666667 16.531626666666668 34.745066666666666 14.4 38.37376 14.4H88.9568C92.63999999999999 14.4 95.76906666666667 16.59408 97.20693333333334 19.66432 98.34400000000001 22.09189333333333 99.896 24.305706666666666 101.79520000000001 26.205013333333333 103.69439999999999 28.104213333333334 105.90826666666666 29.656 108.33546666666666 30.79296 111.40586666666667 32.23088 113.6 35.35989333333333 113.6 39.04304V90.05973333333333C113.6 93.69333333333334 111.46293333333332 96.792 108.4528 98.25386666666667 106.1408 99.37706666666666 104.02933333333334 100.87893333333334 102.20746666666668 102.70133333333332 100.47893333333333 104.42986666666667 99.03786666666666 106.4192 97.93599999999999 108.59253333333332 96.4464 111.53013333333332 93.38453333333334 113.6 89.81066666666668 113.6H38.78624C35.157493333333335 113.6 32.061706666666666 111.46826666666665 30.59728 108.464 29.47589333333333 106.16373333333333 27.978666666666665 104.0624 26.164426666666667 102.248 24.272746666666666 100.35626666666667 22.06901333333333 98.8096 19.6528 97.67360000000001 16.58848 96.2336 14.4 93.10719999999999 14.4 89.4288V38.37376C14.4 34.745066666666666 16.531626666666668 31.649226666666667 19.535786666666667 30.184853333333333 21.83632 29.06341333333333 23.937653333333333 27.56624 25.751946666666665 25.751946666666665M41.82042666666667 29.333333333333332C40.26672 31.860799999999998 38.41904 34.203786666666666 36.311413333333334 36.311413333333334 34.20373333333333 38.41904 31.860799999999998 40.26672 29.333333333333332 41.82042666666667V85.9296C32.01866666666666 87.53386666666667 34.502026666666666 89.46666666666667 36.72384 91.68853333333333 38.831466666666664 93.79626666666667 40.67914666666666 96.1392 42.232906666666665 98.66666666666667H86.42186666666666C87.9152 96.312 89.66666666666667 94.12266666666666 91.648 92.14186666666666 93.76693333333333 90.02293333333334 96.12373333333333 88.16640000000001 98.66666666666667 86.60746666666667V42.54768C95.96586666666667 40.93866666666667 93.46879999999999 38.99749333333333 91.23573333333334 36.764426666666665 89.00266666666667 34.53141333333333 87.06133333333334 32.03424 85.45226666666667 29.333333333333332H41.82042666666667ZM30.184853333333333 19.535786666666667C29.06341333333333 21.83632 27.56624 23.937653333333333 25.751946666666665 25.751946666666665Z" class="hierarchical-1:primary "/><path d="M42.666666666666664 53.30656C43.23488 53.144373333333334 43.79450666666666 52.94949333333333 44.34261333333333 52.722453333333334 46.22122666666667 51.94432 47.928106666666665 50.80378666666666 49.365919999999996 49.36597333333333 50.803733333333334 47.928160000000005 51.944266666666664 46.22122666666667 52.7224 44.34261333333333 52.949439999999996 43.79450666666666 53.144373333333334 43.23488 53.30650666666667 42.666666666666664L74.69866666666667 42.666666666666664C74.87253333333334 43.31376 75.08906666666667 43.950293333333335 75.34613333333333 44.572 76.12426666666667 46.45061333333333 77.26506666666667 48.15754666666667 78.70293333333333 49.59536 80.1408 51.03317333333334 81.84746666666666 52.17370666666667 83.7264 52.95184 84.25226666666667 53.16970666666667 84.78880000000001 53.357866666666666 85.33333333333333 53.51626666666667V75.30293333333334C84.86026666666666 75.44800000000001 84.39359999999999 75.61493333333333 83.93493333333332 75.80533333333332 82.05653333333333 76.58346666666667 80.34933333333333 77.72373333333333 78.91146666666667 79.16159999999999 77.4736 80.59946666666666 76.33333333333333 82.30613333333334 75.5552 84.18506666666667 75.39893333333333 84.56266666666667 75.2576 84.9456 75.13173333333334 85.33333333333333H53.4272C53.28384 84.8672 53.11845333333333 84.40746666666666 52.93125333333333 83.95573333333333 52.153119999999994 82.0768 51.012586666666664 80.37013333333333 49.574773333333326 78.93226666666666 48.13696 77.4944 46.43002666666666 76.35413333333332 44.551413333333336 75.57600000000001 43.93632 75.32106666666667 43.306666666666665 75.10666666666665 42.666666666666664 74.93386666666667V53.30656Z" class="hierarchical-2:secondary "/></g>
  <g id="Regular-M" transform="matrix(1,0,0,1,1385.845,1026.77)">

  <path d="M30.184853333333333 19.535786666666667C31.649226666666667 16.531626666666668 34.745066666666666 14.4 38.37376 14.4H88.9568C92.63999999999999 14.4 95.76906666666667 16.59408 97.20693333333334 19.66432 98.34400000000001 22.09189333333333 99.896 24.305706666666666 101.79520000000001 26.205013333333333 103.69439999999999 28.104213333333334 105.90826666666666 29.656 108.33546666666666 30.79296 111.40586666666667 32.23088 113.6 35.35989333333333 113.6 39.04304V90.05973333333333C113.6 93.69333333333334 111.46293333333332 96.792 108.4528 98.25386666666667 106.1408 99.37706666666666 104.02933333333334 100.87893333333334 102.20746666666668 102.70133333333332 100.47893333333333 104.42986666666667 99.03786666666666 106.4192 97.93599999999999 108.59253333333332 96.4464 111.53013333333332 93.38453333333334 113.6 89.81066666666668 113.6H38.78624C35.157493333333335 113.6 32.061706666666666 111.46826666666665 30.59728 108.464 29.47589333333333 106.16373333333333 27.978666666666665 104.0624 26.164426666666667 102.248 24.272746666666666 100.35626666666667 22.06901333333333 98.8096 19.6528 97.67360000000001 16.58848 96.2336 14.4 93.10719999999999 14.4 89.4288V38.37376C14.4 34.745066666666666 16.531626666666668 31.649226666666667 19.535786666666667 30.184853333333333 21.83632 29.06341333333333 23.937653333333333 27.56624 25.751946666666665 25.751946666666665M41.82042666666667 29.333333333333332C40.26672 31.860799999999998 38.41904 34.203786666666666 36.311413333333334 36.311413333333334 34.20373333333333 38.41904 31.860799999999998 40.26672 29.333333333333332 41.82042666666667V85.9296C32.01866666666666 87.53386666666667 34.502026666666666 89.46666666666667 36.72384 91.68853333333333 38.831466666666664 93.79626666666667 40.67914666666666 96.1392 42.232906666666665 98.66666666666667H86.42186666666666C87.9152 96.312 89.66666666666667 94.12266666666666 91.648 92.14186666666666 93.76693333333333 90.02293333333334 96.12373333333333 88.16640000000001 98.66666666666667 86.60746666666667V42.54768C95.96586666666667 40.93866666666667 93.46879999999999 38.99749333333333 91.23573333333334 36.764426666666665 89.00266666666667 34.53141333333333 87.06133333333334 32.03424 85.45226666666667 29.333333333333332H41.82042666666667ZM30.184853333333333 19.535786666666667C29.06341333333333 21.83632 27.56624 23.937653333333333 25.751946666666665 25.751946666666665Z" class="hierarchical-1:primary "/><path d="M42.666666666666664 53.30656C43.23488 53.144373333333334 43.79450666666666 52.94949333333333 44.34261333333333 52.722453333333334 46.22122666666667 51.94432 47.928106666666665 50.80378666666666 49.365919999999996 49.36597333333333 50.803733333333334 47.928160000000005 51.944266666666664 46.22122666666667 52.7224 44.34261333333333 52.949439999999996 43.79450666666666 53.144373333333334 43.23488 53.30650666666667 42.666666666666664L74.69866666666667 42.666666666666664C74.87253333333334 43.31376 75.08906666666667 43.950293333333335 75.34613333333333 44.572 76.12426666666667 46.45061333333333 77.26506666666667 48.15754666666667 78.70293333333333 49.59536 80.1408 51.03317333333334 81.84746666666666 52.17370666666667 83.7264 52.95184 84.25226666666667 53.16970666666667 84.78880000000001 53.357866666666666 85.33333333333333 53.51626666666667V75.30293333333334C84.86026666666666 75.44800000000001 84.39359999999999 75.61493333333333 83.93493333333332 75.80533333333332 82.05653333333333 76.58346666666667 80.34933333333333 77.72373333333333 78.91146666666667 79.16159999999999 77.4736 80.59946666666666 76.33333333333333 82.30613333333334 75.5552 84.18506666666667 75.39893333333333 84.56266666666667 75.2576 84.9456 75.13173333333334 85.33333333333333H53.4272C53.28384 84.8672 53.11845333333333 84.40746666666666 52.93125333333333 83.95573333333333 52.153119999999994 82.0768 51.012586666666664 80.37013333333333 49.574773333333326 78.93226666666666 48.13696 77.4944 46.43002666666666 76.35413333333332 44.551413333333336 75.57600000000001 43.93632 75.32106666666667 43.306666666666665 75.10666666666665 42.666666666666664 74.93386666666667V53.30656Z" class="hierarchical-2:secondary "/></g>
  <g id="Ultralight-M" transform="matrix(1,0,0,1,495.711,1026.77)">

  <path d="M30.184853333333333 19.535786666666667C31.649226666666667 16.531626666666668 34.745066666666666 14.4 38.37376 14.4H88.9568C92.63999999999999 14.4 95.76906666666667 16.59408 97.20693333333334 19.66432 98.34400000000001 22.09189333333333 99.896 24.305706666666666 101.79520000000001 26.205013333333333 103.69439999999999 28.104213333333334 105.90826666666666 29.656 108.33546666666666 30.79296 111.40586666666667 32.23088 113.6 35.35989333333333 113.6 39.04304V90.05973333333333C113.6 93.69333333333334 111.46293333333332 96.792 108.4528 98.25386666666667 106.1408 99.37706666666666 104.02933333333334 100.87893333333334 102.20746666666668 102.70133333333332 100.47893333333333 104.42986666666667 99.03786666666666 106.4192 97.93599999999999 108.59253333333332 96.4464 111.53013333333332 93.38453333333334 113.6 89.81066666666668 113.6H38.78624C35.157493333333335 113.6 32.061706666666666 111.46826666666665 30.59728 108.464 29.47589333333333 106.16373333333333 27.978666666666665 104.0624 26.164426666666667 102.248 24.272746666666666 100.35626666666667 22.06901333333333 98.8096 19.6528 97.67360000000001 16.58848 96.2336 14.4 93.10719999999999 14.4 89.4288V38.37376C14.4 34.745066666666666 16.531626666666668 31.649226666666667 19.535786666666667 30.184853333333333 21.83632 29.06341333333333 23.937653333333333 27.56624 25.751946666666665 25.751946666666665M41.82042666666667 29.333333333333332C40.26672 31.860799999999998 38.41904 34.203786666666666 36.311413333333334 36.311413333333334 34.20373333333333 38.41904 31.860799999999998 40.26672 29.333333333333332 41.82042666666667V85.9296C32.01866666666666 87.53386666666667 34.502026666666666 89.46666666666667 36.72384 91.68853333333333 38.831466666666664 93.79626666666667 40.67914666666666 96.1392 42.232906666666665 98.66666666666667H86.42186666666666C87.9152 96.312 89.66666666666667 94.12266666666666 91.648 92.14186666666666 93.76693333333333 90.02293333333334 96.12373333333333 88.16640000000001 98.66666666666667 86.60746666666667V42.54768C95.96586666666667 40.93866666666667 93.46879999999999 38.99749333333333 91.23573333333334 36.764426666666665 89.00266666666667 34.53141333333333 87.06133333333334 32.03424 85.45226666666667 29.333333333333332H41.82042666666667ZM30.184853333333333 19.535786666666667C29.06341333333333 21.83632 27.56624 23.937653333333333 25.751946666666665 25.751946666666665Z" class="hierarchical-1:primary "/><path d="M42.666666666666664 53.30656C43.23488 53.144373333333334 43.79450666666666 52.94949333333333 44.34261333333333 52.722453333333334 46.22122666666667 51.94432 47.928106666666665 50.80378666666666 49.365919999999996 49.36597333333333 50.803733333333334 47.928160000000005 51.944266666666664 46.22122666666667 52.7224 44.34261333333333 52.949439999999996 43.79450666666666 53.144373333333334 43.23488 53.30650666666667 42.666666666666664L74.69866666666667 42.666666666666664C74.87253333333334 43.31376 75.08906666666667 43.950293333333335 75.34613333333333 44.572 76.12426666666667 46.45061333333333 77.26506666666667 48.15754666666667 78.70293333333333 49.59536 80.1408 51.03317333333334 81.84746666666666 52.17370666666667 83.7264 52.95184 84.25226666666667 53.16970666666667 84.78880000000001 53.357866666666666 85.33333333333333 53.51626666666667V75.30293333333334C84.86026666666666 75.44800000000001 84.39359999999999 75.61493333333333 83.93493333333332 75.80533333333332 82.05653333333333 76.58346666666667 80.34933333333333 77.72373333333333 78.91146666666667 79.16159999999999 77.4736 80.59946666666666 76.33333333333333 82.30613333333334 75.5552 84.18506666666667 75.39893333333333 84.56266666666667 75.2576 84.9456 75.13173333333334 85.33333333333333H53.4272C53.28384 84.8672 53.11845333333333 84.40746666666666 52.93125333333333 83.95573333333333 52.153119999999994 82.0768 51.012586666666664 80.37013333333333 49.574773333333326 78.93226666666666 48.13696 77.4944 46.43002666666666 76.35413333333332 44.551413333333336 75.57600000000001 43.93632 75.32106666666667 43.306666666666665 75.10666666666665 42.666666666666664 74.93386666666667V53.30656Z" class="hierarchical-2:secondary "/></g>
  <g id="Black-S" transform="matrix(1,0,0,1,2885.3999999999996,612.7705000000001)">

  <path d="M22.638640000000002 14.651840000000002C23.73692 12.39872 26.058800000000005 10.8 28.780320000000003 10.8H66.7176C69.48 10.8 71.8268 12.44556 72.90520000000001 14.748240000000003 73.75800000000001 16.568920000000002 74.92200000000001 18.22928 76.3464 19.653760000000002 77.77080000000001 21.07816 79.4312 22.242 81.2516 23.094720000000002 83.5544 24.17316 85.2 26.519920000000003 85.2 29.28228V67.5448C85.2 70.27000000000001 83.5972 72.59400000000001 81.3396 73.6904 79.60560000000001 74.5328 78.022 75.6592 76.6556 77.02600000000001 75.3592 78.32240000000002 74.2784 79.8144 73.452 81.4444 72.3348 83.64760000000001 70.03840000000001 85.2 67.358 85.2H29.08968C26.36812 85.2 24.04628 83.6012 22.947960000000002 81.34800000000001 22.106920000000002 79.6228 20.984 78.0468 19.623320000000003 76.686 18.20456 75.2672 16.551759999999998 74.1072 14.7396 73.2552 12.441360000000001 72.1752 10.8 69.8304 10.8 67.0716V28.780320000000003C10.8 26.058800000000005 12.39872 23.73692 14.651840000000002 22.638640000000002 16.37724 21.79756 17.95324 20.674680000000002 19.31396 19.31396M31.365320000000004 22C30.20004 23.8956 28.814280000000004 25.652839999999998 27.23356 27.23356 25.652800000000003 28.814280000000004 23.8956 30.20004 22 31.365320000000004V64.4472C24.014 65.6504 25.87652 67.10000000000001 27.542880000000004 68.7664 29.1236 70.3472 30.50936 72.1044 31.674680000000002 74H64.8164C65.9364 72.23400000000001 67.25 70.592 68.736 69.1064 70.3252 67.5172 72.0928 66.12480000000001 74 64.9556V31.91076C71.9744 30.704000000000004 70.1016 29.24812 68.4268 27.573320000000002 66.752 25.89856 65.296 24.02568 64.0892 22H31.365320000000004ZM22.638640000000002 14.651840000000002C21.79756 16.37724 20.674680000000002 17.95324 19.31396 19.31396Z" class="hierarchical-1:primary "/><path d="M32 39.97992C32.42616 39.85828000000001 32.84588 39.71212 33.25696 39.54184000000001 34.66592 38.95824 35.94608 38.10284 37.02444 37.024480000000004 38.1028 35.94612 38.958200000000005 34.66592 39.5418 33.25696 39.71208 32.84588 39.85828000000001 32.42616 39.97988000000001 32L56.024 32C56.1544 32.48532 56.3168 32.962720000000004 56.509600000000006 33.429 57.0932 34.83796 57.948800000000006 36.11816 59.02720000000001 37.19652 60.10560000000001 38.27488 61.385600000000004 39.13028 62.7948 39.71388 63.18920000000001 39.877280000000006 63.59160000000001 40.01840000000001 64 40.13720000000001V56.47720000000001C63.6452 56.586000000000006 63.2952 56.7112 62.9512 56.854 61.5424 57.4376 60.262 58.2928 59.183600000000006 59.3712 58.1052 60.449600000000004 57.25 61.729600000000005 56.6664 63.1388 56.5492 63.422000000000004 56.443200000000004 63.7092 56.34880000000001 64H40.07040000000001C39.962880000000006 63.650400000000005 39.838840000000005 63.305600000000005 39.698440000000005 62.966800000000006 39.11484 61.55760000000001 38.259440000000005 60.2776 37.18108 59.1992 36.10272 58.1208 34.82252 57.2656 33.413560000000004 56.68200000000001 32.95224 56.49080000000001 32.480000000000004 56.33 32 56.2004V39.97992Z" class="hierarchical-2:secondary "/></g>
  <g id="Regular-S" transform="matrix(1,0,0,1,1401.845,612.7705000000001)">

  <path d="M22.638640000000002 14.651840000000002C23.73692 12.39872 26.058800000000005 10.8 28.780320000000003 10.8H66.7176C69.48 10.8 71.8268 12.44556 72.90520000000001 14.748240000000003 73.75800000000001 16.568920000000002 74.92200000000001 18.22928 76.3464 19.653760000000002 77.77080000000001 21.07816 79.4312 22.242 81.2516 23.094720000000002 83.5544 24.17316 85.2 26.519920000000003 85.2 29.28228V67.5448C85.2 70.27000000000001 83.5972 72.59400000000001 81.3396 73.6904 79.60560000000001 74.5328 78.022 75.6592 76.6556 77.02600000000001 75.3592 78.32240000000002 74.2784 79.8144 73.452 81.4444 72.3348 83.64760000000001 70.03840000000001 85.2 67.358 85.2H29.08968C26.36812 85.2 24.04628 83.6012 22.947960000000002 81.34800000000001 22.106920000000002 79.6228 20.984 78.0468 19.623320000000003 76.686 18.20456 75.2672 16.551759999999998 74.1072 14.7396 73.2552 12.441360000000001 72.1752 10.8 69.8304 10.8 67.0716V28.780320000000003C10.8 26.058800000000005 12.39872 23.73692 14.651840000000002 22.638640000000002 16.37724 21.79756 17.95324 20.674680000000002 19.31396 19.31396M31.365320000000004 22C30.20004 23.8956 28.814280000000004 25.652839999999998 27.23356 27.23356 25.652800000000003 28.814280000000004 23.8956 30.20004 22 31.365320000000004V64.4472C24.014 65.6504 25.87652 67.10000000000001 27.542880000000004 68.7664 29.1236 70.3472 30.50936 72.1044 31.674680000000002 74H64.8164C65.9364 72.23400000000001 67.25 70.592 68.736 69.1064 70.3252 67.5172 72.0928 66.12480000000001 74 64.9556V31.91076C71.9744 30.704000000000004 70.1016 29.24812 68.4268 27.573320000000002 66.752 25.89856 65.296 24.02568 64.0892 22H31.365320000000004ZM22.638640000000002 14.651840000000002C21.79756 16.37724 20.674680000000002 17.95324 19.31396 19.31396Z" class="hierarchical-1:primary "/><path d="M32 39.97992C32.42616 39.85828000000001 32.84588 39.71212 33.25696 39.54184000000001 34.66592 38.95824 35.94608 38.10284 37.02444 37.024480000000004 38.1028 35.94612 38.958200000000005 34.66592 39.5418 33.25696 39.71208 32.84588 39.85828000000001 32.42616 39.97988000000001 32L56.024 32C56.1544 32.48532 56.3168 32.962720000000004 56.509600000000006 33.429 57.0932 34.83796 57.948800000000006 36.11816 59.02720000000001 37.19652 60.10560000000001 38.27488 61.385600000000004 39.13028 62.7948 39.71388 63.18920000000001 39.877280000000006 63.59160000000001 40.01840000000001 64 40.13720000000001V56.47720000000001C63.6452 56.586000000000006 63.2952 56.7112 62.9512 56.854 61.5424 57.4376 60.262 58.2928 59.183600000000006 59.3712 58.1052 60.449600000000004 57.25 61.729600000000005 56.6664 63.1388 56.5492 63.422000000000004 56.443200000000004 63.7092 56.34880000000001 64H40.07040000000001C39.962880000000006 63.650400000000005 39.838840000000005 63.305600000000005 39.698440000000005 62.966800000000006 39.11484 61.55760000000001 38.259440000000005 60.2776 37.18108 59.1992 36.10272 58.1208 34.82252 57.2656 33.413560000000004 56.68200000000001 32.95224 56.49080000000001 32.480000000000004 56.33 32 56.2004V39.97992Z" class="hierarchical-2:secondary "/></g>
  <g id="Ultralight-S" transform="matrix(1,0,0,1,511.711,612.7705000000001)">

  <path d="M22.638640000000002 14.651840000000002C23.73692 12.39872 26.058800000000005 10.8 28.780320000000003 10.8H66.7176C69.48 10.8 71.8268 12.44556 72.90520000000001 14.748240000000003 73.75800000000001 16.568920000000002 74.92200000000001 18.22928 76.3464 19.653760000000002 77.77080000000001 21.07816 79.4312 22.242 81.2516 23.094720000000002 83.5544 24.17316 85.2 26.519920000000003 85.2 29.28228V67.5448C85.2 70.27000000000001 83.5972 72.59400000000001 81.3396 73.6904 79.60560000000001 74.5328 78.022 75.6592 76.6556 77.02600000000001 75.3592 78.32240000000002 74.2784 79.8144 73.452 81.4444 72.3348 83.64760000000001 70.03840000000001 85.2 67.358 85.2H29.08968C26.36812 85.2 24.04628 83.6012 22.947960000000002 81.34800000000001 22.106920000000002 79.6228 20.984 78.0468 19.623320000000003 76.686 18.20456 75.2672 16.551759999999998 74.1072 14.7396 73.2552 12.441360000000001 72.1752 10.8 69.8304 10.8 67.0716V28.780320000000003C10.8 26.058800000000005 12.39872 23.73692 14.651840000000002 22.638640000000002 16.37724 21.79756 17.95324 20.674680000000002 19.31396 19.31396M31.365320000000004 22C30.20004 23.8956 28.814280000000004 25.652839999999998 27.23356 27.23356 25.652800000000003 28.814280000000004 23.8956 30.20004 22 31.365320000000004V64.4472C24.014 65.6504 25.87652 67.10000000000001 27.542880000000004 68.7664 29.1236 70.3472 30.50936 72.1044 31.674680000000002 74H64.8164C65.9364 72.23400000000001 67.25 70.592 68.736 69.1064 70.3252 67.5172 72.0928 66.12480000000001 74 64.9556V31.91076C71.9744 30.704000000000004 70.1016 29.24812 68.4268 27.573320000000002 66.752 25.89856 65.296 24.02568 64.0892 22H31.365320000000004ZM22.638640000000002 14.651840000000002C21.79756 16.37724 20.674680000000002 17.95324 19.31396 19.31396Z" class="hierarchical-1:primary "/><path d="M32 39.97992C32.42616 39.85828000000001 32.84588 39.71212 33.25696 39.54184000000001 34.66592 38.95824 35.94608 38.10284 37.02444 37.024480000000004 38.1028 35.94612 38.958200000000005 34.66592 39.5418 33.25696 39.71208 32.84588 39.85828000000001 32.42616 39.97988000000001 32L56.024 32C56.1544 32.48532 56.3168 32.962720000000004 56.509600000000006 33.429 57.0932 34.83796 57.948800000000006 36.11816 59.02720000000001 37.19652 60.10560000000001 38.27488 61.385600000000004 39.13028 62.7948 39.71388 63.18920000000001 39.877280000000006 63.59160000000001 40.01840000000001 64 40.13720000000001V56.47720000000001C63.6452 56.586000000000006 63.2952 56.7112 62.9512 56.854 61.5424 57.4376 60.262 58.2928 59.183600000000006 59.3712 58.1052 60.449600000000004 57.25 61.729600000000005 56.6664 63.1388 56.5492 63.422000000000004 56.443200000000004 63.7092 56.34880000000001 64H40.07040000000001C39.962880000000006 63.650400000000005 39.838840000000005 63.305600000000005 39.698440000000005 62.966800000000006 39.11484 61.55760000000001 38.259440000000005 60.2776 37.18108 59.1992 36.10272 58.1208 34.82252 57.2656 33.413560000000004 56.68200000000001 32.95224 56.49080000000001 32.480000000000004 56.33 32 56.2004V39.97992Z" class="hierarchical-2:secondary "/></g>
 </g>
</svg>