<svg xmlns="http://www.w3.org/2000/svg" xmlns:xlink="http://www.w3.org/1999/xlink" version="1.1" width="3300" height="2200">
 <!--glyph: "", point size: 100.0, font version: "17.1d1e1", template writer version: "65.1"-->
<style>

.hierarchical-1:primary {fill:#262626;}
.SFSymbolsPreview262626 {fill:#262626;}
</style>
 <g id="Notes">
  <rect height="2200" id="artboard" style="fill:white;opacity:1" width="3300" x="0" y="0"/>
  <line style="fill:none;stroke:black;opacity:1;stroke-width:0.5;" x1="263" x2="3036" y1="292" y2="292"/>
  <text style="stroke:none;fill:black;font-family:sans-serif;font-size:13;font-weight:bold;" transform="matrix(1 0 0 1 263 322)">Weight/Scale Variations</text>
  <text style="stroke:none;fill:black;font-family:sans-serif;font-size:13;text-anchor:middle;" transform="matrix(1 0 0 1 559.711 322)">Ultralight</text>
  <text style="stroke:none;fill:black;font-family:sans-serif;font-size:13;text-anchor:middle;" transform="matrix(1 0 0 1 856.422 322)">Thin</text>
  <text style="stroke:none;fill:black;font-family:sans-serif;font-size:13;text-anchor:middle;" transform="matrix(1 0 0 1 1153.13 322)">Light</text>
  <text style="stroke:none;fill:black;font-family:sans-serif;font-size:13;text-anchor:middle;" transform="matrix(1 0 0 1 1449.84 322)">Regular</text>
  <text style="stroke:none;fill:black;font-family:sans-serif;font-size:13;text-anchor:middle;" transform="matrix(1 0 0 1 1746.56 322)">Medium</text>
  <text style="stroke:none;fill:black;font-family:sans-serif;font-size:13;text-anchor:middle;" transform="matrix(1 0 0 1 2043.27 322)">Semibold</text>
  <text style="stroke:none;fill:black;font-family:sans-serif;font-size:13;text-anchor:middle;" transform="matrix(1 0 0 1 2339.98 322)">Bold</text>
  <text style="stroke:none;fill:black;font-family:sans-serif;font-size:13;text-anchor:middle;" transform="matrix(1 0 0 1 2636.69 322)">Heavy</text>
  <text style="stroke:none;fill:black;font-family:sans-serif;font-size:13;text-anchor:middle;" transform="matrix(1 0 0 1 2933.4 322)">Black</text>
  <line style="fill:none;stroke:black;opacity:1;stroke-width:0.5;" x1="263" x2="3036" y1="1903" y2="1903"/>
  <g transform="matrix(1 0 0 1 263 1933)">
   <path d="M9.24805 0.830078Q10.8691 0.830078 12.2949 0.214844Q13.7207-0.400391 14.8096-1.49414Q15.8984-2.58789 16.5186-4.01367Q17.1387-5.43945 17.1387-7.05078Q17.1387-8.66211 16.5186-10.0879Q15.8984-11.5137 14.8047-12.6074Q13.7109-13.7012 12.2852-14.3164Q10.8594-14.9316 9.23828-14.9316Q7.62695-14.9316 6.20117-14.3164Q4.77539-13.7012 3.69141-12.6074Q2.60742-11.5137 1.9873-10.0879Q1.36719-8.66211 1.36719-7.05078Q1.36719-5.43945 1.9873-4.01367Q2.60742-2.58789 3.69629-1.49414Q4.78516-0.400391 6.21094 0.214844Q7.63672 0.830078 9.24805 0.830078ZM9.24805-0.654297Q7.91992-0.654297 6.7627-1.14746Q5.60547-1.64062 4.73145-2.51953Q3.85742-3.39844 3.36426-4.56055Q2.87109-5.72266 2.87109-7.05078Q2.87109-8.37891 3.35938-9.54102Q3.84766-10.7031 4.72168-11.582Q5.5957-12.4609 6.75293-12.9541Q7.91016-13.4473 9.23828-13.4473Q10.5762-13.4473 11.7334-12.9541Q12.8906-12.4609 13.7695-11.582Q14.6484-10.7031 15.1465-9.54102Q15.6445-8.37891 15.6445-7.05078Q15.6445-5.72266 15.1514-4.56055Q14.6582-3.39844 13.7842-2.51953Q12.9102-1.64062 11.748-1.14746Q10.5859-0.654297 9.24805-0.654297ZM5.6543-7.05078Q5.6543-6.72852 5.85938-6.52832Q6.06445-6.32812 6.40625-6.32812L8.51562-6.32812L8.51562-4.20898Q8.51562-3.88672 8.71094-3.67676Q8.90625-3.4668 9.23828-3.4668Q9.56055-3.4668 9.77051-3.67676Q9.98047-3.88672 9.98047-4.20898L9.98047-6.32812L12.0898-6.32812Q12.4219-6.32812 12.627-6.52832Q12.832-6.72852 12.832-7.05078Q12.832-7.38281 12.627-7.58789Q12.4219-7.79297 12.0898-7.79297L9.98047-7.79297L9.98047-9.90234Q9.98047-10.2344 9.77051-10.4443Q9.56055-10.6543 9.23828-10.6543Q8.90625-10.6543 8.71094-10.4443Q8.51562-10.2344 8.51562-9.90234L8.51562-7.79297L6.40625-7.79297Q6.06445-7.79297 5.85938-7.58789Q5.6543-7.38281 5.6543-7.05078Z"/>
  </g>
  <g transform="matrix(1 0 0 1 281.867 1933)">
   <path d="M11.709 2.91016Q13.75 2.91016 15.5518 2.12891Q17.3535 1.34766 18.7305-0.0292969Q20.1074-1.40625 20.8887-3.20801Q21.6699-5.00977 21.6699-7.05078Q21.6699-9.0918 20.8887-10.8936Q20.1074-12.6953 18.7305-14.0723Q17.3535-15.4492 15.5469-16.2305Q13.7402-17.0117 11.6992-17.0117Q9.6582-17.0117 7.85645-16.2305Q6.05469-15.4492 4.68262-14.0723Q3.31055-12.6953 2.5293-10.8936Q1.74805-9.0918 1.74805-7.05078Q1.74805-5.00977 2.5293-3.20801Q3.31055-1.40625 4.6875-0.0292969Q6.06445 1.34766 7.86621 2.12891Q9.66797 2.91016 11.709 2.91016ZM11.709 1.25Q9.98047 1.25 8.47656 0.605469Q6.97266-0.0390625 5.83496-1.17676Q4.69727-2.31445 4.05762-3.81836Q3.41797-5.32227 3.41797-7.05078Q3.41797-8.7793 4.05762-10.2832Q4.69727-11.7871 5.83008-12.9297Q6.96289-14.0723 8.4668-14.7119Q9.9707-15.3516 11.6992-15.3516Q13.4277-15.3516 14.9316-14.7119Q16.4355-14.0723 17.5781-12.9297Q18.7207-11.7871 19.3652-10.2832Q20.0098-8.7793 20.0098-7.05078Q20.0098-5.32227 19.3701-3.81836Q18.7305-2.31445 17.5928-1.17676Q16.4551-0.0390625 14.9463 0.605469Q13.4375 1.25 11.709 1.25ZM7.17773-7.05078Q7.17773-6.69922 7.41211-6.47461Q7.64648-6.25 8.01758-6.25L10.8887-6.25L10.8887-3.36914Q10.8887-2.99805 11.1133-2.76855Q11.3379-2.53906 11.6895-2.53906Q12.0605-2.53906 12.29-2.76855Q12.5195-2.99805 12.5195-3.36914L12.5195-6.25L15.4004-6.25Q15.7715-6.25 16.001-6.47461Q16.2305-6.69922 16.2305-7.05078Q16.2305-7.42188 16.001-7.65137Q15.7715-7.88086 15.4004-7.88086L12.5195-7.88086L12.5195-10.752Q12.5195-11.1328 12.29-11.3623Q12.0605-11.5918 11.6895-11.5918Q11.3379-11.5918 11.1133-11.3574Q10.8887-11.123 10.8887-10.752L10.8887-7.88086L8.01758-7.88086Q7.63672-7.88086 7.40723-7.65137Q7.17773-7.42188 7.17773-7.05078Z"/>
  </g>
  <g transform="matrix(1 0 0 1 305.646 1933)">
   <path d="M14.9707 5.66406Q17.0605 5.66406 18.96 5.01465Q20.8594 4.36523 22.4512 3.19336Q24.043 2.02148 25.2197 0.429688Q26.3965-1.16211 27.0459-3.06641Q27.6953-4.9707 27.6953-7.05078Q27.6953-9.14062 27.0459-11.04Q26.3965-12.9395 25.2197-14.5312Q24.043-16.123 22.4512-17.2998Q20.8594-18.4766 18.9551-19.126Q17.0508-19.7754 14.9609-19.7754Q12.8711-19.7754 10.9717-19.126Q9.07227-18.4766 7.48535-17.2998Q5.89844-16.123 4.72168-14.5312Q3.54492-12.9395 2.90039-11.04Q2.25586-9.14062 2.25586-7.05078Q2.25586-4.9707 2.90527-3.06641Q3.55469-1.16211 4.72656 0.429688Q5.89844 2.02148 7.49023 3.19336Q9.08203 4.36523 10.9814 5.01465Q12.8809 5.66406 14.9707 5.66406ZM14.9707 3.84766Q13.1641 3.84766 11.5283 3.2959Q9.89258 2.74414 8.53516 1.74805Q7.17773 0.751953 6.17676-0.610352Q5.17578-1.97266 4.62891-3.6084Q4.08203-5.24414 4.08203-7.05078Q4.08203-8.86719 4.62891-10.5029Q5.17578-12.1387 6.17188-13.501Q7.16797-14.8633 8.52539-15.8594Q9.88281-16.8555 11.5186-17.4023Q13.1543-17.9492 14.9609-17.9492Q16.7773-17.9492 18.4131-17.4023Q20.0488-16.8555 21.4111-15.8594Q22.7734-14.8633 23.7695-13.501Q24.7656-12.1387 25.3174-10.5029Q25.8691-8.86719 25.8691-7.05078Q25.8789-5.24414 25.332-3.6084Q24.7852-1.97266 23.7842-0.610352Q22.7832 0.751953 21.4209 1.74805Q20.0586 2.74414 18.4229 3.2959Q16.7871 3.84766 14.9707 3.84766ZM9.19922-7.05078Q9.19922-6.66992 9.45801-6.4209Q9.7168-6.17188 10.1172-6.17188L14.0625-6.17188L14.0625-2.2168Q14.0625-1.81641 14.3115-1.55762Q14.5605-1.29883 14.9512-1.29883Q15.3516-1.29883 15.6104-1.55273Q15.8691-1.80664 15.8691-2.2168L15.8691-6.17188L19.8242-6.17188Q20.2246-6.17188 20.4785-6.4209Q20.7324-6.66992 20.7324-7.05078Q20.7324-7.46094 20.4785-7.71484Q20.2246-7.96875 19.8242-7.96875L15.8691-7.96875L15.8691-11.9141Q15.8691-12.3242 15.6104-12.583Q15.3516-12.8418 14.9512-12.8418Q14.5605-12.8418 14.3115-12.583Q14.0625-12.3242 14.0625-11.9141L14.0625-7.96875L10.1172-7.96875Q9.70703-7.96875 9.45312-7.71484Q9.19922-7.46094 9.19922-7.05078Z"/>
  </g>
  <text style="stroke:none;fill:black;font-family:sans-serif;font-size:13;font-weight:bold;" transform="matrix(1 0 0 1 263 1953)">Design Variations</text>
  <text style="stroke:none;fill:black;font-family:sans-serif;font-size:13;" transform="matrix(1 0 0 1 263 1971)">Symbols are supported in up to nine weights and three scales.</text>
  <text style="stroke:none;fill:black;font-family:sans-serif;font-size:13;" transform="matrix(1 0 0 1 263 1989)">For optimal layout with text and other symbols, vertically align</text>
  <text style="stroke:none;fill:black;font-family:sans-serif;font-size:13;" transform="matrix(1 0 0 1 263 2007)">symbols with the adjacent text.</text>
  <line style="fill:none;stroke:#00AEEF;stroke-width:0.5;opacity:1.0;" x1="776" x2="776" y1="1919" y2="1933"/>
  <g transform="matrix(1 0 0 1 776 1933)">
   <path d="M3.31055 0.15625Q3.70117 0.15625 3.91602-0.00976562Q4.13086-0.175781 4.26758-0.585938L5.52734-4.0332L11.2891-4.0332L12.5488-0.585938Q12.6855-0.175781 12.9004-0.00976562Q13.1152 0.15625 13.4961 0.15625Q13.8867 0.15625 14.1162-0.0585938Q14.3457-0.273438 14.3457-0.644531Q14.3457-0.869141 14.2383-1.17188L9.6582-13.3691Q9.48242-13.8184 9.17969-14.043Q8.87695-14.2676 8.4082-14.2676Q7.5-14.2676 7.17773-13.3789L2.59766-1.16211Q2.49023-0.859375 2.49023-0.634766Q2.49023-0.263672 2.70996-0.0537109Q2.92969 0.15625 3.31055 0.15625ZM6.00586-5.51758L8.37891-12.0898L8.42773-12.0898L10.8008-5.51758Z"/>
  </g>
  <line style="fill:none;stroke:#00AEEF;stroke-width:0.5;opacity:1.0;" x1="793.197" x2="793.197" y1="1919" y2="1933"/>
  <text style="stroke:none;fill:black;font-family:sans-serif;font-size:13;font-weight:bold;" transform="matrix(1 0 0 1 776 1953)">Margins</text>
  <text style="stroke:none;fill:black;font-family:sans-serif;font-size:13;" transform="matrix(1 0 0 1 776 1971)">Leading and trailing margins on the left and right side of each symbol</text>
  <text style="stroke:none;fill:black;font-family:sans-serif;font-size:13;" transform="matrix(1 0 0 1 776 1989)">can be adjusted by modifying the x-location of the margin guidelines.</text>
  <text style="stroke:none;fill:black;font-family:sans-serif;font-size:13;" transform="matrix(1 0 0 1 776 2007)">Modifications are automatically applied proportionally to all</text>
  <text style="stroke:none;fill:black;font-family:sans-serif;font-size:13;" transform="matrix(1 0 0 1 776 2025)">scales and weights.</text>
  <g transform="matrix(1 0 0 1 1289 1933)">
   <path d="M2.8418 1.86523L4.54102 3.57422Q5.18555 4.22852 5.90332 4.17969Q6.62109 4.13086 7.31445 3.35938L18.0078-8.42773L17.041-9.4043L6.42578 2.27539Q6.16211 2.57812 5.89355 2.61719Q5.625 2.65625 5.27344 2.30469L4.10156 1.14258Q3.75 0.791016 3.79395 0.522461Q3.83789 0.253906 4.14062-0.0195312L15.6152-10.8203L14.6387-11.7871L3.04688-0.898438Q2.30469-0.214844 2.25098 0.498047Q2.19727 1.21094 2.8418 1.86523ZM9.25781-16.3281Q8.94531-16.0254 8.90625-15.6348Q8.86719-15.2441 9.04297-14.9512Q9.21875-14.6777 9.55566-14.541Q9.89258-14.4043 10.3809-14.5215Q11.4746-14.7754 12.5977-14.7314Q13.7207-14.6875 14.7949-13.9844L14.209-12.5293Q13.9551-11.9043 14.0674-11.4404Q14.1797-10.9766 14.5801-10.5664L16.875-8.25195Q17.2363-7.88086 17.5781-7.82227Q17.9199-7.76367 18.3398-7.8418L19.4043-8.03711L20.0684-7.36328L20.0293-6.80664Q20-6.43555 20.1221-6.12305Q20.2441-5.81055 20.6055-5.44922L21.3672-4.70703Q21.7285-4.3457 22.1533-4.33105Q22.5781-4.31641 22.9297-4.66797L25.8398-7.58789Q26.1914-7.93945 26.1816-8.35449Q26.1719-8.76953 25.8105-9.13086L25.0391-9.89258Q24.6875-10.2539 24.3799-10.3857Q24.0723-10.5176 23.7109-10.4883L23.1348-10.4395L22.4902-11.0742L22.7344-12.1973Q22.832-12.6172 22.6953-12.9834Q22.5586-13.3496 22.1191-13.7891L19.9219-15.9766Q18.6719-17.2168 17.2607-17.8369Q15.8496-18.457 14.4189-18.4814Q12.9883-18.5059 11.665-17.959Q10.3418-17.4121 9.25781-16.3281ZM10.752-15.957Q11.6602-16.6211 12.7002-16.9043Q13.7402-17.1875 14.8047-17.085Q15.8691-16.9824 16.8701-16.5137Q17.8711-16.0449 18.7012-15.2051L21.1328-12.793Q21.3086-12.6172 21.3525-12.4512Q21.3965-12.2852 21.3379-12.0312L21.0156-10.5469L22.5195-9.0625L23.5059-9.12109Q23.6914-9.13086 23.7891-9.09668Q23.8867-9.0625 24.0332-8.91602L24.6094-8.33984L22.168-5.89844L21.5918-6.47461Q21.4453-6.62109 21.4062-6.71875Q21.3672-6.81641 21.377-7.01172L21.4453-7.98828L19.9512-9.47266L18.4277-9.21875Q18.1836-9.16992 18.042-9.2041Q17.9004-9.23828 17.7148-9.41406L15.7129-11.416Q15.5176-11.5918 15.4932-11.7529Q15.4688-11.9141 15.5859-12.1875L16.4648-14.2773Q15.293-15.3711 13.8281-15.791Q12.3633-16.2109 10.8398-15.7617Q10.7227-15.7324 10.6885-15.8057Q10.6543-15.8789 10.752-15.957Z"/>
  </g>
  <text style="stroke:none;fill:black;font-family:sans-serif;font-size:13;font-weight:bold;" transform="matrix(1 0 0 1 1289 1953)">Exporting</text>
  <text style="stroke:none;fill:black;font-family:sans-serif;font-size:13;" transform="matrix(1 0 0 1 1289 1971)">Symbols should be outlined when exporting to ensure the</text>
  <text style="stroke:none;fill:black;font-family:sans-serif;font-size:13;" transform="matrix(1 0 0 1 1289 1989)">design is preserved when submitting to Xcode.</text>
  <text id="template-version" style="stroke:none;fill:black;font-family:sans-serif;font-size:13;text-anchor:end;" transform="matrix(1 0 0 1 3036 1933)">Template v.3.0</text>
  <text style="stroke:none;fill:black;font-family:sans-serif;font-size:13;text-anchor:end;" transform="matrix(1 0 0 1 3036 1951)">Requires Xcode 13 or greater</text>
  <text id="descriptive-name" style="stroke:none;fill:black;font-family:sans-serif;font-size:13;text-anchor:end;" transform="matrix(1 0 0 1 3036 1969)">Symbol moniker: dataShiney</text>
  <text style="stroke:none;fill:black;font-family:sans-serif;font-size:13;text-anchor:end;" transform="matrix(1 0 0 1 3036 1987)">Typeset at 100 points</text>
  <text style="stroke:none;fill:black;font-family:sans-serif;font-size:13;" transform="matrix(1 0 0 1 263 726)">Small</text>
  <text style="stroke:none;fill:black;font-family:sans-serif;font-size:13;" transform="matrix(1 0 0 1 263 1156)">Medium</text>
  <text style="stroke:none;fill:black;font-family:sans-serif;font-size:13;" transform="matrix(1 0 0 1 263 1586)">Large</text>
 </g>
 <g id="Guides">
  <g id="H-reference" style="fill:#27AAE1;stroke:none;" transform="matrix(1 0 0 1 339 696)">
   <path d="M0.976562 0L3.66211 0L29.3457-67.1387L30.0293-67.1387L30.0293-70.459L28.125-70.459ZM11.6699-24.4629L46.9727-24.4629L46.2402-26.709L12.4512-26.709ZM55.127 0L57.7637 0L30.6152-70.459L29.4434-70.459L29.4434-67.1387Z"/>
  </g>
  <line id="Baseline-S" style="fill:none;stroke:#27AAE1;opacity:1;stroke-width:0.5;" x1="263" x2="3036" y1="696" y2="696"/>
  <line id="Capline-S" style="fill:none;stroke:#27AAE1;opacity:1;stroke-width:0.5;" x1="263" x2="3036" y1="625.541" y2="625.541"/>
  <g id="H-reference" style="fill:#27AAE1;stroke:none;" transform="matrix(1 0 0 1 339 1126)">
   <path d="M0.976562 0L3.66211 0L29.3457-67.1387L30.0293-67.1387L30.0293-70.459L28.125-70.459ZM11.6699-24.4629L46.9727-24.4629L46.2402-26.709L12.4512-26.709ZM55.127 0L57.7637 0L30.6152-70.459L29.4434-70.459L29.4434-67.1387Z"/>
  </g>
  <line id="Baseline-M" style="fill:none;stroke:#27AAE1;opacity:1;stroke-width:0.5;" x1="263" x2="3036" y1="1126" y2="1126"/>
  <line id="Capline-M" style="fill:none;stroke:#27AAE1;opacity:1;stroke-width:0.5;" x1="263" x2="3036" y1="1055.54" y2="1055.54"/>
  <g id="H-reference" style="fill:#27AAE1;stroke:none;" transform="matrix(1 0 0 1 339 1556)">
   <path d="M0.976562 0L3.66211 0L29.3457-67.1387L30.0293-67.1387L30.0293-70.459L28.125-70.459ZM11.6699-24.4629L46.9727-24.4629L46.2402-26.709L12.4512-26.709ZM55.127 0L57.7637 0L30.6152-70.459L29.4434-70.459L29.4434-67.1387Z"/>
  </g>
  <line id="Baseline-L" style="fill:none;stroke:#27AAE1;opacity:1;stroke-width:0.5;" x1="263" x2="3036" y1="1556" y2="1556"/>
  <line id="Capline-L" style="fill:none;stroke:#27AAE1;opacity:1;stroke-width:0.5;" x1="263" x2="3036" y1="1485.54" y2="1485.54"/>
  <line id="left-margin-Ultralight-S" style="fill:none;stroke:#00AEEF;stroke-width:0.5;opacity:1.0;" x1="515.351" x2="515.351" y1="600.784" y2="720.121"/>
  <line id="right-margin-Ultralight-S" style="fill:none;stroke:#00AEEF;stroke-width:0.5;opacity:1.0;" x1="604.071" x2="604.071" y1="600.784" y2="720.121"/>
  <line id="left-margin-Regular-S" style="fill:none;stroke:#00AEEF;stroke-width:0.5;opacity:1.0;" x1="1401.75" x2="1401.75" y1="600.784" y2="720.121"/>
  <line id="right-margin-Regular-S" style="fill:none;stroke:#00AEEF;stroke-width:0.5;opacity:1.0;" x1="1497.94" x2="1497.94" y1="600.784" y2="720.121"/>
  <line id="left-margin-Black-S" style="fill:none;stroke:#00AEEF;stroke-width:0.5;opacity:1.0;" x1="2883.2" x2="2883.2" y1="600.784" y2="720.121"/>
  <line id="right-margin-Black-S" style="fill:none;stroke:#00AEEF;stroke-width:0.5;opacity:1.0;" x1="2983.6" x2="2983.6" y1="600.784" y2="720.121"/>
 </g>
 <g id="Symbols">
  <g id="Black-L" transform="matrix(1,0,0,1,2853.3999999999996,1440.77)">

  <path d="M46.31386666666666 90.05933333333333L40.77513333333333 98.44333333333333C39.00853333333333 101.118 39.00853333333333 104.588 40.77513333333333 107.26266666666666L46.31386666666666 115.64733333333334 37.92933333333333 110.10866666666666C35.255066666666664 108.342 31.7846 108.342 29.110333333333333 110.10866666666666L20.7258 115.64733333333334 26.264533333333333 107.26266666666666C28.031133333333333 104.588 28.031133333333333 101.118 26.264533333333333 98.44333333333333L20.7258 90.05933333333333 29.110333333333333 95.59799999999998C31.7846 97.36466666666666 35.255066666666664 97.36466666666666 37.92933333333333 95.59799999999998L46.31386666666666 90.05933333333333Z" class="hierarchical-1:primary "/><path d="M45.035133333333334 105.95666666666666C43.473 104.39466666666667 43.473 101.862 45.035133333333334 100.29999999999998L53.90633333333333 91.42866666666666C55.4684 89.86666666666667 58.00106666666666 89.86666666666667 59.5632 91.42866666666666L68.43466666666666 100.29999999999998C69.99666666666667 101.862 69.99666666666667 104.39466666666667 68.43466666666666 105.95666666666666L59.5632 114.82799999999999C58.00106666666666 116.39 55.4684 116.39 53.90633333333333 114.82799999999999L45.035133333333334 105.95666666666666Z" class="hierarchical-1:primary "/><path d="M21.838266666666662 82.75999999999999C20.276133333333334 81.198 20.276133333333334 78.66533333333334 21.838266666666662 77.10333333333332L30.709466666666664 68.232C32.27153333333333 66.66999999999999 34.804199999999994 66.66999999999999 36.36633333333333 68.232L45.23753333333333 77.10333333333332C46.79966666666667 78.66533333333334 46.79966666666667 81.198 45.23753333333333 82.75999999999999L36.36633333333333 91.63133333333333C34.804199999999994 93.19333333333333 32.27153333333333 93.19333333333333 30.709466666666664 91.63133333333333L21.838266666666662 82.75999999999999Z" class="hierarchical-1:primary "/><path d="M91.42866666666666 105.95666666666666C89.86666666666667 104.39466666666667 89.86666666666667 101.862 91.42866666666666 100.29999999999998L100.29999999999998 91.42866666666666C101.862 89.86666666666667 104.39466666666667 89.86666666666667 105.95666666666666 91.42866666666666L114.82799999999999 100.29999999999998C116.39 101.862 116.39 104.39466666666667 114.82799999999999 105.95666666666666L105.95666666666666 114.82799999999999C104.39466666666667 116.39 101.862 116.39 100.29999999999998 114.82799999999999L91.42866666666666 105.95666666666666Z" class="hierarchical-1:primary "/><path d="M68.232 82.75999999999999C66.66999999999999 81.198 66.66999999999999 78.66533333333334 68.232 77.10333333333332L77.10333333333332 68.232C78.66533333333334 66.66999999999999 81.198 66.66999999999999 82.75999999999999 68.232L91.63133333333333 77.10333333333332C93.19333333333333 78.66533333333334 93.19333333333333 81.198 91.63133333333333 82.75999999999999L82.75999999999999 91.63133333333333C81.198 93.19333333333333 78.66533333333334 93.19333333333333 77.10333333333332 91.63133333333333L68.232 82.75999999999999Z" class="hierarchical-1:primary "/><path d="M110.10866666666666 75.77666666666667L115.64733333333334 67.39266666666666 107.26266666666666 72.93133333333333C104.58866666666667 74.698 101.118 74.698 98.44399999999999 72.93133333333333L90.05933333333333 67.39266666666666 95.59799999999998 75.77666666666667C97.36466666666666 78.45133333333334 97.36466666666666 81.92133333333334 95.59799999999998 84.596L92.34799999999998 89.51599999999999C91.60466666666667 90.64133333333332 90.64133333333332 91.60466666666667 89.51599999999999 92.34799999999998L84.596 95.59799999999998C81.922 97.36466666666666 78.45133333333334 97.36466666666666 75.77733333333333 95.59799999999998L67.39266666666666 90.05933333333333 72.93133333333333 98.44333333333333C74.698 101.118 74.698 104.588 72.93133333333333 107.26266666666666L67.39266666666666 115.64733333333334 75.77733333333333 110.10866666666666C78.45133333333334 108.342 81.922 108.342 84.596 110.10866666666666L92.98066666666666 115.64733333333334 87.44200000000001 107.26266666666666C85.67533333333333 104.588 85.67533333333333 101.118 87.44200000000001 98.44333333333333L90.69200000000001 93.524C91.43533333333332 92.39866666666667 92.39866666666667 91.43533333333332 93.524 90.69200000000001L98.44399999999999 87.44200000000001C101.118 85.67533333333333 104.58866666666667 85.67533333333333 107.26266666666666 87.44200000000001L115.64733333333334 92.98066666666666 110.10866666666666 84.596C108.342 81.92133333333334 108.342 78.45133333333334 110.10866666666666 75.77666666666667Z" class="hierarchical-1:primary "/><path d="M114.62599999999999 82.75999999999999C113.06333333333333 81.198 113.06333333333333 78.66533333333334 114.62599999999999 77.10333333333332L123.49666666666667 68.232C125.05933333333333 66.66999999999999 127.592 66.66999999999999 129.154 68.232L138.02533333333332 77.10333333333332C139.58733333333333 78.66533333333334 139.58733333333333 81.198 138.02533333333332 82.75999999999999L129.154 91.63133333333333C127.592 93.19333333333333 125.05933333333333 93.19333333333333 123.49666666666667 91.63133333333333L114.62599999999999 82.75999999999999Z" class="hierarchical-1:primary "/><path d="M114.62599999999999 129.154C113.06333333333333 127.592 113.06333333333333 125.05933333333333 114.62599999999999 123.49666666666667L123.49666666666667 114.62599999999999C125.05933333333333 113.064 127.592 113.064 129.154 114.62599999999999L138.02533333333332 123.49666666666667C139.58733333333333 125.05933333333333 139.58733333333333 127.592 138.02533333333332 129.154L129.154 138.02533333333332C127.592 139.58733333333333 125.05933333333333 139.58733333333333 123.49666666666667 138.02533333333332L114.62599999999999 129.154Z" class="hierarchical-1:primary "/><path d="M68.232 129.154C66.66999999999999 127.592 66.66999999999999 125.05933333333333 68.232 123.49666666666667L77.10333333333332 114.62599999999999C78.66533333333334 113.064 81.198 113.064 82.75999999999999 114.62599999999999L91.63133333333333 123.49666666666667C93.19333333333333 125.05933333333333 93.19333333333333 127.592 91.63133333333333 129.154L82.75999999999999 138.02533333333332C81.198 139.58733333333333 78.66533333333334 139.58733333333333 77.10333333333332 138.02533333333332L68.232 129.154Z" class="hierarchical-1:primary "/><path d="M91.42866666666666 59.5632C89.86666666666667 58.00106666666666 89.86666666666667 55.46846666666666 91.42866666666666 53.90633333333333L100.29999999999998 45.035133333333334C101.862 43.473 104.39466666666667 43.473 105.95666666666666 45.035133333333334L114.82799999999999 53.90633333333333C116.39 55.46846666666666 116.39 58.00106666666666 114.82799999999999 59.5632L105.95666666666666 68.43466666666666C104.39466666666667 69.99666666666667 101.862 69.99666666666667 100.29999999999998 68.43466666666666L91.42866666666666 59.5632Z" class="hierarchical-1:primary "/><path d="M68.232 36.36633333333333C66.66999999999999 34.804199999999994 66.66999999999999 32.27153333333333 68.232 30.709466666666664L77.10333333333332 21.838266666666662C78.66533333333334 20.276133333333334 81.198 20.276133333333334 82.75999999999999 21.838266666666662L91.63133333333333 30.709466666666664C93.19333333333333 32.27153333333333 93.19333333333333 34.804199999999994 91.63133333333333 36.36633333333333L82.75999999999999 45.23753333333333C81.198 46.79966666666667 78.66533333333334 46.79966666666667 77.10333333333332 45.23753333333333L68.232 36.36633333333333Z" class="hierarchical-1:primary "/><path d="M116.314 20.725666666666665L110.77533333333334 29.110266666666664C109.00866666666667 31.784533333333332 109.00866666666667 35.254999999999995 110.77533333333334 37.929199999999994L116.314 46.31379999999999 107.92933333333333 40.77506666666666C105.25533333333334 39.00846666666666 101.78466666666665 39.00846666666666 99.10999999999999 40.77506666666666L90.726 46.31379999999999 96.26466666666666 37.929199999999994C98.03133333333332 35.254999999999995 98.03133333333332 31.784533333333332 96.26466666666666 29.110266666666664L90.726 20.725666666666665 99.10999999999999 26.264466666666667C101.78466666666665 28.031 105.25533333333334 28.031 107.92933333333333 26.264466666666667L116.314 20.725666666666665Z" class="hierarchical-1:primary "/></g>
  <g id="Regular-L" transform="matrix(1,0,0,1,1369.845,1440.77)">

  <path d="M46.31386666666666 90.05933333333333L40.77513333333333 98.44333333333333C39.00853333333333 101.118 39.00853333333333 104.588 40.77513333333333 107.26266666666666L46.31386666666666 115.64733333333334 37.92933333333333 110.10866666666666C35.255066666666664 108.342 31.7846 108.342 29.110333333333333 110.10866666666666L20.7258 115.64733333333334 26.264533333333333 107.26266666666666C28.031133333333333 104.588 28.031133333333333 101.118 26.264533333333333 98.44333333333333L20.7258 90.05933333333333 29.110333333333333 95.59799999999998C31.7846 97.36466666666666 35.255066666666664 97.36466666666666 37.92933333333333 95.59799999999998L46.31386666666666 90.05933333333333Z" class="hierarchical-1:primary "/><path d="M45.035133333333334 105.95666666666666C43.473 104.39466666666667 43.473 101.862 45.035133333333334 100.29999999999998L53.90633333333333 91.42866666666666C55.4684 89.86666666666667 58.00106666666666 89.86666666666667 59.5632 91.42866666666666L68.43466666666666 100.29999999999998C69.99666666666667 101.862 69.99666666666667 104.39466666666667 68.43466666666666 105.95666666666666L59.5632 114.82799999999999C58.00106666666666 116.39 55.4684 116.39 53.90633333333333 114.82799999999999L45.035133333333334 105.95666666666666Z" class="hierarchical-1:primary "/><path d="M21.838266666666662 82.75999999999999C20.276133333333334 81.198 20.276133333333334 78.66533333333334 21.838266666666662 77.10333333333332L30.709466666666664 68.232C32.27153333333333 66.66999999999999 34.804199999999994 66.66999999999999 36.36633333333333 68.232L45.23753333333333 77.10333333333332C46.79966666666667 78.66533333333334 46.79966666666667 81.198 45.23753333333333 82.75999999999999L36.36633333333333 91.63133333333333C34.804199999999994 93.19333333333333 32.27153333333333 93.19333333333333 30.709466666666664 91.63133333333333L21.838266666666662 82.75999999999999Z" class="hierarchical-1:primary "/><path d="M91.42866666666666 105.95666666666666C89.86666666666667 104.39466666666667 89.86666666666667 101.862 91.42866666666666 100.29999999999998L100.29999999999998 91.42866666666666C101.862 89.86666666666667 104.39466666666667 89.86666666666667 105.95666666666666 91.42866666666666L114.82799999999999 100.29999999999998C116.39 101.862 116.39 104.39466666666667 114.82799999999999 105.95666666666666L105.95666666666666 114.82799999999999C104.39466666666667 116.39 101.862 116.39 100.29999999999998 114.82799999999999L91.42866666666666 105.95666666666666Z" class="hierarchical-1:primary "/><path d="M68.232 82.75999999999999C66.66999999999999 81.198 66.66999999999999 78.66533333333334 68.232 77.10333333333332L77.10333333333332 68.232C78.66533333333334 66.66999999999999 81.198 66.66999999999999 82.75999999999999 68.232L91.63133333333333 77.10333333333332C93.19333333333333 78.66533333333334 93.19333333333333 81.198 91.63133333333333 82.75999999999999L82.75999999999999 91.63133333333333C81.198 93.19333333333333 78.66533333333334 93.19333333333333 77.10333333333332 91.63133333333333L68.232 82.75999999999999Z" class="hierarchical-1:primary "/><path d="M110.10866666666666 75.77666666666667L115.64733333333334 67.39266666666666 107.26266666666666 72.93133333333333C104.58866666666667 74.698 101.118 74.698 98.44399999999999 72.93133333333333L90.05933333333333 67.39266666666666 95.59799999999998 75.77666666666667C97.36466666666666 78.45133333333334 97.36466666666666 81.92133333333334 95.59799999999998 84.596L92.34799999999998 89.51599999999999C91.60466666666667 90.64133333333332 90.64133333333332 91.60466666666667 89.51599999999999 92.34799999999998L84.596 95.59799999999998C81.922 97.36466666666666 78.45133333333334 97.36466666666666 75.77733333333333 95.59799999999998L67.39266666666666 90.05933333333333 72.93133333333333 98.44333333333333C74.698 101.118 74.698 104.588 72.93133333333333 107.26266666666666L67.39266666666666 115.64733333333334 75.77733333333333 110.10866666666666C78.45133333333334 108.342 81.922 108.342 84.596 110.10866666666666L92.98066666666666 115.64733333333334 87.44200000000001 107.26266666666666C85.67533333333333 104.588 85.67533333333333 101.118 87.44200000000001 98.44333333333333L90.69200000000001 93.524C91.43533333333332 92.39866666666667 92.39866666666667 91.43533333333332 93.524 90.69200000000001L98.44399999999999 87.44200000000001C101.118 85.67533333333333 104.58866666666667 85.67533333333333 107.26266666666666 87.44200000000001L115.64733333333334 92.98066666666666 110.10866666666666 84.596C108.342 81.92133333333334 108.342 78.45133333333334 110.10866666666666 75.77666666666667Z" class="hierarchical-1:primary "/><path d="M114.62599999999999 82.75999999999999C113.06333333333333 81.198 113.06333333333333 78.66533333333334 114.62599999999999 77.10333333333332L123.49666666666667 68.232C125.05933333333333 66.66999999999999 127.592 66.66999999999999 129.154 68.232L138.02533333333332 77.10333333333332C139.58733333333333 78.66533333333334 139.58733333333333 81.198 138.02533333333332 82.75999999999999L129.154 91.63133333333333C127.592 93.19333333333333 125.05933333333333 93.19333333333333 123.49666666666667 91.63133333333333L114.62599999999999 82.75999999999999Z" class="hierarchical-1:primary "/><path d="M114.62599999999999 129.154C113.06333333333333 127.592 113.06333333333333 125.05933333333333 114.62599999999999 123.49666666666667L123.49666666666667 114.62599999999999C125.05933333333333 113.064 127.592 113.064 129.154 114.62599999999999L138.02533333333332 123.49666666666667C139.58733333333333 125.05933333333333 139.58733333333333 127.592 138.02533333333332 129.154L129.154 138.02533333333332C127.592 139.58733333333333 125.05933333333333 139.58733333333333 123.49666666666667 138.02533333333332L114.62599999999999 129.154Z" class="hierarchical-1:primary "/><path d="M68.232 129.154C66.66999999999999 127.592 66.66999999999999 125.05933333333333 68.232 123.49666666666667L77.10333333333332 114.62599999999999C78.66533333333334 113.064 81.198 113.064 82.75999999999999 114.62599999999999L91.63133333333333 123.49666666666667C93.19333333333333 125.05933333333333 93.19333333333333 127.592 91.63133333333333 129.154L82.75999999999999 138.02533333333332C81.198 139.58733333333333 78.66533333333334 139.58733333333333 77.10333333333332 138.02533333333332L68.232 129.154Z" class="hierarchical-1:primary "/><path d="M91.42866666666666 59.5632C89.86666666666667 58.00106666666666 89.86666666666667 55.46846666666666 91.42866666666666 53.90633333333333L100.29999999999998 45.035133333333334C101.862 43.473 104.39466666666667 43.473 105.95666666666666 45.035133333333334L114.82799999999999 53.90633333333333C116.39 55.46846666666666 116.39 58.00106666666666 114.82799999999999 59.5632L105.95666666666666 68.43466666666666C104.39466666666667 69.99666666666667 101.862 69.99666666666667 100.29999999999998 68.43466666666666L91.42866666666666 59.5632Z" class="hierarchical-1:primary "/><path d="M68.232 36.36633333333333C66.66999999999999 34.804199999999994 66.66999999999999 32.27153333333333 68.232 30.709466666666664L77.10333333333332 21.838266666666662C78.66533333333334 20.276133333333334 81.198 20.276133333333334 82.75999999999999 21.838266666666662L91.63133333333333 30.709466666666664C93.19333333333333 32.27153333333333 93.19333333333333 34.804199999999994 91.63133333333333 36.36633333333333L82.75999999999999 45.23753333333333C81.198 46.79966666666667 78.66533333333334 46.79966666666667 77.10333333333332 45.23753333333333L68.232 36.36633333333333Z" class="hierarchical-1:primary "/><path d="M116.314 20.725666666666665L110.77533333333334 29.110266666666664C109.00866666666667 31.784533333333332 109.00866666666667 35.254999999999995 110.77533333333334 37.929199999999994L116.314 46.31379999999999 107.92933333333333 40.77506666666666C105.25533333333334 39.00846666666666 101.78466666666665 39.00846666666666 99.10999999999999 40.77506666666666L90.726 46.31379999999999 96.26466666666666 37.929199999999994C98.03133333333332 35.254999999999995 98.03133333333332 31.784533333333332 96.26466666666666 29.110266666666664L90.726 20.725666666666665 99.10999999999999 26.264466666666667C101.78466666666665 28.031 105.25533333333334 28.031 107.92933333333333 26.264466666666667L116.314 20.725666666666665Z" class="hierarchical-1:primary "/></g>
  <g id="Ultralight-L" transform="matrix(1,0,0,1,479.711,1440.77)">

  <path d="M46.31386666666666 90.05933333333333L40.77513333333333 98.44333333333333C39.00853333333333 101.118 39.00853333333333 104.588 40.77513333333333 107.26266666666666L46.31386666666666 115.64733333333334 37.92933333333333 110.10866666666666C35.255066666666664 108.342 31.7846 108.342 29.110333333333333 110.10866666666666L20.7258 115.64733333333334 26.264533333333333 107.26266666666666C28.031133333333333 104.588 28.031133333333333 101.118 26.264533333333333 98.44333333333333L20.7258 90.05933333333333 29.110333333333333 95.59799999999998C31.7846 97.36466666666666 35.255066666666664 97.36466666666666 37.92933333333333 95.59799999999998L46.31386666666666 90.05933333333333Z" class="hierarchical-1:primary "/><path d="M45.035133333333334 105.95666666666666C43.473 104.39466666666667 43.473 101.862 45.035133333333334 100.29999999999998L53.90633333333333 91.42866666666666C55.4684 89.86666666666667 58.00106666666666 89.86666666666667 59.5632 91.42866666666666L68.43466666666666 100.29999999999998C69.99666666666667 101.862 69.99666666666667 104.39466666666667 68.43466666666666 105.95666666666666L59.5632 114.82799999999999C58.00106666666666 116.39 55.4684 116.39 53.90633333333333 114.82799999999999L45.035133333333334 105.95666666666666Z" class="hierarchical-1:primary "/><path d="M21.838266666666662 82.75999999999999C20.276133333333334 81.198 20.276133333333334 78.66533333333334 21.838266666666662 77.10333333333332L30.709466666666664 68.232C32.27153333333333 66.66999999999999 34.804199999999994 66.66999999999999 36.36633333333333 68.232L45.23753333333333 77.10333333333332C46.79966666666667 78.66533333333334 46.79966666666667 81.198 45.23753333333333 82.75999999999999L36.36633333333333 91.63133333333333C34.804199999999994 93.19333333333333 32.27153333333333 93.19333333333333 30.709466666666664 91.63133333333333L21.838266666666662 82.75999999999999Z" class="hierarchical-1:primary "/><path d="M91.42866666666666 105.95666666666666C89.86666666666667 104.39466666666667 89.86666666666667 101.862 91.42866666666666 100.29999999999998L100.29999999999998 91.42866666666666C101.862 89.86666666666667 104.39466666666667 89.86666666666667 105.95666666666666 91.42866666666666L114.82799999999999 100.29999999999998C116.39 101.862 116.39 104.39466666666667 114.82799999999999 105.95666666666666L105.95666666666666 114.82799999999999C104.39466666666667 116.39 101.862 116.39 100.29999999999998 114.82799999999999L91.42866666666666 105.95666666666666Z" class="hierarchical-1:primary "/><path d="M68.232 82.75999999999999C66.66999999999999 81.198 66.66999999999999 78.66533333333334 68.232 77.10333333333332L77.10333333333332 68.232C78.66533333333334 66.66999999999999 81.198 66.66999999999999 82.75999999999999 68.232L91.63133333333333 77.10333333333332C93.19333333333333 78.66533333333334 93.19333333333333 81.198 91.63133333333333 82.75999999999999L82.75999999999999 91.63133333333333C81.198 93.19333333333333 78.66533333333334 93.19333333333333 77.10333333333332 91.63133333333333L68.232 82.75999999999999Z" class="hierarchical-1:primary "/><path d="M110.10866666666666 75.77666666666667L115.64733333333334 67.39266666666666 107.26266666666666 72.93133333333333C104.58866666666667 74.698 101.118 74.698 98.44399999999999 72.93133333333333L90.05933333333333 67.39266666666666 95.59799999999998 75.77666666666667C97.36466666666666 78.45133333333334 97.36466666666666 81.92133333333334 95.59799999999998 84.596L92.34799999999998 89.51599999999999C91.60466666666667 90.64133333333332 90.64133333333332 91.60466666666667 89.51599999999999 92.34799999999998L84.596 95.59799999999998C81.922 97.36466666666666 78.45133333333334 97.36466666666666 75.77733333333333 95.59799999999998L67.39266666666666 90.05933333333333 72.93133333333333 98.44333333333333C74.698 101.118 74.698 104.588 72.93133333333333 107.26266666666666L67.39266666666666 115.64733333333334 75.77733333333333 110.10866666666666C78.45133333333334 108.342 81.922 108.342 84.596 110.10866666666666L92.98066666666666 115.64733333333334 87.44200000000001 107.26266666666666C85.67533333333333 104.588 85.67533333333333 101.118 87.44200000000001 98.44333333333333L90.69200000000001 93.524C91.43533333333332 92.39866666666667 92.39866666666667 91.43533333333332 93.524 90.69200000000001L98.44399999999999 87.44200000000001C101.118 85.67533333333333 104.58866666666667 85.67533333333333 107.26266666666666 87.44200000000001L115.64733333333334 92.98066666666666 110.10866666666666 84.596C108.342 81.92133333333334 108.342 78.45133333333334 110.10866666666666 75.77666666666667Z" class="hierarchical-1:primary "/><path d="M114.62599999999999 82.75999999999999C113.06333333333333 81.198 113.06333333333333 78.66533333333334 114.62599999999999 77.10333333333332L123.49666666666667 68.232C125.05933333333333 66.66999999999999 127.592 66.66999999999999 129.154 68.232L138.02533333333332 77.10333333333332C139.58733333333333 78.66533333333334 139.58733333333333 81.198 138.02533333333332 82.75999999999999L129.154 91.63133333333333C127.592 93.19333333333333 125.05933333333333 93.19333333333333 123.49666666666667 91.63133333333333L114.62599999999999 82.75999999999999Z" class="hierarchical-1:primary "/><path d="M114.62599999999999 129.154C113.06333333333333 127.592 113.06333333333333 125.05933333333333 114.62599999999999 123.49666666666667L123.49666666666667 114.62599999999999C125.05933333333333 113.064 127.592 113.064 129.154 114.62599999999999L138.02533333333332 123.49666666666667C139.58733333333333 125.05933333333333 139.58733333333333 127.592 138.02533333333332 129.154L129.154 138.02533333333332C127.592 139.58733333333333 125.05933333333333 139.58733333333333 123.49666666666667 138.02533333333332L114.62599999999999 129.154Z" class="hierarchical-1:primary "/><path d="M68.232 129.154C66.66999999999999 127.592 66.66999999999999 125.05933333333333 68.232 123.49666666666667L77.10333333333332 114.62599999999999C78.66533333333334 113.064 81.198 113.064 82.75999999999999 114.62599999999999L91.63133333333333 123.49666666666667C93.19333333333333 125.05933333333333 93.19333333333333 127.592 91.63133333333333 129.154L82.75999999999999 138.02533333333332C81.198 139.58733333333333 78.66533333333334 139.58733333333333 77.10333333333332 138.02533333333332L68.232 129.154Z" class="hierarchical-1:primary "/><path d="M91.42866666666666 59.5632C89.86666666666667 58.00106666666666 89.86666666666667 55.46846666666666 91.42866666666666 53.90633333333333L100.29999999999998 45.035133333333334C101.862 43.473 104.39466666666667 43.473 105.95666666666666 45.035133333333334L114.82799999999999 53.90633333333333C116.39 55.46846666666666 116.39 58.00106666666666 114.82799999999999 59.5632L105.95666666666666 68.43466666666666C104.39466666666667 69.99666666666667 101.862 69.99666666666667 100.29999999999998 68.43466666666666L91.42866666666666 59.5632Z" class="hierarchical-1:primary "/><path d="M68.232 36.36633333333333C66.66999999999999 34.804199999999994 66.66999999999999 32.27153333333333 68.232 30.709466666666664L77.10333333333332 21.838266666666662C78.66533333333334 20.276133333333334 81.198 20.276133333333334 82.75999999999999 21.838266666666662L91.63133333333333 30.709466666666664C93.19333333333333 32.27153333333333 93.19333333333333 34.804199999999994 91.63133333333333 36.36633333333333L82.75999999999999 45.23753333333333C81.198 46.79966666666667 78.66533333333334 46.79966666666667 77.10333333333332 45.23753333333333L68.232 36.36633333333333Z" class="hierarchical-1:primary "/><path d="M116.314 20.725666666666665L110.77533333333334 29.110266666666664C109.00866666666667 31.784533333333332 109.00866666666667 35.254999999999995 110.77533333333334 37.929199999999994L116.314 46.31379999999999 107.92933333333333 40.77506666666666C105.25533333333334 39.00846666666666 101.78466666666665 39.00846666666666 99.10999999999999 40.77506666666666L90.726 46.31379999999999 96.26466666666666 37.929199999999994C98.03133333333332 35.254999999999995 98.03133333333332 31.784533333333332 96.26466666666666 29.110266666666664L90.726 20.725666666666665 99.10999999999999 26.264466666666667C101.78466666666665 28.031 105.25533333333334 28.031 107.92933333333333 26.264466666666667L116.314 20.725666666666665Z" class="hierarchical-1:primary "/></g>
  <g id="Black-M" transform="matrix(1,0,0,1,2869.3999999999996,1026.77)">

  <path d="M37.051093333333334 72.04746666666666L32.620106666666665 78.75466666666667C31.206826666666664 80.89439999999999 31.206826666666664 83.6704 32.620106666666665 85.81013333333334L37.051093333333334 92.51786666666666 30.343466666666664 88.08693333333333C28.20405333333333 86.67360000000001 25.427680000000002 86.67360000000001 23.28826666666667 88.08693333333333L16.58064 92.51786666666666 21.011626666666665 85.81013333333334C22.42490666666667 83.6704 22.42490666666667 80.89439999999999 21.011626666666665 78.75466666666667L16.58064 72.04746666666666 23.28826666666667 76.4784C25.427680000000002 77.89173333333333 28.20405333333333 77.89173333333333 30.343466666666664 76.4784L37.051093333333334 72.04746666666666Z" class="hierarchical-1:primary "/><path d="M36.028106666666666 84.76533333333333C34.778400000000005 83.51573333333334 34.778400000000005 81.4896 36.028106666666666 80.24L43.12506666666666 73.14293333333333C44.37472 71.89333333333335 46.40085333333333 71.89333333333335 47.650560000000006 73.14293333333333L54.747733333333336 80.24C55.99733333333334 81.4896 55.99733333333334 83.51573333333334 54.747733333333336 84.76533333333333L47.650560000000006 91.8624C46.40085333333333 93.11200000000001 44.37472 93.11200000000001 43.12506666666666 91.8624L36.028106666666666 84.76533333333333Z" class="hierarchical-1:primary "/><path d="M17.470613333333333 66.208C16.220906666666668 64.9584 16.220906666666668 62.93226666666667 17.470613333333333 61.68266666666667L24.567573333333332 54.5856C25.817226666666667 53.336 27.84336 53.336 29.09306666666667 54.5856L36.19002666666667 61.68266666666667C37.439733333333336 62.93226666666667 37.439733333333336 64.9584 36.19002666666667 66.208L29.09306666666667 73.30506666666666C27.84336 74.55466666666666 25.817226666666667 74.55466666666666 24.567573333333332 73.30506666666666L17.470613333333333 66.208Z" class="hierarchical-1:primary "/><path d="M73.14293333333333 84.76533333333333C71.89333333333335 83.51573333333334 71.89333333333335 81.4896 73.14293333333333 80.24L80.24 73.14293333333333C81.4896 71.89333333333335 83.51573333333334 71.89333333333335 84.76533333333333 73.14293333333333L91.8624 80.24C93.11200000000001 81.4896 93.11200000000001 83.51573333333334 91.8624 84.76533333333333L84.76533333333333 91.8624C83.51573333333334 93.11200000000001 81.4896 93.11200000000001 80.24 91.8624L73.14293333333333 84.76533333333333Z" class="hierarchical-1:primary "/><path d="M54.5856 66.208C53.336 64.9584 53.336 62.93226666666667 54.5856 61.68266666666667L61.68266666666667 54.5856C62.93226666666667 53.336 64.9584 53.336 66.208 54.5856L73.30506666666666 61.68266666666667C74.55466666666666 62.93226666666667 74.55466666666666 64.9584 73.30506666666666 66.208L66.208 73.30506666666666C64.9584 74.55466666666666 62.93226666666667 74.55466666666666 61.68266666666667 73.30506666666666L54.5856 66.208Z" class="hierarchical-1:primary "/><path d="M88.08693333333333 60.62133333333333L92.51786666666666 53.91413333333333 85.81013333333334 58.34506666666667C83.67093333333334 59.758399999999995 80.89439999999999 59.758399999999995 78.7552 58.34506666666667L72.04746666666666 53.91413333333333 76.4784 60.62133333333333C77.89173333333333 62.76106666666667 77.89173333333333 65.53706666666668 76.4784 67.6768L73.8784 71.6128C73.28373333333334 72.51306666666666 72.51306666666666 73.28373333333334 71.6128 73.8784L67.6768 76.4784C65.5376 77.89173333333333 62.76106666666667 77.89173333333333 60.62186666666666 76.4784L53.91413333333333 72.04746666666666 58.34506666666667 78.75466666666667C59.758399999999995 80.89439999999999 59.758399999999995 83.6704 58.34506666666667 85.81013333333334L53.91413333333333 92.51786666666666 60.62186666666666 88.08693333333333C62.76106666666667 86.67360000000001 65.5376 86.67360000000001 67.6768 88.08693333333333L74.38453333333334 92.51786666666666 69.95360000000001 85.81013333333334C68.54026666666667 83.6704 68.54026666666667 80.89439999999999 69.95360000000001 78.75466666666667L72.5536 74.8192C73.14826666666666 73.91893333333334 73.91893333333334 73.14826666666666 74.8192 72.5536L78.7552 69.95360000000001C80.89439999999999 68.54026666666667 83.67093333333334 68.54026666666667 85.81013333333334 69.95360000000001L92.51786666666666 74.38453333333334 88.08693333333333 67.6768C86.67360000000001 65.53706666666668 86.67360000000001 62.76106666666667 88.08693333333333 60.62133333333333Z" class="hierarchical-1:primary "/><path d="M91.7008 66.208C90.45066666666666 64.9584 90.45066666666666 62.93226666666667 91.7008 61.68266666666667L98.79733333333334 54.5856C100.04746666666666 53.336 102.0736 53.336 103.3232 54.5856L110.42026666666668 61.68266666666667C111.66986666666666 62.93226666666667 111.66986666666666 64.9584 110.42026666666668 66.208L103.3232 73.30506666666666C102.0736 74.55466666666666 100.04746666666666 74.55466666666666 98.79733333333334 73.30506666666666L91.7008 66.208Z" class="hierarchical-1:primary "/><path d="M91.7008 103.3232C90.45066666666666 102.0736 90.45066666666666 100.04746666666666 91.7008 98.79733333333334L98.79733333333334 91.7008C100.04746666666666 90.4512 102.0736 90.4512 103.3232 91.7008L110.42026666666668 98.79733333333334C111.66986666666666 100.04746666666666 111.66986666666666 102.0736 110.42026666666668 103.3232L103.3232 110.42026666666668C102.0736 111.66986666666666 100.04746666666666 111.66986666666666 98.79733333333334 110.42026666666668L91.7008 103.3232Z" class="hierarchical-1:primary "/><path d="M54.5856 103.3232C53.336 102.0736 53.336 100.04746666666666 54.5856 98.79733333333334L61.68266666666667 91.7008C62.93226666666667 90.4512 64.9584 90.4512 66.208 91.7008L73.30506666666666 98.79733333333334C74.55466666666666 100.04746666666666 74.55466666666666 102.0736 73.30506666666666 103.3232L66.208 110.42026666666668C64.9584 111.66986666666666 62.93226666666667 111.66986666666666 61.68266666666667 110.42026666666668L54.5856 103.3232Z" class="hierarchical-1:primary "/><path d="M73.14293333333333 47.650560000000006C71.89333333333335 46.40085333333333 71.89333333333335 44.37477333333333 73.14293333333333 43.12506666666666L80.24 36.028106666666666C81.4896 34.778400000000005 83.51573333333334 34.778400000000005 84.76533333333333 36.028106666666666L91.8624 43.12506666666666C93.11200000000001 44.37477333333333 93.11200000000001 46.40085333333333 91.8624 47.650560000000006L84.76533333333333 54.747733333333336C83.51573333333334 55.99733333333334 81.4896 55.99733333333334 80.24 54.747733333333336L73.14293333333333 47.650560000000006Z" class="hierarchical-1:primary "/><path d="M54.5856 29.09306666666667C53.336 27.84336 53.336 25.817226666666667 54.5856 24.567573333333332L61.68266666666667 17.470613333333333C62.93226666666667 16.220906666666668 64.9584 16.220906666666668 66.208 17.470613333333333L73.30506666666666 24.567573333333332C74.55466666666666 25.817226666666667 74.55466666666666 27.84336 73.30506666666666 29.09306666666667L66.208 36.19002666666667C64.9584 37.439733333333336 62.93226666666667 37.439733333333336 61.68266666666667 36.19002666666667L54.5856 29.09306666666667Z" class="hierarchical-1:primary "/><path d="M93.0512 16.58053333333333L88.62026666666667 23.28821333333333C87.20693333333334 25.427626666666665 87.20693333333334 28.204 88.62026666666667 30.34336L93.0512 37.05103999999999 86.34346666666667 32.62005333333333C84.20426666666667 31.206773333333334 81.42773333333332 31.206773333333334 79.288 32.62005333333333L72.5808 37.05103999999999 77.01173333333332 30.34336C78.42506666666667 28.204 78.42506666666667 25.427626666666665 77.01173333333332 23.28821333333333L72.5808 16.58053333333333 79.288 21.011573333333335C81.42773333333332 22.4248 84.20426666666667 22.4248 86.34346666666667 21.011573333333335L93.0512 16.58053333333333Z" class="hierarchical-1:primary "/></g>
  <g id="Regular-M" transform="matrix(1,0,0,1,1385.845,1026.77)">

  <path d="M37.051093333333334 72.04746666666666L32.620106666666665 78.75466666666667C31.206826666666664 80.89439999999999 31.206826666666664 83.6704 32.620106666666665 85.81013333333334L37.051093333333334 92.51786666666666 30.343466666666664 88.08693333333333C28.20405333333333 86.67360000000001 25.427680000000002 86.67360000000001 23.28826666666667 88.08693333333333L16.58064 92.51786666666666 21.011626666666665 85.81013333333334C22.42490666666667 83.6704 22.42490666666667 80.89439999999999 21.011626666666665 78.75466666666667L16.58064 72.04746666666666 23.28826666666667 76.4784C25.427680000000002 77.89173333333333 28.20405333333333 77.89173333333333 30.343466666666664 76.4784L37.051093333333334 72.04746666666666Z" class="hierarchical-1:primary "/><path d="M36.028106666666666 84.76533333333333C34.778400000000005 83.51573333333334 34.778400000000005 81.4896 36.028106666666666 80.24L43.12506666666666 73.14293333333333C44.37472 71.89333333333335 46.40085333333333 71.89333333333335 47.650560000000006 73.14293333333333L54.747733333333336 80.24C55.99733333333334 81.4896 55.99733333333334 83.51573333333334 54.747733333333336 84.76533333333333L47.650560000000006 91.8624C46.40085333333333 93.11200000000001 44.37472 93.11200000000001 43.12506666666666 91.8624L36.028106666666666 84.76533333333333Z" class="hierarchical-1:primary "/><path d="M17.470613333333333 66.208C16.220906666666668 64.9584 16.220906666666668 62.93226666666667 17.470613333333333 61.68266666666667L24.567573333333332 54.5856C25.817226666666667 53.336 27.84336 53.336 29.09306666666667 54.5856L36.19002666666667 61.68266666666667C37.439733333333336 62.93226666666667 37.439733333333336 64.9584 36.19002666666667 66.208L29.09306666666667 73.30506666666666C27.84336 74.55466666666666 25.817226666666667 74.55466666666666 24.567573333333332 73.30506666666666L17.470613333333333 66.208Z" class="hierarchical-1:primary "/><path d="M73.14293333333333 84.76533333333333C71.89333333333335 83.51573333333334 71.89333333333335 81.4896 73.14293333333333 80.24L80.24 73.14293333333333C81.4896 71.89333333333335 83.51573333333334 71.89333333333335 84.76533333333333 73.14293333333333L91.8624 80.24C93.11200000000001 81.4896 93.11200000000001 83.51573333333334 91.8624 84.76533333333333L84.76533333333333 91.8624C83.51573333333334 93.11200000000001 81.4896 93.11200000000001 80.24 91.8624L73.14293333333333 84.76533333333333Z" class="hierarchical-1:primary "/><path d="M54.5856 66.208C53.336 64.9584 53.336 62.93226666666667 54.5856 61.68266666666667L61.68266666666667 54.5856C62.93226666666667 53.336 64.9584 53.336 66.208 54.5856L73.30506666666666 61.68266666666667C74.55466666666666 62.93226666666667 74.55466666666666 64.9584 73.30506666666666 66.208L66.208 73.30506666666666C64.9584 74.55466666666666 62.93226666666667 74.55466666666666 61.68266666666667 73.30506666666666L54.5856 66.208Z" class="hierarchical-1:primary "/><path d="M88.08693333333333 60.62133333333333L92.51786666666666 53.91413333333333 85.81013333333334 58.34506666666667C83.67093333333334 59.758399999999995 80.89439999999999 59.758399999999995 78.7552 58.34506666666667L72.04746666666666 53.91413333333333 76.4784 60.62133333333333C77.89173333333333 62.76106666666667 77.89173333333333 65.53706666666668 76.4784 67.6768L73.8784 71.6128C73.28373333333334 72.51306666666666 72.51306666666666 73.28373333333334 71.6128 73.8784L67.6768 76.4784C65.5376 77.89173333333333 62.76106666666667 77.89173333333333 60.62186666666666 76.4784L53.91413333333333 72.04746666666666 58.34506666666667 78.75466666666667C59.758399999999995 80.89439999999999 59.758399999999995 83.6704 58.34506666666667 85.81013333333334L53.91413333333333 92.51786666666666 60.62186666666666 88.08693333333333C62.76106666666667 86.67360000000001 65.5376 86.67360000000001 67.6768 88.08693333333333L74.38453333333334 92.51786666666666 69.95360000000001 85.81013333333334C68.54026666666667 83.6704 68.54026666666667 80.89439999999999 69.95360000000001 78.75466666666667L72.5536 74.8192C73.14826666666666 73.91893333333334 73.91893333333334 73.14826666666666 74.8192 72.5536L78.7552 69.95360000000001C80.89439999999999 68.54026666666667 83.67093333333334 68.54026666666667 85.81013333333334 69.95360000000001L92.51786666666666 74.38453333333334 88.08693333333333 67.6768C86.67360000000001 65.53706666666668 86.67360000000001 62.76106666666667 88.08693333333333 60.62133333333333Z" class="hierarchical-1:primary "/><path d="M91.7008 66.208C90.45066666666666 64.9584 90.45066666666666 62.93226666666667 91.7008 61.68266666666667L98.79733333333334 54.5856C100.04746666666666 53.336 102.0736 53.336 103.3232 54.5856L110.42026666666668 61.68266666666667C111.66986666666666 62.93226666666667 111.66986666666666 64.9584 110.42026666666668 66.208L103.3232 73.30506666666666C102.0736 74.55466666666666 100.04746666666666 74.55466666666666 98.79733333333334 73.30506666666666L91.7008 66.208Z" class="hierarchical-1:primary "/><path d="M91.7008 103.3232C90.45066666666666 102.0736 90.45066666666666 100.04746666666666 91.7008 98.79733333333334L98.79733333333334 91.7008C100.04746666666666 90.4512 102.0736 90.4512 103.3232 91.7008L110.42026666666668 98.79733333333334C111.66986666666666 100.04746666666666 111.66986666666666 102.0736 110.42026666666668 103.3232L103.3232 110.42026666666668C102.0736 111.66986666666666 100.04746666666666 111.66986666666666 98.79733333333334 110.42026666666668L91.7008 103.3232Z" class="hierarchical-1:primary "/><path d="M54.5856 103.3232C53.336 102.0736 53.336 100.04746666666666 54.5856 98.79733333333334L61.68266666666667 91.7008C62.93226666666667 90.4512 64.9584 90.4512 66.208 91.7008L73.30506666666666 98.79733333333334C74.55466666666666 100.04746666666666 74.55466666666666 102.0736 73.30506666666666 103.3232L66.208 110.42026666666668C64.9584 111.66986666666666 62.93226666666667 111.66986666666666 61.68266666666667 110.42026666666668L54.5856 103.3232Z" class="hierarchical-1:primary "/><path d="M73.14293333333333 47.650560000000006C71.89333333333335 46.40085333333333 71.89333333333335 44.37477333333333 73.14293333333333 43.12506666666666L80.24 36.028106666666666C81.4896 34.778400000000005 83.51573333333334 34.778400000000005 84.76533333333333 36.028106666666666L91.8624 43.12506666666666C93.11200000000001 44.37477333333333 93.11200000000001 46.40085333333333 91.8624 47.650560000000006L84.76533333333333 54.747733333333336C83.51573333333334 55.99733333333334 81.4896 55.99733333333334 80.24 54.747733333333336L73.14293333333333 47.650560000000006Z" class="hierarchical-1:primary "/><path d="M54.5856 29.09306666666667C53.336 27.84336 53.336 25.817226666666667 54.5856 24.567573333333332L61.68266666666667 17.470613333333333C62.93226666666667 16.220906666666668 64.9584 16.220906666666668 66.208 17.470613333333333L73.30506666666666 24.567573333333332C74.55466666666666 25.817226666666667 74.55466666666666 27.84336 73.30506666666666 29.09306666666667L66.208 36.19002666666667C64.9584 37.439733333333336 62.93226666666667 37.439733333333336 61.68266666666667 36.19002666666667L54.5856 29.09306666666667Z" class="hierarchical-1:primary "/><path d="M93.0512 16.58053333333333L88.62026666666667 23.28821333333333C87.20693333333334 25.427626666666665 87.20693333333334 28.204 88.62026666666667 30.34336L93.0512 37.05103999999999 86.34346666666667 32.62005333333333C84.20426666666667 31.206773333333334 81.42773333333332 31.206773333333334 79.288 32.62005333333333L72.5808 37.05103999999999 77.01173333333332 30.34336C78.42506666666667 28.204 78.42506666666667 25.427626666666665 77.01173333333332 23.28821333333333L72.5808 16.58053333333333 79.288 21.011573333333335C81.42773333333332 22.4248 84.20426666666667 22.4248 86.34346666666667 21.011573333333335L93.0512 16.58053333333333Z" class="hierarchical-1:primary "/></g>
  <g id="Ultralight-M" transform="matrix(1,0,0,1,495.711,1026.77)">

  <path d="M37.051093333333334 72.04746666666666L32.620106666666665 78.75466666666667C31.206826666666664 80.89439999999999 31.206826666666664 83.6704 32.620106666666665 85.81013333333334L37.051093333333334 92.51786666666666 30.343466666666664 88.08693333333333C28.20405333333333 86.67360000000001 25.427680000000002 86.67360000000001 23.28826666666667 88.08693333333333L16.58064 92.51786666666666 21.011626666666665 85.81013333333334C22.42490666666667 83.6704 22.42490666666667 80.89439999999999 21.011626666666665 78.75466666666667L16.58064 72.04746666666666 23.28826666666667 76.4784C25.427680000000002 77.89173333333333 28.20405333333333 77.89173333333333 30.343466666666664 76.4784L37.051093333333334 72.04746666666666Z" class="hierarchical-1:primary "/><path d="M36.028106666666666 84.76533333333333C34.778400000000005 83.51573333333334 34.778400000000005 81.4896 36.028106666666666 80.24L43.12506666666666 73.14293333333333C44.37472 71.89333333333335 46.40085333333333 71.89333333333335 47.650560000000006 73.14293333333333L54.747733333333336 80.24C55.99733333333334 81.4896 55.99733333333334 83.51573333333334 54.747733333333336 84.76533333333333L47.650560000000006 91.8624C46.40085333333333 93.11200000000001 44.37472 93.11200000000001 43.12506666666666 91.8624L36.028106666666666 84.76533333333333Z" class="hierarchical-1:primary "/><path d="M17.470613333333333 66.208C16.220906666666668 64.9584 16.220906666666668 62.93226666666667 17.470613333333333 61.68266666666667L24.567573333333332 54.5856C25.817226666666667 53.336 27.84336 53.336 29.09306666666667 54.5856L36.19002666666667 61.68266666666667C37.439733333333336 62.93226666666667 37.439733333333336 64.9584 36.19002666666667 66.208L29.09306666666667 73.30506666666666C27.84336 74.55466666666666 25.817226666666667 74.55466666666666 24.567573333333332 73.30506666666666L17.470613333333333 66.208Z" class="hierarchical-1:primary "/><path d="M73.14293333333333 84.76533333333333C71.89333333333335 83.51573333333334 71.89333333333335 81.4896 73.14293333333333 80.24L80.24 73.14293333333333C81.4896 71.89333333333335 83.51573333333334 71.89333333333335 84.76533333333333 73.14293333333333L91.8624 80.24C93.11200000000001 81.4896 93.11200000000001 83.51573333333334 91.8624 84.76533333333333L84.76533333333333 91.8624C83.51573333333334 93.11200000000001 81.4896 93.11200000000001 80.24 91.8624L73.14293333333333 84.76533333333333Z" class="hierarchical-1:primary "/><path d="M54.5856 66.208C53.336 64.9584 53.336 62.93226666666667 54.5856 61.68266666666667L61.68266666666667 54.5856C62.93226666666667 53.336 64.9584 53.336 66.208 54.5856L73.30506666666666 61.68266666666667C74.55466666666666 62.93226666666667 74.55466666666666 64.9584 73.30506666666666 66.208L66.208 73.30506666666666C64.9584 74.55466666666666 62.93226666666667 74.55466666666666 61.68266666666667 73.30506666666666L54.5856 66.208Z" class="hierarchical-1:primary "/><path d="M88.08693333333333 60.62133333333333L92.51786666666666 53.91413333333333 85.81013333333334 58.34506666666667C83.67093333333334 59.758399999999995 80.89439999999999 59.758399999999995 78.7552 58.34506666666667L72.04746666666666 53.91413333333333 76.4784 60.62133333333333C77.89173333333333 62.76106666666667 77.89173333333333 65.53706666666668 76.4784 67.6768L73.8784 71.6128C73.28373333333334 72.51306666666666 72.51306666666666 73.28373333333334 71.6128 73.8784L67.6768 76.4784C65.5376 77.89173333333333 62.76106666666667 77.89173333333333 60.62186666666666 76.4784L53.91413333333333 72.04746666666666 58.34506666666667 78.75466666666667C59.758399999999995 80.89439999999999 59.758399999999995 83.6704 58.34506666666667 85.81013333333334L53.91413333333333 92.51786666666666 60.62186666666666 88.08693333333333C62.76106666666667 86.67360000000001 65.5376 86.67360000000001 67.6768 88.08693333333333L74.38453333333334 92.51786666666666 69.95360000000001 85.81013333333334C68.54026666666667 83.6704 68.54026666666667 80.89439999999999 69.95360000000001 78.75466666666667L72.5536 74.8192C73.14826666666666 73.91893333333334 73.91893333333334 73.14826666666666 74.8192 72.5536L78.7552 69.95360000000001C80.89439999999999 68.54026666666667 83.67093333333334 68.54026666666667 85.81013333333334 69.95360000000001L92.51786666666666 74.38453333333334 88.08693333333333 67.6768C86.67360000000001 65.53706666666668 86.67360000000001 62.76106666666667 88.08693333333333 60.62133333333333Z" class="hierarchical-1:primary "/><path d="M91.7008 66.208C90.45066666666666 64.9584 90.45066666666666 62.93226666666667 91.7008 61.68266666666667L98.79733333333334 54.5856C100.04746666666666 53.336 102.0736 53.336 103.3232 54.5856L110.42026666666668 61.68266666666667C111.66986666666666 62.93226666666667 111.66986666666666 64.9584 110.42026666666668 66.208L103.3232 73.30506666666666C102.0736 74.55466666666666 100.04746666666666 74.55466666666666 98.79733333333334 73.30506666666666L91.7008 66.208Z" class="hierarchical-1:primary "/><path d="M91.7008 103.3232C90.45066666666666 102.0736 90.45066666666666 100.04746666666666 91.7008 98.79733333333334L98.79733333333334 91.7008C100.04746666666666 90.4512 102.0736 90.4512 103.3232 91.7008L110.42026666666668 98.79733333333334C111.66986666666666 100.04746666666666 111.66986666666666 102.0736 110.42026666666668 103.3232L103.3232 110.42026666666668C102.0736 111.66986666666666 100.04746666666666 111.66986666666666 98.79733333333334 110.42026666666668L91.7008 103.3232Z" class="hierarchical-1:primary "/><path d="M54.5856 103.3232C53.336 102.0736 53.336 100.04746666666666 54.5856 98.79733333333334L61.68266666666667 91.7008C62.93226666666667 90.4512 64.9584 90.4512 66.208 91.7008L73.30506666666666 98.79733333333334C74.55466666666666 100.04746666666666 74.55466666666666 102.0736 73.30506666666666 103.3232L66.208 110.42026666666668C64.9584 111.66986666666666 62.93226666666667 111.66986666666666 61.68266666666667 110.42026666666668L54.5856 103.3232Z" class="hierarchical-1:primary "/><path d="M73.14293333333333 47.650560000000006C71.89333333333335 46.40085333333333 71.89333333333335 44.37477333333333 73.14293333333333 43.12506666666666L80.24 36.028106666666666C81.4896 34.778400000000005 83.51573333333334 34.778400000000005 84.76533333333333 36.028106666666666L91.8624 43.12506666666666C93.11200000000001 44.37477333333333 93.11200000000001 46.40085333333333 91.8624 47.650560000000006L84.76533333333333 54.747733333333336C83.51573333333334 55.99733333333334 81.4896 55.99733333333334 80.24 54.747733333333336L73.14293333333333 47.650560000000006Z" class="hierarchical-1:primary "/><path d="M54.5856 29.09306666666667C53.336 27.84336 53.336 25.817226666666667 54.5856 24.567573333333332L61.68266666666667 17.470613333333333C62.93226666666667 16.220906666666668 64.9584 16.220906666666668 66.208 17.470613333333333L73.30506666666666 24.567573333333332C74.55466666666666 25.817226666666667 74.55466666666666 27.84336 73.30506666666666 29.09306666666667L66.208 36.19002666666667C64.9584 37.439733333333336 62.93226666666667 37.439733333333336 61.68266666666667 36.19002666666667L54.5856 29.09306666666667Z" class="hierarchical-1:primary "/><path d="M93.0512 16.58053333333333L88.62026666666667 23.28821333333333C87.20693333333334 25.427626666666665 87.20693333333334 28.204 88.62026666666667 30.34336L93.0512 37.05103999999999 86.34346666666667 32.62005333333333C84.20426666666667 31.206773333333334 81.42773333333332 31.206773333333334 79.288 32.62005333333333L72.5808 37.05103999999999 77.01173333333332 30.34336C78.42506666666667 28.204 78.42506666666667 25.427626666666665 77.01173333333332 23.28821333333333L72.5808 16.58053333333333 79.288 21.011573333333335C81.42773333333332 22.4248 84.20426666666667 22.4248 86.34346666666667 21.011573333333335L93.0512 16.58053333333333Z" class="hierarchical-1:primary "/></g>
  <g id="Black-S" transform="matrix(1,0,0,1,2885.3999999999996,612.7705000000001)">

  <path d="M27.78832 54.0356L24.46508 59.066C23.40512 60.6708 23.40512 62.75280000000001 24.46508 64.3576L27.78832 69.3884 22.7576 66.0652C21.15304 65.0052 19.070760000000003 65.0052 17.4662 66.0652L12.43548 69.3884 15.75872 64.3576C16.81868 62.75280000000001 16.81868 60.6708 15.75872 59.066L12.43548 54.0356 17.4662 57.3588C19.070760000000003 58.418800000000005 21.15304 58.418800000000005 22.7576 57.3588L27.78832 54.0356Z" class="hierarchical-1:primary "/><path d="M27.02108 63.574000000000005C26.083800000000004 62.63680000000001 26.083800000000004 61.117200000000004 27.02108 60.18L32.3438 54.857200000000006C33.281040000000004 53.92000000000001 34.80064 53.92000000000001 35.73792 54.857200000000006L41.0608 60.18C41.998000000000005 61.117200000000004 41.998000000000005 62.63680000000001 41.0608 63.574000000000005L35.73792 68.8968C34.80064 69.834 33.281040000000004 69.834 32.3438 68.8968L27.02108 63.574000000000005Z" class="hierarchical-1:primary "/><path d="M13.10296 49.656000000000006C12.165680000000002 48.7188 12.165680000000002 47.199200000000005 13.10296 46.262L18.42568 40.9392C19.362920000000003 40.002 20.88252 40.002 21.8198 40.9392L27.142520000000005 46.262C28.079800000000002 47.199200000000005 28.079800000000002 48.7188 27.142520000000005 49.656000000000006L21.8198 54.97880000000001C20.88252 55.916 19.362920000000003 55.916 18.42568 54.97880000000001L13.10296 49.656000000000006Z" class="hierarchical-1:primary "/><path d="M54.857200000000006 63.574000000000005C53.92000000000001 62.63680000000001 53.92000000000001 61.117200000000004 54.857200000000006 60.18L60.18 54.857200000000006C61.117200000000004 53.92000000000001 62.63680000000001 53.92000000000001 63.574000000000005 54.857200000000006L68.8968 60.18C69.834 61.117200000000004 69.834 62.63680000000001 68.8968 63.574000000000005L63.574000000000005 68.8968C62.63680000000001 69.834 61.117200000000004 69.834 60.18 68.8968L54.857200000000006 63.574000000000005Z" class="hierarchical-1:primary "/><path d="M40.9392 49.656000000000006C40.002 48.7188 40.002 47.199200000000005 40.9392 46.262L46.262 40.9392C47.199200000000005 40.002 48.7188 40.002 49.656000000000006 40.9392L54.97880000000001 46.262C55.916 47.199200000000005 55.916 48.7188 54.97880000000001 49.656000000000006L49.656000000000006 54.97880000000001C48.7188 55.916 47.199200000000005 55.916 46.262 54.97880000000001L40.9392 49.656000000000006Z" class="hierarchical-1:primary "/><path d="M66.0652 45.46600000000001L69.3884 40.4356 64.3576 43.75880000000001C62.75320000000001 44.8188 60.6708 44.8188 59.0664 43.75880000000001L54.0356 40.4356 57.3588 45.46600000000001C58.418800000000005 47.070800000000006 58.418800000000005 49.152800000000006 57.3588 50.757600000000004L55.4088 53.7096C54.96280000000001 54.3848 54.3848 54.96280000000001 53.7096 55.4088L50.757600000000004 57.3588C49.1532 58.418800000000005 47.070800000000006 58.418800000000005 45.4664 57.3588L40.4356 54.0356 43.75880000000001 59.066C44.8188 60.6708 44.8188 62.75280000000001 43.75880000000001 64.3576L40.4356 69.3884 45.4664 66.0652C47.070800000000006 65.0052 49.1532 65.0052 50.757600000000004 66.0652L55.7884 69.3884 52.46520000000001 64.3576C51.40520000000001 62.75280000000001 51.40520000000001 60.6708 52.46520000000001 59.066L54.415200000000006 56.1144C54.8612 55.43920000000001 55.43920000000001 54.8612 56.1144 54.415200000000006L59.0664 52.46520000000001C60.6708 51.40520000000001 62.75320000000001 51.40520000000001 64.3576 52.46520000000001L69.3884 55.7884 66.0652 50.757600000000004C65.0052 49.152800000000006 65.0052 47.070800000000006 66.0652 45.46600000000001Z" class="hierarchical-1:primary "/><path d="M68.7756 49.656000000000006C67.83800000000001 48.7188 67.83800000000001 47.199200000000005 68.7756 46.262L74.098 40.9392C75.0356 40.002 76.5552 40.002 77.4924 40.9392L82.8152 46.262C83.75240000000001 47.199200000000005 83.75240000000001 48.7188 82.8152 49.656000000000006L77.4924 54.97880000000001C76.5552 55.916 75.0356 55.916 74.098 54.97880000000001L68.7756 49.656000000000006Z" class="hierarchical-1:primary "/><path d="M68.7756 77.4924C67.83800000000001 76.5552 67.83800000000001 75.0356 68.7756 74.098L74.098 68.7756C75.0356 67.83840000000001 76.5552 67.83840000000001 77.4924 68.7756L82.8152 74.098C83.75240000000001 75.0356 83.75240000000001 76.5552 82.8152 77.4924L77.4924 82.8152C76.5552 83.75240000000001 75.0356 83.75240000000001 74.098 82.8152L68.7756 77.4924Z" class="hierarchical-1:primary "/><path d="M40.9392 77.4924C40.002 76.5552 40.002 75.0356 40.9392 74.098L46.262 68.7756C47.199200000000005 67.83840000000001 48.7188 67.83840000000001 49.656000000000006 68.7756L54.97880000000001 74.098C55.916 75.0356 55.916 76.5552 54.97880000000001 77.4924L49.656000000000006 82.8152C48.7188 83.75240000000001 47.199200000000005 83.75240000000001 46.262 82.8152L40.9392 77.4924Z" class="hierarchical-1:primary "/><path d="M54.857200000000006 35.73792C53.92000000000001 34.80064 53.92000000000001 33.281079999999996 54.857200000000006 32.3438L60.18 27.02108C61.117200000000004 26.083800000000004 62.63680000000001 26.083800000000004 63.574000000000005 27.02108L68.8968 32.3438C69.834 33.281079999999996 69.834 34.80064 68.8968 35.73792L63.574000000000005 41.0608C62.63680000000001 41.998000000000005 61.117200000000004 41.998000000000005 60.18 41.0608L54.857200000000006 35.73792Z" class="hierarchical-1:primary "/><path d="M40.9392 21.8198C40.002 20.88252 40.002 19.362920000000003 40.9392 18.42568L46.262 13.10296C47.199200000000005 12.165680000000002 48.7188 12.165680000000002 49.656000000000006 13.10296L54.97880000000001 18.42568C55.916 19.362920000000003 55.916 20.88252 54.97880000000001 21.8198L49.656000000000006 27.142520000000005C48.7188 28.079800000000002 47.199200000000005 28.079800000000002 46.262 27.142520000000005L40.9392 21.8198Z" class="hierarchical-1:primary "/><path d="M69.78840000000001 12.435400000000001L66.46520000000001 17.46616C65.40520000000001 19.07072 65.40520000000001 21.153000000000002 66.46520000000001 22.75752L69.78840000000001 27.78828 64.75760000000001 24.465040000000002C63.153200000000005 23.40508 61.0708 23.40508 59.466 24.465040000000002L54.4356 27.78828 57.7588 22.75752C58.8188 21.153000000000002 58.8188 19.07072 57.7588 17.46616L54.4356 12.435400000000001 59.466 15.758680000000002C61.0708 16.8186 63.153200000000005 16.8186 64.75760000000001 15.758680000000002L69.78840000000001 12.435400000000001Z" class="hierarchical-1:primary "/></g>
  <g id="Regular-S" transform="matrix(1,0,0,1,1401.845,612.7705000000001)">

  <path d="M27.78832 54.0356L24.46508 59.066C23.40512 60.6708 23.40512 62.75280000000001 24.46508 64.3576L27.78832 69.3884 22.7576 66.0652C21.15304 65.0052 19.070760000000003 65.0052 17.4662 66.0652L12.43548 69.3884 15.75872 64.3576C16.81868 62.75280000000001 16.81868 60.6708 15.75872 59.066L12.43548 54.0356 17.4662 57.3588C19.070760000000003 58.418800000000005 21.15304 58.418800000000005 22.7576 57.3588L27.78832 54.0356Z" class="hierarchical-1:primary "/><path d="M27.02108 63.574000000000005C26.083800000000004 62.63680000000001 26.083800000000004 61.117200000000004 27.02108 60.18L32.3438 54.857200000000006C33.281040000000004 53.92000000000001 34.80064 53.92000000000001 35.73792 54.857200000000006L41.0608 60.18C41.998000000000005 61.117200000000004 41.998000000000005 62.63680000000001 41.0608 63.574000000000005L35.73792 68.8968C34.80064 69.834 33.281040000000004 69.834 32.3438 68.8968L27.02108 63.574000000000005Z" class="hierarchical-1:primary "/><path d="M13.10296 49.656000000000006C12.165680000000002 48.7188 12.165680000000002 47.199200000000005 13.10296 46.262L18.42568 40.9392C19.362920000000003 40.002 20.88252 40.002 21.8198 40.9392L27.142520000000005 46.262C28.079800000000002 47.199200000000005 28.079800000000002 48.7188 27.142520000000005 49.656000000000006L21.8198 54.97880000000001C20.88252 55.916 19.362920000000003 55.916 18.42568 54.97880000000001L13.10296 49.656000000000006Z" class="hierarchical-1:primary "/><path d="M54.857200000000006 63.574000000000005C53.92000000000001 62.63680000000001 53.92000000000001 61.117200000000004 54.857200000000006 60.18L60.18 54.857200000000006C61.117200000000004 53.92000000000001 62.63680000000001 53.92000000000001 63.574000000000005 54.857200000000006L68.8968 60.18C69.834 61.117200000000004 69.834 62.63680000000001 68.8968 63.574000000000005L63.574000000000005 68.8968C62.63680000000001 69.834 61.117200000000004 69.834 60.18 68.8968L54.857200000000006 63.574000000000005Z" class="hierarchical-1:primary "/><path d="M40.9392 49.656000000000006C40.002 48.7188 40.002 47.199200000000005 40.9392 46.262L46.262 40.9392C47.199200000000005 40.002 48.7188 40.002 49.656000000000006 40.9392L54.97880000000001 46.262C55.916 47.199200000000005 55.916 48.7188 54.97880000000001 49.656000000000006L49.656000000000006 54.97880000000001C48.7188 55.916 47.199200000000005 55.916 46.262 54.97880000000001L40.9392 49.656000000000006Z" class="hierarchical-1:primary "/><path d="M66.0652 45.46600000000001L69.3884 40.4356 64.3576 43.75880000000001C62.75320000000001 44.8188 60.6708 44.8188 59.0664 43.75880000000001L54.0356 40.4356 57.3588 45.46600000000001C58.418800000000005 47.070800000000006 58.418800000000005 49.152800000000006 57.3588 50.757600000000004L55.4088 53.7096C54.96280000000001 54.3848 54.3848 54.96280000000001 53.7096 55.4088L50.757600000000004 57.3588C49.1532 58.418800000000005 47.070800000000006 58.418800000000005 45.4664 57.3588L40.4356 54.0356 43.75880000000001 59.066C44.8188 60.6708 44.8188 62.75280000000001 43.75880000000001 64.3576L40.4356 69.3884 45.4664 66.0652C47.070800000000006 65.0052 49.1532 65.0052 50.757600000000004 66.0652L55.7884 69.3884 52.46520000000001 64.3576C51.40520000000001 62.75280000000001 51.40520000000001 60.6708 52.46520000000001 59.066L54.415200000000006 56.1144C54.8612 55.43920000000001 55.43920000000001 54.8612 56.1144 54.415200000000006L59.0664 52.46520000000001C60.6708 51.40520000000001 62.75320000000001 51.40520000000001 64.3576 52.46520000000001L69.3884 55.7884 66.0652 50.757600000000004C65.0052 49.152800000000006 65.0052 47.070800000000006 66.0652 45.46600000000001Z" class="hierarchical-1:primary "/><path d="M68.7756 49.656000000000006C67.83800000000001 48.7188 67.83800000000001 47.199200000000005 68.7756 46.262L74.098 40.9392C75.0356 40.002 76.5552 40.002 77.4924 40.9392L82.8152 46.262C83.75240000000001 47.199200000000005 83.75240000000001 48.7188 82.8152 49.656000000000006L77.4924 54.97880000000001C76.5552 55.916 75.0356 55.916 74.098 54.97880000000001L68.7756 49.656000000000006Z" class="hierarchical-1:primary "/><path d="M68.7756 77.4924C67.83800000000001 76.5552 67.83800000000001 75.0356 68.7756 74.098L74.098 68.7756C75.0356 67.83840000000001 76.5552 67.83840000000001 77.4924 68.7756L82.8152 74.098C83.75240000000001 75.0356 83.75240000000001 76.5552 82.8152 77.4924L77.4924 82.8152C76.5552 83.75240000000001 75.0356 83.75240000000001 74.098 82.8152L68.7756 77.4924Z" class="hierarchical-1:primary "/><path d="M40.9392 77.4924C40.002 76.5552 40.002 75.0356 40.9392 74.098L46.262 68.7756C47.199200000000005 67.83840000000001 48.7188 67.83840000000001 49.656000000000006 68.7756L54.97880000000001 74.098C55.916 75.0356 55.916 76.5552 54.97880000000001 77.4924L49.656000000000006 82.8152C48.7188 83.75240000000001 47.199200000000005 83.75240000000001 46.262 82.8152L40.9392 77.4924Z" class="hierarchical-1:primary "/><path d="M54.857200000000006 35.73792C53.92000000000001 34.80064 53.92000000000001 33.281079999999996 54.857200000000006 32.3438L60.18 27.02108C61.117200000000004 26.083800000000004 62.63680000000001 26.083800000000004 63.574000000000005 27.02108L68.8968 32.3438C69.834 33.281079999999996 69.834 34.80064 68.8968 35.73792L63.574000000000005 41.0608C62.63680000000001 41.998000000000005 61.117200000000004 41.998000000000005 60.18 41.0608L54.857200000000006 35.73792Z" class="hierarchical-1:primary "/><path d="M40.9392 21.8198C40.002 20.88252 40.002 19.362920000000003 40.9392 18.42568L46.262 13.10296C47.199200000000005 12.165680000000002 48.7188 12.165680000000002 49.656000000000006 13.10296L54.97880000000001 18.42568C55.916 19.362920000000003 55.916 20.88252 54.97880000000001 21.8198L49.656000000000006 27.142520000000005C48.7188 28.079800000000002 47.199200000000005 28.079800000000002 46.262 27.142520000000005L40.9392 21.8198Z" class="hierarchical-1:primary "/><path d="M69.78840000000001 12.435400000000001L66.46520000000001 17.46616C65.40520000000001 19.07072 65.40520000000001 21.153000000000002 66.46520000000001 22.75752L69.78840000000001 27.78828 64.75760000000001 24.465040000000002C63.153200000000005 23.40508 61.0708 23.40508 59.466 24.465040000000002L54.4356 27.78828 57.7588 22.75752C58.8188 21.153000000000002 58.8188 19.07072 57.7588 17.46616L54.4356 12.435400000000001 59.466 15.758680000000002C61.0708 16.8186 63.153200000000005 16.8186 64.75760000000001 15.758680000000002L69.78840000000001 12.435400000000001Z" class="hierarchical-1:primary "/></g>
  <g id="Ultralight-S" transform="matrix(1,0,0,1,511.711,612.7705000000001)">

  <path d="M27.78832 54.0356L24.46508 59.066C23.40512 60.6708 23.40512 62.75280000000001 24.46508 64.3576L27.78832 69.3884 22.7576 66.0652C21.15304 65.0052 19.070760000000003 65.0052 17.4662 66.0652L12.43548 69.3884 15.75872 64.3576C16.81868 62.75280000000001 16.81868 60.6708 15.75872 59.066L12.43548 54.0356 17.4662 57.3588C19.070760000000003 58.418800000000005 21.15304 58.418800000000005 22.7576 57.3588L27.78832 54.0356Z" class="hierarchical-1:primary "/><path d="M27.02108 63.574000000000005C26.083800000000004 62.63680000000001 26.083800000000004 61.117200000000004 27.02108 60.18L32.3438 54.857200000000006C33.281040000000004 53.92000000000001 34.80064 53.92000000000001 35.73792 54.857200000000006L41.0608 60.18C41.998000000000005 61.117200000000004 41.998000000000005 62.63680000000001 41.0608 63.574000000000005L35.73792 68.8968C34.80064 69.834 33.281040000000004 69.834 32.3438 68.8968L27.02108 63.574000000000005Z" class="hierarchical-1:primary "/><path d="M13.10296 49.656000000000006C12.165680000000002 48.7188 12.165680000000002 47.199200000000005 13.10296 46.262L18.42568 40.9392C19.362920000000003 40.002 20.88252 40.002 21.8198 40.9392L27.142520000000005 46.262C28.079800000000002 47.199200000000005 28.079800000000002 48.7188 27.142520000000005 49.656000000000006L21.8198 54.97880000000001C20.88252 55.916 19.362920000000003 55.916 18.42568 54.97880000000001L13.10296 49.656000000000006Z" class="hierarchical-1:primary "/><path d="M54.857200000000006 63.574000000000005C53.92000000000001 62.63680000000001 53.92000000000001 61.117200000000004 54.857200000000006 60.18L60.18 54.857200000000006C61.117200000000004 53.92000000000001 62.63680000000001 53.92000000000001 63.574000000000005 54.857200000000006L68.8968 60.18C69.834 61.117200000000004 69.834 62.63680000000001 68.8968 63.574000000000005L63.574000000000005 68.8968C62.63680000000001 69.834 61.117200000000004 69.834 60.18 68.8968L54.857200000000006 63.574000000000005Z" class="hierarchical-1:primary "/><path d="M40.9392 49.656000000000006C40.002 48.7188 40.002 47.199200000000005 40.9392 46.262L46.262 40.9392C47.199200000000005 40.002 48.7188 40.002 49.656000000000006 40.9392L54.97880000000001 46.262C55.916 47.199200000000005 55.916 48.7188 54.97880000000001 49.656000000000006L49.656000000000006 54.97880000000001C48.7188 55.916 47.199200000000005 55.916 46.262 54.97880000000001L40.9392 49.656000000000006Z" class="hierarchical-1:primary "/><path d="M66.0652 45.46600000000001L69.3884 40.4356 64.3576 43.75880000000001C62.75320000000001 44.8188 60.6708 44.8188 59.0664 43.75880000000001L54.0356 40.4356 57.3588 45.46600000000001C58.418800000000005 47.070800000000006 58.418800000000005 49.152800000000006 57.3588 50.757600000000004L55.4088 53.7096C54.96280000000001 54.3848 54.3848 54.96280000000001 53.7096 55.4088L50.757600000000004 57.3588C49.1532 58.418800000000005 47.070800000000006 58.418800000000005 45.4664 57.3588L40.4356 54.0356 43.75880000000001 59.066C44.8188 60.6708 44.8188 62.75280000000001 43.75880000000001 64.3576L40.4356 69.3884 45.4664 66.0652C47.070800000000006 65.0052 49.1532 65.0052 50.757600000000004 66.0652L55.7884 69.3884 52.46520000000001 64.3576C51.40520000000001 62.75280000000001 51.40520000000001 60.6708 52.46520000000001 59.066L54.415200000000006 56.1144C54.8612 55.43920000000001 55.43920000000001 54.8612 56.1144 54.415200000000006L59.0664 52.46520000000001C60.6708 51.40520000000001 62.75320000000001 51.40520000000001 64.3576 52.46520000000001L69.3884 55.7884 66.0652 50.757600000000004C65.0052 49.152800000000006 65.0052 47.070800000000006 66.0652 45.46600000000001Z" class="hierarchical-1:primary "/><path d="M68.7756 49.656000000000006C67.83800000000001 48.7188 67.83800000000001 47.199200000000005 68.7756 46.262L74.098 40.9392C75.0356 40.002 76.5552 40.002 77.4924 40.9392L82.8152 46.262C83.75240000000001 47.199200000000005 83.75240000000001 48.7188 82.8152 49.656000000000006L77.4924 54.97880000000001C76.5552 55.916 75.0356 55.916 74.098 54.97880000000001L68.7756 49.656000000000006Z" class="hierarchical-1:primary "/><path d="M68.7756 77.4924C67.83800000000001 76.5552 67.83800000000001 75.0356 68.7756 74.098L74.098 68.7756C75.0356 67.83840000000001 76.5552 67.83840000000001 77.4924 68.7756L82.8152 74.098C83.75240000000001 75.0356 83.75240000000001 76.5552 82.8152 77.4924L77.4924 82.8152C76.5552 83.75240000000001 75.0356 83.75240000000001 74.098 82.8152L68.7756 77.4924Z" class="hierarchical-1:primary "/><path d="M40.9392 77.4924C40.002 76.5552 40.002 75.0356 40.9392 74.098L46.262 68.7756C47.199200000000005 67.83840000000001 48.7188 67.83840000000001 49.656000000000006 68.7756L54.97880000000001 74.098C55.916 75.0356 55.916 76.5552 54.97880000000001 77.4924L49.656000000000006 82.8152C48.7188 83.75240000000001 47.199200000000005 83.75240000000001 46.262 82.8152L40.9392 77.4924Z" class="hierarchical-1:primary "/><path d="M54.857200000000006 35.73792C53.92000000000001 34.80064 53.92000000000001 33.281079999999996 54.857200000000006 32.3438L60.18 27.02108C61.117200000000004 26.083800000000004 62.63680000000001 26.083800000000004 63.574000000000005 27.02108L68.8968 32.3438C69.834 33.281079999999996 69.834 34.80064 68.8968 35.73792L63.574000000000005 41.0608C62.63680000000001 41.998000000000005 61.117200000000004 41.998000000000005 60.18 41.0608L54.857200000000006 35.73792Z" class="hierarchical-1:primary "/><path d="M40.9392 21.8198C40.002 20.88252 40.002 19.362920000000003 40.9392 18.42568L46.262 13.10296C47.199200000000005 12.165680000000002 48.7188 12.165680000000002 49.656000000000006 13.10296L54.97880000000001 18.42568C55.916 19.362920000000003 55.916 20.88252 54.97880000000001 21.8198L49.656000000000006 27.142520000000005C48.7188 28.079800000000002 47.199200000000005 28.079800000000002 46.262 27.142520000000005L40.9392 21.8198Z" class="hierarchical-1:primary "/><path d="M69.78840000000001 12.435400000000001L66.46520000000001 17.46616C65.40520000000001 19.07072 65.40520000000001 21.153000000000002 66.46520000000001 22.75752L69.78840000000001 27.78828 64.75760000000001 24.465040000000002C63.153200000000005 23.40508 61.0708 23.40508 59.466 24.465040000000002L54.4356 27.78828 57.7588 22.75752C58.8188 21.153000000000002 58.8188 19.07072 57.7588 17.46616L54.4356 12.435400000000001 59.466 15.758680000000002C61.0708 16.8186 63.153200000000005 16.8186 64.75760000000001 15.758680000000002L69.78840000000001 12.435400000000001Z" class="hierarchical-1:primary "/></g>
 </g>
</svg>