<?xml version="1.0" encoding="UTF-8"?>
<svg width="151px" height="120px" viewBox="0 0 151 120" version="1.1" xmlns="http://www.w3.org/2000/svg" xmlns:xlink="http://www.w3.org/1999/xlink">
    <!-- Generator: Sketch 52.6 (67491) - http://www.bohemiancoding.com/sketch -->
    <title>extensionSFMac</title>
    <desc>Created with Sketch.</desc>
    <g id="Page-1" stroke="none" stroke-width="1" fill="none" fill-rule="evenodd">
        <path d="M0.875976562,100.519531 L0.875976562,73.7714844 C0.875976562,71.1074086 1.66014841,69.0127029 3.22851562,67.4873047 C4.79688284,65.9619064 6.67674686,65.1992188 8.86816406,65.1992188 C10.114264,65.1992188 11.3388612,65.4570287 12.5419922,65.9726562 C13.7451232,66.4882838 14.9482362,67.2831978 16.1513672,68.3574219 C17.612312,69.6464908 19.1484294,70.6777305 20.7597656,71.4511719 C22.3711018,72.2246132 24.0576084,72.6113281 25.8193359,72.6113281 C29.2138842,72.6113281 32.1357299,71.4619256 34.5849609,69.1630859 C37.0341919,66.8642463 38.2587891,63.8027535 38.2587891,59.9785156 C38.2587891,56.1542778 37.0341919,53.0927849 34.5849609,50.7939453 C32.1357299,48.4951057 29.2138842,47.3457031 25.8193359,47.3457031 C24.0576084,47.3457031 22.3711018,47.732418 20.7597656,48.5058594 C19.1484294,49.2793007 17.612312,50.3105404 16.1513672,51.5996094 C14.9482362,52.6308645 13.7451232,53.4150364 12.5419922,53.9521484 C11.3388612,54.4892605 10.114264,54.7578125 8.86816406,54.7578125 C6.67674686,54.7578125 4.79688284,53.9843827 3.22851562,52.4375 C1.66014841,50.8906173 0.875976562,48.8066537 0.875976562,46.1855469 L0.875976562,19.2441406 C0.875976562,13.1425476 2.49803065,8.50196902 5.7421875,5.32226562 C8.98634435,2.14256223 13.7021175,0.552734375 19.8896484,0.552734375 L94.9775391,0.552734375 C101.122101,0.552734375 105.81639,2.14256223 109.060547,5.32226562 C112.304704,8.50196902 113.926758,13.1425476 113.926758,19.2441406 L113.926758,40.578125 C113.926758,41.0937526 114.087889,41.4374991 114.410156,41.609375 C114.732423,41.7812509 115.172849,41.6738301 115.731445,41.2871094 C117.62208,39.9980404 119.641591,38.9453166 121.790039,38.1289062 C123.938487,37.3124959 126.258777,36.9042969 128.750977,36.9042969 C132.618183,36.9042969 136.249006,37.8710841 139.643555,39.8046875 C143.038103,41.7382909 145.777333,44.4452951 147.861328,47.9257812 C149.945323,51.4062674 150.987305,55.4667737 150.987305,60.1074219 C150.987305,64.7480701 149.945323,68.8085763 147.861328,72.2890625 C145.777333,75.7695487 143.038103,78.4765528 139.643555,80.4101562 C136.249006,82.3437597 132.618183,83.3105469 128.750977,83.3105469 C126.258777,83.3105469 123.938487,82.9023478 121.790039,82.0859375 C119.641591,81.2695272 117.62208,80.2168033 115.731445,78.9277344 C115.172849,78.5839827 114.732423,78.498046 114.410156,78.6699219 C114.087889,78.8417977 113.926758,79.1640601 113.926758,79.6367188 L113.926758,100.519531 C113.926758,106.664093 112.304704,111.326156 109.060547,114.505859 C105.81639,117.685563 101.122101,119.275391 94.9775391,119.275391 L19.8896484,119.275391 C13.7021175,119.275391 8.98634435,117.685563 5.7421875,114.505859 C2.49803065,111.326156 0.875976562,106.664093 0.875976562,100.519531 Z M11.5751953,100.068359 C11.5751953,102.775404 12.3271409,104.859368 13.8310547,106.320312 C15.3349685,107.781257 17.3974478,108.511719 20.0185547,108.511719 L94.8486328,108.511719 C97.4697397,108.511719 99.532219,107.781257 101.036133,106.320312 C102.540047,104.859368 103.291992,102.775404 103.291992,100.068359 L103.291992,74.0292969 C103.291992,71.40819 104.05468,69.3027423 105.580078,67.7128906 C107.105476,66.1230389 108.98534,65.328125 111.219727,65.328125 C112.465827,65.328125 113.690424,65.5859349 114.893555,66.1015625 C116.096686,66.6171901 117.299799,67.412104 118.50293,68.4863281 C119.920906,69.7753971 121.446281,70.8066368 123.079102,71.5800781 C124.711922,72.3535195 126.430655,72.7402344 128.235352,72.7402344 C131.6299,72.7402344 134.541003,71.5908318 136.96875,69.2919922 C139.396497,66.9931526 140.610352,63.9316597 140.610352,60.1074219 C140.610352,56.326153 139.396497,53.2754022 136.96875,50.9550781 C134.541003,48.634754 131.6299,47.4746094 128.235352,47.4746094 C126.430655,47.4746094 124.711922,47.8613243 123.079102,48.6347656 C121.446281,49.408207 119.920906,50.4609308 118.50293,51.7929688 C117.299799,52.8242239 116.096686,53.5869116 114.893555,54.0810547 C113.690424,54.5751978 112.465827,54.8222656 111.219727,54.8222656 C108.98534,54.8222656 107.105476,54.0380938 105.580078,52.4697266 C104.05468,50.9013593 103.291992,48.7851696 103.291992,46.1210938 L103.291992,19.7597656 C103.291992,17.0097519 102.540047,14.9043042 101.036133,13.4433594 C99.532219,11.9824146 97.4697397,11.2519531 94.8486328,11.2519531 L20.0185547,11.2519531 C17.3974478,11.2519531 15.3349685,11.9824146 13.8310547,13.4433594 C12.3271409,14.9043042 11.5751953,17.0097519 11.5751953,19.7597656 L11.5751953,39.6113281 C11.5751953,40.986335 11.8652315,41.5986336 12.4453125,41.4482422 C13.0253935,41.2978508 13.6162079,41.0292988 14.2177734,40.6425781 C15.936532,39.525385 17.816396,38.6015662 19.8574219,37.8710938 C21.8984477,37.1406213 24.07909,36.7753906 26.3994141,36.7753906 C30.2666209,36.7753906 33.897444,37.7421778 37.2919922,39.6757812 C40.6865404,41.6093847 43.4257708,44.3163888 45.5097656,47.796875 C47.5937604,51.2773612 48.6357422,55.3378674 48.6357422,59.9785156 C48.6357422,64.6191638 47.5937604,68.6796701 45.5097656,72.1601562 C43.4257708,75.6406424 40.6865404,78.3476466 37.2919922,80.28125 C33.897444,82.2148534 30.2666209,83.1816406 26.3994141,83.1816406 C24.07909,83.1816406 21.8984477,82.8056678 19.8574219,82.0537109 C17.816396,81.3017541 15.936532,80.3886772 14.2177734,79.3144531 C13.6162079,78.9277324 13.0253935,78.6484384 12.4453125,78.4765625 C11.8652315,78.3046866 11.5751953,78.9062431 11.5751953,80.28125 L11.5751953,100.068359 Z" id="extensionSFMac" fill="#000000"></path>
    </g>
</svg>