<?xml version="1.0" encoding="UTF-8"?>
<!--Generator: Apple Native CoreSVG 175.5-->
<!DOCTYPE svg
PUBLIC "-//W3C//DTD SVG 1.1//EN"
       "http://www.w3.org/Graphics/SVG/1.1/DTD/svg11.dtd">
<svg version="1.1" xmlns="http://www.w3.org/2000/svg" xmlns:xlink="http://www.w3.org/1999/xlink" width="3300" height="2200">
 <!--glyph: "", point size: 100.0, font version: "18.0d12e2", template writer version: "101"-->
 <style>.monochrome-0 {fill:#000000}
.monochrome-1 {fill:#000000}

.multicolor-0:systemYellowColor {fill:#FFCC00}
.multicolor-1:white {fill:#FFFFFF}
.multicolor-2:systemOrangeColor {fill:#FF9500}

.hierarchical-0:secondary {fill:#4D4D4D}
.hierarchical-1:primary {fill:#212121}

.SFSymbolsPreviewFF9500 {fill:#FF9500;opacity:1.0}
.SFSymbolsPreviewFFCC00 {fill:#FFCC00;opacity:1.0}
.SFSymbolsPreviewFFFFFF {fill:#FFFFFF;opacity:1.0}
</style>
 <g id="Notes">
  <rect height="2200" id="artboard" style="fill:white;opacity:1" width="3300" x="0" y="0"/>
  <line style="fill:none;stroke:black;opacity:1;stroke-width:0.5;" x1="263" x2="3036" y1="292" y2="292"/>
  <text style="stroke:none;fill:black;font-family:sans-serif;font-size:13;font-weight:bold;" transform="matrix(1 0 0 1 263 322)">Weight/Scale Variations</text>
  <text style="stroke:none;fill:black;font-family:sans-serif;font-size:13;text-anchor:middle;" transform="matrix(1 0 0 1 559.711 322)">Ultralight</text>
  <text style="stroke:none;fill:black;font-family:sans-serif;font-size:13;text-anchor:middle;" transform="matrix(1 0 0 1 856.422 322)">Thin</text>
  <text style="stroke:none;fill:black;font-family:sans-serif;font-size:13;text-anchor:middle;" transform="matrix(1 0 0 1 1153.13 322)">Light</text>
  <text style="stroke:none;fill:black;font-family:sans-serif;font-size:13;text-anchor:middle;" transform="matrix(1 0 0 1 1449.84 322)">Regular</text>
  <text style="stroke:none;fill:black;font-family:sans-serif;font-size:13;text-anchor:middle;" transform="matrix(1 0 0 1 1746.56 322)">Medium</text>
  <text style="stroke:none;fill:black;font-family:sans-serif;font-size:13;text-anchor:middle;" transform="matrix(1 0 0 1 2043.27 322)">Semibold</text>
  <text style="stroke:none;fill:black;font-family:sans-serif;font-size:13;text-anchor:middle;" transform="matrix(1 0 0 1 2339.98 322)">Bold</text>
  <text style="stroke:none;fill:black;font-family:sans-serif;font-size:13;text-anchor:middle;" transform="matrix(1 0 0 1 2636.69 322)">Heavy</text>
  <text style="stroke:none;fill:black;font-family:sans-serif;font-size:13;text-anchor:middle;" transform="matrix(1 0 0 1 2933.4 322)">Black</text>
  <line style="fill:none;stroke:black;opacity:1;stroke-width:0.5;" x1="263" x2="3036" y1="1903" y2="1903"/>
  <g transform="matrix(1 0 0 1 263 1933)">
   <path d="M9.24805 0.830078C13.5547 0.830078 17.1387-2.74414 17.1387-7.05078C17.1387-11.3574 13.5449-14.9316 9.23828-14.9316C4.94141-14.9316 1.36719-11.3574 1.36719-7.05078C1.36719-2.74414 4.95117 0.830078 9.24805 0.830078ZM9.24805-0.654297C5.70312-0.654297 2.87109-3.49609 2.87109-7.05078C2.87109-10.6055 5.69336-13.4473 9.23828-13.4473C12.793-13.4473 15.6445-10.6055 15.6445-7.05078C15.6445-3.49609 12.8027-0.654297 9.24805-0.654297ZM5.6543-7.05078C5.6543-6.62109 5.95703-6.32812 6.40625-6.32812L8.50586-6.32812L8.50586-4.20898C8.50586-3.76953 8.79883-3.4668 9.22852-3.4668C9.67773-3.4668 9.9707-3.76953 9.9707-4.20898L9.9707-6.32812L12.0898-6.32812C12.5293-6.32812 12.832-6.62109 12.832-7.05078C12.832-7.49023 12.5293-7.79297 12.0898-7.79297L9.9707-7.79297L9.9707-9.90234C9.9707-10.3516 9.67773-10.6543 9.22852-10.6543C8.79883-10.6543 8.50586-10.3516 8.50586-9.90234L8.50586-7.79297L6.40625-7.79297C5.95703-7.79297 5.6543-7.49023 5.6543-7.05078Z"/>
  </g>
  <g transform="matrix(1 0 0 1 281.867 1933)">
   <path d="M11.709 2.91016C17.1582 2.91016 21.6699-1.61133 21.6699-7.05078C21.6699-12.5 17.1484-17.0117 11.6992-17.0117C6.25977-17.0117 1.74805-12.5 1.74805-7.05078C1.74805-1.61133 6.26953 2.91016 11.709 2.91016ZM11.709 1.25C7.09961 1.25 3.41797-2.44141 3.41797-7.05078C3.41797-11.6602 7.08984-15.3516 11.6992-15.3516C16.3086-15.3516 20.0098-11.6602 20.0098-7.05078C20.0098-2.44141 16.3184 1.25 11.709 1.25ZM7.17773-7.05078C7.17773-6.57227 7.50977-6.25 8.00781-6.25L10.8789-6.25L10.8789-3.36914C10.8789-2.88086 11.2109-2.53906 11.6895-2.53906C12.1777-2.53906 12.5195-2.87109 12.5195-3.36914L12.5195-6.25L15.4004-6.25C15.8887-6.25 16.2305-6.57227 16.2305-7.05078C16.2305-7.53906 15.8887-7.88086 15.4004-7.88086L12.5195-7.88086L12.5195-10.752C12.5195-11.25 12.1777-11.5918 11.6895-11.5918C11.2109-11.5918 10.8789-11.25 10.8789-10.752L10.8789-7.88086L8.00781-7.88086C7.50977-7.88086 7.17773-7.53906 7.17773-7.05078Z"/>
  </g>
  <g transform="matrix(1 0 0 1 305.646 1933)">
   <path d="M14.9707 5.66406C21.9336 5.66406 27.6953-0.0976562 27.6953-7.05078C27.6953-14.0137 21.9238-19.7754 14.9609-19.7754C8.00781-19.7754 2.25586-14.0137 2.25586-7.05078C2.25586-0.0976562 8.01758 5.66406 14.9707 5.66406ZM14.9707 3.84766C8.93555 3.84766 4.08203-1.01562 4.08203-7.05078C4.08203-13.0957 8.92578-17.9492 14.9609-17.9492C21.0059-17.9492 25.8691-13.0957 25.8691-7.05078C25.8691-1.01562 21.0156 3.84766 14.9707 3.84766ZM9.19922-7.05078C9.19922-6.5332 9.57031-6.17188 10.1172-6.17188L14.0625-6.17188L14.0625-2.2168C14.0625-1.67969 14.4336-1.29883 14.9512-1.29883C15.4883-1.29883 15.8594-1.66992 15.8594-2.2168L15.8594-6.17188L19.8145-6.17188C20.3516-6.17188 20.7324-6.5332 20.7324-7.05078C20.7324-7.59766 20.3613-7.96875 19.8145-7.96875L15.8594-7.96875L15.8594-11.9141C15.8594-12.4609 15.4883-12.8418 14.9512-12.8418C14.4336-12.8418 14.0625-12.4609 14.0625-11.9141L14.0625-7.96875L10.1172-7.96875C9.57031-7.96875 9.19922-7.59766 9.19922-7.05078Z"/>
  </g>
  <text style="stroke:none;fill:black;font-family:sans-serif;font-size:13;font-weight:bold;" transform="matrix(1 0 0 1 263 1953)">Design Variations</text>
  <text style="stroke:none;fill:black;font-family:sans-serif;font-size:13;" transform="matrix(1 0 0 1 263 1971)">Symbols are supported in up to nine weights and three scales.</text>
  <text style="stroke:none;fill:black;font-family:sans-serif;font-size:13;" transform="matrix(1 0 0 1 263 1989)">For optimal layout with text and other symbols, vertically align</text>
  <text style="stroke:none;fill:black;font-family:sans-serif;font-size:13;" transform="matrix(1 0 0 1 263 2007)">symbols with the adjacent text.</text>
  <line style="fill:none;stroke:#00AEEF;stroke-width:0.5;opacity:1.0;" x1="776" x2="776" y1="1919" y2="1933"/>
  <g transform="matrix(1 0 0 1 776 1933)">
   <path d="M3.31055 0.15625C3.82812 0.15625 4.08203-0.0390625 4.26758-0.585938L5.52734-4.0332L11.2891-4.0332L12.5488-0.585938C12.7344-0.0390625 12.9883 0.15625 13.4961 0.15625C14.0137 0.15625 14.3457-0.15625 14.3457-0.644531C14.3457-0.810547 14.3164-0.966797 14.2383-1.17188L9.6582-13.3691C9.43359-13.9648 9.0332-14.2676 8.4082-14.2676C7.80273-14.2676 7.39258-13.9746 7.17773-13.3789L2.59766-1.16211C2.51953-0.957031 2.49023-0.800781 2.49023-0.634766C2.49023-0.146484 2.80273 0.15625 3.31055 0.15625ZM6.00586-5.51758L8.37891-12.0898L8.42773-12.0898L10.8008-5.51758Z"/>
  </g>
  <line style="fill:none;stroke:#00AEEF;stroke-width:0.5;opacity:1.0;" x1="793.197" x2="793.197" y1="1919" y2="1933"/>
  <text style="stroke:none;fill:black;font-family:sans-serif;font-size:13;font-weight:bold;" transform="matrix(1 0 0 1 776 1953)">Margins</text>
  <text style="stroke:none;fill:black;font-family:sans-serif;font-size:13;" transform="matrix(1 0 0 1 776 1971)">Leading and trailing margins on the left and right side of each symbol</text>
  <text style="stroke:none;fill:black;font-family:sans-serif;font-size:13;" transform="matrix(1 0 0 1 776 1989)">can be adjusted by modifying the x-location of the margin guidelines.</text>
  <text style="stroke:none;fill:black;font-family:sans-serif;font-size:13;" transform="matrix(1 0 0 1 776 2007)">Modifications are automatically applied proportionally to all</text>
  <text style="stroke:none;fill:black;font-family:sans-serif;font-size:13;" transform="matrix(1 0 0 1 776 2025)">scales and weights.</text>
  <g transform="matrix(1 0 0 1 1289 1933)">
   <path d="M2.8418 1.86523L4.54102 3.57422C5.40039 4.44336 6.38672 4.38477 7.31445 3.35938L18.0078-8.42773L17.041-9.4043L6.42578 2.27539C6.07422 2.67578 5.74219 2.77344 5.27344 2.30469L4.10156 1.14258C3.63281 0.683594 3.74023 0.341797 4.14062-0.0195312L15.6152-10.8203L14.6387-11.7871L3.04688-0.898438C2.06055 0.0195312 1.98242 0.996094 2.8418 1.86523ZM9.25781-16.3281C8.83789-15.918 8.80859-15.3418 9.04297-14.9512C9.27734-14.5898 9.73633-14.3555 10.3809-14.5215C11.8457-14.8633 13.3691-14.9219 14.7949-13.9844L14.209-12.5293C13.8672-11.6992 14.043-11.1133 14.5801-10.5664L16.875-8.25195C17.3633-7.76367 17.7734-7.74414 18.3398-7.8418L19.4043-8.03711L20.0684-7.36328L20.0293-6.80664C19.9902-6.30859 20.1172-5.92773 20.6055-5.44922L21.3672-4.70703C21.8457-4.22852 22.4609-4.19922 22.9297-4.66797L25.8398-7.58789C26.3086-8.05664 26.2891-8.65234 25.8105-9.13086L25.0391-9.89258C24.5605-10.3711 24.1895-10.5273 23.7109-10.4883L23.1348-10.4395L22.4902-11.0742L22.7344-12.1973C22.8613-12.7637 22.7051-13.2031 22.1191-13.7891L19.9219-15.9766C16.582-19.2969 12.1484-19.2188 9.25781-16.3281ZM10.752-15.957C13.1836-17.7344 16.4746-17.4316 18.7012-15.2051L21.1328-12.793C21.3672-12.5586 21.4062-12.373 21.3379-12.0312L21.0156-10.5469L22.5195-9.0625L23.5059-9.12109C23.7598-9.13086 23.8379-9.11133 24.0332-8.91602L24.6094-8.33984L22.168-5.89844L21.5918-6.47461C21.3965-6.66992 21.3672-6.74805 21.377-7.01172L21.4453-7.98828L19.9512-9.47266L18.4277-9.21875C18.1055-9.15039 17.959-9.17969 17.7148-9.41406L15.7129-11.416C15.459-11.6504 15.4297-11.8164 15.5859-12.1875L16.4648-14.2773C14.9023-15.7324 12.8711-16.3574 10.8398-15.7617C10.6836-15.7227 10.625-15.8496 10.752-15.957Z"/>
  </g>
  <text style="stroke:none;fill:black;font-family:sans-serif;font-size:13;font-weight:bold;" transform="matrix(1 0 0 1 1289 1953)">Exporting</text>
  <text style="stroke:none;fill:black;font-family:sans-serif;font-size:13;" transform="matrix(1 0 0 1 1289 1971)">Symbols should be outlined when exporting to ensure the</text>
  <text style="stroke:none;fill:black;font-family:sans-serif;font-size:13;" transform="matrix(1 0 0 1 1289 1989)">design is preserved when submitting to Xcode.</text>
  <text id="template-version" style="stroke:none;fill:black;font-family:sans-serif;font-size:13;text-anchor:end;" transform="matrix(1 0 0 1 3036 1933)">Template v.4.0</text>
  <text style="stroke:none;fill:black;font-family:sans-serif;font-size:13;text-anchor:end;" transform="matrix(1 0 0 1 3036 1951)">Requires Xcode 14 or greater</text>
  <text id="descriptive-name" style="stroke:none;fill:black;font-family:sans-serif;font-size:13;text-anchor:end;" transform="matrix(1 0 0 1 3036 1969)">Generated from qrpop.icon</text>
  <text style="stroke:none;fill:black;font-family:sans-serif;font-size:13;text-anchor:end;" transform="matrix(1 0 0 1 3036 1987)">Typeset at 100 points</text>
  <text style="stroke:none;fill:black;font-family:sans-serif;font-size:13;" transform="matrix(1 0 0 1 263 726)">Small</text>
  <text style="stroke:none;fill:black;font-family:sans-serif;font-size:13;" transform="matrix(1 0 0 1 263 1156)">Medium</text>
  <text style="stroke:none;fill:black;font-family:sans-serif;font-size:13;" transform="matrix(1 0 0 1 263 1586)">Large</text>
 </g>
 <g id="Guides">
  <g id="H-reference" style="fill:#27AAE1;stroke:none;" transform="matrix(1 0 0 1 339 696)">
   <path d="M0.993654 0L3.63775 0L29.3281-67.1323L30.0303-67.1323L30.0303-70.459L28.1226-70.459ZM11.6885-24.4799L46.9815-24.4799L46.2315-26.7285L12.4385-26.7285ZM55.1196 0L57.7637 0L30.6382-70.459L29.4326-70.459L29.4326-67.1323Z"/>
  </g>
  <line id="Baseline-S" style="fill:none;stroke:#27AAE1;opacity:1;stroke-width:0.5;" x1="263" x2="3036" y1="696" y2="696"/>
  <line id="Capline-S" style="fill:none;stroke:#27AAE1;opacity:1;stroke-width:0.5;" x1="263" x2="3036" y1="625.541" y2="625.541"/>
  <g id="H-reference" style="fill:#27AAE1;stroke:none;" transform="matrix(1 0 0 1 339 1126)">
   <path d="M0.993654 0L3.63775 0L29.3281-67.1323L30.0303-67.1323L30.0303-70.459L28.1226-70.459ZM11.6885-24.4799L46.9815-24.4799L46.2315-26.7285L12.4385-26.7285ZM55.1196 0L57.7637 0L30.6382-70.459L29.4326-70.459L29.4326-67.1323Z"/>
  </g>
  <line id="Baseline-M" style="fill:none;stroke:#27AAE1;opacity:1;stroke-width:0.5;" x1="263" x2="3036" y1="1126" y2="1126"/>
  <line id="Capline-M" style="fill:none;stroke:#27AAE1;opacity:1;stroke-width:0.5;" x1="263" x2="3036" y1="1055.54" y2="1055.54"/>
  <g id="H-reference" style="fill:#27AAE1;stroke:none;" transform="matrix(1 0 0 1 339 1556)">
   <path d="M0.993654 0L3.63775 0L29.3281-67.1323L30.0303-67.1323L30.0303-70.459L28.1226-70.459ZM11.6885-24.4799L46.9815-24.4799L46.2315-26.7285L12.4385-26.7285ZM55.1196 0L57.7637 0L30.6382-70.459L29.4326-70.459L29.4326-67.1323Z"/>
  </g>
  <line id="Baseline-L" style="fill:none;stroke:#27AAE1;opacity:1;stroke-width:0.5;" x1="263" x2="3036" y1="1556" y2="1556"/>
  <line id="Capline-L" style="fill:none;stroke:#27AAE1;opacity:1;stroke-width:0.5;" x1="263" x2="3036" y1="1485.54" y2="1485.54"/>
  <line id="left-margin-Ultralight-S" style="fill:none;stroke:#00AEEF;stroke-width:0.5;opacity:1.0;" x1="515.84" x2="515.84" y1="600.785" y2="720.121"/>
  <line id="right-margin-Ultralight-S" style="fill:none;stroke:#00AEEF;stroke-width:0.5;opacity:1.0;" x1="603.582" x2="603.582" y1="600.785" y2="720.121"/>
  <line id="left-margin-Regular-S" style="fill:none;stroke:#00AEEF;stroke-width:0.5;opacity:1.0;" x1="1403.07" x2="1403.07" y1="600.785" y2="720.121"/>
  <line id="right-margin-Regular-S" style="fill:none;stroke:#00AEEF;stroke-width:0.5;opacity:1.0;" x1="1496.62" x2="1496.62" y1="600.785" y2="720.121"/>
  <line id="left-margin-Black-S" style="fill:none;stroke:#00AEEF;stroke-width:0.5;opacity:1.0;" x1="2881.72" x2="2881.72" y1="600.785" y2="720.121"/>
  <line id="right-margin-Black-S" style="fill:none;stroke:#00AEEF;stroke-width:0.5;opacity:1.0;" x1="2985.08" x2="2985.08" y1="600.785" y2="720.121"/>
 </g>
 <g id="Symbols">
  <g id="Black-S" transform="matrix(1 0 0 1 2881.72 696)">
   <path class="monochrome-0 multicolor-1:white hierarchical-0:secondary SFSymbolsPreviewFFFFFF" d="M43.7746-26.1094C45.0529-24.831 45.0529-22.7585 43.7746-21.4801L35.8192-13.5247C34.5408-12.2464 32.4683-12.2464 31.1899-13.5247C29.9116-14.803 29.9116-16.8756 31.1899-18.1539L39.1454-26.1094C40.4237-27.3877 42.4963-27.3877 43.7746-26.1094ZM61.2766-26.1094L69.232-18.1539C70.5104-16.8756 70.5104-14.803 69.232-13.5247C67.9537-12.2464 65.8812-12.2464 64.6028-13.5247L56.6474-21.4801C55.3691-22.7585 55.3691-24.831 56.6474-26.1094C57.9257-27.3877 59.9983-27.3877 61.2766-26.1094ZM35.8192-51.5668L43.7746-43.6114C45.0529-42.333 45.0529-40.2605 43.7746-38.9821C42.4963-37.7038 40.4237-37.7038 39.1454-38.9821L31.1899-46.9376C29.9116-48.2159 29.9116-50.2885 31.1899-51.5668C32.4683-52.8451 34.5408-52.8451 35.8192-51.5668ZM69.232-51.5668C70.5104-50.2885 70.5104-48.2159 69.232-46.9376L61.2766-38.9821C59.9983-37.7038 57.9257-37.7038 56.6474-38.9821C55.3691-40.2605 55.3691-42.333 56.6474-43.6114L64.6028-51.5668C65.8812-52.8451 67.9537-52.8451 69.232-51.5668ZM37.8282-35.8261C39.636-35.8261 41.1015-34.3606 41.1015-32.5528C41.1015-30.745 39.636-29.2794 37.8282-29.2794L26.5775-29.2794C24.7696-29.2794 23.3041-30.745 23.3041-32.5528C23.3041-34.3606 24.7696-35.8261 26.5775-35.8261L37.8282-35.8261ZM50.2039-23.4504C52.0118-23.4504 53.4773-21.9848 53.4773-20.177L53.4773-8.9263C53.4773-7.11848 52.0118-5.65295 50.2039-5.65295C48.3961-5.65295 46.9306-7.11848 46.9306-8.9263L46.9306-20.177C46.9306-21.9848 48.3961-23.4504 50.2039-23.4504ZM73.8304-35.8261C75.6382-35.8261 77.1038-34.3606 77.1038-32.5528C77.1038-30.745 75.6382-29.2794 73.8304-29.2794L62.5797-29.2794C60.7719-29.2794 59.3064-30.745 59.3064-32.5528C59.3064-34.3606 60.7719-35.8261 62.5797-35.8261L73.8304-35.8261ZM50.2039-59.4526C52.0118-59.4526 53.4773-57.9871 53.4773-56.1793L53.4773-44.9286C53.4773-43.1207 52.0118-41.6552 50.2039-41.6552C48.3961-41.6552 46.9306-43.1207 46.9306-44.9286L46.9306-56.1793C46.9306-57.9871 48.3961-59.4526 50.2039-59.4526Z"/>
   <path class="monochrome-1 multicolor-2:systemOrangeColor hierarchical-1:primary SFSymbolsPreviewFF9500" d="M67.2815-74C71.2456-74 74.8179-73.6674 77.9982-73.0023C81.1785-72.3371 83.9283-70.8605 86.2477-68.5723C88.5359-66.2846 89.9974-63.5593 90.6324-60.3963C91.2674-57.2332 91.5849-53.6524 91.5849-49.6536L91.5849-15.3457C91.5849-11.3756 91.2674-7.80904 90.6324-4.64603C89.9974-1.48302 88.5359 1.25667 86.2477 3.57304C83.9313 5.86419 81.1822 7.34147 78.0004 8.00488C74.8186 8.66829 71.2456 9 67.2815 9L32.6257 9C28.662 9 25.0829 8.66829 21.8882 8.00488C18.6935 7.34147 15.9506 5.86419 13.6595 3.57304C11.3401 1.28832 9.86373-1.44346 9.23024-4.62229C8.59675-7.80112 8.28-11.3756 8.28-15.3457L8.28-49.7827C8.28-53.6954 8.60392-57.2261 9.25175-60.3747C9.89958-63.5234 11.3688-66.2559 13.6595-68.5723C15.9477-70.8605 18.6827-72.3371 21.8645-73.0023C25.0463-73.6674 28.5905-74 32.4973-74Z"/>
   <path class="monochrome-1 multicolor-0:systemYellowColor multicolor-2:systemOrangeColor hierarchical-1:primary SFSymbolsPreviewFFCC00" d="M68.5203-65.9404L31.4729-65.9404C29.1249-65.9404 26.8769-65.7227 24.7289-65.2873C22.5809-64.8518 20.8539-63.9826 19.5478-62.6795C18.2482-61.3764 17.3958-59.6597 16.9905-57.5292C16.5852-55.3988 16.3826-53.1581 16.3826-50.8071L16.3826-14.1069C16.3826-11.7841 16.5852-9.56461 16.9905-7.44853C17.3958-5.33244 18.2482-3.62137 19.5478-2.31532C20.8539-1.01569 22.5737-0.155213 24.7074 0.266125C26.841 0.687464 29.0675 0.898133 31.3869 0.898133L68.5203 0.898133C70.8401 0.898133 73.0667 0.687464 75.2001 0.266125C77.3335-0.155213 79.0533-1.01569 80.3593-2.31532C81.6308-3.62137 82.4763-5.33244 82.8959-7.44853C83.3155-9.56461 83.5253-11.7841 83.5253-14.1069L83.5253-50.8924C83.5253-53.2439 83.3155-55.4705 82.8959-57.5722C82.4763-59.674 81.6308-61.3764 80.3593-62.6795C79.0533-63.9826 77.3335-64.8518 75.2001-65.2873C73.0667-65.7227 70.8401-65.9404 68.5203-65.9404Z"/>
  </g>
  <g id="Regular-S" transform="matrix(1 0 0 1 1403.07 696)">
   <path class="monochrome-0 multicolor-1:white hierarchical-0:secondary SFSymbolsPreviewFFFFFF" d="M40.4246-26.1094C41.7029-24.831 41.7029-22.7585 40.4246-21.4801L32.4692-13.5247C31.1908-12.2464 29.1183-12.2464 27.8399-13.5247C26.5616-14.803 26.5616-16.8756 27.8399-18.1539L35.7954-26.1094C37.0737-27.3877 39.1463-27.3877 40.4246-26.1094ZM57.9266-26.1094L65.882-18.1539C67.1604-16.8756 67.1604-14.803 65.882-13.5247C64.6037-12.2464 62.5312-12.2464 61.2528-13.5247L53.2974-21.4801C52.0191-22.7585 52.0191-24.831 53.2974-26.1094C54.5757-27.3877 56.6483-27.3877 57.9266-26.1094ZM32.4692-51.5668L40.4246-43.6114C41.7029-42.333 41.7029-40.2605 40.4246-38.9821C39.1463-37.7038 37.0737-37.7038 35.7954-38.9821L27.8399-46.9376C26.5616-48.2159 26.5616-50.2885 27.8399-51.5668C29.1183-52.8451 31.1908-52.8451 32.4692-51.5668ZM65.882-51.5668C67.1604-50.2885 67.1604-48.2159 65.882-46.9376L57.9266-38.9821C56.6483-37.7038 54.5757-37.7038 53.2974-38.9821C52.0191-40.2605 52.0191-42.333 53.2974-43.6114L61.2528-51.5668C62.5312-52.8451 64.6037-52.8451 65.882-51.5668ZM34.4782-35.8261C36.286-35.8261 37.7515-34.3606 37.7515-32.5528C37.7515-30.745 36.286-29.2794 34.4782-29.2794L23.2275-29.2794C21.4196-29.2794 19.9541-30.745 19.9541-32.5528C19.9541-34.3606 21.4196-35.8261 23.2275-35.8261L34.4782-35.8261ZM46.8539-23.4504C48.6618-23.4504 50.1273-21.9848 50.1273-20.177L50.1273-8.9263C50.1273-7.11848 48.6618-5.65295 46.8539-5.65295C45.0461-5.65295 43.5806-7.11848 43.5806-8.9263L43.5806-20.177C43.5806-21.9848 45.0461-23.4504 46.8539-23.4504ZM70.4804-35.8261C72.2882-35.8261 73.7538-34.3606 73.7538-32.5528C73.7538-30.745 72.2882-29.2794 70.4804-29.2794L59.2297-29.2794C57.4219-29.2794 55.9564-30.745 55.9564-32.5528C55.9564-34.3606 57.4219-35.8261 59.2297-35.8261L70.4804-35.8261ZM46.8539-59.4526C48.6618-59.4526 50.1273-57.9871 50.1273-56.1793L50.1273-44.9286C50.1273-43.1207 48.6618-41.6552 46.8539-41.6552C45.0461-41.6552 43.5806-43.1207 43.5806-44.9286L43.5806-56.1793C43.5806-57.9871 45.0461-59.4526 46.8539-59.4526Z"/>
   <path class="monochrome-1 multicolor-2:systemOrangeColor hierarchical-1:primary SFSymbolsPreviewFF9500" d="M63.9315-74C67.8956-74 71.4679-73.6674 74.6482-73.0023C77.8285-72.3371 80.5783-70.8605 82.8977-68.5723C85.1859-66.2846 86.6474-63.5593 87.2824-60.3963C87.9174-57.2332 88.2349-53.6524 88.2349-49.6536L88.2349-15.3457C88.2349-11.3756 87.9174-7.80904 87.2824-4.64603C86.6474-1.48302 85.1859 1.25667 82.8977 3.57304C80.5813 5.86419 77.8322 7.34147 74.6504 8.00488C71.4686 8.66829 67.8956 9 63.9315 9L29.2757 9C25.312 9 21.7329 8.66829 18.5382 8.00488C15.3435 7.34147 12.6006 5.86419 10.3095 3.57304C7.99014 1.28832 6.51373-1.44346 5.88024-4.62229C5.24675-7.80112 4.93-11.3756 4.93-15.3457L4.93-49.7827C4.93-53.6954 5.25392-57.2261 5.90175-60.3747C6.54958-63.5234 8.01883-66.2559 10.3095-68.5723C12.5977-70.8605 15.3327-72.3371 18.5145-73.0023C21.6963-73.6674 25.2405-74 29.1473-74Z"/>
   <path class="monochrome-1 multicolor-0:systemYellowColor multicolor-2:systemOrangeColor hierarchical-1:primary SFSymbolsPreviewFFCC00" d="M65.1703-65.9404L28.1229-65.9404C25.7749-65.9404 23.5269-65.7227 21.3789-65.2873C19.2309-64.8518 17.5039-63.9826 16.1978-62.6795C14.8982-61.3764 14.0458-59.6597 13.6405-57.5292C13.2352-55.3988 13.0326-53.1581 13.0326-50.8071L13.0326-14.1069C13.0326-11.7841 13.2352-9.56461 13.6405-7.44853C14.0458-5.33244 14.8982-3.62137 16.1978-2.31532C17.5039-1.01569 19.2237-0.155213 21.3574 0.266125C23.491 0.687464 25.7175 0.898133 28.0369 0.898133L65.1703 0.898133C67.4901 0.898133 69.7167 0.687464 71.8501 0.266125C73.9835-0.155213 75.7033-1.01569 77.0093-2.31532C78.2808-3.62137 79.1263-5.33244 79.5459-7.44853C79.9655-9.56461 80.1753-11.7841 80.1753-14.1069L80.1753-50.8924C80.1753-53.2439 79.9655-55.4705 79.5459-57.5722C79.1263-59.674 78.2808-61.3764 77.0093-62.6795C75.7033-63.9826 73.9835-64.8518 71.8501-65.2873C69.7167-65.7227 67.4901-65.9404 65.1703-65.9404Z"/>
  </g>
  <g id="Ultralight-S" transform="matrix(1 0 0 1 515.84 696)">
   <path class="monochrome-0 multicolor-1:white hierarchical-0:secondary SFSymbolsPreviewFFFFFF" d="M36.6546-29.1094C37.9329-27.831 37.9329-25.7585 36.6546-24.4801L28.6992-16.5247C27.4208-15.2464 25.3483-15.2464 24.0699-16.5247C22.7916-17.803 22.7916-19.8756 24.0699-21.1539L32.0254-29.1094C33.3037-30.3877 35.3763-30.3877 36.6546-29.1094ZM54.1566-29.1094L62.112-21.1539C63.3904-19.8756 63.3904-17.803 62.112-16.5247C60.8337-15.2464 58.7612-15.2464 57.4828-16.5247L49.5274-24.4801C48.2491-25.7585 48.2491-27.831 49.5274-29.1094C50.8057-30.3877 52.8783-30.3877 54.1566-29.1094ZM28.6992-54.5668L36.6546-46.6114C37.9329-45.333 37.9329-43.2605 36.6546-41.9821C35.3763-40.7038 33.3037-40.7038 32.0254-41.9821L24.0699-49.9376C22.7916-51.2159 22.7916-53.2885 24.0699-54.5668C25.3483-55.8451 27.4208-55.8451 28.6992-54.5668ZM62.112-54.5668C63.3904-53.2885 63.3904-51.2159 62.112-49.9376L54.1566-41.9821C52.8783-40.7038 50.8057-40.7038 49.5274-41.9821C48.2491-43.2605 48.2491-45.333 49.5274-46.6114L57.4828-54.5668C58.7612-55.8451 60.8337-55.8451 62.112-54.5668ZM30.7082-38.8261C32.516-38.8261 33.9815-37.3606 33.9815-35.5528C33.9815-33.745 32.516-32.2794 30.7082-32.2794L19.4575-32.2794C17.6496-32.2794 16.1841-33.745 16.1841-35.5528C16.1841-37.3606 17.6496-38.8261 19.4575-38.8261L30.7082-38.8261ZM43.0839-26.4504C44.8918-26.4504 46.3573-24.9848 46.3573-23.177L46.3573-11.9263C46.3573-10.1185 44.8918-8.65295 43.0839-8.65295C41.2761-8.65295 39.8106-10.1185 39.8106-11.9263L39.8106-23.177C39.8106-24.9848 41.2761-26.4504 43.0839-26.4504ZM66.7104-38.8261C68.5182-38.8261 69.9838-37.3606 69.9838-35.5528C69.9838-33.745 68.5182-32.2794 66.7104-32.2794L55.4597-32.2794C53.6519-32.2794 52.1864-33.745 52.1864-35.5528C52.1864-37.3606 53.6519-38.8261 55.4597-38.8261L66.7104-38.8261ZM43.0839-62.4526C44.8918-62.4526 46.3573-60.9871 46.3573-59.1793L46.3573-47.9286C46.3573-46.1207 44.8918-44.6552 43.0839-44.6552C41.2761-44.6552 39.8106-46.1207 39.8106-47.9286L39.8106-59.1793C39.8106-60.9871 41.2761-62.4526 43.0839-62.4526Z"/>
   <path class="monochrome-1 multicolor-2:systemOrangeColor hierarchical-1:primary SFSymbolsPreviewFF9500" d="M60.1615-77C64.1256-77 67.6979-76.6674 70.8782-76.0023C74.0585-75.3371 76.8083-73.8605 79.1277-71.5723C81.4159-69.2846 82.8774-66.5593 83.5124-63.3963C84.1474-60.2332 84.4649-56.6524 84.4649-52.6536L84.4649-18.3457C84.4649-14.3756 84.1474-10.809 83.5124-7.64603C82.8774-4.48302 81.4159-1.74333 79.1277 0.57304C76.8113 2.86419 74.0622 4.34147 70.8804 5.00488C67.6986 5.66829 64.1256 6 60.1615 6L25.5057 6C21.542 6 17.9629 5.66829 14.7682 5.00488C11.5735 4.34147 8.83064 2.86419 6.53949 0.57304C4.22014-1.71168 2.74373-4.44346 2.11024-7.62229C1.47675-10.8011 1.16-14.3756 1.16-18.3457L1.16-52.7827C1.16-56.6954 1.48392-60.2261 2.13175-63.3747C2.77958-66.5234 4.24883-69.2559 6.53949-71.5723C8.82767-73.8605 11.5627-75.3371 14.7445-76.0023C17.9263-76.6674 21.4705-77 25.3773-77Z"/>
   <path class="monochrome-1 multicolor-0:systemYellowColor multicolor-2:systemOrangeColor hierarchical-1:primary SFSymbolsPreviewFFCC00" d="M61.4003-68.9404L24.3529-68.9404C22.0049-68.9404 19.7569-68.7227 17.6089-68.2873C15.4609-67.8518 13.7339-66.9826 12.4278-65.6795C11.1282-64.3764 10.2758-62.6597 9.87051-60.5292C9.46524-58.3988 9.26261-56.1581 9.26261-53.8071L9.26261-17.1069C9.26261-14.7841 9.46524-12.5646 9.87051-10.4485C10.2758-8.33244 11.1282-6.62137 12.4278-5.31532C13.7339-4.01569 15.4537-3.15521 17.5874-2.73387C19.721-2.31254 21.9475-2.10187 24.2669-2.10187L61.4003-2.10187C63.7201-2.10187 65.9467-2.31254 68.0801-2.73387C70.2135-3.15521 71.9333-4.01569 73.2393-5.31532C74.5108-6.62137 75.3563-8.33244 75.7759-10.4485C76.1955-12.5646 76.4053-14.7841 76.4053-17.1069L76.4053-53.8924C76.4053-56.2439 76.1955-58.4705 75.7759-60.5722C75.3563-62.674 74.5108-64.3764 73.2393-65.6795C71.9333-66.9826 70.2135-67.8518 68.0801-68.2873C65.9467-68.7227 63.7201-68.9404 61.4003-68.9404Z"/>
  </g>
 </g>
</svg>
