<?xml version="1.0" encoding="UTF-8"?>
<svg width="691px" height="612px" viewBox="0 0 691 612" version="1.1" xmlns="http://www.w3.org/2000/svg" xmlns:xlink="http://www.w3.org/1999/xlink">
    <!-- Generator: Sketch 52.6 (67491) - http://www.bohemiancoding.com/sketch -->
    <title>Combined Shape</title>
    <desc>Created with Sketch.</desc>
    <g id="Page-1" stroke="none" stroke-width="1" fill="none" fill-rule="evenodd">
        <path d="M575.962302,198.687709 C563.961127,201.385494 552.392068,192.713003 551.615765,180.436848 C548.892658,137.374707 520.628086,101.94991 470.617011,76.6091354 C422.707117,52.3330358 357.939637,39.3397735 290.894478,40.0256995 C223.7266,40.7128811 160.005013,55.0650602 113.926669,80.4641478 C65.7838581,107.0012 40,143.330581 40,187.534921 C40,401.132367 156.562902,572 295.918982,572 C374.623793,572 448.588994,517.287925 497.313758,424.109594 C501.383713,416.326455 510.055274,412.109408 518.690513,413.713913 C522.177658,414.361856 525.928829,414.648707 529.944179,414.554683 C577.731429,413.435697 631.252587,362.3528 646.47276,300.463422 C653.92384,270.165298 652.013815,243.074418 642.108519,224.212862 C632.882092,206.644002 617.188366,196.985496 595.434391,196.607231 C589.12554,196.497531 582.601812,197.195192 575.962302,198.687709 Z M596.129819,156.613277 C632.486877,157.245465 661.496332,175.098968 677.522132,205.61512 C692.346371,233.843272 694.953674,270.82402 685.315413,310.015819 C666.073016,388.260657 598.279714,452.965503 530.880562,454.543722 C529.343151,454.579722 527.817142,454.58151 526.302957,454.548975 C471.043167,552.788226 387.492517,612 295.918982,612 C130.50337,612 0,420.697265 0,187.534921 C0,127.307683 34.6471681,78.4899243 94.6172421,45.4335033 C146.967891,16.5770259 217.111186,0.778468834 290.485267,0.0277927728 C363.58323,-0.720058388 434.631405,13.5331995 488.696642,40.9282307 C542.749484,68.3169814 578.216175,107.795081 588.641908,156.726907 C591.145537,156.608268 593.642375,156.570024 596.129819,156.613277 Z M548.889818,245.862297 C549.78793,237.063486 556.35867,229.8994 565.047249,228.245832 C570.778535,227.155081 576.405469,226.839704 581.789852,227.388473 C600.359576,229.281075 614.167124,241.688126 619.723719,259.946414 C624.412342,275.352653 623.150332,294.24465 616.502463,314.3018 C605.967744,346.085885 579.505642,372.315733 550.333061,379.529901 C535.121735,383.291552 521.689147,368.893172 526.496208,353.979198 C537.47434,319.919393 545.041652,283.562816 548.889818,245.862297 Z M295.638708,253.260321 C240.055033,253.260321 187.720458,244.24156 148.340719,228.19702 C128.141794,219.967345 111.606423,209.995229 99.656257,198.483923 C85.8093292,185.145511 78,169.596611 78,152.736117 C78,135.484169 86.6610324,119.866772 101.734147,106.534742 C114.338279,95.3865056 131.628908,85.6521259 152.528979,77.544716 C192.6397,61.985245 244.654809,53 295.638708,53 C346.622607,53 398.637715,61.985245 438.748436,77.544716 C459.648507,85.6521259 476.939137,95.3865056 489.543268,106.534742 C504.616383,119.866772 513.277416,135.484169 513.277416,152.736117 C513.277416,169.596611 505.468086,185.145511 491.621158,198.483923 C479.670993,209.995229 463.135621,219.967345 442.936696,228.19702 C403.556957,244.24156 351.222382,253.260321 295.638708,253.260321 Z M295.638708,213.260321 C346.316535,213.260321 393.573316,205.116611 427.84406,191.153636 C457.965839,178.881079 473.277416,164.131806 473.277416,152.736117 C473.277416,142.247451 456.352798,127.277785 424.282203,114.837183 C388.973479,101.140469 341.848733,93 295.638708,93 C249.428683,93 202.303936,101.140469 166.995213,114.837183 C134.924618,127.277785 118,142.247451 118,152.736117 C118,164.131806 133.311577,178.881079 163.433355,191.153636 C197.704099,205.116611 244.960881,213.260321 295.638708,213.260321 Z M337.197286,538.586336 C322.011657,548.470863 308.756204,554.247258 296.565453,554.247258 C284.364053,554.247258 271.130444,548.465792 255.977598,538.569683 C244.924018,531.350745 233.222818,521.993998 224.008725,513.274857 C207.129535,497.845342 193.175525,481.978634 182.233814,465.641351 C170.088095,448.028129 162.492597,429.935563 159.754566,411.427303 C157.902756,398.909621 158.443943,387.105547 161.537907,376.131758 L161.581178,375.980563 C164.820069,364.829225 170.355258,354.989533 178.109214,346.699776 L178.219228,346.583101 C185.972801,338.425852 195.46743,332.189879 206.52743,327.906392 C217.251307,323.785304 228.886179,321.75 241.273685,321.75 C257.172671,321.75 271.653196,325.350925 284.285065,332.644207 L284.380157,332.699459 C288.751628,335.255576 292.819204,338.123495 296.571916,341.295028 C300.373009,338.08049 304.491749,335.183439 308.917115,332.61293 L309.011427,332.558491 C321.622192,325.32497 336.037835,321.75 351.832947,321.75 C364.313453,321.75 375.981442,323.785901 386.730344,327.937594 C397.68788,332.202954 407.15018,338.434104 414.896647,346.576916 L415.006622,346.693449 C422.743422,354.957684 428.296091,364.76168 431.590505,375.874492 L431.635001,376.026804 C434.801478,387.027601 435.379941,398.864936 433.531647,411.414581 C430.805559,429.924319 423.221134,448.018845 411.085717,465.633931 C400.148982,481.979659 386.180362,497.852391 369.267805,513.286292 C360.053708,521.990714 348.300821,531.358898 337.197286,538.586336 Z M199.323923,405.573586 C201.122851,417.733792 206.36281,430.195792 215.22997,443.030036 C215.287514,443.113324 215.344425,443.197048 215.400697,443.281201 C224.501956,456.891652 236.412796,470.434365 251.117622,483.861627 C251.210044,483.94602 251.301672,484.031278 251.392494,484.117391 C258.938823,491.272445 268.829401,499.188189 277.849734,505.079241 C286.925118,511.006246 294.343701,514.247258 296.565453,514.247258 C298.80027,514.247258 306.259866,510.996552 315.376235,505.062587 C324.441759,499.161718 334.37369,491.238145 341.90838,484.105983 C341.999342,484.01988 342.091112,483.934634 342.183676,483.850255 C356.908663,470.427345 368.822126,456.890675 377.908746,443.288752 C377.965015,443.204523 378.021922,443.120722 378.079464,443.037357 C386.936883,430.205009 392.167819,417.745002 393.958535,405.586308 C395.002966,398.494769 394.712089,392.407532 393.217143,387.166005 C391.677964,382.012632 389.254282,377.732055 385.860371,374.088891 C382.257445,370.319609 377.774559,367.375102 372.269444,365.232093 C366.321606,362.93482 359.531263,361.75 351.832947,361.75 C342.820979,361.75 335.284064,363.613671 328.959889,367.229296 C322.458588,371.015288 317.412271,375.91377 313.592656,382.112744 C305.768682,394.810519 287.300139,394.785783 279.510207,382.067095 C275.767381,375.956151 270.756155,371.079071 264.238088,367.258145 C257.9261,363.625948 250.360052,361.75 241.273685,361.75 C233.660774,361.75 226.883996,362.935471 220.924946,365.225406 C215.341405,367.387923 210.853833,370.327579 207.267289,374.082636 C203.900567,377.700041 201.513336,381.945114 200.0161,387.060711 C198.544212,392.329341 198.270078,398.449909 199.323923,405.573586 Z" id="Combined-Shape" fill="#000000" fill-rule="nonzero"></path>
    </g>
</svg>