<svg xmlns="http://www.w3.org/2000/svg" xmlns:xlink="http://www.w3.org/1999/xlink" version="1.1" width="3300" height="2200">
 <!--glyph: "", point size: 100.0, font version: "17.1d1e1", template writer version: "65.1"-->
<style>

.hierarchical-1:primary {fill:#262626;}
.SFSymbolsPreview262626 {fill:#262626;}
.hierarchical-2:secondary {fill:#7f7f7f;}
.SFSymbolsPreview7F7F7F {fill:#7f7f7f;}
</style>
 <g id="Notes">
  <rect height="2200" id="artboard" style="fill:white;opacity:1" width="3300" x="0" y="0"/>
  <line style="fill:none;stroke:black;opacity:1;stroke-width:0.5;" x1="263" x2="3036" y1="292" y2="292"/>
  <text style="stroke:none;fill:black;font-family:sans-serif;font-size:13;font-weight:bold;" transform="matrix(1 0 0 1 263 322)">Weight/Scale Variations</text>
  <text style="stroke:none;fill:black;font-family:sans-serif;font-size:13;text-anchor:middle;" transform="matrix(1 0 0 1 559.711 322)">Ultralight</text>
  <text style="stroke:none;fill:black;font-family:sans-serif;font-size:13;text-anchor:middle;" transform="matrix(1 0 0 1 856.422 322)">Thin</text>
  <text style="stroke:none;fill:black;font-family:sans-serif;font-size:13;text-anchor:middle;" transform="matrix(1 0 0 1 1153.13 322)">Light</text>
  <text style="stroke:none;fill:black;font-family:sans-serif;font-size:13;text-anchor:middle;" transform="matrix(1 0 0 1 1449.84 322)">Regular</text>
  <text style="stroke:none;fill:black;font-family:sans-serif;font-size:13;text-anchor:middle;" transform="matrix(1 0 0 1 1746.56 322)">Medium</text>
  <text style="stroke:none;fill:black;font-family:sans-serif;font-size:13;text-anchor:middle;" transform="matrix(1 0 0 1 2043.27 322)">Semibold</text>
  <text style="stroke:none;fill:black;font-family:sans-serif;font-size:13;text-anchor:middle;" transform="matrix(1 0 0 1 2339.98 322)">Bold</text>
  <text style="stroke:none;fill:black;font-family:sans-serif;font-size:13;text-anchor:middle;" transform="matrix(1 0 0 1 2636.69 322)">Heavy</text>
  <text style="stroke:none;fill:black;font-family:sans-serif;font-size:13;text-anchor:middle;" transform="matrix(1 0 0 1 2933.4 322)">Black</text>
  <line style="fill:none;stroke:black;opacity:1;stroke-width:0.5;" x1="263" x2="3036" y1="1903" y2="1903"/>
  <g transform="matrix(1 0 0 1 263 1933)">
   <path d="M9.24805 0.830078Q10.8691 0.830078 12.2949 0.214844Q13.7207-0.400391 14.8096-1.49414Q15.8984-2.58789 16.5186-4.01367Q17.1387-5.43945 17.1387-7.05078Q17.1387-8.66211 16.5186-10.0879Q15.8984-11.5137 14.8047-12.6074Q13.7109-13.7012 12.2852-14.3164Q10.8594-14.9316 9.23828-14.9316Q7.62695-14.9316 6.20117-14.3164Q4.77539-13.7012 3.69141-12.6074Q2.60742-11.5137 1.9873-10.0879Q1.36719-8.66211 1.36719-7.05078Q1.36719-5.43945 1.9873-4.01367Q2.60742-2.58789 3.69629-1.49414Q4.78516-0.400391 6.21094 0.214844Q7.63672 0.830078 9.24805 0.830078ZM9.24805-0.654297Q7.91992-0.654297 6.7627-1.14746Q5.60547-1.64062 4.73145-2.51953Q3.85742-3.39844 3.36426-4.56055Q2.87109-5.72266 2.87109-7.05078Q2.87109-8.37891 3.35938-9.54102Q3.84766-10.7031 4.72168-11.582Q5.5957-12.4609 6.75293-12.9541Q7.91016-13.4473 9.23828-13.4473Q10.5762-13.4473 11.7334-12.9541Q12.8906-12.4609 13.7695-11.582Q14.6484-10.7031 15.1465-9.54102Q15.6445-8.37891 15.6445-7.05078Q15.6445-5.72266 15.1514-4.56055Q14.6582-3.39844 13.7842-2.51953Q12.9102-1.64062 11.748-1.14746Q10.5859-0.654297 9.24805-0.654297ZM5.6543-7.05078Q5.6543-6.72852 5.85938-6.52832Q6.06445-6.32812 6.40625-6.32812L8.51562-6.32812L8.51562-4.20898Q8.51562-3.88672 8.71094-3.67676Q8.90625-3.4668 9.23828-3.4668Q9.56055-3.4668 9.77051-3.67676Q9.98047-3.88672 9.98047-4.20898L9.98047-6.32812L12.0898-6.32812Q12.4219-6.32812 12.627-6.52832Q12.832-6.72852 12.832-7.05078Q12.832-7.38281 12.627-7.58789Q12.4219-7.79297 12.0898-7.79297L9.98047-7.79297L9.98047-9.90234Q9.98047-10.2344 9.77051-10.4443Q9.56055-10.6543 9.23828-10.6543Q8.90625-10.6543 8.71094-10.4443Q8.51562-10.2344 8.51562-9.90234L8.51562-7.79297L6.40625-7.79297Q6.06445-7.79297 5.85938-7.58789Q5.6543-7.38281 5.6543-7.05078Z"/>
  </g>
  <g transform="matrix(1 0 0 1 281.867 1933)">
   <path d="M11.709 2.91016Q13.75 2.91016 15.5518 2.12891Q17.3535 1.34766 18.7305-0.0292969Q20.1074-1.40625 20.8887-3.20801Q21.6699-5.00977 21.6699-7.05078Q21.6699-9.0918 20.8887-10.8936Q20.1074-12.6953 18.7305-14.0723Q17.3535-15.4492 15.5469-16.2305Q13.7402-17.0117 11.6992-17.0117Q9.6582-17.0117 7.85645-16.2305Q6.05469-15.4492 4.68262-14.0723Q3.31055-12.6953 2.5293-10.8936Q1.74805-9.0918 1.74805-7.05078Q1.74805-5.00977 2.5293-3.20801Q3.31055-1.40625 4.6875-0.0292969Q6.06445 1.34766 7.86621 2.12891Q9.66797 2.91016 11.709 2.91016ZM11.709 1.25Q9.98047 1.25 8.47656 0.605469Q6.97266-0.0390625 5.83496-1.17676Q4.69727-2.31445 4.05762-3.81836Q3.41797-5.32227 3.41797-7.05078Q3.41797-8.7793 4.05762-10.2832Q4.69727-11.7871 5.83008-12.9297Q6.96289-14.0723 8.4668-14.7119Q9.9707-15.3516 11.6992-15.3516Q13.4277-15.3516 14.9316-14.7119Q16.4355-14.0723 17.5781-12.9297Q18.7207-11.7871 19.3652-10.2832Q20.0098-8.7793 20.0098-7.05078Q20.0098-5.32227 19.3701-3.81836Q18.7305-2.31445 17.5928-1.17676Q16.4551-0.0390625 14.9463 0.605469Q13.4375 1.25 11.709 1.25ZM7.17773-7.05078Q7.17773-6.69922 7.41211-6.47461Q7.64648-6.25 8.01758-6.25L10.8887-6.25L10.8887-3.36914Q10.8887-2.99805 11.1133-2.76855Q11.3379-2.53906 11.6895-2.53906Q12.0605-2.53906 12.29-2.76855Q12.5195-2.99805 12.5195-3.36914L12.5195-6.25L15.4004-6.25Q15.7715-6.25 16.001-6.47461Q16.2305-6.69922 16.2305-7.05078Q16.2305-7.42188 16.001-7.65137Q15.7715-7.88086 15.4004-7.88086L12.5195-7.88086L12.5195-10.752Q12.5195-11.1328 12.29-11.3623Q12.0605-11.5918 11.6895-11.5918Q11.3379-11.5918 11.1133-11.3574Q10.8887-11.123 10.8887-10.752L10.8887-7.88086L8.01758-7.88086Q7.63672-7.88086 7.40723-7.65137Q7.17773-7.42188 7.17773-7.05078Z"/>
  </g>
  <g transform="matrix(1 0 0 1 305.646 1933)">
   <path d="M14.9707 5.66406Q17.0605 5.66406 18.96 5.01465Q20.8594 4.36523 22.4512 3.19336Q24.043 2.02148 25.2197 0.429688Q26.3965-1.16211 27.0459-3.06641Q27.6953-4.9707 27.6953-7.05078Q27.6953-9.14062 27.0459-11.04Q26.3965-12.9395 25.2197-14.5312Q24.043-16.123 22.4512-17.2998Q20.8594-18.4766 18.9551-19.126Q17.0508-19.7754 14.9609-19.7754Q12.8711-19.7754 10.9717-19.126Q9.07227-18.4766 7.48535-17.2998Q5.89844-16.123 4.72168-14.5312Q3.54492-12.9395 2.90039-11.04Q2.25586-9.14062 2.25586-7.05078Q2.25586-4.9707 2.90527-3.06641Q3.55469-1.16211 4.72656 0.429688Q5.89844 2.02148 7.49023 3.19336Q9.08203 4.36523 10.9814 5.01465Q12.8809 5.66406 14.9707 5.66406ZM14.9707 3.84766Q13.1641 3.84766 11.5283 3.2959Q9.89258 2.74414 8.53516 1.74805Q7.17773 0.751953 6.17676-0.610352Q5.17578-1.97266 4.62891-3.6084Q4.08203-5.24414 4.08203-7.05078Q4.08203-8.86719 4.62891-10.5029Q5.17578-12.1387 6.17188-13.501Q7.16797-14.8633 8.52539-15.8594Q9.88281-16.8555 11.5186-17.4023Q13.1543-17.9492 14.9609-17.9492Q16.7773-17.9492 18.4131-17.4023Q20.0488-16.8555 21.4111-15.8594Q22.7734-14.8633 23.7695-13.501Q24.7656-12.1387 25.3174-10.5029Q25.8691-8.86719 25.8691-7.05078Q25.8789-5.24414 25.332-3.6084Q24.7852-1.97266 23.7842-0.610352Q22.7832 0.751953 21.4209 1.74805Q20.0586 2.74414 18.4229 3.2959Q16.7871 3.84766 14.9707 3.84766ZM9.19922-7.05078Q9.19922-6.66992 9.45801-6.4209Q9.7168-6.17188 10.1172-6.17188L14.0625-6.17188L14.0625-2.2168Q14.0625-1.81641 14.3115-1.55762Q14.5605-1.29883 14.9512-1.29883Q15.3516-1.29883 15.6104-1.55273Q15.8691-1.80664 15.8691-2.2168L15.8691-6.17188L19.8242-6.17188Q20.2246-6.17188 20.4785-6.4209Q20.7324-6.66992 20.7324-7.05078Q20.7324-7.46094 20.4785-7.71484Q20.2246-7.96875 19.8242-7.96875L15.8691-7.96875L15.8691-11.9141Q15.8691-12.3242 15.6104-12.583Q15.3516-12.8418 14.9512-12.8418Q14.5605-12.8418 14.3115-12.583Q14.0625-12.3242 14.0625-11.9141L14.0625-7.96875L10.1172-7.96875Q9.70703-7.96875 9.45312-7.71484Q9.19922-7.46094 9.19922-7.05078Z"/>
  </g>
  <text style="stroke:none;fill:black;font-family:sans-serif;font-size:13;font-weight:bold;" transform="matrix(1 0 0 1 263 1953)">Design Variations</text>
  <text style="stroke:none;fill:black;font-family:sans-serif;font-size:13;" transform="matrix(1 0 0 1 263 1971)">Symbols are supported in up to nine weights and three scales.</text>
  <text style="stroke:none;fill:black;font-family:sans-serif;font-size:13;" transform="matrix(1 0 0 1 263 1989)">For optimal layout with text and other symbols, vertically align</text>
  <text style="stroke:none;fill:black;font-family:sans-serif;font-size:13;" transform="matrix(1 0 0 1 263 2007)">symbols with the adjacent text.</text>
  <line style="fill:none;stroke:#00AEEF;stroke-width:0.5;opacity:1.0;" x1="776" x2="776" y1="1919" y2="1933"/>
  <g transform="matrix(1 0 0 1 776 1933)">
   <path d="M3.31055 0.15625Q3.70117 0.15625 3.91602-0.00976562Q4.13086-0.175781 4.26758-0.585938L5.52734-4.0332L11.2891-4.0332L12.5488-0.585938Q12.6855-0.175781 12.9004-0.00976562Q13.1152 0.15625 13.4961 0.15625Q13.8867 0.15625 14.1162-0.0585938Q14.3457-0.273438 14.3457-0.644531Q14.3457-0.869141 14.2383-1.17188L9.6582-13.3691Q9.48242-13.8184 9.17969-14.043Q8.87695-14.2676 8.4082-14.2676Q7.5-14.2676 7.17773-13.3789L2.59766-1.16211Q2.49023-0.859375 2.49023-0.634766Q2.49023-0.263672 2.70996-0.0537109Q2.92969 0.15625 3.31055 0.15625ZM6.00586-5.51758L8.37891-12.0898L8.42773-12.0898L10.8008-5.51758Z"/>
  </g>
  <line style="fill:none;stroke:#00AEEF;stroke-width:0.5;opacity:1.0;" x1="793.197" x2="793.197" y1="1919" y2="1933"/>
  <text style="stroke:none;fill:black;font-family:sans-serif;font-size:13;font-weight:bold;" transform="matrix(1 0 0 1 776 1953)">Margins</text>
  <text style="stroke:none;fill:black;font-family:sans-serif;font-size:13;" transform="matrix(1 0 0 1 776 1971)">Leading and trailing margins on the left and right side of each symbol</text>
  <text style="stroke:none;fill:black;font-family:sans-serif;font-size:13;" transform="matrix(1 0 0 1 776 1989)">can be adjusted by modifying the x-location of the margin guidelines.</text>
  <text style="stroke:none;fill:black;font-family:sans-serif;font-size:13;" transform="matrix(1 0 0 1 776 2007)">Modifications are automatically applied proportionally to all</text>
  <text style="stroke:none;fill:black;font-family:sans-serif;font-size:13;" transform="matrix(1 0 0 1 776 2025)">scales and weights.</text>
  <g transform="matrix(1 0 0 1 1289 1933)">
   <path d="M2.8418 1.86523L4.54102 3.57422Q5.18555 4.22852 5.90332 4.17969Q6.62109 4.13086 7.31445 3.35938L18.0078-8.42773L17.041-9.4043L6.42578 2.27539Q6.16211 2.57812 5.89355 2.61719Q5.625 2.65625 5.27344 2.30469L4.10156 1.14258Q3.75 0.791016 3.79395 0.522461Q3.83789 0.253906 4.14062-0.0195312L15.6152-10.8203L14.6387-11.7871L3.04688-0.898438Q2.30469-0.214844 2.25098 0.498047Q2.19727 1.21094 2.8418 1.86523ZM9.25781-16.3281Q8.94531-16.0254 8.90625-15.6348Q8.86719-15.2441 9.04297-14.9512Q9.21875-14.6777 9.55566-14.541Q9.89258-14.4043 10.3809-14.5215Q11.4746-14.7754 12.5977-14.7314Q13.7207-14.6875 14.7949-13.9844L14.209-12.5293Q13.9551-11.9043 14.0674-11.4404Q14.1797-10.9766 14.5801-10.5664L16.875-8.25195Q17.2363-7.88086 17.5781-7.82227Q17.9199-7.76367 18.3398-7.8418L19.4043-8.03711L20.0684-7.36328L20.0293-6.80664Q20-6.43555 20.1221-6.12305Q20.2441-5.81055 20.6055-5.44922L21.3672-4.70703Q21.7285-4.3457 22.1533-4.33105Q22.5781-4.31641 22.9297-4.66797L25.8398-7.58789Q26.1914-7.93945 26.1816-8.35449Q26.1719-8.76953 25.8105-9.13086L25.0391-9.89258Q24.6875-10.2539 24.3799-10.3857Q24.0723-10.5176 23.7109-10.4883L23.1348-10.4395L22.4902-11.0742L22.7344-12.1973Q22.832-12.6172 22.6953-12.9834Q22.5586-13.3496 22.1191-13.7891L19.9219-15.9766Q18.6719-17.2168 17.2607-17.8369Q15.8496-18.457 14.4189-18.4814Q12.9883-18.5059 11.665-17.959Q10.3418-17.4121 9.25781-16.3281ZM10.752-15.957Q11.6602-16.6211 12.7002-16.9043Q13.7402-17.1875 14.8047-17.085Q15.8691-16.9824 16.8701-16.5137Q17.8711-16.0449 18.7012-15.2051L21.1328-12.793Q21.3086-12.6172 21.3525-12.4512Q21.3965-12.2852 21.3379-12.0312L21.0156-10.5469L22.5195-9.0625L23.5059-9.12109Q23.6914-9.13086 23.7891-9.09668Q23.8867-9.0625 24.0332-8.91602L24.6094-8.33984L22.168-5.89844L21.5918-6.47461Q21.4453-6.62109 21.4062-6.71875Q21.3672-6.81641 21.377-7.01172L21.4453-7.98828L19.9512-9.47266L18.4277-9.21875Q18.1836-9.16992 18.042-9.2041Q17.9004-9.23828 17.7148-9.41406L15.7129-11.416Q15.5176-11.5918 15.4932-11.7529Q15.4688-11.9141 15.5859-12.1875L16.4648-14.2773Q15.293-15.3711 13.8281-15.791Q12.3633-16.2109 10.8398-15.7617Q10.7227-15.7324 10.6885-15.8057Q10.6543-15.8789 10.752-15.957Z"/>
  </g>
  <text style="stroke:none;fill:black;font-family:sans-serif;font-size:13;font-weight:bold;" transform="matrix(1 0 0 1 1289 1953)">Exporting</text>
  <text style="stroke:none;fill:black;font-family:sans-serif;font-size:13;" transform="matrix(1 0 0 1 1289 1971)">Symbols should be outlined when exporting to ensure the</text>
  <text style="stroke:none;fill:black;font-family:sans-serif;font-size:13;" transform="matrix(1 0 0 1 1289 1989)">design is preserved when submitting to Xcode.</text>
  <text id="template-version" style="stroke:none;fill:black;font-family:sans-serif;font-size:13;text-anchor:end;" transform="matrix(1 0 0 1 3036 1933)">Template v.3.0</text>
  <text style="stroke:none;fill:black;font-family:sans-serif;font-size:13;text-anchor:end;" transform="matrix(1 0 0 1 3036 1951)">Requires Xcode 13 or greater</text>
  <text id="descriptive-name" style="stroke:none;fill:black;font-family:sans-serif;font-size:13;text-anchor:end;" transform="matrix(1 0 0 1 3036 1969)">Symbol moniker: addPhoto</text>
  <text style="stroke:none;fill:black;font-family:sans-serif;font-size:13;text-anchor:end;" transform="matrix(1 0 0 1 3036 1987)">Typeset at 100 points</text>
  <text style="stroke:none;fill:black;font-family:sans-serif;font-size:13;" transform="matrix(1 0 0 1 263 726)">Small</text>
  <text style="stroke:none;fill:black;font-family:sans-serif;font-size:13;" transform="matrix(1 0 0 1 263 1156)">Medium</text>
  <text style="stroke:none;fill:black;font-family:sans-serif;font-size:13;" transform="matrix(1 0 0 1 263 1586)">Large</text>
 </g>
 <g id="Guides">
  <g id="H-reference" style="fill:#27AAE1;stroke:none;" transform="matrix(1 0 0 1 339 696)">
   <path d="M0.976562 0L3.66211 0L29.3457-67.1387L30.0293-67.1387L30.0293-70.459L28.125-70.459ZM11.6699-24.4629L46.9727-24.4629L46.2402-26.709L12.4512-26.709ZM55.127 0L57.7637 0L30.6152-70.459L29.4434-70.459L29.4434-67.1387Z"/>
  </g>
  <line id="Baseline-S" style="fill:none;stroke:#27AAE1;opacity:1;stroke-width:0.5;" x1="263" x2="3036" y1="696" y2="696"/>
  <line id="Capline-S" style="fill:none;stroke:#27AAE1;opacity:1;stroke-width:0.5;" x1="263" x2="3036" y1="625.541" y2="625.541"/>
  <g id="H-reference" style="fill:#27AAE1;stroke:none;" transform="matrix(1 0 0 1 339 1126)">
   <path d="M0.976562 0L3.66211 0L29.3457-67.1387L30.0293-67.1387L30.0293-70.459L28.125-70.459ZM11.6699-24.4629L46.9727-24.4629L46.2402-26.709L12.4512-26.709ZM55.127 0L57.7637 0L30.6152-70.459L29.4434-70.459L29.4434-67.1387Z"/>
  </g>
  <line id="Baseline-M" style="fill:none;stroke:#27AAE1;opacity:1;stroke-width:0.5;" x1="263" x2="3036" y1="1126" y2="1126"/>
  <line id="Capline-M" style="fill:none;stroke:#27AAE1;opacity:1;stroke-width:0.5;" x1="263" x2="3036" y1="1055.54" y2="1055.54"/>
  <g id="H-reference" style="fill:#27AAE1;stroke:none;" transform="matrix(1 0 0 1 339 1556)">
   <path d="M0.976562 0L3.66211 0L29.3457-67.1387L30.0293-67.1387L30.0293-70.459L28.125-70.459ZM11.6699-24.4629L46.9727-24.4629L46.2402-26.709L12.4512-26.709ZM55.127 0L57.7637 0L30.6152-70.459L29.4434-70.459L29.4434-67.1387Z"/>
  </g>
  <line id="Baseline-L" style="fill:none;stroke:#27AAE1;opacity:1;stroke-width:0.5;" x1="263" x2="3036" y1="1556" y2="1556"/>
  <line id="Capline-L" style="fill:none;stroke:#27AAE1;opacity:1;stroke-width:0.5;" x1="263" x2="3036" y1="1485.54" y2="1485.54"/>
  <line id="left-margin-Ultralight-S" style="fill:none;stroke:#00AEEF;stroke-width:0.5;opacity:1.0;" x1="515.351" x2="515.351" y1="600.784" y2="720.121"/>
  <line id="right-margin-Ultralight-S" style="fill:none;stroke:#00AEEF;stroke-width:0.5;opacity:1.0;" x1="604.071" x2="604.071" y1="600.784" y2="720.121"/>
  <line id="left-margin-Regular-S" style="fill:none;stroke:#00AEEF;stroke-width:0.5;opacity:1.0;" x1="1401.75" x2="1401.75" y1="600.784" y2="720.121"/>
  <line id="right-margin-Regular-S" style="fill:none;stroke:#00AEEF;stroke-width:0.5;opacity:1.0;" x1="1497.94" x2="1497.94" y1="600.784" y2="720.121"/>
  <line id="left-margin-Black-S" style="fill:none;stroke:#00AEEF;stroke-width:0.5;opacity:1.0;" x1="2883.2" x2="2883.2" y1="600.784" y2="720.121"/>
  <line id="right-margin-Black-S" style="fill:none;stroke:#00AEEF;stroke-width:0.5;opacity:1.0;" x1="2983.6" x2="2983.6" y1="600.784" y2="720.121"/>
 </g>
 <g id="Symbols">
  <g id="Black-L" transform="matrix(1,0,0,1,2853.3999999999996,1440.77)">

  <path d="M118.03333333333333 82.6C130.64666666666665 82.6 141.33333333333331 72.05066666666666 141.33333333333331 59.29986666666666 141.33333333333331 46.54913333333333 130.784 36 118.03333333333333 36 105.23666666666665 36 94.73333333333332 46.54913333333333 94.73333333333332 59.29986666666666 94.73333333333332 72.142 105.23666666666665 82.6 118.03333333333333 82.6ZM118.03333333333333 73.93133333333333C116.29066666666667 73.93133333333333 115.19 72.78466666666667 115.19 71.08733333333333V62.14353333333333H106.246C104.54866666666666 62.14353333333333 103.448 61.0428 103.448 59.29986666666666 103.448 57.6028 104.54866666666666 56.502066666666664 106.246 56.502066666666664H115.19V47.5582C115.19 45.861133333333335 116.29066666666667 44.760400000000004 118.03333333333333 44.760400000000004 119.73066666666666 44.760400000000004 120.83133333333333 45.861133333333335 120.83133333333333 47.5582V56.502066666666664H129.77533333333332C131.47199999999998 56.502066666666664 132.61866666666666 57.6028 132.61866666666666 59.29986666666666 132.61866666666666 61.0428 131.47199999999998 62.14353333333333 129.77533333333332 62.14353333333333H120.83133333333333V71.08733333333333C120.83133333333333 72.78466666666667 119.73066666666666 73.93133333333333 118.03333333333333 73.93133333333333Z" class="hierarchical-1:primary "/><path d="M122.17399999999999 89.96933333333334C120.87733333333333 90.142 119.55933333333333 90.23133333333334 118.22466666666665 90.23133333333334 117.15733333333333 90.23133333333334 116.10133333333332 90.17666666666665 115.06133333333334 90.06933333333333V105.338L91.38133333333333 83.09333333333333C89.39333333333333 81.32666666666665 87.096 80.35466666666666 84.71 80.35466666666666 82.28 80.35466666666666 80.11533333333333 81.19399999999999 78.08333333333333 83.00533333333333L58.114399999999996 100.85333333333332 49.94133333333333 93.47533333333332C48.08579999999999 91.79666666666665 46.053599999999996 90.95733333333334 43.977199999999996 90.95733333333334 41.98913333333333 90.95733333333334 40.1336 91.75266666666666 38.27813333333333 93.43133333333333L25.112799999999996 105.318V56.54206666666667C25.112799999999996 51.947466666666664 27.542666666666666 49.56179999999999 31.960533333333334 49.56179999999999H88.94200000000001C89.79866666666666 47.032999999999994 90.976 44.64533333333333 92.42533333333333 42.449H31.8722C22.638799999999996 42.449 18 47.0436 18 56.1444V110.13133333333333C18 119.232 22.638799999999996 123.782 31.8722 123.782H108.30133333333333C117.57933333333332 123.782 122.17399999999999 119.232 122.17399999999999 110.13133333333333V89.96933333333334Z" class="hierarchical-2:secondary "/><path d="M61.29533333333333 73.10933333333332C61.29533333333333 78.85266666666666 56.612333333333325 83.53533333333333 50.913266666666665 83.53533333333333 45.169999999999995 83.53533333333333 40.487066666666664 78.85266666666666 40.487066666666664 73.10933333333332 40.487066666666664 67.41 45.169999999999995 62.68293333333333 50.913266666666665 62.68293333333333 56.612333333333325 62.68293333333333 61.29533333333333 67.41 61.29533333333333 73.10933333333332Z" class="hierarchical-2:secondary "/></g>
  <g id="Regular-L" transform="matrix(1,0,0,1,1369.845,1440.77)">

  <path d="M118.03333333333333 82.6C130.64666666666665 82.6 141.33333333333331 72.05066666666666 141.33333333333331 59.29986666666666 141.33333333333331 46.54913333333333 130.784 36 118.03333333333333 36 105.23666666666665 36 94.73333333333332 46.54913333333333 94.73333333333332 59.29986666666666 94.73333333333332 72.142 105.23666666666665 82.6 118.03333333333333 82.6ZM118.03333333333333 73.93133333333333C116.29066666666667 73.93133333333333 115.19 72.78466666666667 115.19 71.08733333333333V62.14353333333333H106.246C104.54866666666666 62.14353333333333 103.448 61.0428 103.448 59.29986666666666 103.448 57.6028 104.54866666666666 56.502066666666664 106.246 56.502066666666664H115.19V47.5582C115.19 45.861133333333335 116.29066666666667 44.760400000000004 118.03333333333333 44.760400000000004 119.73066666666666 44.760400000000004 120.83133333333333 45.861133333333335 120.83133333333333 47.5582V56.502066666666664H129.77533333333332C131.47199999999998 56.502066666666664 132.61866666666666 57.6028 132.61866666666666 59.29986666666666 132.61866666666666 61.0428 131.47199999999998 62.14353333333333 129.77533333333332 62.14353333333333H120.83133333333333V71.08733333333333C120.83133333333333 72.78466666666667 119.73066666666666 73.93133333333333 118.03333333333333 73.93133333333333Z" class="hierarchical-1:primary "/><path d="M122.17399999999999 89.96933333333334C120.87733333333333 90.142 119.55933333333333 90.23133333333334 118.22466666666665 90.23133333333334 117.15733333333333 90.23133333333334 116.10133333333332 90.17666666666665 115.06133333333334 90.06933333333333V105.338L91.38133333333333 83.09333333333333C89.39333333333333 81.32666666666665 87.096 80.35466666666666 84.71 80.35466666666666 82.28 80.35466666666666 80.11533333333333 81.19399999999999 78.08333333333333 83.00533333333333L58.114399999999996 100.85333333333332 49.94133333333333 93.47533333333332C48.08579999999999 91.79666666666665 46.053599999999996 90.95733333333334 43.977199999999996 90.95733333333334 41.98913333333333 90.95733333333334 40.1336 91.75266666666666 38.27813333333333 93.43133333333333L25.112799999999996 105.318V56.54206666666667C25.112799999999996 51.947466666666664 27.542666666666666 49.56179999999999 31.960533333333334 49.56179999999999H88.94200000000001C89.79866666666666 47.032999999999994 90.976 44.64533333333333 92.42533333333333 42.449H31.8722C22.638799999999996 42.449 18 47.0436 18 56.1444V110.13133333333333C18 119.232 22.638799999999996 123.782 31.8722 123.782H108.30133333333333C117.57933333333332 123.782 122.17399999999999 119.232 122.17399999999999 110.13133333333333V89.96933333333334Z" class="hierarchical-2:secondary "/><path d="M61.29533333333333 73.10933333333332C61.29533333333333 78.85266666666666 56.612333333333325 83.53533333333333 50.913266666666665 83.53533333333333 45.169999999999995 83.53533333333333 40.487066666666664 78.85266666666666 40.487066666666664 73.10933333333332 40.487066666666664 67.41 45.169999999999995 62.68293333333333 50.913266666666665 62.68293333333333 56.612333333333325 62.68293333333333 61.29533333333333 67.41 61.29533333333333 73.10933333333332Z" class="hierarchical-2:secondary "/></g>
  <g id="Ultralight-L" transform="matrix(1,0,0,1,479.711,1440.77)">

  <path d="M118.03333333333333 82.6C130.64666666666665 82.6 141.33333333333331 72.05066666666666 141.33333333333331 59.29986666666666 141.33333333333331 46.54913333333333 130.784 36 118.03333333333333 36 105.23666666666665 36 94.73333333333332 46.54913333333333 94.73333333333332 59.29986666666666 94.73333333333332 72.142 105.23666666666665 82.6 118.03333333333333 82.6ZM118.03333333333333 73.93133333333333C116.29066666666667 73.93133333333333 115.19 72.78466666666667 115.19 71.08733333333333V62.14353333333333H106.246C104.54866666666666 62.14353333333333 103.448 61.0428 103.448 59.29986666666666 103.448 57.6028 104.54866666666666 56.502066666666664 106.246 56.502066666666664H115.19V47.5582C115.19 45.861133333333335 116.29066666666667 44.760400000000004 118.03333333333333 44.760400000000004 119.73066666666666 44.760400000000004 120.83133333333333 45.861133333333335 120.83133333333333 47.5582V56.502066666666664H129.77533333333332C131.47199999999998 56.502066666666664 132.61866666666666 57.6028 132.61866666666666 59.29986666666666 132.61866666666666 61.0428 131.47199999999998 62.14353333333333 129.77533333333332 62.14353333333333H120.83133333333333V71.08733333333333C120.83133333333333 72.78466666666667 119.73066666666666 73.93133333333333 118.03333333333333 73.93133333333333Z" class="hierarchical-1:primary "/><path d="M122.17399999999999 89.96933333333334C120.87733333333333 90.142 119.55933333333333 90.23133333333334 118.22466666666665 90.23133333333334 117.15733333333333 90.23133333333334 116.10133333333332 90.17666666666665 115.06133333333334 90.06933333333333V105.338L91.38133333333333 83.09333333333333C89.39333333333333 81.32666666666665 87.096 80.35466666666666 84.71 80.35466666666666 82.28 80.35466666666666 80.11533333333333 81.19399999999999 78.08333333333333 83.00533333333333L58.114399999999996 100.85333333333332 49.94133333333333 93.47533333333332C48.08579999999999 91.79666666666665 46.053599999999996 90.95733333333334 43.977199999999996 90.95733333333334 41.98913333333333 90.95733333333334 40.1336 91.75266666666666 38.27813333333333 93.43133333333333L25.112799999999996 105.318V56.54206666666667C25.112799999999996 51.947466666666664 27.542666666666666 49.56179999999999 31.960533333333334 49.56179999999999H88.94200000000001C89.79866666666666 47.032999999999994 90.976 44.64533333333333 92.42533333333333 42.449H31.8722C22.638799999999996 42.449 18 47.0436 18 56.1444V110.13133333333333C18 119.232 22.638799999999996 123.782 31.8722 123.782H108.30133333333333C117.57933333333332 123.782 122.17399999999999 119.232 122.17399999999999 110.13133333333333V89.96933333333334Z" class="hierarchical-2:secondary "/><path d="M61.29533333333333 73.10933333333332C61.29533333333333 78.85266666666666 56.612333333333325 83.53533333333333 50.913266666666665 83.53533333333333 45.169999999999995 83.53533333333333 40.487066666666664 78.85266666666666 40.487066666666664 73.10933333333332 40.487066666666664 67.41 45.169999999999995 62.68293333333333 50.913266666666665 62.68293333333333 56.612333333333325 62.68293333333333 61.29533333333333 67.41 61.29533333333333 73.10933333333332Z" class="hierarchical-2:secondary "/></g>
  <g id="Black-M" transform="matrix(1,0,0,1,2869.3999999999996,1026.77)">

  <path d="M94.42666666666668 66.08C104.51733333333333 66.08 113.06666666666666 57.64053333333333 113.06666666666666 47.43989333333333 113.06666666666666 37.239306666666664 104.62719999999999 28.8 94.42666666666668 28.8 84.18933333333332 28.8 75.78666666666666 37.239306666666664 75.78666666666666 47.43989333333333 75.78666666666666 57.71359999999999 84.18933333333332 66.08 94.42666666666668 66.08ZM94.42666666666668 59.14506666666667C93.03253333333333 59.14506666666667 92.152 58.22773333333333 92.152 56.86986666666667V49.71482666666667H84.9968C83.63893333333334 49.71482666666667 82.7584 48.83424 82.7584 47.43989333333333 82.7584 46.08224 83.63893333333334 45.20165333333333 84.9968 45.20165333333333H92.152V38.04656C92.152 36.68890666666667 93.03253333333333 35.80832 94.42666666666668 35.80832 95.78453333333333 35.80832 96.66506666666668 36.68890666666667 96.66506666666668 38.04656V45.20165333333333H103.82026666666667C105.1776 45.20165333333333 106.09493333333333 46.08224 106.09493333333333 47.43989333333333 106.09493333333333 48.83424 105.1776 49.71482666666667 103.82026666666667 49.71482666666667H96.66506666666668V56.86986666666667C96.66506666666668 58.22773333333333 95.78453333333333 59.14506666666667 94.42666666666668 59.14506666666667Z" class="hierarchical-1:primary "/><path d="M97.7392 71.97546666666668C96.70186666666666 72.11359999999999 95.64746666666666 72.18506666666667 94.57973333333332 72.18506666666667 93.72586666666666 72.18506666666667 92.88106666666665 72.14133333333332 92.04906666666668 72.05546666666667V84.2704L73.10506666666667 66.47466666666666C71.51466666666667 65.06133333333332 69.6768 64.28373333333333 67.768 64.28373333333333 65.824 64.28373333333333 64.09226666666666 64.95519999999999 62.46666666666667 66.40426666666666L46.49152 80.68266666666666 39.95306666666667 74.78026666666666C38.46863999999999 73.43733333333333 36.84288 72.76586666666667 35.18176 72.76586666666667 33.59130666666667 72.76586666666667 32.106880000000004 73.40213333333332 30.622506666666666 74.74506666666666L20.090239999999998 84.2544V45.233653333333336C20.090239999999998 41.55797333333333 22.034133333333333 39.64944 25.568426666666667 39.64944H71.15360000000001C71.83893333333333 37.6264 72.7808 35.71626666666667 73.94026666666667 33.959199999999996H25.49776C18.11104 33.959199999999996 14.4 37.634879999999995 14.4 44.91552V88.10506666666667C14.4 95.38560000000001 18.11104 99.0256 25.49776 99.0256H86.64106666666666C94.06346666666667 99.0256 97.7392 95.38560000000001 97.7392 88.10506666666667V71.97546666666668Z" class="hierarchical-2:secondary "/><path d="M49.03626666666666 58.48746666666667C49.03626666666666 63.08213333333333 45.28986666666666 66.82826666666666 40.73061333333333 66.82826666666666 36.135999999999996 66.82826666666666 32.389653333333335 63.08213333333333 32.389653333333335 58.48746666666667 32.389653333333335 53.928 36.135999999999996 50.146346666666666 40.73061333333333 50.146346666666666 45.28986666666666 50.146346666666666 49.03626666666666 53.928 49.03626666666666 58.48746666666667Z" class="hierarchical-2:secondary "/></g>
  <g id="Regular-M" transform="matrix(1,0,0,1,1385.845,1026.77)">

  <path d="M94.42666666666668 66.08C104.51733333333333 66.08 113.06666666666666 57.64053333333333 113.06666666666666 47.43989333333333 113.06666666666666 37.239306666666664 104.62719999999999 28.8 94.42666666666668 28.8 84.18933333333332 28.8 75.78666666666666 37.239306666666664 75.78666666666666 47.43989333333333 75.78666666666666 57.71359999999999 84.18933333333332 66.08 94.42666666666668 66.08ZM94.42666666666668 59.14506666666667C93.03253333333333 59.14506666666667 92.152 58.22773333333333 92.152 56.86986666666667V49.71482666666667H84.9968C83.63893333333334 49.71482666666667 82.7584 48.83424 82.7584 47.43989333333333 82.7584 46.08224 83.63893333333334 45.20165333333333 84.9968 45.20165333333333H92.152V38.04656C92.152 36.68890666666667 93.03253333333333 35.80832 94.42666666666668 35.80832 95.78453333333333 35.80832 96.66506666666668 36.68890666666667 96.66506666666668 38.04656V45.20165333333333H103.82026666666667C105.1776 45.20165333333333 106.09493333333333 46.08224 106.09493333333333 47.43989333333333 106.09493333333333 48.83424 105.1776 49.71482666666667 103.82026666666667 49.71482666666667H96.66506666666668V56.86986666666667C96.66506666666668 58.22773333333333 95.78453333333333 59.14506666666667 94.42666666666668 59.14506666666667Z" class="hierarchical-1:primary "/><path d="M97.7392 71.97546666666668C96.70186666666666 72.11359999999999 95.64746666666666 72.18506666666667 94.57973333333332 72.18506666666667 93.72586666666666 72.18506666666667 92.88106666666665 72.14133333333332 92.04906666666668 72.05546666666667V84.2704L73.10506666666667 66.47466666666666C71.51466666666667 65.06133333333332 69.6768 64.28373333333333 67.768 64.28373333333333 65.824 64.28373333333333 64.09226666666666 64.95519999999999 62.46666666666667 66.40426666666666L46.49152 80.68266666666666 39.95306666666667 74.78026666666666C38.46863999999999 73.43733333333333 36.84288 72.76586666666667 35.18176 72.76586666666667 33.59130666666667 72.76586666666667 32.106880000000004 73.40213333333332 30.622506666666666 74.74506666666666L20.090239999999998 84.2544V45.233653333333336C20.090239999999998 41.55797333333333 22.034133333333333 39.64944 25.568426666666667 39.64944H71.15360000000001C71.83893333333333 37.6264 72.7808 35.71626666666667 73.94026666666667 33.959199999999996H25.49776C18.11104 33.959199999999996 14.4 37.634879999999995 14.4 44.91552V88.10506666666667C14.4 95.38560000000001 18.11104 99.0256 25.49776 99.0256H86.64106666666666C94.06346666666667 99.0256 97.7392 95.38560000000001 97.7392 88.10506666666667V71.97546666666668Z" class="hierarchical-2:secondary "/><path d="M49.03626666666666 58.48746666666667C49.03626666666666 63.08213333333333 45.28986666666666 66.82826666666666 40.73061333333333 66.82826666666666 36.135999999999996 66.82826666666666 32.389653333333335 63.08213333333333 32.389653333333335 58.48746666666667 32.389653333333335 53.928 36.135999999999996 50.146346666666666 40.73061333333333 50.146346666666666 45.28986666666666 50.146346666666666 49.03626666666666 53.928 49.03626666666666 58.48746666666667Z" class="hierarchical-2:secondary "/></g>
  <g id="Ultralight-M" transform="matrix(1,0,0,1,495.711,1026.77)">

  <path d="M94.42666666666668 66.08C104.51733333333333 66.08 113.06666666666666 57.64053333333333 113.06666666666666 47.43989333333333 113.06666666666666 37.239306666666664 104.62719999999999 28.8 94.42666666666668 28.8 84.18933333333332 28.8 75.78666666666666 37.239306666666664 75.78666666666666 47.43989333333333 75.78666666666666 57.71359999999999 84.18933333333332 66.08 94.42666666666668 66.08ZM94.42666666666668 59.14506666666667C93.03253333333333 59.14506666666667 92.152 58.22773333333333 92.152 56.86986666666667V49.71482666666667H84.9968C83.63893333333334 49.71482666666667 82.7584 48.83424 82.7584 47.43989333333333 82.7584 46.08224 83.63893333333334 45.20165333333333 84.9968 45.20165333333333H92.152V38.04656C92.152 36.68890666666667 93.03253333333333 35.80832 94.42666666666668 35.80832 95.78453333333333 35.80832 96.66506666666668 36.68890666666667 96.66506666666668 38.04656V45.20165333333333H103.82026666666667C105.1776 45.20165333333333 106.09493333333333 46.08224 106.09493333333333 47.43989333333333 106.09493333333333 48.83424 105.1776 49.71482666666667 103.82026666666667 49.71482666666667H96.66506666666668V56.86986666666667C96.66506666666668 58.22773333333333 95.78453333333333 59.14506666666667 94.42666666666668 59.14506666666667Z" class="hierarchical-1:primary "/><path d="M97.7392 71.97546666666668C96.70186666666666 72.11359999999999 95.64746666666666 72.18506666666667 94.57973333333332 72.18506666666667 93.72586666666666 72.18506666666667 92.88106666666665 72.14133333333332 92.04906666666668 72.05546666666667V84.2704L73.10506666666667 66.47466666666666C71.51466666666667 65.06133333333332 69.6768 64.28373333333333 67.768 64.28373333333333 65.824 64.28373333333333 64.09226666666666 64.95519999999999 62.46666666666667 66.40426666666666L46.49152 80.68266666666666 39.95306666666667 74.78026666666666C38.46863999999999 73.43733333333333 36.84288 72.76586666666667 35.18176 72.76586666666667 33.59130666666667 72.76586666666667 32.106880000000004 73.40213333333332 30.622506666666666 74.74506666666666L20.090239999999998 84.2544V45.233653333333336C20.090239999999998 41.55797333333333 22.034133333333333 39.64944 25.568426666666667 39.64944H71.15360000000001C71.83893333333333 37.6264 72.7808 35.71626666666667 73.94026666666667 33.959199999999996H25.49776C18.11104 33.959199999999996 14.4 37.634879999999995 14.4 44.91552V88.10506666666667C14.4 95.38560000000001 18.11104 99.0256 25.49776 99.0256H86.64106666666666C94.06346666666667 99.0256 97.7392 95.38560000000001 97.7392 88.10506666666667V71.97546666666668Z" class="hierarchical-2:secondary "/><path d="M49.03626666666666 58.48746666666667C49.03626666666666 63.08213333333333 45.28986666666666 66.82826666666666 40.73061333333333 66.82826666666666 36.135999999999996 66.82826666666666 32.389653333333335 63.08213333333333 32.389653333333335 58.48746666666667 32.389653333333335 53.928 36.135999999999996 50.146346666666666 40.73061333333333 50.146346666666666 45.28986666666666 50.146346666666666 49.03626666666666 53.928 49.03626666666666 58.48746666666667Z" class="hierarchical-2:secondary "/></g>
  <g id="Black-S" transform="matrix(1,0,0,1,2885.3999999999996,612.7705000000001)">

  <path d="M70.82000000000001 49.56C78.388 49.56 84.80000000000001 43.2304 84.80000000000001 35.57992 84.80000000000001 27.92948 78.4704 21.6 70.82000000000001 21.6 63.141999999999996 21.6 56.84 27.92948 56.84 35.57992 56.84 43.2852 63.141999999999996 49.56 70.82000000000001 49.56ZM70.82000000000001 44.3588C69.7744 44.3588 69.114 43.67080000000001 69.114 42.6524V37.286120000000004H63.747600000000006C62.729200000000006 37.286120000000004 62.0688 36.62568 62.0688 35.57992 62.0688 34.56168 62.729200000000006 33.90124 63.747600000000006 33.90124H69.114V28.53492C69.114 27.516680000000004 69.7744 26.856240000000003 70.82000000000001 26.856240000000003 71.83840000000001 26.856240000000003 72.4988 27.516680000000004 72.4988 28.53492V33.90124H77.86520000000002C78.8832 33.90124 79.5712 34.56168 79.5712 35.57992 79.5712 36.62568 78.8832 37.286120000000004 77.86520000000002 37.286120000000004H72.4988V42.6524C72.4988 43.67080000000001 71.83840000000001 44.3588 70.82000000000001 44.3588Z" class="hierarchical-1:primary "/><path d="M73.3044 53.98160000000001C72.52640000000001 54.0852 71.7356 54.1388 70.9348 54.1388 70.2944 54.1388 69.6608 54.105999999999995 69.03680000000001 54.04160000000001V63.2028L54.8288 49.856C53.636 48.796 52.257600000000004 48.2128 50.826 48.2128 49.368 48.2128 48.0692 48.7164 46.85 49.803200000000004L34.86864 60.512 29.964800000000004 56.0852C28.85148 55.078 27.63216 54.574400000000004 26.38632 54.574400000000004 25.19348 54.574400000000004 24.080160000000003 55.0516 22.966880000000003 56.0588L15.06768 63.1908V33.92524C15.06768 31.168480000000002 16.5256 29.73708 19.17632 29.73708H53.36520000000001C53.879200000000004 28.2198 54.5856 26.787200000000002 55.455200000000005 25.4694H19.123320000000003C13.58328 25.4694 10.8 28.22616 10.8 33.686640000000004V66.0788C10.8 71.53920000000001 13.58328 74.2692 19.123320000000003 74.2692H64.9808C70.5476 74.2692 73.3044 71.53920000000001 73.3044 66.0788V53.98160000000001Z" class="hierarchical-2:secondary "/><path d="M36.7772 43.8656C36.7772 47.3116 33.9674 50.1212 30.547960000000003 50.1212 27.102 50.1212 24.292240000000003 47.3116 24.292240000000003 43.8656 24.292240000000003 40.446 27.102 37.60976 30.547960000000003 37.60976 33.9674 37.60976 36.7772 40.446 36.7772 43.8656Z" class="hierarchical-2:secondary "/></g>
  <g id="Regular-S" transform="matrix(1,0,0,1,1401.845,612.7705000000001)">

  <path d="M70.82000000000001 49.56C78.388 49.56 84.80000000000001 43.2304 84.80000000000001 35.57992 84.80000000000001 27.92948 78.4704 21.6 70.82000000000001 21.6 63.141999999999996 21.6 56.84 27.92948 56.84 35.57992 56.84 43.2852 63.141999999999996 49.56 70.82000000000001 49.56ZM70.82000000000001 44.3588C69.7744 44.3588 69.114 43.67080000000001 69.114 42.6524V37.286120000000004H63.747600000000006C62.729200000000006 37.286120000000004 62.0688 36.62568 62.0688 35.57992 62.0688 34.56168 62.729200000000006 33.90124 63.747600000000006 33.90124H69.114V28.53492C69.114 27.516680000000004 69.7744 26.856240000000003 70.82000000000001 26.856240000000003 71.83840000000001 26.856240000000003 72.4988 27.516680000000004 72.4988 28.53492V33.90124H77.86520000000002C78.8832 33.90124 79.5712 34.56168 79.5712 35.57992 79.5712 36.62568 78.8832 37.286120000000004 77.86520000000002 37.286120000000004H72.4988V42.6524C72.4988 43.67080000000001 71.83840000000001 44.3588 70.82000000000001 44.3588Z" class="hierarchical-1:primary "/><path d="M73.3044 53.98160000000001C72.52640000000001 54.0852 71.7356 54.1388 70.9348 54.1388 70.2944 54.1388 69.6608 54.105999999999995 69.03680000000001 54.04160000000001V63.2028L54.8288 49.856C53.636 48.796 52.257600000000004 48.2128 50.826 48.2128 49.368 48.2128 48.0692 48.7164 46.85 49.803200000000004L34.86864 60.512 29.964800000000004 56.0852C28.85148 55.078 27.63216 54.574400000000004 26.38632 54.574400000000004 25.19348 54.574400000000004 24.080160000000003 55.0516 22.966880000000003 56.0588L15.06768 63.1908V33.92524C15.06768 31.168480000000002 16.5256 29.73708 19.17632 29.73708H53.36520000000001C53.879200000000004 28.2198 54.5856 26.787200000000002 55.455200000000005 25.4694H19.123320000000003C13.58328 25.4694 10.8 28.22616 10.8 33.686640000000004V66.0788C10.8 71.53920000000001 13.58328 74.2692 19.123320000000003 74.2692H64.9808C70.5476 74.2692 73.3044 71.53920000000001 73.3044 66.0788V53.98160000000001Z" class="hierarchical-2:secondary "/><path d="M36.7772 43.8656C36.7772 47.3116 33.9674 50.1212 30.547960000000003 50.1212 27.102 50.1212 24.292240000000003 47.3116 24.292240000000003 43.8656 24.292240000000003 40.446 27.102 37.60976 30.547960000000003 37.60976 33.9674 37.60976 36.7772 40.446 36.7772 43.8656Z" class="hierarchical-2:secondary "/></g>
  <g id="Ultralight-S" transform="matrix(1,0,0,1,511.711,612.7705000000001)">

  <path d="M70.82000000000001 49.56C78.388 49.56 84.80000000000001 43.2304 84.80000000000001 35.57992 84.80000000000001 27.92948 78.4704 21.6 70.82000000000001 21.6 63.141999999999996 21.6 56.84 27.92948 56.84 35.57992 56.84 43.2852 63.141999999999996 49.56 70.82000000000001 49.56ZM70.82000000000001 44.3588C69.7744 44.3588 69.114 43.67080000000001 69.114 42.6524V37.286120000000004H63.747600000000006C62.729200000000006 37.286120000000004 62.0688 36.62568 62.0688 35.57992 62.0688 34.56168 62.729200000000006 33.90124 63.747600000000006 33.90124H69.114V28.53492C69.114 27.516680000000004 69.7744 26.856240000000003 70.82000000000001 26.856240000000003 71.83840000000001 26.856240000000003 72.4988 27.516680000000004 72.4988 28.53492V33.90124H77.86520000000002C78.8832 33.90124 79.5712 34.56168 79.5712 35.57992 79.5712 36.62568 78.8832 37.286120000000004 77.86520000000002 37.286120000000004H72.4988V42.6524C72.4988 43.67080000000001 71.83840000000001 44.3588 70.82000000000001 44.3588Z" class="hierarchical-1:primary "/><path d="M73.3044 53.98160000000001C72.52640000000001 54.0852 71.7356 54.1388 70.9348 54.1388 70.2944 54.1388 69.6608 54.105999999999995 69.03680000000001 54.04160000000001V63.2028L54.8288 49.856C53.636 48.796 52.257600000000004 48.2128 50.826 48.2128 49.368 48.2128 48.0692 48.7164 46.85 49.803200000000004L34.86864 60.512 29.964800000000004 56.0852C28.85148 55.078 27.63216 54.574400000000004 26.38632 54.574400000000004 25.19348 54.574400000000004 24.080160000000003 55.0516 22.966880000000003 56.0588L15.06768 63.1908V33.92524C15.06768 31.168480000000002 16.5256 29.73708 19.17632 29.73708H53.36520000000001C53.879200000000004 28.2198 54.5856 26.787200000000002 55.455200000000005 25.4694H19.123320000000003C13.58328 25.4694 10.8 28.22616 10.8 33.686640000000004V66.0788C10.8 71.53920000000001 13.58328 74.2692 19.123320000000003 74.2692H64.9808C70.5476 74.2692 73.3044 71.53920000000001 73.3044 66.0788V53.98160000000001Z" class="hierarchical-2:secondary "/><path d="M36.7772 43.8656C36.7772 47.3116 33.9674 50.1212 30.547960000000003 50.1212 27.102 50.1212 24.292240000000003 47.3116 24.292240000000003 43.8656 24.292240000000003 40.446 27.102 37.60976 30.547960000000003 37.60976 33.9674 37.60976 36.7772 40.446 36.7772 43.8656Z" class="hierarchical-2:secondary "/></g>
 </g>
</svg>