<?xml version="1.0" encoding="UTF-8"?>
<!--Generator: Apple Native CoreSVG 175.5-->
<!DOCTYPE svg
PUBLIC "-//W3C//DTD SVG 1.1//EN"
       "http://www.w3.org/Graphics/SVG/1.1/DTD/svg11.dtd">
<svg version="1.1" xmlns="http://www.w3.org/2000/svg" xmlns:xlink="http://www.w3.org/1999/xlink" width="3300" height="2200">
 <!--glyph: "", point size: 100.0, font version: "18.0d12e2", template writer version: "101"-->
 <style>.monochrome-0 {fill:#000000}
.monochrome-1 {fill:#FFFFFF;opacity:0.0;-sfsymbols-clear-behind:true}

.multicolor-0:tintColor {fill:#007AFF}
.multicolor-1:tintColor {fill:#007AFF;opacity:0.0;-sfsymbols-clear-behind:true}

.hierarchical-0:secondary {fill:#4D4D4D}
.hierarchical-1:primary {fill:#212121;opacity:0.0;-sfsymbols-clear-behind:true}

.SFSymbolsPreview007AFF {fill:#007AFF;opacity:1.0}
.SFSymbolsPreviewFFFFFF {fill:#FFFFFF;opacity:1.0}
</style>
 <g id="Notes">
  <rect height="2200" id="artboard" style="fill:white;opacity:1" width="3300" x="0" y="0"/>
  <line style="fill:none;stroke:black;opacity:1;stroke-width:0.5;" x1="263" x2="3036" y1="292" y2="292"/>
  <text style="stroke:none;fill:black;font-family:sans-serif;font-size:13;font-weight:bold;" transform="matrix(1 0 0 1 263 322)">Weight/Scale Variations</text>
  <text style="stroke:none;fill:black;font-family:sans-serif;font-size:13;text-anchor:middle;" transform="matrix(1 0 0 1 559.711 322)">Ultralight</text>
  <text style="stroke:none;fill:black;font-family:sans-serif;font-size:13;text-anchor:middle;" transform="matrix(1 0 0 1 856.422 322)">Thin</text>
  <text style="stroke:none;fill:black;font-family:sans-serif;font-size:13;text-anchor:middle;" transform="matrix(1 0 0 1 1153.13 322)">Light</text>
  <text style="stroke:none;fill:black;font-family:sans-serif;font-size:13;text-anchor:middle;" transform="matrix(1 0 0 1 1449.84 322)">Regular</text>
  <text style="stroke:none;fill:black;font-family:sans-serif;font-size:13;text-anchor:middle;" transform="matrix(1 0 0 1 1746.56 322)">Medium</text>
  <text style="stroke:none;fill:black;font-family:sans-serif;font-size:13;text-anchor:middle;" transform="matrix(1 0 0 1 2043.27 322)">Semibold</text>
  <text style="stroke:none;fill:black;font-family:sans-serif;font-size:13;text-anchor:middle;" transform="matrix(1 0 0 1 2339.98 322)">Bold</text>
  <text style="stroke:none;fill:black;font-family:sans-serif;font-size:13;text-anchor:middle;" transform="matrix(1 0 0 1 2636.69 322)">Heavy</text>
  <text style="stroke:none;fill:black;font-family:sans-serif;font-size:13;text-anchor:middle;" transform="matrix(1 0 0 1 2933.4 322)">Black</text>
  <line style="fill:none;stroke:black;opacity:1;stroke-width:0.5;" x1="263" x2="3036" y1="1903" y2="1903"/>
  <g transform="matrix(1 0 0 1 263 1933)">
   <path d="M9.24805 0.830078C13.5547 0.830078 17.1387-2.74414 17.1387-7.05078C17.1387-11.3574 13.5449-14.9316 9.23828-14.9316C4.94141-14.9316 1.36719-11.3574 1.36719-7.05078C1.36719-2.74414 4.95117 0.830078 9.24805 0.830078ZM9.24805-0.654297C5.70312-0.654297 2.87109-3.49609 2.87109-7.05078C2.87109-10.6055 5.69336-13.4473 9.23828-13.4473C12.793-13.4473 15.6445-10.6055 15.6445-7.05078C15.6445-3.49609 12.8027-0.654297 9.24805-0.654297ZM5.6543-7.05078C5.6543-6.62109 5.95703-6.32812 6.40625-6.32812L8.50586-6.32812L8.50586-4.20898C8.50586-3.76953 8.79883-3.4668 9.22852-3.4668C9.67773-3.4668 9.9707-3.76953 9.9707-4.20898L9.9707-6.32812L12.0898-6.32812C12.5293-6.32812 12.832-6.62109 12.832-7.05078C12.832-7.49023 12.5293-7.79297 12.0898-7.79297L9.9707-7.79297L9.9707-9.90234C9.9707-10.3516 9.67773-10.6543 9.22852-10.6543C8.79883-10.6543 8.50586-10.3516 8.50586-9.90234L8.50586-7.79297L6.40625-7.79297C5.95703-7.79297 5.6543-7.49023 5.6543-7.05078Z"/>
  </g>
  <g transform="matrix(1 0 0 1 281.867 1933)">
   <path d="M11.709 2.91016C17.1582 2.91016 21.6699-1.61133 21.6699-7.05078C21.6699-12.5 17.1484-17.0117 11.6992-17.0117C6.25977-17.0117 1.74805-12.5 1.74805-7.05078C1.74805-1.61133 6.26953 2.91016 11.709 2.91016ZM11.709 1.25C7.09961 1.25 3.41797-2.44141 3.41797-7.05078C3.41797-11.6602 7.08984-15.3516 11.6992-15.3516C16.3086-15.3516 20.0098-11.6602 20.0098-7.05078C20.0098-2.44141 16.3184 1.25 11.709 1.25ZM7.17773-7.05078C7.17773-6.57227 7.50977-6.25 8.00781-6.25L10.8789-6.25L10.8789-3.36914C10.8789-2.88086 11.2109-2.53906 11.6895-2.53906C12.1777-2.53906 12.5195-2.87109 12.5195-3.36914L12.5195-6.25L15.4004-6.25C15.8887-6.25 16.2305-6.57227 16.2305-7.05078C16.2305-7.53906 15.8887-7.88086 15.4004-7.88086L12.5195-7.88086L12.5195-10.752C12.5195-11.25 12.1777-11.5918 11.6895-11.5918C11.2109-11.5918 10.8789-11.25 10.8789-10.752L10.8789-7.88086L8.00781-7.88086C7.50977-7.88086 7.17773-7.53906 7.17773-7.05078Z"/>
  </g>
  <g transform="matrix(1 0 0 1 305.646 1933)">
   <path d="M14.9707 5.66406C21.9336 5.66406 27.6953-0.0976562 27.6953-7.05078C27.6953-14.0137 21.9238-19.7754 14.9609-19.7754C8.00781-19.7754 2.25586-14.0137 2.25586-7.05078C2.25586-0.0976562 8.01758 5.66406 14.9707 5.66406ZM14.9707 3.84766C8.93555 3.84766 4.08203-1.01562 4.08203-7.05078C4.08203-13.0957 8.92578-17.9492 14.9609-17.9492C21.0059-17.9492 25.8691-13.0957 25.8691-7.05078C25.8691-1.01562 21.0156 3.84766 14.9707 3.84766ZM9.19922-7.05078C9.19922-6.5332 9.57031-6.17188 10.1172-6.17188L14.0625-6.17188L14.0625-2.2168C14.0625-1.67969 14.4336-1.29883 14.9512-1.29883C15.4883-1.29883 15.8594-1.66992 15.8594-2.2168L15.8594-6.17188L19.8145-6.17188C20.3516-6.17188 20.7324-6.5332 20.7324-7.05078C20.7324-7.59766 20.3613-7.96875 19.8145-7.96875L15.8594-7.96875L15.8594-11.9141C15.8594-12.4609 15.4883-12.8418 14.9512-12.8418C14.4336-12.8418 14.0625-12.4609 14.0625-11.9141L14.0625-7.96875L10.1172-7.96875C9.57031-7.96875 9.19922-7.59766 9.19922-7.05078Z"/>
  </g>
  <text style="stroke:none;fill:black;font-family:sans-serif;font-size:13;font-weight:bold;" transform="matrix(1 0 0 1 263 1953)">Design Variations</text>
  <text style="stroke:none;fill:black;font-family:sans-serif;font-size:13;" transform="matrix(1 0 0 1 263 1971)">Symbols are supported in up to nine weights and three scales.</text>
  <text style="stroke:none;fill:black;font-family:sans-serif;font-size:13;" transform="matrix(1 0 0 1 263 1989)">For optimal layout with text and other symbols, vertically align</text>
  <text style="stroke:none;fill:black;font-family:sans-serif;font-size:13;" transform="matrix(1 0 0 1 263 2007)">symbols with the adjacent text.</text>
  <line style="fill:none;stroke:#00AEEF;stroke-width:0.5;opacity:1.0;" x1="776" x2="776" y1="1919" y2="1933"/>
  <g transform="matrix(1 0 0 1 776 1933)">
   <path d="M3.31055 0.15625C3.82812 0.15625 4.08203-0.0390625 4.26758-0.585938L5.52734-4.0332L11.2891-4.0332L12.5488-0.585938C12.7344-0.0390625 12.9883 0.15625 13.4961 0.15625C14.0137 0.15625 14.3457-0.15625 14.3457-0.644531C14.3457-0.810547 14.3164-0.966797 14.2383-1.17188L9.6582-13.3691C9.43359-13.9648 9.0332-14.2676 8.4082-14.2676C7.80273-14.2676 7.39258-13.9746 7.17773-13.3789L2.59766-1.16211C2.51953-0.957031 2.49023-0.800781 2.49023-0.634766C2.49023-0.146484 2.80273 0.15625 3.31055 0.15625ZM6.00586-5.51758L8.37891-12.0898L8.42773-12.0898L10.8008-5.51758Z"/>
  </g>
  <line style="fill:none;stroke:#00AEEF;stroke-width:0.5;opacity:1.0;" x1="793.197" x2="793.197" y1="1919" y2="1933"/>
  <text style="stroke:none;fill:black;font-family:sans-serif;font-size:13;font-weight:bold;" transform="matrix(1 0 0 1 776 1953)">Margins</text>
  <text style="stroke:none;fill:black;font-family:sans-serif;font-size:13;" transform="matrix(1 0 0 1 776 1971)">Leading and trailing margins on the left and right side of each symbol</text>
  <text style="stroke:none;fill:black;font-family:sans-serif;font-size:13;" transform="matrix(1 0 0 1 776 1989)">can be adjusted by modifying the x-location of the margin guidelines.</text>
  <text style="stroke:none;fill:black;font-family:sans-serif;font-size:13;" transform="matrix(1 0 0 1 776 2007)">Modifications are automatically applied proportionally to all</text>
  <text style="stroke:none;fill:black;font-family:sans-serif;font-size:13;" transform="matrix(1 0 0 1 776 2025)">scales and weights.</text>
  <g transform="matrix(1 0 0 1 1289 1933)">
   <path d="M2.8418 1.86523L4.54102 3.57422C5.40039 4.44336 6.38672 4.38477 7.31445 3.35938L18.0078-8.42773L17.041-9.4043L6.42578 2.27539C6.07422 2.67578 5.74219 2.77344 5.27344 2.30469L4.10156 1.14258C3.63281 0.683594 3.74023 0.341797 4.14062-0.0195312L15.6152-10.8203L14.6387-11.7871L3.04688-0.898438C2.06055 0.0195312 1.98242 0.996094 2.8418 1.86523ZM9.25781-16.3281C8.83789-15.918 8.80859-15.3418 9.04297-14.9512C9.27734-14.5898 9.73633-14.3555 10.3809-14.5215C11.8457-14.8633 13.3691-14.9219 14.7949-13.9844L14.209-12.5293C13.8672-11.6992 14.043-11.1133 14.5801-10.5664L16.875-8.25195C17.3633-7.76367 17.7734-7.74414 18.3398-7.8418L19.4043-8.03711L20.0684-7.36328L20.0293-6.80664C19.9902-6.30859 20.1172-5.92773 20.6055-5.44922L21.3672-4.70703C21.8457-4.22852 22.4609-4.19922 22.9297-4.66797L25.8398-7.58789C26.3086-8.05664 26.2891-8.65234 25.8105-9.13086L25.0391-9.89258C24.5605-10.3711 24.1895-10.5273 23.7109-10.4883L23.1348-10.4395L22.4902-11.0742L22.7344-12.1973C22.8613-12.7637 22.7051-13.2031 22.1191-13.7891L19.9219-15.9766C16.582-19.2969 12.1484-19.2188 9.25781-16.3281ZM10.752-15.957C13.1836-17.7344 16.4746-17.4316 18.7012-15.2051L21.1328-12.793C21.3672-12.5586 21.4062-12.373 21.3379-12.0312L21.0156-10.5469L22.5195-9.0625L23.5059-9.12109C23.7598-9.13086 23.8379-9.11133 24.0332-8.91602L24.6094-8.33984L22.168-5.89844L21.5918-6.47461C21.3965-6.66992 21.3672-6.74805 21.377-7.01172L21.4453-7.98828L19.9512-9.47266L18.4277-9.21875C18.1055-9.15039 17.959-9.17969 17.7148-9.41406L15.7129-11.416C15.459-11.6504 15.4297-11.8164 15.5859-12.1875L16.4648-14.2773C14.9023-15.7324 12.8711-16.3574 10.8398-15.7617C10.6836-15.7227 10.625-15.8496 10.752-15.957Z"/>
  </g>
  <text style="stroke:none;fill:black;font-family:sans-serif;font-size:13;font-weight:bold;" transform="matrix(1 0 0 1 1289 1953)">Exporting</text>
  <text style="stroke:none;fill:black;font-family:sans-serif;font-size:13;" transform="matrix(1 0 0 1 1289 1971)">Symbols should be outlined when exporting to ensure the</text>
  <text style="stroke:none;fill:black;font-family:sans-serif;font-size:13;" transform="matrix(1 0 0 1 1289 1989)">design is preserved when submitting to Xcode.</text>
  <text id="template-version" style="stroke:none;fill:black;font-family:sans-serif;font-size:13;text-anchor:end;" transform="matrix(1 0 0 1 3036 1933)">Template v.4.0</text>
  <text style="stroke:none;fill:black;font-family:sans-serif;font-size:13;text-anchor:end;" transform="matrix(1 0 0 1 3036 1951)">Requires Xcode 14 or greater</text>
  <text id="descriptive-name" style="stroke:none;fill:black;font-family:sans-serif;font-size:13;text-anchor:end;" transform="matrix(1 0 0 1 3036 1969)">Generated from qrcodeStack</text>
  <text style="stroke:none;fill:black;font-family:sans-serif;font-size:13;text-anchor:end;" transform="matrix(1 0 0 1 3036 1987)">Typeset at 100 points</text>
  <text style="stroke:none;fill:black;font-family:sans-serif;font-size:13;" transform="matrix(1 0 0 1 263 726)">Small</text>
  <text style="stroke:none;fill:black;font-family:sans-serif;font-size:13;" transform="matrix(1 0 0 1 263 1156)">Medium</text>
  <text style="stroke:none;fill:black;font-family:sans-serif;font-size:13;" transform="matrix(1 0 0 1 263 1586)">Large</text>
 </g>
 <g id="Guides">
  <g id="H-reference" style="fill:#27AAE1;stroke:none;" transform="matrix(1 0 0 1 339 696)">
   <path d="M0.993654 0L3.63775 0L29.3281-67.1323L30.0303-67.1323L30.0303-70.459L28.1226-70.459ZM11.6885-24.4799L46.9815-24.4799L46.2315-26.7285L12.4385-26.7285ZM55.1196 0L57.7637 0L30.6382-70.459L29.4326-70.459L29.4326-67.1323Z"/>
  </g>
  <line id="Baseline-S" style="fill:none;stroke:#27AAE1;opacity:1;stroke-width:0.5;" x1="263" x2="3036" y1="696" y2="696"/>
  <line id="Capline-S" style="fill:none;stroke:#27AAE1;opacity:1;stroke-width:0.5;" x1="263" x2="3036" y1="625.541" y2="625.541"/>
  <g id="H-reference" style="fill:#27AAE1;stroke:none;" transform="matrix(1 0 0 1 339 1126)">
   <path d="M0.993654 0L3.63775 0L29.3281-67.1323L30.0303-67.1323L30.0303-70.459L28.1226-70.459ZM11.6885-24.4799L46.9815-24.4799L46.2315-26.7285L12.4385-26.7285ZM55.1196 0L57.7637 0L30.6382-70.459L29.4326-70.459L29.4326-67.1323Z"/>
  </g>
  <line id="Baseline-M" style="fill:none;stroke:#27AAE1;opacity:1;stroke-width:0.5;" x1="263" x2="3036" y1="1126" y2="1126"/>
  <line id="Capline-M" style="fill:none;stroke:#27AAE1;opacity:1;stroke-width:0.5;" x1="263" x2="3036" y1="1055.54" y2="1055.54"/>
  <g id="H-reference" style="fill:#27AAE1;stroke:none;" transform="matrix(1 0 0 1 339 1556)">
   <path d="M0.993654 0L3.63775 0L29.3281-67.1323L30.0303-67.1323L30.0303-70.459L28.1226-70.459ZM11.6885-24.4799L46.9815-24.4799L46.2315-26.7285L12.4385-26.7285ZM55.1196 0L57.7637 0L30.6382-70.459L29.4326-70.459L29.4326-67.1323Z"/>
  </g>
  <line id="Baseline-L" style="fill:none;stroke:#27AAE1;opacity:1;stroke-width:0.5;" x1="263" x2="3036" y1="1556" y2="1556"/>
  <line id="Capline-L" style="fill:none;stroke:#27AAE1;opacity:1;stroke-width:0.5;" x1="263" x2="3036" y1="1485.54" y2="1485.54"/>
  <line id="left-margin-Ultralight-S" style="fill:none;stroke:#00AEEF;stroke-width:0.5;opacity:1.0;" x1="515.351" x2="515.351" y1="600.785" y2="720.121"/>
  <line id="right-margin-Ultralight-S" style="fill:none;stroke:#00AEEF;stroke-width:0.5;opacity:1.0;" x1="604.071" x2="604.071" y1="600.785" y2="720.121"/>
  <line id="left-margin-Regular-S" style="fill:none;stroke:#00AEEF;stroke-width:0.5;opacity:1.0;" x1="1401.75" x2="1401.75" y1="600.785" y2="720.121"/>
  <line id="right-margin-Regular-S" style="fill:none;stroke:#00AEEF;stroke-width:0.5;opacity:1.0;" x1="1497.94" x2="1497.94" y1="600.785" y2="720.121"/>
  <line id="left-margin-Black-S" style="fill:none;stroke:#00AEEF;stroke-width:0.5;opacity:1.0;" x1="2883.2" x2="2883.2" y1="600.785" y2="720.121"/>
  <line id="right-margin-Black-S" style="fill:none;stroke:#00AEEF;stroke-width:0.5;opacity:1.0;" x1="2983.6" x2="2983.6" y1="600.785" y2="720.121"/>
 </g>
 <g id="Symbols">
  <g id="Black-L" transform="matrix(1 0 0 1 2851.17 1556)">
   <path class="monochrome-0 multicolor-0:tintColor hierarchical-0:secondary SFSymbolsPreview007AFF" d="M79.567 25.566C81.5365 25.566 83.9655 24.7781 86.7885 23.2023L126.639 0.355613C131.76-2.59874 133.729-5.94691 133.729-12.1838L133.729-58.2053C133.729-65.0986 131.366-68.5126 127.098-68.5126C125.195-68.5126 122.831-67.7904 120.205-66.2147L80.2234-43.1711C74.9714-40.0855 73.0018-36.803 73.0018-30.6318L73.0018 15.3897C73.0018 21.9545 75.2996 25.566 79.567 25.566ZM57.7707 13.1576C58.9524 13.1576 60.1999 12.8293 61.4472 11.9102L61.4472-43.3025C61.4472-45.4033 61.7098-45.8629 63.4824-46.9134L111.342-74.4869C111.605-78.4916 109.176-80.855 105.762-80.855C104.318-80.855 102.676-80.4611 100.969-79.4763L57.9677-54.7258C52.4529-51.6402 51.7965-50.4585 51.7965-44.156L51.7965 4.75427C51.7965 9.74371 54.3569 13.1576 57.7707 13.1576ZM37.5502 1.47171C38.6662 1.47171 39.9136 1.14338 41.161 0.224252L41.161-54.9884C41.161-56.958 41.4892-57.6144 43.2618-58.5993L91.1216-86.1728C91.3185-90.1775 88.9551-92.5409 85.6068-92.5409C84.0969-92.5409 82.4556-92.0814 80.683-91.0966L37.747-66.4117C32.298-63.2605 31.6415-62.21 31.6415-55.8419L31.6415-6.93165C31.6415-1.9422 34.0707 1.47171 37.5502 1.47171Z"/>
   <path class="monochrome-1 multicolor-1:tintColor hierarchical-1:primary SFSymbolsPreviewFFFFFF" d="M111.675-26.9163L122.251-33.0227C125.531-34.9166 127.19-37.7662 127.257-41.6598L127.466-53.6241C127.534-57.5177 125.943-58.491 122.663-56.5973L112.086-50.4909C108.806-48.597 107.148-45.7475 107.08-41.8539L106.871-29.8896C106.803-25.996 108.394-25.0225 111.675-26.9163ZM111.814-31.4119C111.078-30.987 110.688-31.2171 110.703-32.1021L110.912-44.1017C110.927-44.9511 111.334-45.6414 112.07-46.0662L122.554-52.1194C123.29-52.5443 123.65-52.2965 123.635-51.447L123.426-39.4474C123.41-38.5624 123.034-37.8899 122.298-37.4652L111.814-31.4119ZM87.3948-12.8983L97.9712-19.0047C101.251-20.8986 102.91-23.7481 102.978-27.6418L103.186-39.6059C103.254-43.4997 101.663-44.473 98.3827-42.5791L87.8062-36.4729C84.5259-34.579 82.8678-31.7295 82.7998-27.8358L82.591-15.8716C82.5231-11.978 84.1145-11.0045 87.3948-12.8983ZM87.5033-17.3762C86.7982-16.969 86.4076-17.1991 86.4231-18.0841L86.6326-30.0836C86.6473-30.9331 87.0539-31.6234 87.759-32.0305L98.2436-38.0838C98.9793-38.5085 99.3698-38.2785 99.355-37.429L99.1455-25.4294C99.13-24.5444 98.7234-23.8541 97.9878-23.4294L87.5033-17.3762ZM86.9054 15.1361L97.4819 9.02976C100.762 7.13598 102.42 4.28637 102.488 0.392723L102.697-11.5715C102.765-15.4652 101.173-16.4031 97.8928-14.5093L87.3163-8.40297C84.036-6.50906 82.3784-3.69494 82.3105 0.198706L82.1017 12.1629C82.0337 16.0566 83.6251 17.03 86.9054 15.1361ZM87.014 10.6584C86.3088 11.0655 85.9183 10.8355 85.9331 9.98587L86.1426-2.01373C86.1581-2.89871 86.5647-3.58899 87.2697-3.99612L97.7543-10.0492C98.4899-10.4741 98.8805-10.2439 98.865-9.35908L98.6555 2.64052C98.6408 3.49013 98.2342 4.18042 97.4984 4.60516L87.014 10.6584ZM108.248-13.1645L112.479-15.607C112.847-15.8194 113.003-16.0849 113.012-16.5805L113.094-21.2884C113.102-21.7485 112.952-21.8371 112.584-21.6246L108.353-19.182C107.985-18.9697 107.86-18.7219 107.852-18.2617L107.769-13.5539C107.761-13.0583 107.88-12.9521 108.248-13.1645ZM121.001-20.5275L125.232-22.9701C125.6-23.1825 125.756-23.4479 125.765-23.9435L125.847-28.6513C125.855-29.1114 125.705-29.2 125.337-28.9876L121.106-26.5451C120.738-26.3327 120.613-26.0849 120.605-25.6248L120.522-20.9169C120.514-20.4213 120.633-20.3152 121.001-20.5275ZM115.17-37.6241L119.4-40.0666C119.768-40.279 119.924-40.5446 119.933-41.0402L120.015-45.7479C120.023-46.2082 119.873-46.2966 119.505-46.0842L115.275-43.6417C114.907-43.4293 114.781-43.1815 114.773-42.7212L114.691-38.0135C114.682-37.518 114.802-37.4116 115.17-37.6241ZM107.991 1.56072L112.222-0.881899C112.59-1.09434 112.746-1.35975 112.755-1.85534L112.837-6.56311C112.845-7.02334 112.695-7.11182 112.327-6.89938L108.096-4.45689C107.728-4.24445 107.603-3.99666 107.595-3.53655L107.512 1.17134C107.504 1.66681 107.623 1.77303 107.991 1.56072ZM90.7056-23.4998L94.9362-25.9425C95.304-26.1548 95.4604-26.4203 95.4691-26.9159L95.5513-31.6237C95.5593-32.0839 95.409-32.1723 95.0412-31.9599L90.8106-29.5173C90.4427-29.305 90.317-29.0572 90.3091-28.5971L90.2269-23.8894C90.2182-23.3938 90.3377-23.2875 90.7056-23.4998ZM114.558-9.51894L118.788-11.9614C119.156-12.1739 119.312-12.4393 119.321-12.9349L119.403-17.6426C119.411-18.1027 119.261-18.1912 118.893-17.9789L114.663-15.5363C114.295-15.324 114.169-15.0762 114.161-14.6159L114.079-9.90818C114.07-9.41259 114.19-9.3065 114.558-9.51894ZM120.744-5.80237L124.975-8.24486C125.343-8.45729 125.499-8.72284 125.508-9.2183L125.59-13.9262C125.598-14.3863 125.448-14.4748 125.08-14.2623L120.849-11.8198C120.481-11.6074 120.356-11.3597 120.348-10.8995L120.265-6.19175C120.257-5.69615 120.376-5.58993 120.744-5.80237ZM90.2163 4.53457L94.4469 2.09195C94.8147 1.87965 94.9711 1.6141 94.9797 1.11864L95.0619-3.58913C95.0699-4.04936 94.9197-4.13783 94.5519-3.92539L90.3213-1.48291C89.9534-1.27047 89.8277-1.02281 89.8196-0.562571L89.7375 4.14519C89.7289 4.64079 89.8484 4.74687 90.2163 4.53457Z"/>
  </g>
  <g id="Regular-L" transform="matrix(1 0 0 1 1372.3 1556)">
   <path class="monochrome-0 multicolor-0:tintColor hierarchical-0:secondary SFSymbolsPreview007AFF" d="M74.8727 25.566C76.8422 25.566 79.2712 24.7781 82.0942 23.2023L121.945 0.355613C127.065-2.59874 129.035-5.94691 129.035-12.1838L129.035-58.2053C129.035-65.0986 126.671-68.5126 122.404-68.5126C120.5-68.5126 118.137-67.7904 115.511-66.2147L75.5291-43.1711C70.2771-40.0855 68.3074-36.803 68.3074-30.6318L68.3074 15.3897C68.3074 21.9545 70.6053 25.566 74.8727 25.566ZM53.0764 13.1576C54.2581 13.1576 55.5056 12.8293 56.7529 11.9102L56.7529-43.3025C56.7529-45.4033 57.0155-45.8629 58.7881-46.9134L106.648-74.4869C106.91-78.4916 104.481-80.855 101.068-80.855C99.6232-80.855 97.9819-80.4611 96.2749-79.4763L53.2734-54.7258C47.7586-51.6402 47.1022-50.4585 47.1022-44.156L47.1022 4.75427C47.1022 9.74371 49.6626 13.1576 53.0764 13.1576ZM32.8559 1.47171C33.9719 1.47171 35.2193 1.14338 36.4666 0.224252L36.4666-54.9884C36.4666-56.958 36.7948-57.6144 38.5675-58.5993L86.4272-86.1728C86.6242-90.1775 84.2608-92.5409 80.9125-92.5409C79.4026-92.5409 77.7613-92.0814 75.9887-91.0966L33.0527-66.4117C27.6037-63.2605 26.9472-62.21 26.9472-55.8419L26.9472-6.93165C26.9472-1.9422 29.3764 1.47171 32.8559 1.47171Z"/>
   <path class="monochrome-1 multicolor-1:tintColor hierarchical-1:primary SFSymbolsPreviewFFFFFF" d="M106.98-26.9163L117.557-33.0227C120.837-34.9166 122.495-37.7662 122.563-41.6598L122.772-53.6241C122.84-57.5177 121.249-58.491 117.968-56.5973L107.392-50.4909C104.112-48.597 102.453-45.7475 102.386-41.8539L102.177-29.8896C102.109-25.996 103.7-25.0225 106.98-26.9163ZM107.12-31.4119C106.384-30.987 105.993-31.2171 106.009-32.1021L106.218-44.1017C106.233-44.9511 106.64-45.6414 107.375-46.0662L117.86-52.1194C118.596-52.5443 118.956-52.2965 118.941-51.447L118.731-39.4474C118.716-38.5624 118.34-37.8899 117.604-37.4652L107.12-31.4119ZM82.7005-12.8983L93.2769-19.0047C96.5571-20.8986 98.2153-23.7481 98.2832-27.6418L98.4921-39.6059C98.5601-43.4997 96.9687-44.473 93.6884-42.5791L83.1119-36.4729C79.8316-34.579 78.1735-31.7295 78.1055-27.8358L77.8967-15.8716C77.8288-11.978 79.4202-11.0045 82.7005-12.8983ZM82.809-17.3762C82.1039-16.969 81.7133-17.1991 81.7288-18.0841L81.9382-30.0836C81.953-30.9331 82.3596-31.6234 83.0647-32.0305L93.5493-38.0838C94.285-38.5085 94.6754-38.2785 94.6607-37.429L94.4512-25.4294C94.4357-24.5444 94.0291-23.8541 93.2935-23.4294L82.809-17.3762ZM82.211 15.1361L92.7876 9.02976C96.0679 7.13598 97.7259 4.28637 97.794 0.392723L98.0028-11.5715C98.0707-15.4652 96.4787-16.4031 93.1985-14.5093L82.6219-8.40297C79.3417-6.50906 77.6841-3.69494 77.6162 0.198706L77.4074 12.1629C77.3394 16.0566 78.9308 17.03 82.211 15.1361ZM82.3197 10.6584C81.6145 11.0655 81.224 10.8355 81.2388 9.98587L81.4483-2.01373C81.4638-2.89871 81.8703-3.58899 82.5754-3.99612L93.06-10.0492C93.7956-10.4741 94.1862-10.2439 94.1707-9.35908L93.9612 2.64052C93.9464 3.49013 93.5399 4.18042 92.8041 4.60516L82.3197 10.6584ZM103.554-13.1645L107.784-15.607C108.152-15.8194 108.309-16.0849 108.317-16.5805L108.4-21.2884C108.407-21.7485 108.257-21.8371 107.889-21.6246L103.659-19.182C103.291-18.9697 103.165-18.7219 103.157-18.2617L103.075-13.5539C103.066-13.0583 103.186-12.9521 103.554-13.1645ZM116.307-20.5275L120.537-22.9701C120.905-23.1825 121.062-23.4479 121.07-23.9435L121.153-28.6513C121.161-29.1114 121.011-29.2 120.643-28.9876L116.412-26.5451C116.044-26.3327 115.918-26.0849 115.91-25.6248L115.828-20.9169C115.82-20.4213 115.939-20.3152 116.307-20.5275ZM110.475-37.6241L114.706-40.0666C115.074-40.279 115.23-40.5446 115.239-41.0402L115.321-45.7479C115.329-46.2082 115.179-46.2966 114.811-46.0842L110.58-43.6417C110.212-43.4293 110.087-43.1815 110.079-42.7212L109.996-38.0135C109.988-37.518 110.107-37.4116 110.475-37.6241ZM103.297 1.56072L107.527-0.881899C107.895-1.09434 108.052-1.35975 108.06-1.85534L108.142-6.56311C108.151-7.02334 108-7.11182 107.632-6.89938L103.402-4.45689C103.034-4.24445 102.908-3.99666 102.9-3.53655L102.818 1.17134C102.809 1.66681 102.929 1.77303 103.297 1.56072ZM86.0112-23.4998L90.2418-25.9425C90.6097-26.1548 90.7661-26.4203 90.7748-26.9159L90.857-31.6237C90.865-32.0839 90.7147-32.1723 90.3468-31.9599L86.1163-29.5173C85.7484-29.305 85.6227-29.0572 85.6147-28.5971L85.5326-23.8894C85.5239-23.3938 85.6434-23.2875 86.0112-23.4998ZM109.863-9.51894L114.094-11.9614C114.462-12.1739 114.618-12.4393 114.627-12.9349L114.709-17.6426C114.717-18.1027 114.567-18.1912 114.199-17.9789L109.968-15.5363C109.6-15.324 109.475-15.0762 109.467-14.6159L109.384-9.90818C109.376-9.41259 109.495-9.3065 109.863-9.51894ZM116.05-5.80237L120.281-8.24486C120.648-8.45729 120.805-8.72284 120.813-9.2183L120.896-13.9262C120.904-14.3863 120.753-14.4748 120.386-14.2623L116.155-11.8198C115.787-11.6074 115.661-11.3597 115.653-10.8995L115.571-6.19175C115.563-5.69615 115.682-5.58993 116.05-5.80237ZM85.522 4.53457L89.7526 2.09195C90.1204 1.87965 90.2768 1.6141 90.2854 1.11864L90.3675-3.58913C90.3756-4.04936 90.2254-4.13783 89.8576-3.92539L85.627-1.48291C85.2591-1.27047 85.1334-1.02281 85.1253-0.562571L85.0432 4.14519C85.0346 4.64079 85.1541 4.74687 85.522 4.53457Z"/>
  </g>
  <g id="Ultralight-L" transform="matrix(1 0 0 1 486.88 1556)">
   <path class="monochrome-0 multicolor-0:tintColor hierarchical-0:secondary SFSymbolsPreview007AFF" d="M70.1633 25.566C72.1328 25.566 74.5619 24.7781 77.3849 23.2023L117.235 0.355613C122.356-2.59874 124.326-5.94691 124.326-12.1838L124.326-58.2053C124.326-65.0986 121.962-68.5126 117.695-68.5126C115.791-68.5126 113.427-67.7904 110.801-66.2147L70.8197-43.1711C65.5677-40.0855 63.5981-36.803 63.5981-30.6318L63.5981 15.3897C63.5981 21.9545 65.8959 25.566 70.1633 25.566ZM48.367 13.1576C49.5488 13.1576 50.7962 12.8293 52.0435 11.9102L52.0435-43.3025C52.0435-45.4033 52.3061-45.8629 54.0788-46.9134L101.939-74.4869C102.201-78.4916 99.772-80.855 96.3582-80.855C94.9139-80.855 93.2726-80.4611 91.5656-79.4763L48.564-54.7258C43.0493-51.6402 42.3929-50.4585 42.3929-44.156L42.3929 4.75427C42.3929 9.74371 44.9533 13.1576 48.367 13.1576ZM28.1465 1.47171C29.2625 1.47171 30.51 1.14338 31.7573 0.224252L31.7573-54.9884C31.7573-56.958 32.0855-57.6144 33.8581-58.5993L81.7179-86.1728C81.9149-90.1775 79.5514-92.5409 76.2031-92.5409C74.6932-92.5409 73.052-92.0814 71.2793-91.0966L28.3434-66.4117C22.8944-63.2605 22.2378-62.21 22.2378-55.8419L22.2378-6.93165C22.2378-1.9422 24.667 1.47171 28.1465 1.47171Z"/>
   <path class="monochrome-1 multicolor-1:tintColor hierarchical-1:primary SFSymbolsPreviewFFFFFF" d="M102.271-26.9163L112.848-33.0227C116.128-34.9166 117.786-37.7662 117.854-41.6598L118.063-53.6241C118.131-57.5177 116.539-58.491 113.259-56.5973L102.682-50.4909C99.4023-48.597 97.7441-45.7475 97.6762-41.8539L97.4673-29.8896C97.3994-25.996 98.9908-25.0225 102.271-26.9163ZM102.41-31.4119C101.674-30.987 101.284-31.2171 101.299-32.1021L101.509-44.1017C101.524-44.9511 101.93-45.6414 102.666-46.0662L113.151-52.1194C113.886-52.5443 114.246-52.2965 114.231-51.447L114.022-39.4474C114.006-38.5624 113.631-37.8899 112.895-37.4652L102.41-31.4119ZM77.9911-12.8983L88.5675-19.0047C91.8478-20.8986 93.506-23.7481 93.5739-27.6418L93.7827-39.6059C93.8507-43.4997 92.2593-44.473 88.9791-42.5791L78.4025-36.4729C75.1223-34.579 73.4642-31.7295 73.3962-27.8358L73.1873-15.8716C73.1194-11.978 74.7108-11.0045 77.9911-12.8983ZM78.0996-17.3762C77.3945-16.969 77.004-17.1991 77.0194-18.0841L77.2289-30.0836C77.2437-30.9331 77.6503-31.6234 78.3553-32.0305L88.8399-38.0838C89.5756-38.5085 89.9661-38.2785 89.9513-37.429L89.7418-25.4294C89.7264-24.5444 89.3198-23.8541 88.5842-23.4294L78.0996-17.3762ZM77.5017 15.1361L88.0782 9.02976C91.3585 7.13598 93.0166 4.28637 93.0846 0.392723L93.2934-11.5715C93.3613-15.4652 91.7694-16.4031 88.4891-14.5093L77.9126-8.40297C74.6323-6.50906 72.9748-3.69494 72.9069 0.198706L72.6981 12.1629C72.63 16.0566 74.2214 17.03 77.5017 15.1361ZM77.6103 10.6584C76.9051 11.0655 76.5147 10.8355 76.5295 9.98587L76.7389-2.01373C76.7544-2.89871 77.161-3.58899 77.8661-3.99612L88.3506-10.0492C89.0862-10.4741 89.4768-10.2439 89.4614-9.35908L89.2519 2.64052C89.2371 3.49013 88.8305 4.18042 88.0948 4.60516L77.6103 10.6584ZM98.8445-13.1645L103.075-15.607C103.443-15.8194 103.599-16.0849 103.608-16.5805L103.69-21.2884C103.698-21.7485 103.548-21.8371 103.18-21.6246L98.9495-19.182C98.5816-18.9697 98.4559-18.7219 98.4478-18.2617L98.3657-13.5539C98.3571-13.0583 98.4766-12.9521 98.8445-13.1645ZM111.598-20.5275L115.828-22.9701C116.196-23.1825 116.352-23.4479 116.361-23.9435L116.443-28.6513C116.451-29.1114 116.301-29.2 115.933-28.9876L111.703-26.5451C111.335-26.3327 111.209-26.0849 111.201-25.6248L111.119-20.9169C111.11-20.4213 111.23-20.3152 111.598-20.5275ZM105.766-37.6241L109.996-40.0666C110.364-40.279 110.521-40.5446 110.529-41.0402L110.611-45.7479C110.62-46.2082 110.469-46.2966 110.101-46.0842L105.871-43.6417C105.503-43.4293 105.377-43.1815 105.369-42.7212L105.287-38.0135C105.278-37.518 105.398-37.4116 105.766-37.6241ZM98.5874 1.56072L102.818-0.881899C103.186-1.09434 103.342-1.35975 103.351-1.85534L103.433-6.56311C103.441-7.02334 103.291-7.11182 102.923-6.89938L98.6924-4.45689C98.3246-4.24445 98.199-3.99666 98.1909-3.53655L98.1088 1.17134C98.1 1.66681 98.2195 1.77303 98.5874 1.56072ZM81.3019-23.4998L85.5325-25.9425C85.9004-26.1548 86.0567-26.4203 86.0655-26.9159L86.1476-31.6237C86.1557-32.0839 86.0054-32.1723 85.6375-31.9599L81.4069-29.5173C81.039-29.305 80.9133-29.0572 80.9054-28.5971L80.8232-23.8894C80.8145-23.3938 80.934-23.2875 81.3019-23.4998ZM105.154-9.51894L109.384-11.9614C109.752-12.1739 109.909-12.4393 109.917-12.9349L110-17.6426C110.008-18.1027 109.857-18.1912 109.489-17.9789L105.259-15.5363C104.891-15.324 104.765-15.0762 104.757-14.6159L104.675-9.90818C104.666-9.41259 104.786-9.3065 105.154-9.51894ZM111.34-5.80237L115.571-8.24486C115.939-8.45729 116.095-8.72284 116.104-9.2183L116.186-13.9262C116.194-14.3863 116.044-14.4748 115.676-14.2623L111.446-11.8198C111.078-11.6074 110.952-11.3597 110.944-10.8995L110.862-6.19175C110.853-5.69615 110.973-5.58993 111.34-5.80237ZM80.8126 4.53457L85.0432 2.09195C85.4111 1.87965 85.5674 1.6141 85.5761 1.11864L85.6582-3.58913C85.6663-4.04936 85.5161-4.13783 85.1482-3.92539L80.9176-1.48291C80.5498-1.27047 80.4241-1.02281 80.416-0.562571L80.3338 4.14519C80.3252 4.64079 80.4448 4.74687 80.8126 4.53457Z"/>
  </g>
  <g id="Black-M" transform="matrix(1 0 0 1 2867.79 1126)">
   <path class="monochrome-0 multicolor-0:tintColor hierarchical-0:secondary SFSymbolsPreview007AFF" d="M63.4646 13.4068C65.0402 13.4068 66.9834 12.7765 69.2418 11.5158L101.122-6.76151C105.219-9.12499 106.794-11.8035 106.794-16.7931L106.794-53.6103C106.794-59.1249 104.904-61.856 101.49-61.856C99.9667-61.856 98.0759-61.2783 95.9751-60.0178L63.9897-41.5829C59.7881-39.1144 58.2124-36.4884 58.2124-31.5515L58.2124 5.26576C58.2124 10.5176 60.0507 13.4068 63.4646 13.4068ZM46.0276 3.4801C46.973 3.4801 47.9709 3.21744 48.9688 2.48213L48.9688-41.688C48.9688-43.3686 49.1789-43.7363 50.597-44.5767L88.8848-66.6355C89.0948-69.8393 87.1515-71.73 84.4205-71.73C83.265-71.73 81.952-71.4148 80.5864-70.6271L46.1852-50.8266C41.7734-48.3582 41.2482-47.4128 41.2482-42.3708L41.2482-3.24258C41.2482 0.748971 43.2966 3.4801 46.0276 3.4801ZM29.8512-5.86863C30.744-5.86863 31.7419-6.1313 32.7398-6.8666L32.7398-51.0367C32.7398-52.6124 33.0023-53.1375 34.4205-53.9254L72.7083-75.9842C72.8658-79.188 70.9751-81.0787 68.2965-81.0787C67.0885-81.0787 65.7755-80.7111 64.3574-79.9233L30.0087-60.1754C25.6494-57.6544 25.1242-56.814 25.1242-51.7195L25.1242-12.5913C25.1242-8.59976 27.0676-5.86863 29.8512-5.86863Z"/>
   <path class="monochrome-1 multicolor-1:tintColor hierarchical-1:primary SFSymbolsPreviewFFFFFF" d="M89.1508-28.5791L97.612-33.4641C100.236-34.9793 101.563-37.259 101.617-40.3739L101.784-49.9453C101.838-53.0602 100.565-53.8388 97.9412-52.3238L89.4799-47.4387C86.8558-45.9236 85.5292-43.644 85.4749-40.5291L85.3078-30.9577C85.2535-27.8428 86.5266-27.064 89.1508-28.5791ZM89.2621-32.1755C88.6735-31.8356 88.3611-32.0197 88.3734-32.7277L88.541-42.3273C88.5528-43.0069 88.8781-43.5591 89.4668-43.8989L97.8544-48.7415C98.4429-49.0814 98.7309-48.8832 98.7189-48.2036L98.5515-38.6039C98.5391-37.8959 98.2384-37.3579 97.6498-37.0181L89.2621-32.1755ZM69.7268-17.3646L78.188-22.2497C80.8122-23.7649 82.1387-26.0444 82.1931-29.1595L82.3601-38.7307C82.4145-41.8458 81.1414-42.6244 78.5172-41.1093L70.056-36.2243C67.4318-34.7092 66.1053-32.4296 66.0509-29.3147L65.8838-19.7433C65.8295-16.6284 67.1026-15.8496 69.7268-17.3646ZM69.8136-20.9469C69.2496-20.6212 68.9371-20.8053 68.9495-21.5132L69.1171-31.1129C69.1289-31.7925 69.4542-32.3447 70.0182-32.6704L78.4059-37.513C78.9945-37.8528 79.3068-37.6688 79.295-36.9892L79.1274-27.3895C79.115-26.6815 78.7898-26.1293 78.2013-25.7895L69.8136-20.9469ZM69.3353 5.06289L77.7965 0.177812C80.4208-1.33721 81.7472-3.6169 81.8016-6.73182L81.9687-16.3032C82.023-19.4181 80.7495-20.1685 78.1252-18.6535L69.664-13.7684C67.0398-12.2532 65.7138-10.002 65.6594-6.88704L65.4924 2.68435C65.438 5.79927 66.7111 6.57803 69.3353 5.06289ZM69.4222 1.48072C68.858 1.80642 68.5457 1.62238 68.5575 0.942692L68.7251-8.65698C68.7375-9.36496 69.0627-9.91719 69.6268-10.2429L78.0145-15.0854C78.6029-15.4253 78.9154-15.2411 78.903-14.5333L78.7355-4.93358C78.7236-4.25389 78.3984-3.70166 77.8098-3.36187L69.4222 1.48072ZM86.4095-17.5776L89.794-19.5316C90.0883-19.7016 90.2134-19.9139 90.2204-20.3104L90.2861-24.0767C90.2925-24.4448 90.1724-24.5156 89.878-24.3457L86.4935-22.3916C86.1993-22.2218 86.0987-22.0235 86.0922-21.6553L86.0265-17.8891C86.0196-17.4926 86.1152-17.4077 86.4095-17.5776ZM96.612-23.468L99.9965-25.4221C100.291-25.592 100.416-25.8044 100.423-26.2008L100.489-29.967C100.495-30.3351 100.375-30.406 100.08-30.2361L96.696-28.2821C96.4017-28.1121 96.3011-27.9139 96.2948-27.5458L96.229-23.7795C96.2221-23.383 96.3177-23.2981 96.612-23.468ZM91.9467-37.1453L95.331-39.0993C95.6254-39.2692 95.7504-39.4816 95.7574-39.8781L95.8231-43.6443C95.8296-44.0125 95.7094-44.0833 95.415-43.9133L92.0307-41.9594C91.7363-41.7894 91.6357-41.5912 91.6294-41.223L91.5636-37.4568C91.5566-37.0604 91.6523-36.9753 91.9467-37.1453ZM86.2039-5.79742L89.5883-7.75152C89.8827-7.92147 90.0078-8.1338 90.0147-8.53028L90.0804-12.2965C90.0869-12.6647 89.9668-12.7355 89.6725-12.5655L86.2879-10.6115C85.9936-10.4416 85.8931-10.2433 85.8867-9.87524L85.821-6.10892C85.814-5.71255 85.9096-5.62758 86.2039-5.79742ZM72.3755-25.8459L75.7599-27.8C76.0542-27.9698 76.1793-28.1823 76.1863-28.5787L76.252-32.3449C76.2585-32.7131 76.1382-32.7838 75.8439-32.614L72.4595-30.6599C72.1652-30.49 72.0646-30.2918 72.0583-29.9237L71.9925-26.1575C71.9856-25.761 72.0812-25.676 72.3755-25.8459ZM91.457-14.6612L94.8415-16.6151C95.1358-16.7851 95.2609-16.9974 95.2678-17.3939L95.3336-21.1601C95.34-21.5282 95.2198-21.599 94.9255-21.4291L91.541-19.475C91.2468-19.3052 91.1462-19.1069 91.1397-18.7388L91.074-14.9725C91.0671-14.5761 91.1627-14.4912 91.457-14.6612ZM96.4063-11.6879L99.7909-13.6419C100.085-13.8118 100.21-14.0243 100.217-14.4206L100.283-18.187C100.289-18.555 100.169-18.6258 99.8749-18.4559L96.4905-16.5019C96.1962-16.3319 96.0956-16.1338 96.0891-15.7656L96.0234-11.9994C96.0165-11.6029 96.1122-11.5179 96.4063-11.6879ZM71.984-3.41834L75.3685-5.37244C75.6628-5.54228 75.7879-5.75472 75.7948-6.15109L75.8605-9.9173C75.867-10.2855 75.7468-10.3563 75.4525-10.1863L72.0681-8.23233C71.7738-8.06238 71.6732-7.86425 71.6667-7.49606L71.601-3.72985C71.5941-3.33337 71.6898-3.2485 71.984-3.41834Z"/>
  </g>
  <g id="Regular-M" transform="matrix(1 0 0 1 1387.59 1126)">
   <path class="monochrome-0 multicolor-0:tintColor hierarchical-0:secondary SFSymbolsPreview007AFF" d="M60.1121 13.4068C61.6876 13.4068 63.6309 12.7765 65.8893 11.5158L97.7696-6.76151C101.866-9.12499 103.442-11.8035 103.442-16.7931L103.442-53.6103C103.442-59.1249 101.551-61.856 98.1372-61.856C96.6141-61.856 94.7234-61.2783 92.6226-60.0178L60.6372-41.5829C56.4356-39.1144 54.8599-36.4884 54.8599-31.5515L54.8599 5.26576C54.8599 10.5176 56.6981 13.4068 60.1121 13.4068ZM42.675 3.4801C43.6204 3.4801 44.6184 3.21744 45.6162 2.48213L45.6162-41.688C45.6162-43.3686 45.8263-43.7363 47.2444-44.5767L85.5322-66.6355C85.7423-69.8393 83.7989-71.73 81.0679-71.73C79.9125-71.73 78.5995-71.4148 77.2338-70.6271L42.8326-50.8266C38.4208-48.3582 37.8957-47.4128 37.8957-42.3708L37.8957-3.24258C37.8957 0.748971 39.944 3.4801 42.675 3.4801ZM26.4986-5.86863C27.3914-5.86863 28.3894-6.1313 29.3872-6.8666L29.3872-51.0367C29.3872-52.6124 29.6498-53.1375 31.0679-53.9254L69.3557-75.9842C69.5133-79.188 67.6225-81.0787 64.9439-81.0787C63.736-81.0787 62.4229-80.7111 61.0048-79.9233L26.6561-60.1754C22.2969-57.6544 21.7717-56.814 21.7717-51.7195L21.7717-12.5913C21.7717-8.59976 23.715-5.86863 26.4986-5.86863Z"/>
   <path class="monochrome-1 multicolor-1:tintColor hierarchical-1:primary SFSymbolsPreviewFFFFFF" d="M85.7982-28.5791L94.2594-33.4641C96.8836-34.9793 98.2101-37.259 98.2645-40.3739L98.4316-49.9453C98.4859-53.0602 97.2128-53.8388 94.5886-52.3238L86.1274-47.4387C83.5033-45.9236 82.1767-43.644 82.1224-40.5291L81.9552-30.9577C81.9009-27.8428 83.174-27.064 85.7982-28.5791ZM85.9095-32.1755C85.321-31.8356 85.0085-32.0197 85.0209-32.7277L85.1884-42.3273C85.2003-43.0069 85.5255-43.5591 86.1142-43.8989L94.5018-48.7415C95.0904-49.0814 95.3783-48.8832 95.3664-48.2036L95.1989-38.6039C95.1865-37.8959 94.8858-37.3579 94.2972-37.0181L85.9095-32.1755ZM66.3743-17.3646L74.8354-22.2497C77.4596-23.7649 78.7862-26.0444 78.8405-29.1595L79.0076-38.7307C79.062-41.8458 77.7889-42.6244 75.1646-41.1093L66.7034-36.2243C64.0792-34.7092 62.7527-32.4296 62.6983-29.3147L62.5313-19.7433C62.4769-16.6284 63.7501-15.8496 66.3743-17.3646ZM66.4611-20.9469C65.897-20.6212 65.5845-20.8053 65.5969-21.5132L65.7645-31.1129C65.7763-31.7925 66.1016-32.3447 66.6657-32.6704L75.0533-37.513C75.6419-37.8528 75.9543-37.6688 75.9424-36.9892L75.7749-27.3895C75.7625-26.6815 75.4372-26.1293 74.8487-25.7895L66.4611-20.9469ZM65.9827 5.06289L74.444 0.177812C77.0682-1.33721 78.3947-3.6169 78.4491-6.73182L78.6161-16.3032C78.6704-19.4181 77.3969-20.1685 74.7727-18.6535L66.3115-13.7684C63.6872-12.2532 62.3612-10.002 62.3069-6.88704L62.1398 2.68435C62.0854 5.79927 63.3585 6.57803 65.9827 5.06289ZM66.0697 1.48072C65.5055 1.80642 65.1931 1.62238 65.205 0.942692L65.3725-8.65698C65.3849-9.36496 65.7102-9.91719 66.2742-10.2429L74.6619-15.0854C75.2504-15.4253 75.5628-15.2411 75.5505-14.5333L75.3829-4.93358C75.3711-4.25389 75.0458-3.70166 74.4572-3.36187L66.0697 1.48072ZM83.057-17.5776L86.4414-19.5316C86.7357-19.7016 86.8608-19.9139 86.8678-20.3104L86.9335-24.0767C86.9399-24.4448 86.8199-24.5156 86.5255-24.3457L83.141-22.3916C82.8467-22.2218 82.7461-22.0235 82.7397-21.6553L82.6739-17.8891C82.6671-17.4926 82.7627-17.4077 83.057-17.5776ZM93.2594-23.468L96.6439-25.4221C96.9383-25.592 97.0633-25.8044 97.0703-26.2008L97.136-29.967C97.1425-30.3351 97.0223-30.406 96.7279-30.2361L93.3434-28.2821C93.0492-28.1121 92.9486-27.9139 92.9422-27.5458L92.8764-23.7795C92.8695-23.383 92.9651-23.2981 93.2594-23.468ZM88.5941-37.1453L91.9785-39.0993C92.2729-39.2692 92.3979-39.4816 92.4048-39.8781L92.4706-43.6443C92.477-44.0125 92.3569-44.0833 92.0625-43.9133L88.6781-41.9594C88.3837-41.7894 88.2831-41.5912 88.2768-41.223L88.2111-37.4568C88.2041-37.0604 88.2997-36.9753 88.5941-37.1453ZM82.8513-5.79742L86.2358-7.75152C86.5302-7.92147 86.6553-8.1338 86.6622-8.53028L86.7279-12.2965C86.7343-12.6647 86.6142-12.7355 86.3199-12.5655L82.9353-10.6115C82.641-10.4416 82.5406-10.2433 82.5341-9.87524L82.4684-6.10892C82.4614-5.71255 82.557-5.62758 82.8513-5.79742ZM69.0229-25.8459L72.4074-27.8C72.7017-27.9698 72.8268-28.1823 72.8338-28.5787L72.8995-32.3449C72.9059-32.7131 72.7857-32.7838 72.4914-32.614L69.1069-30.6599C68.8126-30.49 68.712-30.2918 68.7057-29.9237L68.64-26.1575C68.633-25.761 68.7286-25.676 69.0229-25.8459ZM88.1045-14.6612L91.4889-16.6151C91.7832-16.7851 91.9083-16.9974 91.9152-17.3939L91.981-21.1601C91.9874-21.5282 91.8672-21.599 91.573-21.4291L88.1885-19.475C87.8942-19.3052 87.7936-19.1069 87.7872-18.7388L87.7214-14.9725C87.7146-14.5761 87.8102-14.4912 88.1045-14.6612ZM93.0538-11.6879L96.4384-13.6419C96.7326-13.8118 96.8577-14.0243 96.8646-14.4206L96.9303-18.187C96.9368-18.555 96.8167-18.6258 96.5224-18.4559L93.1379-16.5019C92.8436-16.3319 92.743-16.1338 92.7366-15.7656L92.6709-11.9994C92.664-11.6029 92.7596-11.5179 93.0538-11.6879ZM68.6315-3.41834L72.016-5.37244C72.3102-5.54228 72.4353-5.75472 72.4422-6.15109L72.5079-9.9173C72.5144-10.2855 72.3943-10.3563 72.1-10.1863L68.7155-8.23233C68.4212-8.06238 68.3206-7.86425 68.3142-7.49606L68.2485-3.72985C68.2416-3.33337 68.3372-3.2485 68.6315-3.41834Z"/>
  </g>
  <g id="Ultralight-M" transform="matrix(1 0 0 1 501.676 1126)">
   <path class="monochrome-0 multicolor-0:tintColor hierarchical-0:secondary SFSymbolsPreview007AFF" d="M55.8899 13.4068C57.4655 13.4068 59.4087 12.7765 61.6671 11.5158L93.5474-6.76151C97.644-9.12499 99.2197-11.8035 99.2197-16.7931L99.2197-53.6103C99.2197-59.1249 97.3289-61.856 93.915-61.856C92.3919-61.856 90.5012-61.2783 88.4004-60.0178L56.415-41.5829C52.2134-39.1144 50.6377-36.4884 50.6377-31.5515L50.6377 5.26576C50.6377 10.5176 52.4759 13.4068 55.8899 13.4068ZM38.4528 3.4801C39.3982 3.4801 40.3962 3.21744 41.394 2.48213L41.394-41.688C41.394-43.3686 41.6041-43.7363 43.0222-44.5767L81.31-66.6355C81.5201-69.8393 79.5768-71.73 76.8457-71.73C75.6903-71.73 74.3773-71.4148 73.0117-70.6271L38.6104-50.8266C34.1986-48.3582 33.6735-47.4128 33.6735-42.3708L33.6735-3.24258C33.6735 0.748971 35.7218 3.4801 38.4528 3.4801ZM22.2764-5.86863C23.1692-5.86863 24.1672-6.1313 25.165-6.8666L25.165-51.0367C25.165-52.6124 25.4276-53.1375 26.8457-53.9254L65.1335-75.9842C65.2911-79.188 63.4004-81.0787 60.7217-81.0787C59.5138-81.0787 58.2008-80.7111 56.7827-79.9233L22.4339-60.1754C18.0747-57.6544 17.5495-56.814 17.5495-51.7195L17.5495-12.5913C17.5495-8.59976 19.4928-5.86863 22.2764-5.86863Z"/>
   <path class="monochrome-1 multicolor-1:tintColor hierarchical-1:primary SFSymbolsPreviewFFFFFF" d="M81.576-28.5791L90.0373-33.4641C92.6614-34.9793 93.988-37.259 94.0423-40.3739L94.2094-49.9453C94.2637-53.0602 92.9906-53.8388 90.3664-52.3238L81.9052-47.4387C79.2811-45.9236 77.9545-43.644 77.9002-40.5291L77.733-30.9577C77.6787-27.8428 78.9518-27.064 81.576-28.5791ZM81.6874-32.1755C81.0988-31.8356 80.7863-32.0197 80.7987-32.7277L80.9663-42.3273C80.9781-43.0069 81.3034-43.5591 81.8921-43.8989L90.2796-48.7415C90.8682-49.0814 91.1561-48.8832 91.1442-48.2036L90.9767-38.6039C90.9644-37.8959 90.6636-37.3579 90.075-37.0181L81.6874-32.1755ZM62.1521-17.3646L70.6132-22.2497C73.2374-23.7649 74.564-26.0444 74.6183-29.1595L74.7854-38.7307C74.8398-41.8458 73.5667-42.6244 70.9425-41.1093L62.4812-36.2243C59.857-34.7092 58.5306-32.4296 58.4761-29.3147L58.3091-19.7433C58.2548-16.6284 59.5279-15.8496 62.1521-17.3646ZM62.2389-20.9469C61.6748-20.6212 61.3624-20.8053 61.3747-21.5132L61.5423-31.1129C61.5542-31.7925 61.8794-32.3447 62.4435-32.6704L70.8311-37.513C71.4197-37.8528 71.7321-37.6688 71.7203-36.9892L71.5527-27.3895C71.5403-26.6815 71.215-26.1293 70.6266-25.7895L62.2389-20.9469ZM61.7606 5.06289L70.2218 0.177812C72.846-1.33721 74.1725-3.6169 74.2269-6.73182L74.394-16.3032C74.4483-19.4181 73.1747-20.1685 70.5505-18.6535L62.0893-13.7684C59.4651-12.2532 58.139-10.002 58.0847-6.88704L57.9177 2.68435C57.8632 5.79927 59.1364 6.57803 61.7606 5.06289ZM61.8475 1.48072C61.2833 1.80642 60.9709 1.62238 60.9828 0.942692L61.1504-8.65698C61.1627-9.36496 61.488-9.91719 62.0521-10.2429L70.4397-15.0854C71.0282-15.4253 71.3407-15.2411 71.3283-14.5333L71.1607-4.93358C71.1489-4.25389 70.8236-3.70166 70.235-3.36187L61.8475 1.48072ZM78.8348-17.5776L82.2193-19.5316C82.5136-19.7016 82.6387-19.9139 82.6457-20.3104L82.7114-24.0767C82.7177-24.4448 82.5977-24.5156 82.3033-24.3457L78.9188-22.3916C78.6245-22.2218 78.5239-22.0235 78.5175-21.6553L78.4518-17.8891C78.4449-17.4926 78.5405-17.4077 78.8348-17.5776ZM89.0373-23.468L92.4217-25.4221C92.7161-25.592 92.8411-25.8044 92.8481-26.2008L92.9138-29.967C92.9203-30.3351 92.8001-30.406 92.5057-30.2361L89.1213-28.2821C88.827-28.1121 88.7264-27.9139 88.7201-27.5458L88.6542-23.7795C88.6473-23.383 88.743-23.2981 89.0373-23.468ZM84.3719-37.1453L87.7563-39.0993C88.0507-39.2692 88.1757-39.4816 88.1827-39.8781L88.2484-43.6443C88.2548-44.0125 88.1347-44.0833 87.8403-43.9133L84.4559-41.9594C84.1615-41.7894 84.061-41.5912 84.0546-41.223L83.9889-37.4568C83.9819-37.0604 84.0775-36.9753 84.3719-37.1453ZM78.6291-5.79742L82.0136-7.75152C82.308-7.92147 82.4331-8.1338 82.44-8.53028L82.5057-12.2965C82.5122-12.6647 82.392-12.7355 82.0977-12.5655L78.7131-10.6115C78.4189-10.4416 78.3184-10.2433 78.3119-9.87524L78.2462-6.10892C78.2392-5.71255 78.3348-5.62758 78.6291-5.79742ZM64.8007-25.8459L68.1852-27.8C68.4795-27.9698 68.6046-28.1823 68.6116-28.5787L68.6773-32.3449C68.6838-32.7131 68.5635-32.7838 68.2692-32.614L64.8847-30.6599C64.5904-30.49 64.4899-30.2918 64.4835-29.9237L64.4178-26.1575C64.4108-25.761 64.5064-25.676 64.8007-25.8459ZM83.8823-14.6612L87.2668-16.6151C87.5611-16.7851 87.6862-16.9974 87.693-17.3939L87.7589-21.1601C87.7652-21.5282 87.6451-21.599 87.3508-21.4291L83.9663-19.475C83.672-19.3052 83.5714-19.1069 83.565-18.7388L83.4993-14.9725C83.4924-14.5761 83.588-14.4912 83.8823-14.6612ZM88.8316-11.6879L92.2162-13.6419C92.5105-13.8118 92.6356-14.0243 92.6425-14.4206L92.7082-18.187C92.7146-18.555 92.5945-18.6258 92.3002-18.4559L88.9157-16.5019C88.6214-16.3319 88.5209-16.1338 88.5144-15.7656L88.4487-11.9994C88.4418-11.6029 88.5374-11.5179 88.8316-11.6879ZM64.4093-3.41834L67.7938-5.37244C68.0881-5.54228 68.2132-5.75472 68.2201-6.15109L68.2858-9.9173C68.2922-10.2855 68.1721-10.3563 67.8778-10.1863L64.4933-8.23233C64.199-8.06238 64.0985-7.86425 64.092-7.49606L64.0263-3.72985C64.0194-3.33337 64.115-3.2485 64.4093-3.41834Z"/>
  </g>
  <g id="Black-S" transform="matrix(1 0 0 1 2883.2 696)">
   <path class="monochrome-0 multicolor-0:tintColor hierarchical-0:secondary SFSymbolsPreview007AFF" d="M48.6029 1.24808C49.7845 1.24808 51.242 0.77534 52.9358-0.170139L76.846-13.8781C79.9185-15.6507 81.1002-17.6596 81.1002-21.4018L81.1002-49.0147C81.1002-53.1507 79.6821-55.199 77.1217-55.199C75.9794-55.199 74.5613-54.7657 72.9857-53.8203L48.9967-39.9942C45.8455-38.1428 44.6637-36.1733 44.6637-32.4706L44.6637-4.85768C44.6637-0.918777 46.0424 1.24808 48.6029 1.24808ZM35.5251-6.19692C36.2341-6.19692 36.9826-6.39392 37.731-6.9454L37.731-40.073C37.731-41.3335 37.8885-41.6092 38.9521-42.2395L67.668-58.7836C67.8255-61.1864 66.368-62.6045 64.3197-62.6045C63.4532-62.6045 62.4684-62.3681 61.4442-61.7773L35.6433-46.927C32.3344-45.0756 31.9406-44.3666 31.9406-40.5851L31.9406-11.2389C31.9406-8.24527 33.4768-6.19692 35.5251-6.19692ZM23.3928-13.2085C24.0623-13.2085 24.8108-13.4055 25.5592-13.9569L25.5592-47.0845C25.5592-48.2663 25.7561-48.6601 26.8197-49.2511L55.5356-65.7952C55.6538-68.198 54.2357-69.6161 52.2267-69.6161C51.3208-69.6161 50.336-69.3403 49.2724-68.7495L23.5109-53.9385C20.2415-52.0478 19.8475-51.4175 19.8475-47.5966L19.8475-18.2505C19.8475-15.2568 21.305-13.2085 23.3928-13.2085Z"/>
   <path class="monochrome-1 multicolor-1:tintColor hierarchical-1:primary SFSymbolsPreviewFFFFFF" d="M67.8675-30.2413L74.2134-33.9051C76.1815-35.0415 77.1764-36.7512 77.2171-39.0874L77.3425-46.266C77.3832-48.6021 76.4284-49.1861 74.4602-48.0499L68.1143-44.386C66.1462-43.2497 65.1513-41.54 65.1106-39.2038L64.9852-32.0253C64.9445-29.6891 65.8993-29.105 67.8675-30.2413ZM67.951-32.9386C67.5095-32.6837 67.2752-32.8218 67.2845-33.3527L67.4101-40.5525C67.419-41.0622 67.663-41.4764 68.1045-41.7312L74.3951-45.3631C74.8366-45.6181 75.0525-45.4694 75.0436-44.9597L74.918-37.7599C74.9087-37.229 74.6831-36.8254 74.2417-36.5706L67.951-32.9386ZM53.2995-21.8305L59.6454-25.4943C61.6135-26.6306 62.6084-28.3403 62.6492-30.6766L62.7745-37.8551C62.8153-40.1913 61.8605-40.7753 59.8923-39.639L53.5464-35.9752C51.5782-34.8389 50.5834-33.1292 50.5425-30.793L50.4173-23.6145C50.3765-21.2783 51.3313-20.6942 53.2995-21.8305ZM53.3646-24.5172C52.9416-24.2729 52.7072-24.4109 52.7165-24.9419L52.8422-32.1417C52.8511-32.6514 53.095-33.0655 53.5181-33.3098L59.8088-36.9418C60.2502-37.1966 60.4845-37.0586 60.4756-36.5489L60.3499-29.3491C60.3407-28.8182 60.0967-28.404 59.6554-28.1491L53.3646-24.5172ZM53.0059-5.00983L59.3518-8.67364C61.3199-9.80991 62.3148-11.5197 62.3556-13.8559L62.4809-21.0344C62.5216-23.3706 61.5665-23.9334 59.5983-22.7971L53.2524-19.1333C51.2842-17.9969 50.2897-16.3085 50.249-13.9723L50.1237-6.79374C50.0829-4.45755 51.0377-3.87348 53.0059-5.00983ZM53.071-7.69646C52.6479-7.45218 52.4136-7.59021 52.4225-8.09998L52.5482-15.2997C52.5575-15.8307 52.8014-16.2449 53.2245-16.4892L59.5152-20.121C59.9566-20.376 60.1909-20.2378 60.1817-19.7069L60.056-12.5072C60.0471-11.9974 59.8031-11.5832 59.3617-11.3284L53.071-7.69646ZM65.8115-21.9902L68.3499-23.4557C68.5706-23.5832 68.6644-23.7424 68.6697-24.0398L68.719-26.8645C68.7237-27.1406 68.6337-27.1937 68.4129-27.0663L65.8745-25.6007C65.6538-25.4733 65.5784-25.3246 65.5736-25.0485L65.5243-22.2238C65.5191-21.9265 65.5908-21.8628 65.8115-21.9902ZM73.4634-26.408L76.0017-27.8736C76.2225-28.001 76.3163-28.1603 76.3215-28.4576L76.3708-31.2823C76.3757-31.5583 76.2855-31.6115 76.0647-31.484L73.5264-30.0186C73.3057-29.8911 73.2302-29.7424 73.2255-29.4664L73.1761-26.6416C73.1709-26.3443 73.2427-26.2806 73.4634-26.408ZM69.9644-36.666L72.5027-38.1314C72.7235-38.2589 72.8172-38.4182 72.8224-38.7156L72.8717-41.5402C72.8766-41.8164 72.7865-41.8695 72.5657-41.742L70.0274-40.2765C69.8066-40.1491 69.7312-40.0004 69.7264-39.7242L69.6771-36.8996C69.6719-36.6023 69.7436-36.5385 69.9644-36.666ZM65.6573-13.1551L68.1956-14.6206C68.4164-14.7481 68.5103-14.9073 68.5154-15.2047L68.5647-18.0294C68.5696-18.3055 68.4794-18.3586 68.2587-18.2311L65.7203-16.7656C65.4996-16.6382 65.4242-16.4895 65.4194-16.2134L65.3701-13.3887C65.3649-13.0914 65.4366-13.0277 65.6573-13.1551ZM55.286-28.1914L57.8243-29.657C58.0451-29.7844 58.1389-29.9437 58.1441-30.241L58.1934-33.0657C58.1983-33.3418 58.1081-33.3949 57.8873-33.2675L55.349-31.8019C55.1283-31.6745 55.0528-31.5258 55.0481-31.2498L54.9988-28.4251C54.9935-28.1278 55.0653-28.064 55.286-28.1914ZM69.5972-19.8029L72.1355-21.2684C72.3562-21.3958 72.4501-21.5551 72.4552-21.8524L72.5046-24.6771C72.5094-24.9531 72.4192-25.0062 72.1985-24.8788L69.6602-23.4133C69.4394-23.2859 69.364-23.1372 69.3592-22.8611L69.3099-20.0364C69.3047-19.7391 69.3764-19.6754 69.5972-19.8029ZM73.3091-17.5729L75.8476-19.0384C76.0683-19.1659 76.1621-19.3252 76.1673-19.6225L76.2166-22.4472C76.2214-22.7233 76.1313-22.7764 75.9106-22.6489L73.3722-21.1834C73.1515-21.0559 73.0761-20.9073 73.0712-20.6312L73.0219-17.8065C73.0168-17.5092 73.0885-17.4455 73.3091-17.5729ZM54.9924-11.3708L57.5308-12.8363C57.7515-12.9637 57.8453-13.123 57.8505-13.4203L57.8998-16.245C57.9046-16.5211 57.8145-16.5742 57.5938-16.4467L55.0554-14.9812C54.8347-14.8538 54.7593-14.7052 54.7544-14.429L54.7051-11.6044C54.7-11.307 54.7717-11.2434 54.9924-11.3708Z"/>
  </g>
  <g id="Regular-S" transform="matrix(1 0 0 1 1401.75 696)">
   <path class="monochrome-0 multicolor-0:tintColor hierarchical-0:secondary SFSymbolsPreview007AFF" d="M46.4979 1.24808C47.6795 1.24808 49.137 0.77534 50.8308-0.170139L74.741-13.8781C77.8135-15.6507 78.9952-17.6596 78.9952-21.4018L78.9952-49.0147C78.9952-53.1507 77.5771-55.199 75.0167-55.199C73.8744-55.199 72.4563-54.7657 70.8807-53.8203L46.8917-39.9942C43.7405-38.1428 42.5587-36.1733 42.5587-32.4706L42.5587-4.85768C42.5587-0.918777 43.9374 1.24808 46.4979 1.24808ZM33.4201-6.19692C34.1291-6.19692 34.8776-6.39392 35.626-6.9454L35.626-40.073C35.626-41.3335 35.7835-41.6092 36.8471-42.2395L65.563-58.7836C65.7205-61.1864 64.263-62.6045 62.2147-62.6045C61.3482-62.6045 60.3634-62.3681 59.3392-61.7773L33.5383-46.927C30.2294-45.0756 29.8356-44.3666 29.8356-40.5851L29.8356-11.2389C29.8356-8.24527 31.3718-6.19692 33.4201-6.19692ZM21.2878-13.2085C21.9573-13.2085 22.7058-13.4055 23.4542-13.9569L23.4542-47.0845C23.4542-48.2663 23.6511-48.6601 24.7147-49.2511L53.4306-65.7952C53.5488-68.198 52.1307-69.6161 50.1217-69.6161C49.2158-69.6161 48.231-69.3403 47.1674-68.7495L21.4059-53.9385C18.1365-52.0478 17.7425-51.4175 17.7425-47.5966L17.7425-18.2505C17.7425-15.2568 19.2-13.2085 21.2878-13.2085Z"/>
   <path class="monochrome-1 multicolor-1:tintColor hierarchical-1:primary SFSymbolsPreviewFFFFFF" d="M65.7625-30.2413L72.1084-33.9051C74.0765-35.0415 75.0714-36.7512 75.1121-39.0874L75.2375-46.266C75.2782-48.6021 74.3234-49.1861 72.3552-48.0499L66.0093-44.386C64.0412-43.2497 63.0463-41.54 63.0056-39.2038L62.8802-32.0253C62.8395-29.6891 63.7943-29.105 65.7625-30.2413ZM65.846-32.9386C65.4045-32.6837 65.1702-32.8218 65.1795-33.3527L65.3051-40.5525C65.314-41.0622 65.558-41.4764 65.9995-41.7312L72.2901-45.3631C72.7316-45.6181 72.9475-45.4694 72.9386-44.9597L72.813-37.7599C72.8037-37.229 72.5781-36.8254 72.1367-36.5706L65.846-32.9386ZM51.1945-21.8305L57.5404-25.4943C59.5085-26.6306 60.5034-28.3403 60.5442-30.6766L60.6695-37.8551C60.7103-40.1913 59.7555-40.7753 57.7873-39.639L51.4414-35.9752C49.4732-34.8389 48.4784-33.1292 48.4375-30.793L48.3123-23.6145C48.2715-21.2783 49.2263-20.6942 51.1945-21.8305ZM51.2596-24.5172C50.8366-24.2729 50.6022-24.4109 50.6115-24.9419L50.7372-32.1417C50.7461-32.6514 50.99-33.0655 51.4131-33.3098L57.7038-36.9418C58.1452-37.1966 58.3795-37.0586 58.3706-36.5489L58.2449-29.3491C58.2357-28.8182 57.9917-28.404 57.5504-28.1491L51.2596-24.5172ZM50.9009-5.00983L57.2468-8.67364C59.2149-9.80991 60.2098-11.5197 60.2506-13.8559L60.3759-21.0344C60.4166-23.3706 59.4615-23.9334 57.4933-22.7971L51.1474-19.1333C49.1792-17.9969 48.1847-16.3085 48.144-13.9723L48.0187-6.79374C47.9779-4.45755 48.9327-3.87348 50.9009-5.00983ZM50.966-7.69646C50.5429-7.45218 50.3086-7.59021 50.3175-8.09998L50.4432-15.2997C50.4525-15.8307 50.6964-16.2449 51.1195-16.4892L57.4102-20.121C57.8516-20.376 58.0859-20.2378 58.0767-19.7069L57.951-12.5072C57.9421-11.9974 57.6981-11.5832 57.2567-11.3284L50.966-7.69646ZM63.7065-21.9902L66.2449-23.4557C66.4656-23.5832 66.5594-23.7424 66.5647-24.0398L66.614-26.8645C66.6187-27.1406 66.5287-27.1937 66.3079-27.0663L63.7695-25.6007C63.5488-25.4733 63.4734-25.3246 63.4686-25.0485L63.4193-22.2238C63.4141-21.9265 63.4858-21.8628 63.7065-21.9902ZM71.3584-26.408L73.8967-27.8736C74.1175-28.001 74.2113-28.1603 74.2165-28.4576L74.2658-31.2823C74.2707-31.5583 74.1805-31.6115 73.9597-31.484L71.4214-30.0186C71.2007-29.8911 71.1252-29.7424 71.1205-29.4664L71.0711-26.6416C71.0659-26.3443 71.1377-26.2806 71.3584-26.408ZM67.8594-36.666L70.3977-38.1314C70.6185-38.2589 70.7122-38.4182 70.7174-38.7156L70.7667-41.5402C70.7716-41.8164 70.6815-41.8695 70.4607-41.742L67.9224-40.2765C67.7016-40.1491 67.6262-40.0004 67.6214-39.7242L67.5721-36.8996C67.5669-36.6023 67.6386-36.5385 67.8594-36.666ZM63.5523-13.1551L66.0906-14.6206C66.3114-14.7481 66.4053-14.9073 66.4104-15.2047L66.4597-18.0294C66.4646-18.3055 66.3744-18.3586 66.1537-18.2311L63.6153-16.7656C63.3946-16.6382 63.3192-16.4895 63.3144-16.2134L63.2651-13.3887C63.2599-13.0914 63.3316-13.0277 63.5523-13.1551ZM53.181-28.1914L55.7193-29.657C55.9401-29.7844 56.0339-29.9437 56.0391-30.241L56.0884-33.0657C56.0933-33.3418 56.0031-33.3949 55.7823-33.2675L53.244-31.8019C53.0233-31.6745 52.9478-31.5258 52.9431-31.2498L52.8938-28.4251C52.8885-28.1278 52.9603-28.064 53.181-28.1914ZM67.4922-19.8029L70.0305-21.2684C70.2512-21.3958 70.3451-21.5551 70.3502-21.8524L70.3996-24.6771C70.4044-24.9531 70.3142-25.0062 70.0935-24.8788L67.5552-23.4133C67.3344-23.2859 67.259-23.1372 67.2542-22.8611L67.2049-20.0364C67.1997-19.7391 67.2714-19.6754 67.4922-19.8029ZM71.2041-17.5729L73.7426-19.0384C73.9633-19.1659 74.0571-19.3252 74.0623-19.6225L74.1116-22.4472C74.1164-22.7233 74.0263-22.7764 73.8056-22.6489L71.2672-21.1834C71.0465-21.0559 70.9711-20.9073 70.9662-20.6312L70.9169-17.8065C70.9118-17.5092 70.9835-17.4455 71.2041-17.5729ZM52.8874-11.3708L55.4258-12.8363C55.6465-12.9637 55.7403-13.123 55.7455-13.4203L55.7948-16.245C55.7996-16.5211 55.7095-16.5742 55.4888-16.4467L52.9504-14.9812C52.7297-14.8538 52.6543-14.7052 52.6494-14.429L52.6001-11.6044C52.595-11.307 52.6667-11.2434 52.8874-11.3708Z"/>
  </g>
  <g id="Ultralight-S" transform="matrix(1 0 0 1 515.351 696)">
   <path class="monochrome-0 multicolor-0:tintColor hierarchical-0:secondary SFSymbolsPreview007AFF" d="M42.7629 1.24808C43.9445 1.24808 45.402 0.77534 47.0958-0.170139L71.006-13.8781C74.0785-15.6507 75.2602-17.6596 75.2602-21.4018L75.2602-49.0147C75.2602-53.1507 73.8421-55.199 71.2817-55.199C70.1394-55.199 68.7213-54.7657 67.1457-53.8203L43.1567-39.9942C40.0055-38.1428 38.8237-36.1733 38.8237-32.4706L38.8237-4.85768C38.8237-0.918777 40.2024 1.24808 42.7629 1.24808ZM29.6851-6.19692C30.3941-6.19692 31.1426-6.39392 31.891-6.9454L31.891-40.073C31.891-41.3335 32.0485-41.6092 33.1121-42.2395L61.828-58.7836C61.9855-61.1864 60.528-62.6045 58.4797-62.6045C57.6132-62.6045 56.6284-62.3681 55.6042-61.7773L29.8033-46.927C26.4944-45.0756 26.1006-44.3666 26.1006-40.5851L26.1006-11.2389C26.1006-8.24527 27.6368-6.19692 29.6851-6.19692ZM17.5528-13.2085C18.2223-13.2085 18.9708-13.4055 19.7192-13.9569L19.7192-47.0845C19.7192-48.2663 19.9161-48.6601 20.9797-49.2511L49.6956-65.7952C49.8138-68.198 48.3957-69.6161 46.3867-69.6161C45.4808-69.6161 44.496-69.3403 43.4324-68.7495L17.6709-53.9385C14.4015-52.0478 14.0075-51.4175 14.0075-47.5966L14.0075-18.2505C14.0075-15.2568 15.465-13.2085 17.5528-13.2085Z"/>
   <path class="monochrome-1 multicolor-1:tintColor hierarchical-1:primary SFSymbolsPreviewFFFFFF" d="M62.0275-30.2413L68.3734-33.9051C70.3415-35.0415 71.3364-36.7512 71.3771-39.0874L71.5025-46.266C71.5432-48.6021 70.5884-49.1861 68.6202-48.0499L62.2743-44.386C60.3062-43.2497 59.3113-41.54 59.2706-39.2038L59.1452-32.0253C59.1045-29.6891 60.0593-29.105 62.0275-30.2413ZM62.111-32.9386C61.6695-32.6837 61.4352-32.8218 61.4445-33.3527L61.5701-40.5525C61.579-41.0622 61.823-41.4764 62.2645-41.7312L68.5551-45.3631C68.9966-45.6181 69.2125-45.4694 69.2036-44.9597L69.078-37.7599C69.0687-37.229 68.8431-36.8254 68.4017-36.5706L62.111-32.9386ZM47.4595-21.8305L53.8054-25.4943C55.7735-26.6306 56.7684-28.3403 56.8092-30.6766L56.9345-37.8551C56.9753-40.1913 56.0205-40.7753 54.0523-39.639L47.7064-35.9752C45.7382-34.8389 44.7434-33.1292 44.7025-30.793L44.5773-23.6145C44.5365-21.2783 45.4913-20.6942 47.4595-21.8305ZM47.5246-24.5172C47.1016-24.2729 46.8672-24.4109 46.8765-24.9419L47.0022-32.1417C47.0111-32.6514 47.255-33.0655 47.6781-33.3098L53.9688-36.9418C54.4102-37.1966 54.6445-37.0586 54.6356-36.5489L54.5099-29.3491C54.5007-28.8182 54.2567-28.404 53.8154-28.1491L47.5246-24.5172ZM47.1659-5.00983L53.5118-8.67364C55.4799-9.80991 56.4748-11.5197 56.5156-13.8559L56.6409-21.0344C56.6816-23.3706 55.7265-23.9334 53.7583-22.7971L47.4124-19.1333C45.4442-17.9969 44.4497-16.3085 44.409-13.9723L44.2837-6.79374C44.2429-4.45755 45.1977-3.87348 47.1659-5.00983ZM47.231-7.69646C46.8079-7.45218 46.5736-7.59021 46.5825-8.09998L46.7082-15.2997C46.7175-15.8307 46.9614-16.2449 47.3845-16.4892L53.6752-20.121C54.1166-20.376 54.3509-20.2378 54.3417-19.7069L54.216-12.5072C54.2071-11.9974 53.9631-11.5832 53.5217-11.3284L47.231-7.69646ZM59.9715-21.9902L62.5099-23.4557C62.7306-23.5832 62.8244-23.7424 62.8297-24.0398L62.879-26.8645C62.8837-27.1406 62.7937-27.1937 62.5729-27.0663L60.0345-25.6007C59.8138-25.4733 59.7384-25.3246 59.7336-25.0485L59.6843-22.2238C59.6791-21.9265 59.7508-21.8628 59.9715-21.9902ZM67.6234-26.408L70.1617-27.8736C70.3825-28.001 70.4763-28.1603 70.4815-28.4576L70.5308-31.2823C70.5357-31.5583 70.4455-31.6115 70.2247-31.484L67.6864-30.0186C67.4657-29.8911 67.3902-29.7424 67.3855-29.4664L67.3361-26.6416C67.3309-26.3443 67.4027-26.2806 67.6234-26.408ZM64.1244-36.666L66.6627-38.1314C66.8835-38.2589 66.9772-38.4182 66.9824-38.7156L67.0317-41.5402C67.0366-41.8164 66.9465-41.8695 66.7257-41.742L64.1874-40.2765C63.9666-40.1491 63.8912-40.0004 63.8864-39.7242L63.8371-36.8996C63.8319-36.6023 63.9036-36.5385 64.1244-36.666ZM59.8173-13.1551L62.3556-14.6206C62.5764-14.7481 62.6703-14.9073 62.6754-15.2047L62.7247-18.0294C62.7296-18.3055 62.6394-18.3586 62.4187-18.2311L59.8803-16.7656C59.6596-16.6382 59.5842-16.4895 59.5794-16.2134L59.5301-13.3887C59.5249-13.0914 59.5966-13.0277 59.8173-13.1551ZM49.446-28.1914L51.9843-29.657C52.2051-29.7844 52.2989-29.9437 52.3041-30.241L52.3534-33.0657C52.3583-33.3418 52.2681-33.3949 52.0473-33.2675L49.509-31.8019C49.2883-31.6745 49.2128-31.5258 49.2081-31.2498L49.1588-28.4251C49.1535-28.1278 49.2253-28.064 49.446-28.1914ZM63.7572-19.8029L66.2955-21.2684C66.5162-21.3958 66.6101-21.5551 66.6152-21.8524L66.6646-24.6771C66.6694-24.9531 66.5792-25.0062 66.3585-24.8788L63.8202-23.4133C63.5994-23.2859 63.524-23.1372 63.5192-22.8611L63.4699-20.0364C63.4647-19.7391 63.5364-19.6754 63.7572-19.8029ZM67.4691-17.5729L70.0076-19.0384C70.2283-19.1659 70.3221-19.3252 70.3273-19.6225L70.3766-22.4472C70.3814-22.7233 70.2913-22.7764 70.0706-22.6489L67.5322-21.1834C67.3115-21.0559 67.2361-20.9073 67.2312-20.6312L67.1819-17.8065C67.1768-17.5092 67.2485-17.4455 67.4691-17.5729ZM49.1524-11.3708L51.6908-12.8363C51.9115-12.9637 52.0053-13.123 52.0105-13.4203L52.0598-16.245C52.0646-16.5211 51.9745-16.5742 51.7538-16.4467L49.2154-14.9812C48.9947-14.8538 48.9193-14.7052 48.9144-14.429L48.8651-11.6044C48.86-11.307 48.9317-11.2434 49.1524-11.3708Z"/>
  </g>
 </g>
</svg>
