<svg xmlns="http://www.w3.org/2000/svg" xmlns:xlink="http://www.w3.org/1999/xlink" version="1.1" width="3300" height="2200">
 <!--glyph: "", point size: 100.0, font version: "17.1d1e1", template writer version: "65.1"-->
<style>

.hierarchical-1:primary {fill:#262626;}
.SFSymbolsPreview262626 {fill:#262626;}
</style>
 <g id="Notes">
  <rect height="2200" id="artboard" style="fill:white;opacity:1" width="3300" x="0" y="0"/>
  <line style="fill:none;stroke:black;opacity:1;stroke-width:0.5;" x1="263" x2="3036" y1="292" y2="292"/>
  <text style="stroke:none;fill:black;font-family:sans-serif;font-size:13;font-weight:bold;" transform="matrix(1 0 0 1 263 322)">Weight/Scale Variations</text>
  <text style="stroke:none;fill:black;font-family:sans-serif;font-size:13;text-anchor:middle;" transform="matrix(1 0 0 1 559.711 322)">Ultralight</text>
  <text style="stroke:none;fill:black;font-family:sans-serif;font-size:13;text-anchor:middle;" transform="matrix(1 0 0 1 856.422 322)">Thin</text>
  <text style="stroke:none;fill:black;font-family:sans-serif;font-size:13;text-anchor:middle;" transform="matrix(1 0 0 1 1153.13 322)">Light</text>
  <text style="stroke:none;fill:black;font-family:sans-serif;font-size:13;text-anchor:middle;" transform="matrix(1 0 0 1 1449.84 322)">Regular</text>
  <text style="stroke:none;fill:black;font-family:sans-serif;font-size:13;text-anchor:middle;" transform="matrix(1 0 0 1 1746.56 322)">Medium</text>
  <text style="stroke:none;fill:black;font-family:sans-serif;font-size:13;text-anchor:middle;" transform="matrix(1 0 0 1 2043.27 322)">Semibold</text>
  <text style="stroke:none;fill:black;font-family:sans-serif;font-size:13;text-anchor:middle;" transform="matrix(1 0 0 1 2339.98 322)">Bold</text>
  <text style="stroke:none;fill:black;font-family:sans-serif;font-size:13;text-anchor:middle;" transform="matrix(1 0 0 1 2636.69 322)">Heavy</text>
  <text style="stroke:none;fill:black;font-family:sans-serif;font-size:13;text-anchor:middle;" transform="matrix(1 0 0 1 2933.4 322)">Black</text>
  <line style="fill:none;stroke:black;opacity:1;stroke-width:0.5;" x1="263" x2="3036" y1="1903" y2="1903"/>
  <g transform="matrix(1 0 0 1 263 1933)">
   <path d="M9.24805 0.830078Q10.8691 0.830078 12.2949 0.214844Q13.7207-0.400391 14.8096-1.49414Q15.8984-2.58789 16.5186-4.01367Q17.1387-5.43945 17.1387-7.05078Q17.1387-8.66211 16.5186-10.0879Q15.8984-11.5137 14.8047-12.6074Q13.7109-13.7012 12.2852-14.3164Q10.8594-14.9316 9.23828-14.9316Q7.62695-14.9316 6.20117-14.3164Q4.77539-13.7012 3.69141-12.6074Q2.60742-11.5137 1.9873-10.0879Q1.36719-8.66211 1.36719-7.05078Q1.36719-5.43945 1.9873-4.01367Q2.60742-2.58789 3.69629-1.49414Q4.78516-0.400391 6.21094 0.214844Q7.63672 0.830078 9.24805 0.830078ZM9.24805-0.654297Q7.91992-0.654297 6.7627-1.14746Q5.60547-1.64062 4.73145-2.51953Q3.85742-3.39844 3.36426-4.56055Q2.87109-5.72266 2.87109-7.05078Q2.87109-8.37891 3.35938-9.54102Q3.84766-10.7031 4.72168-11.582Q5.5957-12.4609 6.75293-12.9541Q7.91016-13.4473 9.23828-13.4473Q10.5762-13.4473 11.7334-12.9541Q12.8906-12.4609 13.7695-11.582Q14.6484-10.7031 15.1465-9.54102Q15.6445-8.37891 15.6445-7.05078Q15.6445-5.72266 15.1514-4.56055Q14.6582-3.39844 13.7842-2.51953Q12.9102-1.64062 11.748-1.14746Q10.5859-0.654297 9.24805-0.654297ZM5.6543-7.05078Q5.6543-6.72852 5.85938-6.52832Q6.06445-6.32812 6.40625-6.32812L8.51562-6.32812L8.51562-4.20898Q8.51562-3.88672 8.71094-3.67676Q8.90625-3.4668 9.23828-3.4668Q9.56055-3.4668 9.77051-3.67676Q9.98047-3.88672 9.98047-4.20898L9.98047-6.32812L12.0898-6.32812Q12.4219-6.32812 12.627-6.52832Q12.832-6.72852 12.832-7.05078Q12.832-7.38281 12.627-7.58789Q12.4219-7.79297 12.0898-7.79297L9.98047-7.79297L9.98047-9.90234Q9.98047-10.2344 9.77051-10.4443Q9.56055-10.6543 9.23828-10.6543Q8.90625-10.6543 8.71094-10.4443Q8.51562-10.2344 8.51562-9.90234L8.51562-7.79297L6.40625-7.79297Q6.06445-7.79297 5.85938-7.58789Q5.6543-7.38281 5.6543-7.05078Z"/>
  </g>
  <g transform="matrix(1 0 0 1 281.867 1933)">
   <path d="M11.709 2.91016Q13.75 2.91016 15.5518 2.12891Q17.3535 1.34766 18.7305-0.0292969Q20.1074-1.40625 20.8887-3.20801Q21.6699-5.00977 21.6699-7.05078Q21.6699-9.0918 20.8887-10.8936Q20.1074-12.6953 18.7305-14.0723Q17.3535-15.4492 15.5469-16.2305Q13.7402-17.0117 11.6992-17.0117Q9.6582-17.0117 7.85645-16.2305Q6.05469-15.4492 4.68262-14.0723Q3.31055-12.6953 2.5293-10.8936Q1.74805-9.0918 1.74805-7.05078Q1.74805-5.00977 2.5293-3.20801Q3.31055-1.40625 4.6875-0.0292969Q6.06445 1.34766 7.86621 2.12891Q9.66797 2.91016 11.709 2.91016ZM11.709 1.25Q9.98047 1.25 8.47656 0.605469Q6.97266-0.0390625 5.83496-1.17676Q4.69727-2.31445 4.05762-3.81836Q3.41797-5.32227 3.41797-7.05078Q3.41797-8.7793 4.05762-10.2832Q4.69727-11.7871 5.83008-12.9297Q6.96289-14.0723 8.4668-14.7119Q9.9707-15.3516 11.6992-15.3516Q13.4277-15.3516 14.9316-14.7119Q16.4355-14.0723 17.5781-12.9297Q18.7207-11.7871 19.3652-10.2832Q20.0098-8.7793 20.0098-7.05078Q20.0098-5.32227 19.3701-3.81836Q18.7305-2.31445 17.5928-1.17676Q16.4551-0.0390625 14.9463 0.605469Q13.4375 1.25 11.709 1.25ZM7.17773-7.05078Q7.17773-6.69922 7.41211-6.47461Q7.64648-6.25 8.01758-6.25L10.8887-6.25L10.8887-3.36914Q10.8887-2.99805 11.1133-2.76855Q11.3379-2.53906 11.6895-2.53906Q12.0605-2.53906 12.29-2.76855Q12.5195-2.99805 12.5195-3.36914L12.5195-6.25L15.4004-6.25Q15.7715-6.25 16.001-6.47461Q16.2305-6.69922 16.2305-7.05078Q16.2305-7.42188 16.001-7.65137Q15.7715-7.88086 15.4004-7.88086L12.5195-7.88086L12.5195-10.752Q12.5195-11.1328 12.29-11.3623Q12.0605-11.5918 11.6895-11.5918Q11.3379-11.5918 11.1133-11.3574Q10.8887-11.123 10.8887-10.752L10.8887-7.88086L8.01758-7.88086Q7.63672-7.88086 7.40723-7.65137Q7.17773-7.42188 7.17773-7.05078Z"/>
  </g>
  <g transform="matrix(1 0 0 1 305.646 1933)">
   <path d="M14.9707 5.66406Q17.0605 5.66406 18.96 5.01465Q20.8594 4.36523 22.4512 3.19336Q24.043 2.02148 25.2197 0.429688Q26.3965-1.16211 27.0459-3.06641Q27.6953-4.9707 27.6953-7.05078Q27.6953-9.14062 27.0459-11.04Q26.3965-12.9395 25.2197-14.5312Q24.043-16.123 22.4512-17.2998Q20.8594-18.4766 18.9551-19.126Q17.0508-19.7754 14.9609-19.7754Q12.8711-19.7754 10.9717-19.126Q9.07227-18.4766 7.48535-17.2998Q5.89844-16.123 4.72168-14.5312Q3.54492-12.9395 2.90039-11.04Q2.25586-9.14062 2.25586-7.05078Q2.25586-4.9707 2.90527-3.06641Q3.55469-1.16211 4.72656 0.429688Q5.89844 2.02148 7.49023 3.19336Q9.08203 4.36523 10.9814 5.01465Q12.8809 5.66406 14.9707 5.66406ZM14.9707 3.84766Q13.1641 3.84766 11.5283 3.2959Q9.89258 2.74414 8.53516 1.74805Q7.17773 0.751953 6.17676-0.610352Q5.17578-1.97266 4.62891-3.6084Q4.08203-5.24414 4.08203-7.05078Q4.08203-8.86719 4.62891-10.5029Q5.17578-12.1387 6.17188-13.501Q7.16797-14.8633 8.52539-15.8594Q9.88281-16.8555 11.5186-17.4023Q13.1543-17.9492 14.9609-17.9492Q16.7773-17.9492 18.4131-17.4023Q20.0488-16.8555 21.4111-15.8594Q22.7734-14.8633 23.7695-13.501Q24.7656-12.1387 25.3174-10.5029Q25.8691-8.86719 25.8691-7.05078Q25.8789-5.24414 25.332-3.6084Q24.7852-1.97266 23.7842-0.610352Q22.7832 0.751953 21.4209 1.74805Q20.0586 2.74414 18.4229 3.2959Q16.7871 3.84766 14.9707 3.84766ZM9.19922-7.05078Q9.19922-6.66992 9.45801-6.4209Q9.7168-6.17188 10.1172-6.17188L14.0625-6.17188L14.0625-2.2168Q14.0625-1.81641 14.3115-1.55762Q14.5605-1.29883 14.9512-1.29883Q15.3516-1.29883 15.6104-1.55273Q15.8691-1.80664 15.8691-2.2168L15.8691-6.17188L19.8242-6.17188Q20.2246-6.17188 20.4785-6.4209Q20.7324-6.66992 20.7324-7.05078Q20.7324-7.46094 20.4785-7.71484Q20.2246-7.96875 19.8242-7.96875L15.8691-7.96875L15.8691-11.9141Q15.8691-12.3242 15.6104-12.583Q15.3516-12.8418 14.9512-12.8418Q14.5605-12.8418 14.3115-12.583Q14.0625-12.3242 14.0625-11.9141L14.0625-7.96875L10.1172-7.96875Q9.70703-7.96875 9.45312-7.71484Q9.19922-7.46094 9.19922-7.05078Z"/>
  </g>
  <text style="stroke:none;fill:black;font-family:sans-serif;font-size:13;font-weight:bold;" transform="matrix(1 0 0 1 263 1953)">Design Variations</text>
  <text style="stroke:none;fill:black;font-family:sans-serif;font-size:13;" transform="matrix(1 0 0 1 263 1971)">Symbols are supported in up to nine weights and three scales.</text>
  <text style="stroke:none;fill:black;font-family:sans-serif;font-size:13;" transform="matrix(1 0 0 1 263 1989)">For optimal layout with text and other symbols, vertically align</text>
  <text style="stroke:none;fill:black;font-family:sans-serif;font-size:13;" transform="matrix(1 0 0 1 263 2007)">symbols with the adjacent text.</text>
  <line style="fill:none;stroke:#00AEEF;stroke-width:0.5;opacity:1.0;" x1="776" x2="776" y1="1919" y2="1933"/>
  <g transform="matrix(1 0 0 1 776 1933)">
   <path d="M3.31055 0.15625Q3.70117 0.15625 3.91602-0.00976562Q4.13086-0.175781 4.26758-0.585938L5.52734-4.0332L11.2891-4.0332L12.5488-0.585938Q12.6855-0.175781 12.9004-0.00976562Q13.1152 0.15625 13.4961 0.15625Q13.8867 0.15625 14.1162-0.0585938Q14.3457-0.273438 14.3457-0.644531Q14.3457-0.869141 14.2383-1.17188L9.6582-13.3691Q9.48242-13.8184 9.17969-14.043Q8.87695-14.2676 8.4082-14.2676Q7.5-14.2676 7.17773-13.3789L2.59766-1.16211Q2.49023-0.859375 2.49023-0.634766Q2.49023-0.263672 2.70996-0.0537109Q2.92969 0.15625 3.31055 0.15625ZM6.00586-5.51758L8.37891-12.0898L8.42773-12.0898L10.8008-5.51758Z"/>
  </g>
  <line style="fill:none;stroke:#00AEEF;stroke-width:0.5;opacity:1.0;" x1="793.197" x2="793.197" y1="1919" y2="1933"/>
  <text style="stroke:none;fill:black;font-family:sans-serif;font-size:13;font-weight:bold;" transform="matrix(1 0 0 1 776 1953)">Margins</text>
  <text style="stroke:none;fill:black;font-family:sans-serif;font-size:13;" transform="matrix(1 0 0 1 776 1971)">Leading and trailing margins on the left and right side of each symbol</text>
  <text style="stroke:none;fill:black;font-family:sans-serif;font-size:13;" transform="matrix(1 0 0 1 776 1989)">can be adjusted by modifying the x-location of the margin guidelines.</text>
  <text style="stroke:none;fill:black;font-family:sans-serif;font-size:13;" transform="matrix(1 0 0 1 776 2007)">Modifications are automatically applied proportionally to all</text>
  <text style="stroke:none;fill:black;font-family:sans-serif;font-size:13;" transform="matrix(1 0 0 1 776 2025)">scales and weights.</text>
  <g transform="matrix(1 0 0 1 1289 1933)">
   <path d="M2.8418 1.86523L4.54102 3.57422Q5.18555 4.22852 5.90332 4.17969Q6.62109 4.13086 7.31445 3.35938L18.0078-8.42773L17.041-9.4043L6.42578 2.27539Q6.16211 2.57812 5.89355 2.61719Q5.625 2.65625 5.27344 2.30469L4.10156 1.14258Q3.75 0.791016 3.79395 0.522461Q3.83789 0.253906 4.14062-0.0195312L15.6152-10.8203L14.6387-11.7871L3.04688-0.898438Q2.30469-0.214844 2.25098 0.498047Q2.19727 1.21094 2.8418 1.86523ZM9.25781-16.3281Q8.94531-16.0254 8.90625-15.6348Q8.86719-15.2441 9.04297-14.9512Q9.21875-14.6777 9.55566-14.541Q9.89258-14.4043 10.3809-14.5215Q11.4746-14.7754 12.5977-14.7314Q13.7207-14.6875 14.7949-13.9844L14.209-12.5293Q13.9551-11.9043 14.0674-11.4404Q14.1797-10.9766 14.5801-10.5664L16.875-8.25195Q17.2363-7.88086 17.5781-7.82227Q17.9199-7.76367 18.3398-7.8418L19.4043-8.03711L20.0684-7.36328L20.0293-6.80664Q20-6.43555 20.1221-6.12305Q20.2441-5.81055 20.6055-5.44922L21.3672-4.70703Q21.7285-4.3457 22.1533-4.33105Q22.5781-4.31641 22.9297-4.66797L25.8398-7.58789Q26.1914-7.93945 26.1816-8.35449Q26.1719-8.76953 25.8105-9.13086L25.0391-9.89258Q24.6875-10.2539 24.3799-10.3857Q24.0723-10.5176 23.7109-10.4883L23.1348-10.4395L22.4902-11.0742L22.7344-12.1973Q22.832-12.6172 22.6953-12.9834Q22.5586-13.3496 22.1191-13.7891L19.9219-15.9766Q18.6719-17.2168 17.2607-17.8369Q15.8496-18.457 14.4189-18.4814Q12.9883-18.5059 11.665-17.959Q10.3418-17.4121 9.25781-16.3281ZM10.752-15.957Q11.6602-16.6211 12.7002-16.9043Q13.7402-17.1875 14.8047-17.085Q15.8691-16.9824 16.8701-16.5137Q17.8711-16.0449 18.7012-15.2051L21.1328-12.793Q21.3086-12.6172 21.3525-12.4512Q21.3965-12.2852 21.3379-12.0312L21.0156-10.5469L22.5195-9.0625L23.5059-9.12109Q23.6914-9.13086 23.7891-9.09668Q23.8867-9.0625 24.0332-8.91602L24.6094-8.33984L22.168-5.89844L21.5918-6.47461Q21.4453-6.62109 21.4062-6.71875Q21.3672-6.81641 21.377-7.01172L21.4453-7.98828L19.9512-9.47266L18.4277-9.21875Q18.1836-9.16992 18.042-9.2041Q17.9004-9.23828 17.7148-9.41406L15.7129-11.416Q15.5176-11.5918 15.4932-11.7529Q15.4688-11.9141 15.5859-12.1875L16.4648-14.2773Q15.293-15.3711 13.8281-15.791Q12.3633-16.2109 10.8398-15.7617Q10.7227-15.7324 10.6885-15.8057Q10.6543-15.8789 10.752-15.957Z"/>
  </g>
  <text style="stroke:none;fill:black;font-family:sans-serif;font-size:13;font-weight:bold;" transform="matrix(1 0 0 1 1289 1953)">Exporting</text>
  <text style="stroke:none;fill:black;font-family:sans-serif;font-size:13;" transform="matrix(1 0 0 1 1289 1971)">Symbols should be outlined when exporting to ensure the</text>
  <text style="stroke:none;fill:black;font-family:sans-serif;font-size:13;" transform="matrix(1 0 0 1 1289 1989)">design is preserved when submitting to Xcode.</text>
  <text id="template-version" style="stroke:none;fill:black;font-family:sans-serif;font-size:13;text-anchor:end;" transform="matrix(1 0 0 1 3036 1933)">Template v.3.0</text>
  <text style="stroke:none;fill:black;font-family:sans-serif;font-size:13;text-anchor:end;" transform="matrix(1 0 0 1 3036 1951)">Requires Xcode 13 or greater</text>
  <text id="descriptive-name" style="stroke:none;fill:black;font-family:sans-serif;font-size:13;text-anchor:end;" transform="matrix(1 0 0 1 3036 1969)">Symbol moniker: dataDots</text>
  <text style="stroke:none;fill:black;font-family:sans-serif;font-size:13;text-anchor:end;" transform="matrix(1 0 0 1 3036 1987)">Typeset at 100 points</text>
  <text style="stroke:none;fill:black;font-family:sans-serif;font-size:13;" transform="matrix(1 0 0 1 263 726)">Small</text>
  <text style="stroke:none;fill:black;font-family:sans-serif;font-size:13;" transform="matrix(1 0 0 1 263 1156)">Medium</text>
  <text style="stroke:none;fill:black;font-family:sans-serif;font-size:13;" transform="matrix(1 0 0 1 263 1586)">Large</text>
 </g>
 <g id="Guides">
  <g id="H-reference" style="fill:#27AAE1;stroke:none;" transform="matrix(1 0 0 1 339 696)">
   <path d="M0.976562 0L3.66211 0L29.3457-67.1387L30.0293-67.1387L30.0293-70.459L28.125-70.459ZM11.6699-24.4629L46.9727-24.4629L46.2402-26.709L12.4512-26.709ZM55.127 0L57.7637 0L30.6152-70.459L29.4434-70.459L29.4434-67.1387Z"/>
  </g>
  <line id="Baseline-S" style="fill:none;stroke:#27AAE1;opacity:1;stroke-width:0.5;" x1="263" x2="3036" y1="696" y2="696"/>
  <line id="Capline-S" style="fill:none;stroke:#27AAE1;opacity:1;stroke-width:0.5;" x1="263" x2="3036" y1="625.541" y2="625.541"/>
  <g id="H-reference" style="fill:#27AAE1;stroke:none;" transform="matrix(1 0 0 1 339 1126)">
   <path d="M0.976562 0L3.66211 0L29.3457-67.1387L30.0293-67.1387L30.0293-70.459L28.125-70.459ZM11.6699-24.4629L46.9727-24.4629L46.2402-26.709L12.4512-26.709ZM55.127 0L57.7637 0L30.6152-70.459L29.4434-70.459L29.4434-67.1387Z"/>
  </g>
  <line id="Baseline-M" style="fill:none;stroke:#27AAE1;opacity:1;stroke-width:0.5;" x1="263" x2="3036" y1="1126" y2="1126"/>
  <line id="Capline-M" style="fill:none;stroke:#27AAE1;opacity:1;stroke-width:0.5;" x1="263" x2="3036" y1="1055.54" y2="1055.54"/>
  <g id="H-reference" style="fill:#27AAE1;stroke:none;" transform="matrix(1 0 0 1 339 1556)">
   <path d="M0.976562 0L3.66211 0L29.3457-67.1387L30.0293-67.1387L30.0293-70.459L28.125-70.459ZM11.6699-24.4629L46.9727-24.4629L46.2402-26.709L12.4512-26.709ZM55.127 0L57.7637 0L30.6152-70.459L29.4434-70.459L29.4434-67.1387Z"/>
  </g>
  <line id="Baseline-L" style="fill:none;stroke:#27AAE1;opacity:1;stroke-width:0.5;" x1="263" x2="3036" y1="1556" y2="1556"/>
  <line id="Capline-L" style="fill:none;stroke:#27AAE1;opacity:1;stroke-width:0.5;" x1="263" x2="3036" y1="1485.54" y2="1485.54"/>
  <line id="left-margin-Ultralight-S" style="fill:none;stroke:#00AEEF;stroke-width:0.5;opacity:1.0;" x1="515.351" x2="515.351" y1="600.784" y2="720.121"/>
  <line id="right-margin-Ultralight-S" style="fill:none;stroke:#00AEEF;stroke-width:0.5;opacity:1.0;" x1="604.071" x2="604.071" y1="600.784" y2="720.121"/>
  <line id="left-margin-Regular-S" style="fill:none;stroke:#00AEEF;stroke-width:0.5;opacity:1.0;" x1="1401.75" x2="1401.75" y1="600.784" y2="720.121"/>
  <line id="right-margin-Regular-S" style="fill:none;stroke:#00AEEF;stroke-width:0.5;opacity:1.0;" x1="1497.94" x2="1497.94" y1="600.784" y2="720.121"/>
  <line id="left-margin-Black-S" style="fill:none;stroke:#00AEEF;stroke-width:0.5;opacity:1.0;" x1="2883.2" x2="2883.2" y1="600.784" y2="720.121"/>
  <line id="right-margin-Black-S" style="fill:none;stroke:#00AEEF;stroke-width:0.5;opacity:1.0;" x1="2983.6" x2="2983.6" y1="600.784" y2="720.121"/>
 </g>
 <g id="Symbols">
  <g id="Black-L" transform="matrix(1,0,0,1,2853.3999999999996,1440.77)">

  <path d="M80 23.333333333333332C74.32666666666665 23.333333333333332 69.72733333333332 27.932666666666666 69.72733333333332 33.60626666666666 69.72733333333332 39.279799999999994 74.32666666666665 43.879133333333336 80 43.879133333333336 85.67333333333332 43.879133333333336 90.27266666666665 39.279799999999994 90.27266666666665 33.60626666666666 90.27266666666665 27.932666666666666 85.67333333333332 23.333333333333332 80 23.333333333333332Z" class="hierarchical-1:primary "/><path d="M92.92399999999999 80C92.92399999999999 74.32666666666665 97.52333333333333 69.72733333333332 103.19666666666666 69.72733333333332 108.87066666666666 69.72733333333332 113.47 74.32666666666665 113.47 80 113.47 85.67333333333332 108.87066666666666 90.27266666666665 103.19666666666666 90.27266666666665 97.52333333333333 90.27266666666665 92.92399999999999 85.67333333333332 92.92399999999999 80Z" class="hierarchical-1:primary "/><path d="M33.60626666666666 92.92399999999999C27.932666666666666 92.92399999999999 23.333333333333332 97.52333333333333 23.333333333333332 103.19666666666666 23.333333333333332 108.87066666666666 27.932666666666666 113.47 33.60626666666666 113.47 39.279799999999994 113.47 43.879133333333336 108.87066666666666 43.879133333333336 103.19666666666666 43.879133333333336 97.52333333333333 39.279799999999994 92.92399999999999 33.60626666666666 92.92399999999999Z" class="hierarchical-1:primary "/><path d="M75.89066666666666 126.394C75.89066666666666 124.12466666666667 77.73066666666666 122.28466666666665 80 122.28466666666665 82.26933333333332 122.28466666666665 84.10933333333332 124.12466666666667 84.10933333333332 126.394 84.10933333333332 128.66333333333333 82.26933333333332 130.50266666666664 80 130.50266666666664 77.73066666666666 130.50266666666664 75.89066666666666 128.66333333333333 75.89066666666666 126.394Z" class="hierarchical-1:primary "/><path d="M126.394 72.29533333333333C122.13866666666667 72.29533333333333 118.68933333333332 75.74466666666666 118.68933333333332 80 118.68933333333332 84.25533333333333 122.13866666666667 87.70466666666665 126.394 87.70466666666665 130.64866666666666 87.70466666666665 134.09866666666665 84.25533333333333 134.09866666666665 80 134.09866666666665 75.74466666666666 130.64866666666666 72.29533333333333 126.394 72.29533333333333Z" class="hierarchical-1:primary "/><path d="M103.19666666666666 98.06066666666666C100.35999999999999 98.06066666666666 98.06066666666666 100.35999999999999 98.06066666666666 103.19666666666666 98.06066666666666 106.03333333333333 100.35999999999999 108.33333333333333 103.19666666666666 108.33333333333333 106.03333333333333 108.33333333333333 108.33333333333333 106.03333333333333 108.33333333333333 103.19666666666666 108.33333333333333 100.35999999999999 106.03333333333333 98.06066666666666 103.19666666666666 98.06066666666666Z" class="hierarchical-1:primary "/><path d="M67.15866666666666 103.19666666666666C67.15866666666666 96.10466666666667 72.90799999999999 90.356 80 90.356 87.092 90.356 92.84133333333332 96.10466666666667 92.84133333333332 103.19666666666666 92.84133333333332 110.28866666666666 87.092 116.03799999999998 80 116.03799999999998 72.90799999999999 116.03799999999998 67.15866666666666 110.28866666666666 67.15866666666666 103.19666666666666Z" class="hierarchical-1:primary "/><path d="M28.46973333333333 80C28.46973333333333 77.16333333333333 30.769399999999997 74.86333333333333 33.60613333333333 74.86333333333333 36.44293333333333 74.86333333333333 38.742599999999996 77.16333333333333 38.742599999999996 80 38.742599999999996 82.83666666666666 36.44293333333333 85.13666666666666 33.60613333333333 85.13666666666666 30.769399999999997 85.13666666666666 28.46973333333333 82.83666666666666 28.46973333333333 80Z" class="hierarchical-1:primary "/><path d="M56.803133333333335 95.49199999999999C52.54793333333333 95.49199999999999 49.09846666666667 98.94200000000001 49.09846666666667 103.19666666666666 49.09846666666667 107.452 52.54793333333333 110.90133333333333 56.803133333333335 110.90133333333333 61.05826666666667 110.90133333333333 64.5078 107.452 64.5078 103.19666666666666 64.5078 98.94200000000001 61.05826666666667 95.49199999999999 56.803133333333335 95.49199999999999Z" class="hierarchical-1:primary "/><path d="M126.394 118.68933333333332C122.13866666666667 118.68933333333332 118.68933333333332 122.13866666666667 118.68933333333332 126.394 118.68933333333332 130.64866666666666 122.13866666666667 134.09866666666665 126.394 134.09866666666665 130.64866666666666 134.09866666666665 134.09866666666665 130.64866666666666 134.09866666666665 126.394 134.09866666666665 122.13866666666667 130.64866666666666 118.68933333333332 126.394 118.68933333333332Z" class="hierarchical-1:primary "/><path d="M80 74.86333333333333C77.16333333333333 74.86333333333333 74.86333333333333 77.16333333333333 74.86333333333333 80 74.86333333333333 82.83666666666666 77.16333333333333 85.13666666666666 80 85.13666666666666 82.83666666666666 85.13666666666666 85.136 82.83666666666666 85.136 80 85.136 77.16333333333333 82.83666666666666 74.86333333333333 80 74.86333333333333Z" class="hierarchical-1:primary "/><path d="M103.19666666666666 49.09846666666667C98.94200000000001 49.09846666666667 95.49199999999999 52.54793333333333 95.49199999999999 56.803133333333335 95.49199999999999 61.05826666666667 98.94200000000001 64.5078 103.19666666666666 64.5078 107.452 64.5078 110.90133333333333 61.05826666666667 110.90133333333333 56.803133333333335 110.90133333333333 52.54793333333333 107.452 49.09846666666667 103.19666666666666 49.09846666666667Z" class="hierarchical-1:primary "/><path d="M103.19666666666666 28.4698C100.35999999999999 28.4698 98.06066666666666 30.769466666666666 98.06066666666666 33.60626666666666 98.06066666666666 36.443 100.35999999999999 38.742666666666665 103.19666666666666 38.742666666666665 106.03333333333333 38.742666666666665 108.33333333333333 36.443 108.33333333333333 33.60626666666666 108.33333333333333 30.769466666666666 106.03333333333333 28.4698 103.19666666666666 28.4698Z" class="hierarchical-1:primary "/></g>
  <g id="Regular-L" transform="matrix(1,0,0,1,1369.845,1440.77)">

  <path d="M80 23.333333333333332C74.32666666666665 23.333333333333332 69.72733333333332 27.932666666666666 69.72733333333332 33.60626666666666 69.72733333333332 39.279799999999994 74.32666666666665 43.879133333333336 80 43.879133333333336 85.67333333333332 43.879133333333336 90.27266666666665 39.279799999999994 90.27266666666665 33.60626666666666 90.27266666666665 27.932666666666666 85.67333333333332 23.333333333333332 80 23.333333333333332Z" class="hierarchical-1:primary "/><path d="M92.92399999999999 80C92.92399999999999 74.32666666666665 97.52333333333333 69.72733333333332 103.19666666666666 69.72733333333332 108.87066666666666 69.72733333333332 113.47 74.32666666666665 113.47 80 113.47 85.67333333333332 108.87066666666666 90.27266666666665 103.19666666666666 90.27266666666665 97.52333333333333 90.27266666666665 92.92399999999999 85.67333333333332 92.92399999999999 80Z" class="hierarchical-1:primary "/><path d="M33.60626666666666 92.92399999999999C27.932666666666666 92.92399999999999 23.333333333333332 97.52333333333333 23.333333333333332 103.19666666666666 23.333333333333332 108.87066666666666 27.932666666666666 113.47 33.60626666666666 113.47 39.279799999999994 113.47 43.879133333333336 108.87066666666666 43.879133333333336 103.19666666666666 43.879133333333336 97.52333333333333 39.279799999999994 92.92399999999999 33.60626666666666 92.92399999999999Z" class="hierarchical-1:primary "/><path d="M75.89066666666666 126.394C75.89066666666666 124.12466666666667 77.73066666666666 122.28466666666665 80 122.28466666666665 82.26933333333332 122.28466666666665 84.10933333333332 124.12466666666667 84.10933333333332 126.394 84.10933333333332 128.66333333333333 82.26933333333332 130.50266666666664 80 130.50266666666664 77.73066666666666 130.50266666666664 75.89066666666666 128.66333333333333 75.89066666666666 126.394Z" class="hierarchical-1:primary "/><path d="M126.394 72.29533333333333C122.13866666666667 72.29533333333333 118.68933333333332 75.74466666666666 118.68933333333332 80 118.68933333333332 84.25533333333333 122.13866666666667 87.70466666666665 126.394 87.70466666666665 130.64866666666666 87.70466666666665 134.09866666666665 84.25533333333333 134.09866666666665 80 134.09866666666665 75.74466666666666 130.64866666666666 72.29533333333333 126.394 72.29533333333333Z" class="hierarchical-1:primary "/><path d="M103.19666666666666 98.06066666666666C100.35999999999999 98.06066666666666 98.06066666666666 100.35999999999999 98.06066666666666 103.19666666666666 98.06066666666666 106.03333333333333 100.35999999999999 108.33333333333333 103.19666666666666 108.33333333333333 106.03333333333333 108.33333333333333 108.33333333333333 106.03333333333333 108.33333333333333 103.19666666666666 108.33333333333333 100.35999999999999 106.03333333333333 98.06066666666666 103.19666666666666 98.06066666666666Z" class="hierarchical-1:primary "/><path d="M67.15866666666666 103.19666666666666C67.15866666666666 96.10466666666667 72.90799999999999 90.356 80 90.356 87.092 90.356 92.84133333333332 96.10466666666667 92.84133333333332 103.19666666666666 92.84133333333332 110.28866666666666 87.092 116.03799999999998 80 116.03799999999998 72.90799999999999 116.03799999999998 67.15866666666666 110.28866666666666 67.15866666666666 103.19666666666666Z" class="hierarchical-1:primary "/><path d="M28.46973333333333 80C28.46973333333333 77.16333333333333 30.769399999999997 74.86333333333333 33.60613333333333 74.86333333333333 36.44293333333333 74.86333333333333 38.742599999999996 77.16333333333333 38.742599999999996 80 38.742599999999996 82.83666666666666 36.44293333333333 85.13666666666666 33.60613333333333 85.13666666666666 30.769399999999997 85.13666666666666 28.46973333333333 82.83666666666666 28.46973333333333 80Z" class="hierarchical-1:primary "/><path d="M56.803133333333335 95.49199999999999C52.54793333333333 95.49199999999999 49.09846666666667 98.94200000000001 49.09846666666667 103.19666666666666 49.09846666666667 107.452 52.54793333333333 110.90133333333333 56.803133333333335 110.90133333333333 61.05826666666667 110.90133333333333 64.5078 107.452 64.5078 103.19666666666666 64.5078 98.94200000000001 61.05826666666667 95.49199999999999 56.803133333333335 95.49199999999999Z" class="hierarchical-1:primary "/><path d="M126.394 118.68933333333332C122.13866666666667 118.68933333333332 118.68933333333332 122.13866666666667 118.68933333333332 126.394 118.68933333333332 130.64866666666666 122.13866666666667 134.09866666666665 126.394 134.09866666666665 130.64866666666666 134.09866666666665 134.09866666666665 130.64866666666666 134.09866666666665 126.394 134.09866666666665 122.13866666666667 130.64866666666666 118.68933333333332 126.394 118.68933333333332Z" class="hierarchical-1:primary "/><path d="M80 74.86333333333333C77.16333333333333 74.86333333333333 74.86333333333333 77.16333333333333 74.86333333333333 80 74.86333333333333 82.83666666666666 77.16333333333333 85.13666666666666 80 85.13666666666666 82.83666666666666 85.13666666666666 85.136 82.83666666666666 85.136 80 85.136 77.16333333333333 82.83666666666666 74.86333333333333 80 74.86333333333333Z" class="hierarchical-1:primary "/><path d="M103.19666666666666 49.09846666666667C98.94200000000001 49.09846666666667 95.49199999999999 52.54793333333333 95.49199999999999 56.803133333333335 95.49199999999999 61.05826666666667 98.94200000000001 64.5078 103.19666666666666 64.5078 107.452 64.5078 110.90133333333333 61.05826666666667 110.90133333333333 56.803133333333335 110.90133333333333 52.54793333333333 107.452 49.09846666666667 103.19666666666666 49.09846666666667Z" class="hierarchical-1:primary "/><path d="M103.19666666666666 28.4698C100.35999999999999 28.4698 98.06066666666666 30.769466666666666 98.06066666666666 33.60626666666666 98.06066666666666 36.443 100.35999999999999 38.742666666666665 103.19666666666666 38.742666666666665 106.03333333333333 38.742666666666665 108.33333333333333 36.443 108.33333333333333 33.60626666666666 108.33333333333333 30.769466666666666 106.03333333333333 28.4698 103.19666666666666 28.4698Z" class="hierarchical-1:primary "/></g>
  <g id="Ultralight-L" transform="matrix(1,0,0,1,479.711,1440.77)">

  <path d="M80 23.333333333333332C74.32666666666665 23.333333333333332 69.72733333333332 27.932666666666666 69.72733333333332 33.60626666666666 69.72733333333332 39.279799999999994 74.32666666666665 43.879133333333336 80 43.879133333333336 85.67333333333332 43.879133333333336 90.27266666666665 39.279799999999994 90.27266666666665 33.60626666666666 90.27266666666665 27.932666666666666 85.67333333333332 23.333333333333332 80 23.333333333333332Z" class="hierarchical-1:primary "/><path d="M92.92399999999999 80C92.92399999999999 74.32666666666665 97.52333333333333 69.72733333333332 103.19666666666666 69.72733333333332 108.87066666666666 69.72733333333332 113.47 74.32666666666665 113.47 80 113.47 85.67333333333332 108.87066666666666 90.27266666666665 103.19666666666666 90.27266666666665 97.52333333333333 90.27266666666665 92.92399999999999 85.67333333333332 92.92399999999999 80Z" class="hierarchical-1:primary "/><path d="M33.60626666666666 92.92399999999999C27.932666666666666 92.92399999999999 23.333333333333332 97.52333333333333 23.333333333333332 103.19666666666666 23.333333333333332 108.87066666666666 27.932666666666666 113.47 33.60626666666666 113.47 39.279799999999994 113.47 43.879133333333336 108.87066666666666 43.879133333333336 103.19666666666666 43.879133333333336 97.52333333333333 39.279799999999994 92.92399999999999 33.60626666666666 92.92399999999999Z" class="hierarchical-1:primary "/><path d="M75.89066666666666 126.394C75.89066666666666 124.12466666666667 77.73066666666666 122.28466666666665 80 122.28466666666665 82.26933333333332 122.28466666666665 84.10933333333332 124.12466666666667 84.10933333333332 126.394 84.10933333333332 128.66333333333333 82.26933333333332 130.50266666666664 80 130.50266666666664 77.73066666666666 130.50266666666664 75.89066666666666 128.66333333333333 75.89066666666666 126.394Z" class="hierarchical-1:primary "/><path d="M126.394 72.29533333333333C122.13866666666667 72.29533333333333 118.68933333333332 75.74466666666666 118.68933333333332 80 118.68933333333332 84.25533333333333 122.13866666666667 87.70466666666665 126.394 87.70466666666665 130.64866666666666 87.70466666666665 134.09866666666665 84.25533333333333 134.09866666666665 80 134.09866666666665 75.74466666666666 130.64866666666666 72.29533333333333 126.394 72.29533333333333Z" class="hierarchical-1:primary "/><path d="M103.19666666666666 98.06066666666666C100.35999999999999 98.06066666666666 98.06066666666666 100.35999999999999 98.06066666666666 103.19666666666666 98.06066666666666 106.03333333333333 100.35999999999999 108.33333333333333 103.19666666666666 108.33333333333333 106.03333333333333 108.33333333333333 108.33333333333333 106.03333333333333 108.33333333333333 103.19666666666666 108.33333333333333 100.35999999999999 106.03333333333333 98.06066666666666 103.19666666666666 98.06066666666666Z" class="hierarchical-1:primary "/><path d="M67.15866666666666 103.19666666666666C67.15866666666666 96.10466666666667 72.90799999999999 90.356 80 90.356 87.092 90.356 92.84133333333332 96.10466666666667 92.84133333333332 103.19666666666666 92.84133333333332 110.28866666666666 87.092 116.03799999999998 80 116.03799999999998 72.90799999999999 116.03799999999998 67.15866666666666 110.28866666666666 67.15866666666666 103.19666666666666Z" class="hierarchical-1:primary "/><path d="M28.46973333333333 80C28.46973333333333 77.16333333333333 30.769399999999997 74.86333333333333 33.60613333333333 74.86333333333333 36.44293333333333 74.86333333333333 38.742599999999996 77.16333333333333 38.742599999999996 80 38.742599999999996 82.83666666666666 36.44293333333333 85.13666666666666 33.60613333333333 85.13666666666666 30.769399999999997 85.13666666666666 28.46973333333333 82.83666666666666 28.46973333333333 80Z" class="hierarchical-1:primary "/><path d="M56.803133333333335 95.49199999999999C52.54793333333333 95.49199999999999 49.09846666666667 98.94200000000001 49.09846666666667 103.19666666666666 49.09846666666667 107.452 52.54793333333333 110.90133333333333 56.803133333333335 110.90133333333333 61.05826666666667 110.90133333333333 64.5078 107.452 64.5078 103.19666666666666 64.5078 98.94200000000001 61.05826666666667 95.49199999999999 56.803133333333335 95.49199999999999Z" class="hierarchical-1:primary "/><path d="M126.394 118.68933333333332C122.13866666666667 118.68933333333332 118.68933333333332 122.13866666666667 118.68933333333332 126.394 118.68933333333332 130.64866666666666 122.13866666666667 134.09866666666665 126.394 134.09866666666665 130.64866666666666 134.09866666666665 134.09866666666665 130.64866666666666 134.09866666666665 126.394 134.09866666666665 122.13866666666667 130.64866666666666 118.68933333333332 126.394 118.68933333333332Z" class="hierarchical-1:primary "/><path d="M80 74.86333333333333C77.16333333333333 74.86333333333333 74.86333333333333 77.16333333333333 74.86333333333333 80 74.86333333333333 82.83666666666666 77.16333333333333 85.13666666666666 80 85.13666666666666 82.83666666666666 85.13666666666666 85.136 82.83666666666666 85.136 80 85.136 77.16333333333333 82.83666666666666 74.86333333333333 80 74.86333333333333Z" class="hierarchical-1:primary "/><path d="M103.19666666666666 49.09846666666667C98.94200000000001 49.09846666666667 95.49199999999999 52.54793333333333 95.49199999999999 56.803133333333335 95.49199999999999 61.05826666666667 98.94200000000001 64.5078 103.19666666666666 64.5078 107.452 64.5078 110.90133333333333 61.05826666666667 110.90133333333333 56.803133333333335 110.90133333333333 52.54793333333333 107.452 49.09846666666667 103.19666666666666 49.09846666666667Z" class="hierarchical-1:primary "/><path d="M103.19666666666666 28.4698C100.35999999999999 28.4698 98.06066666666666 30.769466666666666 98.06066666666666 33.60626666666666 98.06066666666666 36.443 100.35999999999999 38.742666666666665 103.19666666666666 38.742666666666665 106.03333333333333 38.742666666666665 108.33333333333333 36.443 108.33333333333333 33.60626666666666 108.33333333333333 30.769466666666666 106.03333333333333 28.4698 103.19666666666666 28.4698Z" class="hierarchical-1:primary "/></g>
  <g id="Black-M" transform="matrix(1,0,0,1,2869.3999999999996,1026.77)">

  <path d="M64 18.666666666666668C59.46133333333333 18.666666666666668 55.781866666666666 22.346133333333334 55.781866666666666 26.885013333333333 55.781866666666666 31.42384 59.46133333333333 35.10330666666667 64 35.10330666666667 68.53866666666666 35.10330666666667 72.21813333333333 31.42384 72.21813333333333 26.885013333333333 72.21813333333333 22.346133333333334 68.53866666666666 18.666666666666668 64 18.666666666666668Z" class="hierarchical-1:primary "/><path d="M74.33919999999999 64C74.33919999999999 59.46133333333333 78.01866666666666 55.781866666666666 82.55733333333333 55.781866666666666 87.09653333333334 55.781866666666666 90.77600000000001 59.46133333333333 90.77600000000001 64 90.77600000000001 68.53866666666666 87.09653333333334 72.21813333333333 82.55733333333333 72.21813333333333 78.01866666666666 72.21813333333333 74.33919999999999 68.53866666666666 74.33919999999999 64Z" class="hierarchical-1:primary "/><path d="M26.885013333333333 74.33919999999999C22.346133333333334 74.33919999999999 18.666666666666668 78.01866666666666 18.666666666666668 82.55733333333333 18.666666666666668 87.09653333333334 22.346133333333334 90.77600000000001 26.885013333333333 90.77600000000001 31.42384 90.77600000000001 35.10330666666667 87.09653333333334 35.10330666666667 82.55733333333333 35.10330666666667 78.01866666666666 31.42384 74.33919999999999 26.885013333333333 74.33919999999999Z" class="hierarchical-1:primary "/><path d="M60.71253333333333 101.1152C60.71253333333333 99.29973333333334 62.184533333333334 97.82773333333333 64 97.82773333333333 65.81546666666667 97.82773333333333 67.28746666666666 99.29973333333334 67.28746666666666 101.1152 67.28746666666666 102.93066666666667 65.81546666666667 104.40213333333332 64 104.40213333333332 62.184533333333334 104.40213333333332 60.71253333333333 102.93066666666667 60.71253333333333 101.1152Z" class="hierarchical-1:primary "/><path d="M101.1152 57.83626666666667C97.71093333333333 57.83626666666667 94.95146666666666 60.595733333333335 94.95146666666666 64 94.95146666666666 67.40426666666666 97.71093333333333 70.16373333333333 101.1152 70.16373333333333 104.51893333333334 70.16373333333333 107.27893333333333 67.40426666666666 107.27893333333333 64 107.27893333333333 60.595733333333335 104.51893333333334 57.83626666666667 101.1152 57.83626666666667Z" class="hierarchical-1:primary "/><path d="M82.55733333333333 78.44853333333333C80.288 78.44853333333333 78.44853333333333 80.288 78.44853333333333 82.55733333333333 78.44853333333333 84.82666666666667 80.288 86.66666666666667 82.55733333333333 86.66666666666667 84.82666666666667 86.66666666666667 86.66666666666667 84.82666666666667 86.66666666666667 82.55733333333333 86.66666666666667 80.288 84.82666666666667 78.44853333333333 82.55733333333333 78.44853333333333Z" class="hierarchical-1:primary "/><path d="M53.726933333333335 82.55733333333333C53.726933333333335 76.88373333333334 58.3264 72.28479999999999 64 72.28479999999999 69.67360000000001 72.28479999999999 74.27306666666667 76.88373333333334 74.27306666666667 82.55733333333333 74.27306666666667 88.23093333333333 69.67360000000001 92.8304 64 92.8304 58.3264 92.8304 53.726933333333335 88.23093333333333 53.726933333333335 82.55733333333333Z" class="hierarchical-1:primary "/><path d="M22.775786666666665 64C22.775786666666665 61.73066666666667 24.61552 59.89066666666667 26.884906666666666 59.89066666666667 29.154346666666665 59.89066666666667 30.99408 61.73066666666667 30.99408 64 30.99408 66.26933333333334 29.154346666666665 68.10933333333332 26.884906666666666 68.10933333333332 24.61552 68.10933333333332 22.775786666666665 66.26933333333334 22.775786666666665 64Z" class="hierarchical-1:primary "/><path d="M45.44250666666667 76.39359999999999C42.03834666666667 76.39359999999999 39.27877333333333 79.15360000000001 39.27877333333333 82.55733333333333 39.27877333333333 85.9616 42.03834666666667 88.72106666666667 45.44250666666667 88.72106666666667 48.84661333333334 88.72106666666667 51.60624 85.9616 51.60624 82.55733333333333 51.60624 79.15360000000001 48.84661333333334 76.39359999999999 45.44250666666667 76.39359999999999Z" class="hierarchical-1:primary "/><path d="M101.1152 94.95146666666666C97.71093333333333 94.95146666666666 94.95146666666666 97.71093333333333 94.95146666666666 101.1152 94.95146666666666 104.51893333333334 97.71093333333333 107.27893333333333 101.1152 107.27893333333333 104.51893333333334 107.27893333333333 107.27893333333333 104.51893333333334 107.27893333333333 101.1152 107.27893333333333 97.71093333333333 104.51893333333334 94.95146666666666 101.1152 94.95146666666666Z" class="hierarchical-1:primary "/><path d="M64 59.89066666666667C61.73066666666667 59.89066666666667 59.89066666666667 61.73066666666667 59.89066666666667 64 59.89066666666667 66.26933333333334 61.73066666666667 68.10933333333332 64 68.10933333333332 66.26933333333334 68.10933333333332 68.1088 66.26933333333334 68.1088 64 68.1088 61.73066666666667 66.26933333333334 59.89066666666667 64 59.89066666666667Z" class="hierarchical-1:primary "/><path d="M82.55733333333333 39.27877333333333C79.15360000000001 39.27877333333333 76.39359999999999 42.03834666666667 76.39359999999999 45.44250666666667 76.39359999999999 48.84661333333334 79.15360000000001 51.60624 82.55733333333333 51.60624 85.9616 51.60624 88.72106666666667 48.84661333333334 88.72106666666667 45.44250666666667 88.72106666666667 42.03834666666667 85.9616 39.27877333333333 82.55733333333333 39.27877333333333Z" class="hierarchical-1:primary "/><path d="M82.55733333333333 22.775840000000002C80.288 22.775840000000002 78.44853333333333 24.615573333333334 78.44853333333333 26.885013333333333 78.44853333333333 29.1544 80.288 30.99413333333333 82.55733333333333 30.99413333333333 84.82666666666667 30.99413333333333 86.66666666666667 29.1544 86.66666666666667 26.885013333333333 86.66666666666667 24.615573333333334 84.82666666666667 22.775840000000002 82.55733333333333 22.775840000000002Z" class="hierarchical-1:primary "/></g>
  <g id="Regular-M" transform="matrix(1,0,0,1,1385.845,1026.77)">

  <path d="M64 18.666666666666668C59.46133333333333 18.666666666666668 55.781866666666666 22.346133333333334 55.781866666666666 26.885013333333333 55.781866666666666 31.42384 59.46133333333333 35.10330666666667 64 35.10330666666667 68.53866666666666 35.10330666666667 72.21813333333333 31.42384 72.21813333333333 26.885013333333333 72.21813333333333 22.346133333333334 68.53866666666666 18.666666666666668 64 18.666666666666668Z" class="hierarchical-1:primary "/><path d="M74.33919999999999 64C74.33919999999999 59.46133333333333 78.01866666666666 55.781866666666666 82.55733333333333 55.781866666666666 87.09653333333334 55.781866666666666 90.77600000000001 59.46133333333333 90.77600000000001 64 90.77600000000001 68.53866666666666 87.09653333333334 72.21813333333333 82.55733333333333 72.21813333333333 78.01866666666666 72.21813333333333 74.33919999999999 68.53866666666666 74.33919999999999 64Z" class="hierarchical-1:primary "/><path d="M26.885013333333333 74.33919999999999C22.346133333333334 74.33919999999999 18.666666666666668 78.01866666666666 18.666666666666668 82.55733333333333 18.666666666666668 87.09653333333334 22.346133333333334 90.77600000000001 26.885013333333333 90.77600000000001 31.42384 90.77600000000001 35.10330666666667 87.09653333333334 35.10330666666667 82.55733333333333 35.10330666666667 78.01866666666666 31.42384 74.33919999999999 26.885013333333333 74.33919999999999Z" class="hierarchical-1:primary "/><path d="M60.71253333333333 101.1152C60.71253333333333 99.29973333333334 62.184533333333334 97.82773333333333 64 97.82773333333333 65.81546666666667 97.82773333333333 67.28746666666666 99.29973333333334 67.28746666666666 101.1152 67.28746666666666 102.93066666666667 65.81546666666667 104.40213333333332 64 104.40213333333332 62.184533333333334 104.40213333333332 60.71253333333333 102.93066666666667 60.71253333333333 101.1152Z" class="hierarchical-1:primary "/><path d="M101.1152 57.83626666666667C97.71093333333333 57.83626666666667 94.95146666666666 60.595733333333335 94.95146666666666 64 94.95146666666666 67.40426666666666 97.71093333333333 70.16373333333333 101.1152 70.16373333333333 104.51893333333334 70.16373333333333 107.27893333333333 67.40426666666666 107.27893333333333 64 107.27893333333333 60.595733333333335 104.51893333333334 57.83626666666667 101.1152 57.83626666666667Z" class="hierarchical-1:primary "/><path d="M82.55733333333333 78.44853333333333C80.288 78.44853333333333 78.44853333333333 80.288 78.44853333333333 82.55733333333333 78.44853333333333 84.82666666666667 80.288 86.66666666666667 82.55733333333333 86.66666666666667 84.82666666666667 86.66666666666667 86.66666666666667 84.82666666666667 86.66666666666667 82.55733333333333 86.66666666666667 80.288 84.82666666666667 78.44853333333333 82.55733333333333 78.44853333333333Z" class="hierarchical-1:primary "/><path d="M53.726933333333335 82.55733333333333C53.726933333333335 76.88373333333334 58.3264 72.28479999999999 64 72.28479999999999 69.67360000000001 72.28479999999999 74.27306666666667 76.88373333333334 74.27306666666667 82.55733333333333 74.27306666666667 88.23093333333333 69.67360000000001 92.8304 64 92.8304 58.3264 92.8304 53.726933333333335 88.23093333333333 53.726933333333335 82.55733333333333Z" class="hierarchical-1:primary "/><path d="M22.775786666666665 64C22.775786666666665 61.73066666666667 24.61552 59.89066666666667 26.884906666666666 59.89066666666667 29.154346666666665 59.89066666666667 30.99408 61.73066666666667 30.99408 64 30.99408 66.26933333333334 29.154346666666665 68.10933333333332 26.884906666666666 68.10933333333332 24.61552 68.10933333333332 22.775786666666665 66.26933333333334 22.775786666666665 64Z" class="hierarchical-1:primary "/><path d="M45.44250666666667 76.39359999999999C42.03834666666667 76.39359999999999 39.27877333333333 79.15360000000001 39.27877333333333 82.55733333333333 39.27877333333333 85.9616 42.03834666666667 88.72106666666667 45.44250666666667 88.72106666666667 48.84661333333334 88.72106666666667 51.60624 85.9616 51.60624 82.55733333333333 51.60624 79.15360000000001 48.84661333333334 76.39359999999999 45.44250666666667 76.39359999999999Z" class="hierarchical-1:primary "/><path d="M101.1152 94.95146666666666C97.71093333333333 94.95146666666666 94.95146666666666 97.71093333333333 94.95146666666666 101.1152 94.95146666666666 104.51893333333334 97.71093333333333 107.27893333333333 101.1152 107.27893333333333 104.51893333333334 107.27893333333333 107.27893333333333 104.51893333333334 107.27893333333333 101.1152 107.27893333333333 97.71093333333333 104.51893333333334 94.95146666666666 101.1152 94.95146666666666Z" class="hierarchical-1:primary "/><path d="M64 59.89066666666667C61.73066666666667 59.89066666666667 59.89066666666667 61.73066666666667 59.89066666666667 64 59.89066666666667 66.26933333333334 61.73066666666667 68.10933333333332 64 68.10933333333332 66.26933333333334 68.10933333333332 68.1088 66.26933333333334 68.1088 64 68.1088 61.73066666666667 66.26933333333334 59.89066666666667 64 59.89066666666667Z" class="hierarchical-1:primary "/><path d="M82.55733333333333 39.27877333333333C79.15360000000001 39.27877333333333 76.39359999999999 42.03834666666667 76.39359999999999 45.44250666666667 76.39359999999999 48.84661333333334 79.15360000000001 51.60624 82.55733333333333 51.60624 85.9616 51.60624 88.72106666666667 48.84661333333334 88.72106666666667 45.44250666666667 88.72106666666667 42.03834666666667 85.9616 39.27877333333333 82.55733333333333 39.27877333333333Z" class="hierarchical-1:primary "/><path d="M82.55733333333333 22.775840000000002C80.288 22.775840000000002 78.44853333333333 24.615573333333334 78.44853333333333 26.885013333333333 78.44853333333333 29.1544 80.288 30.99413333333333 82.55733333333333 30.99413333333333 84.82666666666667 30.99413333333333 86.66666666666667 29.1544 86.66666666666667 26.885013333333333 86.66666666666667 24.615573333333334 84.82666666666667 22.775840000000002 82.55733333333333 22.775840000000002Z" class="hierarchical-1:primary "/></g>
  <g id="Ultralight-M" transform="matrix(1,0,0,1,495.711,1026.77)">

  <path d="M64 18.666666666666668C59.46133333333333 18.666666666666668 55.781866666666666 22.346133333333334 55.781866666666666 26.885013333333333 55.781866666666666 31.42384 59.46133333333333 35.10330666666667 64 35.10330666666667 68.53866666666666 35.10330666666667 72.21813333333333 31.42384 72.21813333333333 26.885013333333333 72.21813333333333 22.346133333333334 68.53866666666666 18.666666666666668 64 18.666666666666668Z" class="hierarchical-1:primary "/><path d="M74.33919999999999 64C74.33919999999999 59.46133333333333 78.01866666666666 55.781866666666666 82.55733333333333 55.781866666666666 87.09653333333334 55.781866666666666 90.77600000000001 59.46133333333333 90.77600000000001 64 90.77600000000001 68.53866666666666 87.09653333333334 72.21813333333333 82.55733333333333 72.21813333333333 78.01866666666666 72.21813333333333 74.33919999999999 68.53866666666666 74.33919999999999 64Z" class="hierarchical-1:primary "/><path d="M26.885013333333333 74.33919999999999C22.346133333333334 74.33919999999999 18.666666666666668 78.01866666666666 18.666666666666668 82.55733333333333 18.666666666666668 87.09653333333334 22.346133333333334 90.77600000000001 26.885013333333333 90.77600000000001 31.42384 90.77600000000001 35.10330666666667 87.09653333333334 35.10330666666667 82.55733333333333 35.10330666666667 78.01866666666666 31.42384 74.33919999999999 26.885013333333333 74.33919999999999Z" class="hierarchical-1:primary "/><path d="M60.71253333333333 101.1152C60.71253333333333 99.29973333333334 62.184533333333334 97.82773333333333 64 97.82773333333333 65.81546666666667 97.82773333333333 67.28746666666666 99.29973333333334 67.28746666666666 101.1152 67.28746666666666 102.93066666666667 65.81546666666667 104.40213333333332 64 104.40213333333332 62.184533333333334 104.40213333333332 60.71253333333333 102.93066666666667 60.71253333333333 101.1152Z" class="hierarchical-1:primary "/><path d="M101.1152 57.83626666666667C97.71093333333333 57.83626666666667 94.95146666666666 60.595733333333335 94.95146666666666 64 94.95146666666666 67.40426666666666 97.71093333333333 70.16373333333333 101.1152 70.16373333333333 104.51893333333334 70.16373333333333 107.27893333333333 67.40426666666666 107.27893333333333 64 107.27893333333333 60.595733333333335 104.51893333333334 57.83626666666667 101.1152 57.83626666666667Z" class="hierarchical-1:primary "/><path d="M82.55733333333333 78.44853333333333C80.288 78.44853333333333 78.44853333333333 80.288 78.44853333333333 82.55733333333333 78.44853333333333 84.82666666666667 80.288 86.66666666666667 82.55733333333333 86.66666666666667 84.82666666666667 86.66666666666667 86.66666666666667 84.82666666666667 86.66666666666667 82.55733333333333 86.66666666666667 80.288 84.82666666666667 78.44853333333333 82.55733333333333 78.44853333333333Z" class="hierarchical-1:primary "/><path d="M53.726933333333335 82.55733333333333C53.726933333333335 76.88373333333334 58.3264 72.28479999999999 64 72.28479999999999 69.67360000000001 72.28479999999999 74.27306666666667 76.88373333333334 74.27306666666667 82.55733333333333 74.27306666666667 88.23093333333333 69.67360000000001 92.8304 64 92.8304 58.3264 92.8304 53.726933333333335 88.23093333333333 53.726933333333335 82.55733333333333Z" class="hierarchical-1:primary "/><path d="M22.775786666666665 64C22.775786666666665 61.73066666666667 24.61552 59.89066666666667 26.884906666666666 59.89066666666667 29.154346666666665 59.89066666666667 30.99408 61.73066666666667 30.99408 64 30.99408 66.26933333333334 29.154346666666665 68.10933333333332 26.884906666666666 68.10933333333332 24.61552 68.10933333333332 22.775786666666665 66.26933333333334 22.775786666666665 64Z" class="hierarchical-1:primary "/><path d="M45.44250666666667 76.39359999999999C42.03834666666667 76.39359999999999 39.27877333333333 79.15360000000001 39.27877333333333 82.55733333333333 39.27877333333333 85.9616 42.03834666666667 88.72106666666667 45.44250666666667 88.72106666666667 48.84661333333334 88.72106666666667 51.60624 85.9616 51.60624 82.55733333333333 51.60624 79.15360000000001 48.84661333333334 76.39359999999999 45.44250666666667 76.39359999999999Z" class="hierarchical-1:primary "/><path d="M101.1152 94.95146666666666C97.71093333333333 94.95146666666666 94.95146666666666 97.71093333333333 94.95146666666666 101.1152 94.95146666666666 104.51893333333334 97.71093333333333 107.27893333333333 101.1152 107.27893333333333 104.51893333333334 107.27893333333333 107.27893333333333 104.51893333333334 107.27893333333333 101.1152 107.27893333333333 97.71093333333333 104.51893333333334 94.95146666666666 101.1152 94.95146666666666Z" class="hierarchical-1:primary "/><path d="M64 59.89066666666667C61.73066666666667 59.89066666666667 59.89066666666667 61.73066666666667 59.89066666666667 64 59.89066666666667 66.26933333333334 61.73066666666667 68.10933333333332 64 68.10933333333332 66.26933333333334 68.10933333333332 68.1088 66.26933333333334 68.1088 64 68.1088 61.73066666666667 66.26933333333334 59.89066666666667 64 59.89066666666667Z" class="hierarchical-1:primary "/><path d="M82.55733333333333 39.27877333333333C79.15360000000001 39.27877333333333 76.39359999999999 42.03834666666667 76.39359999999999 45.44250666666667 76.39359999999999 48.84661333333334 79.15360000000001 51.60624 82.55733333333333 51.60624 85.9616 51.60624 88.72106666666667 48.84661333333334 88.72106666666667 45.44250666666667 88.72106666666667 42.03834666666667 85.9616 39.27877333333333 82.55733333333333 39.27877333333333Z" class="hierarchical-1:primary "/><path d="M82.55733333333333 22.775840000000002C80.288 22.775840000000002 78.44853333333333 24.615573333333334 78.44853333333333 26.885013333333333 78.44853333333333 29.1544 80.288 30.99413333333333 82.55733333333333 30.99413333333333 84.82666666666667 30.99413333333333 86.66666666666667 29.1544 86.66666666666667 26.885013333333333 86.66666666666667 24.615573333333334 84.82666666666667 22.775840000000002 82.55733333333333 22.775840000000002Z" class="hierarchical-1:primary "/></g>
  <g id="Black-S" transform="matrix(1,0,0,1,2885.3999999999996,612.7705000000001)">

  <path d="M48 14C44.596000000000004 14 41.8364 16.759600000000002 41.8364 20.16376 41.8364 23.567880000000002 44.596000000000004 26.327480000000005 48 26.327480000000005 51.403999999999996 26.327480000000005 54.1636 23.567880000000002 54.1636 20.16376 54.1636 16.759600000000002 51.403999999999996 14 48 14Z" class="hierarchical-1:primary "/><path d="M55.754400000000004 48C55.754400000000004 44.596000000000004 58.514 41.8364 61.918 41.8364 65.3224 41.8364 68.08200000000001 44.596000000000004 68.08200000000001 48 68.08200000000001 51.403999999999996 65.3224 54.1636 61.918 54.1636 58.514 54.1636 55.754400000000004 51.403999999999996 55.754400000000004 48Z" class="hierarchical-1:primary "/><path d="M20.16376 55.754400000000004C16.759600000000002 55.754400000000004 14 58.514 14 61.918 14 65.3224 16.759600000000002 68.08200000000001 20.16376 68.08200000000001 23.567880000000002 68.08200000000001 26.327480000000005 65.3224 26.327480000000005 61.918 26.327480000000005 58.514 23.567880000000002 55.754400000000004 20.16376 55.754400000000004Z" class="hierarchical-1:primary "/><path d="M45.534400000000005 75.83640000000001C45.534400000000005 74.4748 46.638400000000004 73.3708 48 73.3708 49.3616 73.3708 50.4656 74.4748 50.4656 75.83640000000001 50.4656 77.19800000000001 49.3616 78.30160000000001 48 78.30160000000001 46.638400000000004 78.30160000000001 45.534400000000005 77.19800000000001 45.534400000000005 75.83640000000001Z" class="hierarchical-1:primary "/><path d="M75.83640000000001 43.3772C73.28320000000001 43.3772 71.2136 45.4468 71.2136 48 71.2136 50.553200000000004 73.28320000000001 52.6228 75.83640000000001 52.6228 78.38920000000002 52.6228 80.45920000000001 50.553200000000004 80.45920000000001 48 80.45920000000001 45.4468 78.38920000000002 43.3772 75.83640000000001 43.3772Z" class="hierarchical-1:primary "/><path d="M61.918 58.836400000000005C60.216 58.836400000000005 58.836400000000005 60.216 58.836400000000005 61.918 58.836400000000005 63.620000000000005 60.216 65 61.918 65 63.620000000000005 65 65 63.620000000000005 65 61.918 65 60.216 63.620000000000005 58.836400000000005 61.918 58.836400000000005Z" class="hierarchical-1:primary "/><path d="M40.2952 61.918C40.2952 57.662800000000004 43.7448 54.2136 48 54.2136 52.2552 54.2136 55.704800000000006 57.662800000000004 55.704800000000006 61.918 55.704800000000006 66.1732 52.2552 69.6228 48 69.6228 43.7448 69.6228 40.2952 66.1732 40.2952 61.918Z" class="hierarchical-1:primary "/><path d="M17.08184 48C17.08184 46.298 18.46164 44.918000000000006 20.16368 44.918000000000006 21.86576 44.918000000000006 23.24556 46.298 23.24556 48 23.24556 49.702 21.86576 51.082 20.16368 51.082 18.46164 51.082 17.08184 49.702 17.08184 48Z" class="hierarchical-1:primary "/><path d="M34.081880000000005 57.2952C31.528760000000002 57.2952 29.45908 59.36520000000001 29.45908 61.918 29.45908 64.4712 31.528760000000002 66.5408 34.081880000000005 66.5408 36.63496 66.5408 38.70468 64.4712 38.70468 61.918 38.70468 59.36520000000001 36.63496 57.2952 34.081880000000005 57.2952Z" class="hierarchical-1:primary "/><path d="M75.83640000000001 71.2136C73.28320000000001 71.2136 71.2136 73.28320000000001 71.2136 75.83640000000001 71.2136 78.38920000000002 73.28320000000001 80.45920000000001 75.83640000000001 80.45920000000001 78.38920000000002 80.45920000000001 80.45920000000001 78.38920000000002 80.45920000000001 75.83640000000001 80.45920000000001 73.28320000000001 78.38920000000002 71.2136 75.83640000000001 71.2136Z" class="hierarchical-1:primary "/><path d="M48 44.918000000000006C46.298 44.918000000000006 44.918000000000006 46.298 44.918000000000006 48 44.918000000000006 49.702 46.298 51.082 48 51.082 49.702 51.082 51.0816 49.702 51.0816 48 51.0816 46.298 49.702 44.918000000000006 48 44.918000000000006Z" class="hierarchical-1:primary "/><path d="M61.918 29.45908C59.36520000000001 29.45908 57.2952 31.528760000000002 57.2952 34.081880000000005 57.2952 36.63496 59.36520000000001 38.70468 61.918 38.70468 64.4712 38.70468 66.5408 36.63496 66.5408 34.081880000000005 66.5408 31.528760000000002 64.4712 29.45908 61.918 29.45908Z" class="hierarchical-1:primary "/><path d="M61.918 17.08188C60.216 17.08188 58.836400000000005 18.46168 58.836400000000005 20.16376 58.836400000000005 21.8658 60.216 23.2456 61.918 23.2456 63.620000000000005 23.2456 65 21.8658 65 20.16376 65 18.46168 63.620000000000005 17.08188 61.918 17.08188Z" class="hierarchical-1:primary "/></g>
  <g id="Regular-S" transform="matrix(1,0,0,1,1401.845,612.7705000000001)">

  <path d="M48 14C44.596000000000004 14 41.8364 16.759600000000002 41.8364 20.16376 41.8364 23.567880000000002 44.596000000000004 26.327480000000005 48 26.327480000000005 51.403999999999996 26.327480000000005 54.1636 23.567880000000002 54.1636 20.16376 54.1636 16.759600000000002 51.403999999999996 14 48 14Z" class="hierarchical-1:primary "/><path d="M55.754400000000004 48C55.754400000000004 44.596000000000004 58.514 41.8364 61.918 41.8364 65.3224 41.8364 68.08200000000001 44.596000000000004 68.08200000000001 48 68.08200000000001 51.403999999999996 65.3224 54.1636 61.918 54.1636 58.514 54.1636 55.754400000000004 51.403999999999996 55.754400000000004 48Z" class="hierarchical-1:primary "/><path d="M20.16376 55.754400000000004C16.759600000000002 55.754400000000004 14 58.514 14 61.918 14 65.3224 16.759600000000002 68.08200000000001 20.16376 68.08200000000001 23.567880000000002 68.08200000000001 26.327480000000005 65.3224 26.327480000000005 61.918 26.327480000000005 58.514 23.567880000000002 55.754400000000004 20.16376 55.754400000000004Z" class="hierarchical-1:primary "/><path d="M45.534400000000005 75.83640000000001C45.534400000000005 74.4748 46.638400000000004 73.3708 48 73.3708 49.3616 73.3708 50.4656 74.4748 50.4656 75.83640000000001 50.4656 77.19800000000001 49.3616 78.30160000000001 48 78.30160000000001 46.638400000000004 78.30160000000001 45.534400000000005 77.19800000000001 45.534400000000005 75.83640000000001Z" class="hierarchical-1:primary "/><path d="M75.83640000000001 43.3772C73.28320000000001 43.3772 71.2136 45.4468 71.2136 48 71.2136 50.553200000000004 73.28320000000001 52.6228 75.83640000000001 52.6228 78.38920000000002 52.6228 80.45920000000001 50.553200000000004 80.45920000000001 48 80.45920000000001 45.4468 78.38920000000002 43.3772 75.83640000000001 43.3772Z" class="hierarchical-1:primary "/><path d="M61.918 58.836400000000005C60.216 58.836400000000005 58.836400000000005 60.216 58.836400000000005 61.918 58.836400000000005 63.620000000000005 60.216 65 61.918 65 63.620000000000005 65 65 63.620000000000005 65 61.918 65 60.216 63.620000000000005 58.836400000000005 61.918 58.836400000000005Z" class="hierarchical-1:primary "/><path d="M40.2952 61.918C40.2952 57.662800000000004 43.7448 54.2136 48 54.2136 52.2552 54.2136 55.704800000000006 57.662800000000004 55.704800000000006 61.918 55.704800000000006 66.1732 52.2552 69.6228 48 69.6228 43.7448 69.6228 40.2952 66.1732 40.2952 61.918Z" class="hierarchical-1:primary "/><path d="M17.08184 48C17.08184 46.298 18.46164 44.918000000000006 20.16368 44.918000000000006 21.86576 44.918000000000006 23.24556 46.298 23.24556 48 23.24556 49.702 21.86576 51.082 20.16368 51.082 18.46164 51.082 17.08184 49.702 17.08184 48Z" class="hierarchical-1:primary "/><path d="M34.081880000000005 57.2952C31.528760000000002 57.2952 29.45908 59.36520000000001 29.45908 61.918 29.45908 64.4712 31.528760000000002 66.5408 34.081880000000005 66.5408 36.63496 66.5408 38.70468 64.4712 38.70468 61.918 38.70468 59.36520000000001 36.63496 57.2952 34.081880000000005 57.2952Z" class="hierarchical-1:primary "/><path d="M75.83640000000001 71.2136C73.28320000000001 71.2136 71.2136 73.28320000000001 71.2136 75.83640000000001 71.2136 78.38920000000002 73.28320000000001 80.45920000000001 75.83640000000001 80.45920000000001 78.38920000000002 80.45920000000001 80.45920000000001 78.38920000000002 80.45920000000001 75.83640000000001 80.45920000000001 73.28320000000001 78.38920000000002 71.2136 75.83640000000001 71.2136Z" class="hierarchical-1:primary "/><path d="M48 44.918000000000006C46.298 44.918000000000006 44.918000000000006 46.298 44.918000000000006 48 44.918000000000006 49.702 46.298 51.082 48 51.082 49.702 51.082 51.0816 49.702 51.0816 48 51.0816 46.298 49.702 44.918000000000006 48 44.918000000000006Z" class="hierarchical-1:primary "/><path d="M61.918 29.45908C59.36520000000001 29.45908 57.2952 31.528760000000002 57.2952 34.081880000000005 57.2952 36.63496 59.36520000000001 38.70468 61.918 38.70468 64.4712 38.70468 66.5408 36.63496 66.5408 34.081880000000005 66.5408 31.528760000000002 64.4712 29.45908 61.918 29.45908Z" class="hierarchical-1:primary "/><path d="M61.918 17.08188C60.216 17.08188 58.836400000000005 18.46168 58.836400000000005 20.16376 58.836400000000005 21.8658 60.216 23.2456 61.918 23.2456 63.620000000000005 23.2456 65 21.8658 65 20.16376 65 18.46168 63.620000000000005 17.08188 61.918 17.08188Z" class="hierarchical-1:primary "/></g>
  <g id="Ultralight-S" transform="matrix(1,0,0,1,511.711,612.7705000000001)">

  <path d="M48 14C44.596000000000004 14 41.8364 16.759600000000002 41.8364 20.16376 41.8364 23.567880000000002 44.596000000000004 26.327480000000005 48 26.327480000000005 51.403999999999996 26.327480000000005 54.1636 23.567880000000002 54.1636 20.16376 54.1636 16.759600000000002 51.403999999999996 14 48 14Z" class="hierarchical-1:primary "/><path d="M55.754400000000004 48C55.754400000000004 44.596000000000004 58.514 41.8364 61.918 41.8364 65.3224 41.8364 68.08200000000001 44.596000000000004 68.08200000000001 48 68.08200000000001 51.403999999999996 65.3224 54.1636 61.918 54.1636 58.514 54.1636 55.754400000000004 51.403999999999996 55.754400000000004 48Z" class="hierarchical-1:primary "/><path d="M20.16376 55.754400000000004C16.759600000000002 55.754400000000004 14 58.514 14 61.918 14 65.3224 16.759600000000002 68.08200000000001 20.16376 68.08200000000001 23.567880000000002 68.08200000000001 26.327480000000005 65.3224 26.327480000000005 61.918 26.327480000000005 58.514 23.567880000000002 55.754400000000004 20.16376 55.754400000000004Z" class="hierarchical-1:primary "/><path d="M45.534400000000005 75.83640000000001C45.534400000000005 74.4748 46.638400000000004 73.3708 48 73.3708 49.3616 73.3708 50.4656 74.4748 50.4656 75.83640000000001 50.4656 77.19800000000001 49.3616 78.30160000000001 48 78.30160000000001 46.638400000000004 78.30160000000001 45.534400000000005 77.19800000000001 45.534400000000005 75.83640000000001Z" class="hierarchical-1:primary "/><path d="M75.83640000000001 43.3772C73.28320000000001 43.3772 71.2136 45.4468 71.2136 48 71.2136 50.553200000000004 73.28320000000001 52.6228 75.83640000000001 52.6228 78.38920000000002 52.6228 80.45920000000001 50.553200000000004 80.45920000000001 48 80.45920000000001 45.4468 78.38920000000002 43.3772 75.83640000000001 43.3772Z" class="hierarchical-1:primary "/><path d="M61.918 58.836400000000005C60.216 58.836400000000005 58.836400000000005 60.216 58.836400000000005 61.918 58.836400000000005 63.620000000000005 60.216 65 61.918 65 63.620000000000005 65 65 63.620000000000005 65 61.918 65 60.216 63.620000000000005 58.836400000000005 61.918 58.836400000000005Z" class="hierarchical-1:primary "/><path d="M40.2952 61.918C40.2952 57.662800000000004 43.7448 54.2136 48 54.2136 52.2552 54.2136 55.704800000000006 57.662800000000004 55.704800000000006 61.918 55.704800000000006 66.1732 52.2552 69.6228 48 69.6228 43.7448 69.6228 40.2952 66.1732 40.2952 61.918Z" class="hierarchical-1:primary "/><path d="M17.08184 48C17.08184 46.298 18.46164 44.918000000000006 20.16368 44.918000000000006 21.86576 44.918000000000006 23.24556 46.298 23.24556 48 23.24556 49.702 21.86576 51.082 20.16368 51.082 18.46164 51.082 17.08184 49.702 17.08184 48Z" class="hierarchical-1:primary "/><path d="M34.081880000000005 57.2952C31.528760000000002 57.2952 29.45908 59.36520000000001 29.45908 61.918 29.45908 64.4712 31.528760000000002 66.5408 34.081880000000005 66.5408 36.63496 66.5408 38.70468 64.4712 38.70468 61.918 38.70468 59.36520000000001 36.63496 57.2952 34.081880000000005 57.2952Z" class="hierarchical-1:primary "/><path d="M75.83640000000001 71.2136C73.28320000000001 71.2136 71.2136 73.28320000000001 71.2136 75.83640000000001 71.2136 78.38920000000002 73.28320000000001 80.45920000000001 75.83640000000001 80.45920000000001 78.38920000000002 80.45920000000001 80.45920000000001 78.38920000000002 80.45920000000001 75.83640000000001 80.45920000000001 73.28320000000001 78.38920000000002 71.2136 75.83640000000001 71.2136Z" class="hierarchical-1:primary "/><path d="M48 44.918000000000006C46.298 44.918000000000006 44.918000000000006 46.298 44.918000000000006 48 44.918000000000006 49.702 46.298 51.082 48 51.082 49.702 51.082 51.0816 49.702 51.0816 48 51.0816 46.298 49.702 44.918000000000006 48 44.918000000000006Z" class="hierarchical-1:primary "/><path d="M61.918 29.45908C59.36520000000001 29.45908 57.2952 31.528760000000002 57.2952 34.081880000000005 57.2952 36.63496 59.36520000000001 38.70468 61.918 38.70468 64.4712 38.70468 66.5408 36.63496 66.5408 34.081880000000005 66.5408 31.528760000000002 64.4712 29.45908 61.918 29.45908Z" class="hierarchical-1:primary "/><path d="M61.918 17.08188C60.216 17.08188 58.836400000000005 18.46168 58.836400000000005 20.16376 58.836400000000005 21.8658 60.216 23.2456 61.918 23.2456 63.620000000000005 23.2456 65 21.8658 65 20.16376 65 18.46168 63.620000000000005 17.08188 61.918 17.08188Z" class="hierarchical-1:primary "/></g>
 </g>
</svg>