<svg xmlns="http://www.w3.org/2000/svg" xmlns:xlink="http://www.w3.org/1999/xlink" version="1.1" width="3300" height="2200">
 <!--glyph: "", point size: 100.0, font version: "17.1d1e1", template writer version: "65.1"-->
<style>

.hierarchical-1:primary {fill:#262626;}
.SFSymbolsPreview262626 {fill:#262626;}
</style>
 <g id="Notes">
  <rect height="2200" id="artboard" style="fill:white;opacity:1" width="3300" x="0" y="0"/>
  <line style="fill:none;stroke:black;opacity:1;stroke-width:0.5;" x1="263" x2="3036" y1="292" y2="292"/>
  <text style="stroke:none;fill:black;font-family:sans-serif;font-size:13;font-weight:bold;" transform="matrix(1 0 0 1 263 322)">Weight/Scale Variations</text>
  <text style="stroke:none;fill:black;font-family:sans-serif;font-size:13;text-anchor:middle;" transform="matrix(1 0 0 1 559.711 322)">Ultralight</text>
  <text style="stroke:none;fill:black;font-family:sans-serif;font-size:13;text-anchor:middle;" transform="matrix(1 0 0 1 856.422 322)">Thin</text>
  <text style="stroke:none;fill:black;font-family:sans-serif;font-size:13;text-anchor:middle;" transform="matrix(1 0 0 1 1153.13 322)">Light</text>
  <text style="stroke:none;fill:black;font-family:sans-serif;font-size:13;text-anchor:middle;" transform="matrix(1 0 0 1 1449.84 322)">Regular</text>
  <text style="stroke:none;fill:black;font-family:sans-serif;font-size:13;text-anchor:middle;" transform="matrix(1 0 0 1 1746.56 322)">Medium</text>
  <text style="stroke:none;fill:black;font-family:sans-serif;font-size:13;text-anchor:middle;" transform="matrix(1 0 0 1 2043.27 322)">Semibold</text>
  <text style="stroke:none;fill:black;font-family:sans-serif;font-size:13;text-anchor:middle;" transform="matrix(1 0 0 1 2339.98 322)">Bold</text>
  <text style="stroke:none;fill:black;font-family:sans-serif;font-size:13;text-anchor:middle;" transform="matrix(1 0 0 1 2636.69 322)">Heavy</text>
  <text style="stroke:none;fill:black;font-family:sans-serif;font-size:13;text-anchor:middle;" transform="matrix(1 0 0 1 2933.4 322)">Black</text>
  <line style="fill:none;stroke:black;opacity:1;stroke-width:0.5;" x1="263" x2="3036" y1="1903" y2="1903"/>
  <g transform="matrix(1 0 0 1 263 1933)">
   <path d="M9.24805 0.830078Q10.8691 0.830078 12.2949 0.214844Q13.7207-0.400391 14.8096-1.49414Q15.8984-2.58789 16.5186-4.01367Q17.1387-5.43945 17.1387-7.05078Q17.1387-8.66211 16.5186-10.0879Q15.8984-11.5137 14.8047-12.6074Q13.7109-13.7012 12.2852-14.3164Q10.8594-14.9316 9.23828-14.9316Q7.62695-14.9316 6.20117-14.3164Q4.77539-13.7012 3.69141-12.6074Q2.60742-11.5137 1.9873-10.0879Q1.36719-8.66211 1.36719-7.05078Q1.36719-5.43945 1.9873-4.01367Q2.60742-2.58789 3.69629-1.49414Q4.78516-0.400391 6.21094 0.214844Q7.63672 0.830078 9.24805 0.830078ZM9.24805-0.654297Q7.91992-0.654297 6.7627-1.14746Q5.60547-1.64062 4.73145-2.51953Q3.85742-3.39844 3.36426-4.56055Q2.87109-5.72266 2.87109-7.05078Q2.87109-8.37891 3.35938-9.54102Q3.84766-10.7031 4.72168-11.582Q5.5957-12.4609 6.75293-12.9541Q7.91016-13.4473 9.23828-13.4473Q10.5762-13.4473 11.7334-12.9541Q12.8906-12.4609 13.7695-11.582Q14.6484-10.7031 15.1465-9.54102Q15.6445-8.37891 15.6445-7.05078Q15.6445-5.72266 15.1514-4.56055Q14.6582-3.39844 13.7842-2.51953Q12.9102-1.64062 11.748-1.14746Q10.5859-0.654297 9.24805-0.654297ZM5.6543-7.05078Q5.6543-6.72852 5.85938-6.52832Q6.06445-6.32812 6.40625-6.32812L8.51562-6.32812L8.51562-4.20898Q8.51562-3.88672 8.71094-3.67676Q8.90625-3.4668 9.23828-3.4668Q9.56055-3.4668 9.77051-3.67676Q9.98047-3.88672 9.98047-4.20898L9.98047-6.32812L12.0898-6.32812Q12.4219-6.32812 12.627-6.52832Q12.832-6.72852 12.832-7.05078Q12.832-7.38281 12.627-7.58789Q12.4219-7.79297 12.0898-7.79297L9.98047-7.79297L9.98047-9.90234Q9.98047-10.2344 9.77051-10.4443Q9.56055-10.6543 9.23828-10.6543Q8.90625-10.6543 8.71094-10.4443Q8.51562-10.2344 8.51562-9.90234L8.51562-7.79297L6.40625-7.79297Q6.06445-7.79297 5.85938-7.58789Q5.6543-7.38281 5.6543-7.05078Z"/>
  </g>
  <g transform="matrix(1 0 0 1 281.867 1933)">
   <path d="M11.709 2.91016Q13.75 2.91016 15.5518 2.12891Q17.3535 1.34766 18.7305-0.0292969Q20.1074-1.40625 20.8887-3.20801Q21.6699-5.00977 21.6699-7.05078Q21.6699-9.0918 20.8887-10.8936Q20.1074-12.6953 18.7305-14.0723Q17.3535-15.4492 15.5469-16.2305Q13.7402-17.0117 11.6992-17.0117Q9.6582-17.0117 7.85645-16.2305Q6.05469-15.4492 4.68262-14.0723Q3.31055-12.6953 2.5293-10.8936Q1.74805-9.0918 1.74805-7.05078Q1.74805-5.00977 2.5293-3.20801Q3.31055-1.40625 4.6875-0.0292969Q6.06445 1.34766 7.86621 2.12891Q9.66797 2.91016 11.709 2.91016ZM11.709 1.25Q9.98047 1.25 8.47656 0.605469Q6.97266-0.0390625 5.83496-1.17676Q4.69727-2.31445 4.05762-3.81836Q3.41797-5.32227 3.41797-7.05078Q3.41797-8.7793 4.05762-10.2832Q4.69727-11.7871 5.83008-12.9297Q6.96289-14.0723 8.4668-14.7119Q9.9707-15.3516 11.6992-15.3516Q13.4277-15.3516 14.9316-14.7119Q16.4355-14.0723 17.5781-12.9297Q18.7207-11.7871 19.3652-10.2832Q20.0098-8.7793 20.0098-7.05078Q20.0098-5.32227 19.3701-3.81836Q18.7305-2.31445 17.5928-1.17676Q16.4551-0.0390625 14.9463 0.605469Q13.4375 1.25 11.709 1.25ZM7.17773-7.05078Q7.17773-6.69922 7.41211-6.47461Q7.64648-6.25 8.01758-6.25L10.8887-6.25L10.8887-3.36914Q10.8887-2.99805 11.1133-2.76855Q11.3379-2.53906 11.6895-2.53906Q12.0605-2.53906 12.29-2.76855Q12.5195-2.99805 12.5195-3.36914L12.5195-6.25L15.4004-6.25Q15.7715-6.25 16.001-6.47461Q16.2305-6.69922 16.2305-7.05078Q16.2305-7.42188 16.001-7.65137Q15.7715-7.88086 15.4004-7.88086L12.5195-7.88086L12.5195-10.752Q12.5195-11.1328 12.29-11.3623Q12.0605-11.5918 11.6895-11.5918Q11.3379-11.5918 11.1133-11.3574Q10.8887-11.123 10.8887-10.752L10.8887-7.88086L8.01758-7.88086Q7.63672-7.88086 7.40723-7.65137Q7.17773-7.42188 7.17773-7.05078Z"/>
  </g>
  <g transform="matrix(1 0 0 1 305.646 1933)">
   <path d="M14.9707 5.66406Q17.0605 5.66406 18.96 5.01465Q20.8594 4.36523 22.4512 3.19336Q24.043 2.02148 25.2197 0.429688Q26.3965-1.16211 27.0459-3.06641Q27.6953-4.9707 27.6953-7.05078Q27.6953-9.14062 27.0459-11.04Q26.3965-12.9395 25.2197-14.5312Q24.043-16.123 22.4512-17.2998Q20.8594-18.4766 18.9551-19.126Q17.0508-19.7754 14.9609-19.7754Q12.8711-19.7754 10.9717-19.126Q9.07227-18.4766 7.48535-17.2998Q5.89844-16.123 4.72168-14.5312Q3.54492-12.9395 2.90039-11.04Q2.25586-9.14062 2.25586-7.05078Q2.25586-4.9707 2.90527-3.06641Q3.55469-1.16211 4.72656 0.429688Q5.89844 2.02148 7.49023 3.19336Q9.08203 4.36523 10.9814 5.01465Q12.8809 5.66406 14.9707 5.66406ZM14.9707 3.84766Q13.1641 3.84766 11.5283 3.2959Q9.89258 2.74414 8.53516 1.74805Q7.17773 0.751953 6.17676-0.610352Q5.17578-1.97266 4.62891-3.6084Q4.08203-5.24414 4.08203-7.05078Q4.08203-8.86719 4.62891-10.5029Q5.17578-12.1387 6.17188-13.501Q7.16797-14.8633 8.52539-15.8594Q9.88281-16.8555 11.5186-17.4023Q13.1543-17.9492 14.9609-17.9492Q16.7773-17.9492 18.4131-17.4023Q20.0488-16.8555 21.4111-15.8594Q22.7734-14.8633 23.7695-13.501Q24.7656-12.1387 25.3174-10.5029Q25.8691-8.86719 25.8691-7.05078Q25.8789-5.24414 25.332-3.6084Q24.7852-1.97266 23.7842-0.610352Q22.7832 0.751953 21.4209 1.74805Q20.0586 2.74414 18.4229 3.2959Q16.7871 3.84766 14.9707 3.84766ZM9.19922-7.05078Q9.19922-6.66992 9.45801-6.4209Q9.7168-6.17188 10.1172-6.17188L14.0625-6.17188L14.0625-2.2168Q14.0625-1.81641 14.3115-1.55762Q14.5605-1.29883 14.9512-1.29883Q15.3516-1.29883 15.6104-1.55273Q15.8691-1.80664 15.8691-2.2168L15.8691-6.17188L19.8242-6.17188Q20.2246-6.17188 20.4785-6.4209Q20.7324-6.66992 20.7324-7.05078Q20.7324-7.46094 20.4785-7.71484Q20.2246-7.96875 19.8242-7.96875L15.8691-7.96875L15.8691-11.9141Q15.8691-12.3242 15.6104-12.583Q15.3516-12.8418 14.9512-12.8418Q14.5605-12.8418 14.3115-12.583Q14.0625-12.3242 14.0625-11.9141L14.0625-7.96875L10.1172-7.96875Q9.70703-7.96875 9.45312-7.71484Q9.19922-7.46094 9.19922-7.05078Z"/>
  </g>
  <text style="stroke:none;fill:black;font-family:sans-serif;font-size:13;font-weight:bold;" transform="matrix(1 0 0 1 263 1953)">Design Variations</text>
  <text style="stroke:none;fill:black;font-family:sans-serif;font-size:13;" transform="matrix(1 0 0 1 263 1971)">Symbols are supported in up to nine weights and three scales.</text>
  <text style="stroke:none;fill:black;font-family:sans-serif;font-size:13;" transform="matrix(1 0 0 1 263 1989)">For optimal layout with text and other symbols, vertically align</text>
  <text style="stroke:none;fill:black;font-family:sans-serif;font-size:13;" transform="matrix(1 0 0 1 263 2007)">symbols with the adjacent text.</text>
  <line style="fill:none;stroke:#00AEEF;stroke-width:0.5;opacity:1.0;" x1="776" x2="776" y1="1919" y2="1933"/>
  <g transform="matrix(1 0 0 1 776 1933)">
   <path d="M3.31055 0.15625Q3.70117 0.15625 3.91602-0.00976562Q4.13086-0.175781 4.26758-0.585938L5.52734-4.0332L11.2891-4.0332L12.5488-0.585938Q12.6855-0.175781 12.9004-0.00976562Q13.1152 0.15625 13.4961 0.15625Q13.8867 0.15625 14.1162-0.0585938Q14.3457-0.273438 14.3457-0.644531Q14.3457-0.869141 14.2383-1.17188L9.6582-13.3691Q9.48242-13.8184 9.17969-14.043Q8.87695-14.2676 8.4082-14.2676Q7.5-14.2676 7.17773-13.3789L2.59766-1.16211Q2.49023-0.859375 2.49023-0.634766Q2.49023-0.263672 2.70996-0.0537109Q2.92969 0.15625 3.31055 0.15625ZM6.00586-5.51758L8.37891-12.0898L8.42773-12.0898L10.8008-5.51758Z"/>
  </g>
  <line style="fill:none;stroke:#00AEEF;stroke-width:0.5;opacity:1.0;" x1="793.197" x2="793.197" y1="1919" y2="1933"/>
  <text style="stroke:none;fill:black;font-family:sans-serif;font-size:13;font-weight:bold;" transform="matrix(1 0 0 1 776 1953)">Margins</text>
  <text style="stroke:none;fill:black;font-family:sans-serif;font-size:13;" transform="matrix(1 0 0 1 776 1971)">Leading and trailing margins on the left and right side of each symbol</text>
  <text style="stroke:none;fill:black;font-family:sans-serif;font-size:13;" transform="matrix(1 0 0 1 776 1989)">can be adjusted by modifying the x-location of the margin guidelines.</text>
  <text style="stroke:none;fill:black;font-family:sans-serif;font-size:13;" transform="matrix(1 0 0 1 776 2007)">Modifications are automatically applied proportionally to all</text>
  <text style="stroke:none;fill:black;font-family:sans-serif;font-size:13;" transform="matrix(1 0 0 1 776 2025)">scales and weights.</text>
  <g transform="matrix(1 0 0 1 1289 1933)">
   <path d="M2.8418 1.86523L4.54102 3.57422Q5.18555 4.22852 5.90332 4.17969Q6.62109 4.13086 7.31445 3.35938L18.0078-8.42773L17.041-9.4043L6.42578 2.27539Q6.16211 2.57812 5.89355 2.61719Q5.625 2.65625 5.27344 2.30469L4.10156 1.14258Q3.75 0.791016 3.79395 0.522461Q3.83789 0.253906 4.14062-0.0195312L15.6152-10.8203L14.6387-11.7871L3.04688-0.898438Q2.30469-0.214844 2.25098 0.498047Q2.19727 1.21094 2.8418 1.86523ZM9.25781-16.3281Q8.94531-16.0254 8.90625-15.6348Q8.86719-15.2441 9.04297-14.9512Q9.21875-14.6777 9.55566-14.541Q9.89258-14.4043 10.3809-14.5215Q11.4746-14.7754 12.5977-14.7314Q13.7207-14.6875 14.7949-13.9844L14.209-12.5293Q13.9551-11.9043 14.0674-11.4404Q14.1797-10.9766 14.5801-10.5664L16.875-8.25195Q17.2363-7.88086 17.5781-7.82227Q17.9199-7.76367 18.3398-7.8418L19.4043-8.03711L20.0684-7.36328L20.0293-6.80664Q20-6.43555 20.1221-6.12305Q20.2441-5.81055 20.6055-5.44922L21.3672-4.70703Q21.7285-4.3457 22.1533-4.33105Q22.5781-4.31641 22.9297-4.66797L25.8398-7.58789Q26.1914-7.93945 26.1816-8.35449Q26.1719-8.76953 25.8105-9.13086L25.0391-9.89258Q24.6875-10.2539 24.3799-10.3857Q24.0723-10.5176 23.7109-10.4883L23.1348-10.4395L22.4902-11.0742L22.7344-12.1973Q22.832-12.6172 22.6953-12.9834Q22.5586-13.3496 22.1191-13.7891L19.9219-15.9766Q18.6719-17.2168 17.2607-17.8369Q15.8496-18.457 14.4189-18.4814Q12.9883-18.5059 11.665-17.959Q10.3418-17.4121 9.25781-16.3281ZM10.752-15.957Q11.6602-16.6211 12.7002-16.9043Q13.7402-17.1875 14.8047-17.085Q15.8691-16.9824 16.8701-16.5137Q17.8711-16.0449 18.7012-15.2051L21.1328-12.793Q21.3086-12.6172 21.3525-12.4512Q21.3965-12.2852 21.3379-12.0312L21.0156-10.5469L22.5195-9.0625L23.5059-9.12109Q23.6914-9.13086 23.7891-9.09668Q23.8867-9.0625 24.0332-8.91602L24.6094-8.33984L22.168-5.89844L21.5918-6.47461Q21.4453-6.62109 21.4062-6.71875Q21.3672-6.81641 21.377-7.01172L21.4453-7.98828L19.9512-9.47266L18.4277-9.21875Q18.1836-9.16992 18.042-9.2041Q17.9004-9.23828 17.7148-9.41406L15.7129-11.416Q15.5176-11.5918 15.4932-11.7529Q15.4688-11.9141 15.5859-12.1875L16.4648-14.2773Q15.293-15.3711 13.8281-15.791Q12.3633-16.2109 10.8398-15.7617Q10.7227-15.7324 10.6885-15.8057Q10.6543-15.8789 10.752-15.957Z"/>
  </g>
  <text style="stroke:none;fill:black;font-family:sans-serif;font-size:13;font-weight:bold;" transform="matrix(1 0 0 1 1289 1953)">Exporting</text>
  <text style="stroke:none;fill:black;font-family:sans-serif;font-size:13;" transform="matrix(1 0 0 1 1289 1971)">Symbols should be outlined when exporting to ensure the</text>
  <text style="stroke:none;fill:black;font-family:sans-serif;font-size:13;" transform="matrix(1 0 0 1 1289 1989)">design is preserved when submitting to Xcode.</text>
  <text id="template-version" style="stroke:none;fill:black;font-family:sans-serif;font-size:13;text-anchor:end;" transform="matrix(1 0 0 1 3036 1933)">Template v.3.0</text>
  <text style="stroke:none;fill:black;font-family:sans-serif;font-size:13;text-anchor:end;" transform="matrix(1 0 0 1 3036 1951)">Requires Xcode 13 or greater</text>
  <text id="descriptive-name" style="stroke:none;fill:black;font-family:sans-serif;font-size:13;text-anchor:end;" transform="matrix(1 0 0 1 3036 1969)">Symbol moniker: dataStars</text>
  <text style="stroke:none;fill:black;font-family:sans-serif;font-size:13;text-anchor:end;" transform="matrix(1 0 0 1 3036 1987)">Typeset at 100 points</text>
  <text style="stroke:none;fill:black;font-family:sans-serif;font-size:13;" transform="matrix(1 0 0 1 263 726)">Small</text>
  <text style="stroke:none;fill:black;font-family:sans-serif;font-size:13;" transform="matrix(1 0 0 1 263 1156)">Medium</text>
  <text style="stroke:none;fill:black;font-family:sans-serif;font-size:13;" transform="matrix(1 0 0 1 263 1586)">Large</text>
 </g>
 <g id="Guides">
  <g id="H-reference" style="fill:#27AAE1;stroke:none;" transform="matrix(1 0 0 1 339 696)">
   <path d="M0.976562 0L3.66211 0L29.3457-67.1387L30.0293-67.1387L30.0293-70.459L28.125-70.459ZM11.6699-24.4629L46.9727-24.4629L46.2402-26.709L12.4512-26.709ZM55.127 0L57.7637 0L30.6152-70.459L29.4434-70.459L29.4434-67.1387Z"/>
  </g>
  <line id="Baseline-S" style="fill:none;stroke:#27AAE1;opacity:1;stroke-width:0.5;" x1="263" x2="3036" y1="696" y2="696"/>
  <line id="Capline-S" style="fill:none;stroke:#27AAE1;opacity:1;stroke-width:0.5;" x1="263" x2="3036" y1="625.541" y2="625.541"/>
  <g id="H-reference" style="fill:#27AAE1;stroke:none;" transform="matrix(1 0 0 1 339 1126)">
   <path d="M0.976562 0L3.66211 0L29.3457-67.1387L30.0293-67.1387L30.0293-70.459L28.125-70.459ZM11.6699-24.4629L46.9727-24.4629L46.2402-26.709L12.4512-26.709ZM55.127 0L57.7637 0L30.6152-70.459L29.4434-70.459L29.4434-67.1387Z"/>
  </g>
  <line id="Baseline-M" style="fill:none;stroke:#27AAE1;opacity:1;stroke-width:0.5;" x1="263" x2="3036" y1="1126" y2="1126"/>
  <line id="Capline-M" style="fill:none;stroke:#27AAE1;opacity:1;stroke-width:0.5;" x1="263" x2="3036" y1="1055.54" y2="1055.54"/>
  <g id="H-reference" style="fill:#27AAE1;stroke:none;" transform="matrix(1 0 0 1 339 1556)">
   <path d="M0.976562 0L3.66211 0L29.3457-67.1387L30.0293-67.1387L30.0293-70.459L28.125-70.459ZM11.6699-24.4629L46.9727-24.4629L46.2402-26.709L12.4512-26.709ZM55.127 0L57.7637 0L30.6152-70.459L29.4434-70.459L29.4434-67.1387Z"/>
  </g>
  <line id="Baseline-L" style="fill:none;stroke:#27AAE1;opacity:1;stroke-width:0.5;" x1="263" x2="3036" y1="1556" y2="1556"/>
  <line id="Capline-L" style="fill:none;stroke:#27AAE1;opacity:1;stroke-width:0.5;" x1="263" x2="3036" y1="1485.54" y2="1485.54"/>
  <line id="left-margin-Ultralight-S" style="fill:none;stroke:#00AEEF;stroke-width:0.5;opacity:1.0;" x1="515.351" x2="515.351" y1="600.784" y2="720.121"/>
  <line id="right-margin-Ultralight-S" style="fill:none;stroke:#00AEEF;stroke-width:0.5;opacity:1.0;" x1="604.071" x2="604.071" y1="600.784" y2="720.121"/>
  <line id="left-margin-Regular-S" style="fill:none;stroke:#00AEEF;stroke-width:0.5;opacity:1.0;" x1="1401.75" x2="1401.75" y1="600.784" y2="720.121"/>
  <line id="right-margin-Regular-S" style="fill:none;stroke:#00AEEF;stroke-width:0.5;opacity:1.0;" x1="1497.94" x2="1497.94" y1="600.784" y2="720.121"/>
  <line id="left-margin-Black-S" style="fill:none;stroke:#00AEEF;stroke-width:0.5;opacity:1.0;" x1="2883.2" x2="2883.2" y1="600.784" y2="720.121"/>
  <line id="right-margin-Black-S" style="fill:none;stroke:#00AEEF;stroke-width:0.5;opacity:1.0;" x1="2983.6" x2="2983.6" y1="600.784" y2="720.121"/>
 </g>
 <g id="Symbols">
  <g id="Black-L" transform="matrix(1,0,0,1,2853.3999999999996,1440.77)">

  <path d="M23.0604 92.66666666666666C29.50093333333333 96.01066666666665 37.165733333333336 96.01066666666665 43.60626666666667 92.66666666666666 40.2628 99.10733333333333 40.2628 106.77199999999999 43.60626666666667 113.21266666666665 37.16566666666667 109.86933333333333 29.500999999999998 109.86933333333333 23.0604 113.21266666666665 26.403866666666666 106.77199999999999 26.403866666666666 99.10733333333333 23.0604 92.66666666666666Z" class="hierarchical-1:primary "/><path d="M46.39373333333333 92.66666666666666C52.834266666666664 96.01066666666665 60.499066666666664 96.01066666666665 66.93933333333334 92.66666666666666 63.59613333333333 99.10733333333333 63.59613333333333 106.77199999999999 66.93933333333334 113.21266666666665 60.49893333333333 109.86933333333333 52.834333333333326 109.86933333333333 46.39373333333333 113.21266666666665 49.7372 106.77199999999999 49.7372 99.10733333333333 46.39373333333333 92.66666666666666Z" class="hierarchical-1:primary "/><path d="M69.72733333333332 92.66666666666666C76.16733333333333 96.01066666666665 83.83266666666665 96.01066666666665 90.27266666666665 92.66666666666666 86.92933333333333 99.10733333333333 86.92933333333333 106.77199999999999 90.27266666666665 113.21266666666665 83.832 109.86933333333333 76.16799999999999 109.86933333333333 69.72733333333332 113.21266666666665 73.07066666666665 106.77199999999999 73.07066666666665 99.10733333333333 69.72733333333332 92.66666666666666Z" class="hierarchical-1:primary "/><path d="M23.0604 70C29.50093333333333 73.344 37.165733333333336 73.344 43.60626666666667 70 40.2628 76.44066666666666 40.2628 84.10533333333333 43.60626666666667 90.54599999999999 37.16566666666667 87.20266666666666 29.500999999999998 87.20266666666666 23.0604 90.54599999999999 26.403866666666666 84.10533333333333 26.403866666666666 76.44066666666666 23.0604 70Z" class="hierarchical-1:primary "/><path d="M93.06066666666666 92.66666666666666C99.50066666666666 96.01066666666665 107.166 96.01066666666665 113.606 92.66666666666666 110.26266666666666 99.10733333333333 110.26266666666666 106.77199999999999 113.606 113.21266666666665 107.16533333333332 109.86933333333333 99.50133333333333 109.86933333333333 93.06066666666666 113.21266666666665 96.404 106.77199999999999 96.404 99.10733333333333 93.06066666666666 92.66666666666666Z" class="hierarchical-1:primary "/><path d="M69.72733333333332 70C76.16733333333333 73.344 83.83266666666665 73.344 90.27266666666665 70 86.92933333333333 76.44066666666666 86.92933333333333 84.10533333333333 90.27266666666665 90.54599999999999 83.832 87.20266666666666 76.16799999999999 87.20266666666666 69.72733333333332 90.54599999999999 73.07066666666665 84.10533333333333 73.07066666666665 76.44066666666666 69.72733333333332 70Z" class="hierarchical-1:primary "/><path d="M93.06066666666666 70C99.50066666666666 73.344 107.166 73.344 113.606 70 110.26266666666666 76.44066666666666 110.26266666666666 84.10533333333333 113.606 90.54599999999999 107.16533333333332 87.20266666666666 99.50133333333333 87.20266666666666 93.06066666666666 90.54599999999999 96.404 84.10533333333333 96.404 76.44066666666666 93.06066666666666 70Z" class="hierarchical-1:primary "/><path d="M116.394 70C122.834 73.344 130.4993333333333 73.344 136.9393333333333 70 133.596 76.44066666666666 133.596 84.10533333333333 136.9393333333333 90.54599999999999 130.49866666666665 87.20266666666666 122.83466666666666 87.20266666666666 116.394 90.54599999999999 119.73733333333332 84.10533333333333 119.73733333333332 76.44066666666666 116.394 70Z" class="hierarchical-1:primary "/><path d="M116.394 116C122.834 119.344 130.4993333333333 119.344 136.9393333333333 116 133.596 122.44066666666666 133.596 130.1053333333333 136.9393333333333 136.546 130.49866666666665 133.20266666666666 122.83466666666666 133.20266666666666 116.394 136.546 119.73733333333332 130.1053333333333 119.73733333333332 122.44066666666666 116.394 116Z" class="hierarchical-1:primary "/><path d="M69.72733333333332 116C76.16733333333333 119.344 83.83266666666665 119.344 90.27266666666665 116 86.92933333333333 122.44066666666666 86.92933333333333 130.1053333333333 90.27266666666665 136.546 83.832 133.20266666666666 76.16799999999999 133.20266666666666 69.72733333333332 136.546 73.07066666666665 130.1053333333333 73.07066666666665 122.44066666666666 69.72733333333332 116Z" class="hierarchical-1:primary "/><path d="M93.06066666666666 46.666666666666664C99.50066666666666 50.010333333333335 107.166 50.010333333333335 113.606 46.666666666666664 110.26266666666666 53.10719999999999 110.26266666666666 60.77193333333333 113.606 67.21266666666666 107.16533333333332 63.86926666666666 99.50133333333333 63.86926666666666 93.06066666666666 67.21266666666666 96.404 60.77193333333333 96.404 53.10719999999999 93.06066666666666 46.666666666666664Z" class="hierarchical-1:primary "/><path d="M93.06066666666666 23.333333333333332C99.50066666666666 26.677 107.166 26.677 113.606 23.333333333333332 110.26266666666666 29.773866666666667 110.26266666666666 37.438599999999994 113.606 43.879133333333336 107.16533333333332 40.53593333333333 99.50133333333333 40.53593333333333 93.06066666666666 43.879133333333336 96.404 37.438599999999994 96.404 29.773866666666667 93.06066666666666 23.333333333333332Z" class="hierarchical-1:primary "/><path d="M69.72733333333332 23.333333333333332C76.16733333333333 26.677 83.83266666666665 26.677 90.27266666666665 23.333333333333332 86.92933333333333 29.773866666666667 86.92933333333333 37.438599999999994 90.27266666666665 43.879133333333336 83.832 40.53593333333333 76.16799999999999 40.53593333333333 69.72733333333332 43.879133333333336 73.07066666666665 37.438599999999994 73.07066666666665 29.773866666666667 69.72733333333332 23.333333333333332Z" class="hierarchical-1:primary "/></g>
  <g id="Regular-L" transform="matrix(1,0,0,1,1369.845,1440.77)">

  <path d="M23.0604 92.66666666666666C29.50093333333333 96.01066666666665 37.165733333333336 96.01066666666665 43.60626666666667 92.66666666666666 40.2628 99.10733333333333 40.2628 106.77199999999999 43.60626666666667 113.21266666666665 37.16566666666667 109.86933333333333 29.500999999999998 109.86933333333333 23.0604 113.21266666666665 26.403866666666666 106.77199999999999 26.403866666666666 99.10733333333333 23.0604 92.66666666666666Z" class="hierarchical-1:primary "/><path d="M46.39373333333333 92.66666666666666C52.834266666666664 96.01066666666665 60.499066666666664 96.01066666666665 66.93933333333334 92.66666666666666 63.59613333333333 99.10733333333333 63.59613333333333 106.77199999999999 66.93933333333334 113.21266666666665 60.49893333333333 109.86933333333333 52.834333333333326 109.86933333333333 46.39373333333333 113.21266666666665 49.7372 106.77199999999999 49.7372 99.10733333333333 46.39373333333333 92.66666666666666Z" class="hierarchical-1:primary "/><path d="M69.72733333333332 92.66666666666666C76.16733333333333 96.01066666666665 83.83266666666665 96.01066666666665 90.27266666666665 92.66666666666666 86.92933333333333 99.10733333333333 86.92933333333333 106.77199999999999 90.27266666666665 113.21266666666665 83.832 109.86933333333333 76.16799999999999 109.86933333333333 69.72733333333332 113.21266666666665 73.07066666666665 106.77199999999999 73.07066666666665 99.10733333333333 69.72733333333332 92.66666666666666Z" class="hierarchical-1:primary "/><path d="M23.0604 70C29.50093333333333 73.344 37.165733333333336 73.344 43.60626666666667 70 40.2628 76.44066666666666 40.2628 84.10533333333333 43.60626666666667 90.54599999999999 37.16566666666667 87.20266666666666 29.500999999999998 87.20266666666666 23.0604 90.54599999999999 26.403866666666666 84.10533333333333 26.403866666666666 76.44066666666666 23.0604 70Z" class="hierarchical-1:primary "/><path d="M93.06066666666666 92.66666666666666C99.50066666666666 96.01066666666665 107.166 96.01066666666665 113.606 92.66666666666666 110.26266666666666 99.10733333333333 110.26266666666666 106.77199999999999 113.606 113.21266666666665 107.16533333333332 109.86933333333333 99.50133333333333 109.86933333333333 93.06066666666666 113.21266666666665 96.404 106.77199999999999 96.404 99.10733333333333 93.06066666666666 92.66666666666666Z" class="hierarchical-1:primary "/><path d="M69.72733333333332 70C76.16733333333333 73.344 83.83266666666665 73.344 90.27266666666665 70 86.92933333333333 76.44066666666666 86.92933333333333 84.10533333333333 90.27266666666665 90.54599999999999 83.832 87.20266666666666 76.16799999999999 87.20266666666666 69.72733333333332 90.54599999999999 73.07066666666665 84.10533333333333 73.07066666666665 76.44066666666666 69.72733333333332 70Z" class="hierarchical-1:primary "/><path d="M93.06066666666666 70C99.50066666666666 73.344 107.166 73.344 113.606 70 110.26266666666666 76.44066666666666 110.26266666666666 84.10533333333333 113.606 90.54599999999999 107.16533333333332 87.20266666666666 99.50133333333333 87.20266666666666 93.06066666666666 90.54599999999999 96.404 84.10533333333333 96.404 76.44066666666666 93.06066666666666 70Z" class="hierarchical-1:primary "/><path d="M116.394 70C122.834 73.344 130.4993333333333 73.344 136.9393333333333 70 133.596 76.44066666666666 133.596 84.10533333333333 136.9393333333333 90.54599999999999 130.49866666666665 87.20266666666666 122.83466666666666 87.20266666666666 116.394 90.54599999999999 119.73733333333332 84.10533333333333 119.73733333333332 76.44066666666666 116.394 70Z" class="hierarchical-1:primary "/><path d="M116.394 116C122.834 119.344 130.4993333333333 119.344 136.9393333333333 116 133.596 122.44066666666666 133.596 130.1053333333333 136.9393333333333 136.546 130.49866666666665 133.20266666666666 122.83466666666666 133.20266666666666 116.394 136.546 119.73733333333332 130.1053333333333 119.73733333333332 122.44066666666666 116.394 116Z" class="hierarchical-1:primary "/><path d="M69.72733333333332 116C76.16733333333333 119.344 83.83266666666665 119.344 90.27266666666665 116 86.92933333333333 122.44066666666666 86.92933333333333 130.1053333333333 90.27266666666665 136.546 83.832 133.20266666666666 76.16799999999999 133.20266666666666 69.72733333333332 136.546 73.07066666666665 130.1053333333333 73.07066666666665 122.44066666666666 69.72733333333332 116Z" class="hierarchical-1:primary "/><path d="M93.06066666666666 46.666666666666664C99.50066666666666 50.010333333333335 107.166 50.010333333333335 113.606 46.666666666666664 110.26266666666666 53.10719999999999 110.26266666666666 60.77193333333333 113.606 67.21266666666666 107.16533333333332 63.86926666666666 99.50133333333333 63.86926666666666 93.06066666666666 67.21266666666666 96.404 60.77193333333333 96.404 53.10719999999999 93.06066666666666 46.666666666666664Z" class="hierarchical-1:primary "/><path d="M93.06066666666666 23.333333333333332C99.50066666666666 26.677 107.166 26.677 113.606 23.333333333333332 110.26266666666666 29.773866666666667 110.26266666666666 37.438599999999994 113.606 43.879133333333336 107.16533333333332 40.53593333333333 99.50133333333333 40.53593333333333 93.06066666666666 43.879133333333336 96.404 37.438599999999994 96.404 29.773866666666667 93.06066666666666 23.333333333333332Z" class="hierarchical-1:primary "/><path d="M69.72733333333332 23.333333333333332C76.16733333333333 26.677 83.83266666666665 26.677 90.27266666666665 23.333333333333332 86.92933333333333 29.773866666666667 86.92933333333333 37.438599999999994 90.27266666666665 43.879133333333336 83.832 40.53593333333333 76.16799999999999 40.53593333333333 69.72733333333332 43.879133333333336 73.07066666666665 37.438599999999994 73.07066666666665 29.773866666666667 69.72733333333332 23.333333333333332Z" class="hierarchical-1:primary "/></g>
  <g id="Ultralight-L" transform="matrix(1,0,0,1,479.711,1440.77)">

  <path d="M23.0604 92.66666666666666C29.50093333333333 96.01066666666665 37.165733333333336 96.01066666666665 43.60626666666667 92.66666666666666 40.2628 99.10733333333333 40.2628 106.77199999999999 43.60626666666667 113.21266666666665 37.16566666666667 109.86933333333333 29.500999999999998 109.86933333333333 23.0604 113.21266666666665 26.403866666666666 106.77199999999999 26.403866666666666 99.10733333333333 23.0604 92.66666666666666Z" class="hierarchical-1:primary "/><path d="M46.39373333333333 92.66666666666666C52.834266666666664 96.01066666666665 60.499066666666664 96.01066666666665 66.93933333333334 92.66666666666666 63.59613333333333 99.10733333333333 63.59613333333333 106.77199999999999 66.93933333333334 113.21266666666665 60.49893333333333 109.86933333333333 52.834333333333326 109.86933333333333 46.39373333333333 113.21266666666665 49.7372 106.77199999999999 49.7372 99.10733333333333 46.39373333333333 92.66666666666666Z" class="hierarchical-1:primary "/><path d="M69.72733333333332 92.66666666666666C76.16733333333333 96.01066666666665 83.83266666666665 96.01066666666665 90.27266666666665 92.66666666666666 86.92933333333333 99.10733333333333 86.92933333333333 106.77199999999999 90.27266666666665 113.21266666666665 83.832 109.86933333333333 76.16799999999999 109.86933333333333 69.72733333333332 113.21266666666665 73.07066666666665 106.77199999999999 73.07066666666665 99.10733333333333 69.72733333333332 92.66666666666666Z" class="hierarchical-1:primary "/><path d="M23.0604 70C29.50093333333333 73.344 37.165733333333336 73.344 43.60626666666667 70 40.2628 76.44066666666666 40.2628 84.10533333333333 43.60626666666667 90.54599999999999 37.16566666666667 87.20266666666666 29.500999999999998 87.20266666666666 23.0604 90.54599999999999 26.403866666666666 84.10533333333333 26.403866666666666 76.44066666666666 23.0604 70Z" class="hierarchical-1:primary "/><path d="M93.06066666666666 92.66666666666666C99.50066666666666 96.01066666666665 107.166 96.01066666666665 113.606 92.66666666666666 110.26266666666666 99.10733333333333 110.26266666666666 106.77199999999999 113.606 113.21266666666665 107.16533333333332 109.86933333333333 99.50133333333333 109.86933333333333 93.06066666666666 113.21266666666665 96.404 106.77199999999999 96.404 99.10733333333333 93.06066666666666 92.66666666666666Z" class="hierarchical-1:primary "/><path d="M69.72733333333332 70C76.16733333333333 73.344 83.83266666666665 73.344 90.27266666666665 70 86.92933333333333 76.44066666666666 86.92933333333333 84.10533333333333 90.27266666666665 90.54599999999999 83.832 87.20266666666666 76.16799999999999 87.20266666666666 69.72733333333332 90.54599999999999 73.07066666666665 84.10533333333333 73.07066666666665 76.44066666666666 69.72733333333332 70Z" class="hierarchical-1:primary "/><path d="M93.06066666666666 70C99.50066666666666 73.344 107.166 73.344 113.606 70 110.26266666666666 76.44066666666666 110.26266666666666 84.10533333333333 113.606 90.54599999999999 107.16533333333332 87.20266666666666 99.50133333333333 87.20266666666666 93.06066666666666 90.54599999999999 96.404 84.10533333333333 96.404 76.44066666666666 93.06066666666666 70Z" class="hierarchical-1:primary "/><path d="M116.394 70C122.834 73.344 130.4993333333333 73.344 136.9393333333333 70 133.596 76.44066666666666 133.596 84.10533333333333 136.9393333333333 90.54599999999999 130.49866666666665 87.20266666666666 122.83466666666666 87.20266666666666 116.394 90.54599999999999 119.73733333333332 84.10533333333333 119.73733333333332 76.44066666666666 116.394 70Z" class="hierarchical-1:primary "/><path d="M116.394 116C122.834 119.344 130.4993333333333 119.344 136.9393333333333 116 133.596 122.44066666666666 133.596 130.1053333333333 136.9393333333333 136.546 130.49866666666665 133.20266666666666 122.83466666666666 133.20266666666666 116.394 136.546 119.73733333333332 130.1053333333333 119.73733333333332 122.44066666666666 116.394 116Z" class="hierarchical-1:primary "/><path d="M69.72733333333332 116C76.16733333333333 119.344 83.83266666666665 119.344 90.27266666666665 116 86.92933333333333 122.44066666666666 86.92933333333333 130.1053333333333 90.27266666666665 136.546 83.832 133.20266666666666 76.16799999999999 133.20266666666666 69.72733333333332 136.546 73.07066666666665 130.1053333333333 73.07066666666665 122.44066666666666 69.72733333333332 116Z" class="hierarchical-1:primary "/><path d="M93.06066666666666 46.666666666666664C99.50066666666666 50.010333333333335 107.166 50.010333333333335 113.606 46.666666666666664 110.26266666666666 53.10719999999999 110.26266666666666 60.77193333333333 113.606 67.21266666666666 107.16533333333332 63.86926666666666 99.50133333333333 63.86926666666666 93.06066666666666 67.21266666666666 96.404 60.77193333333333 96.404 53.10719999999999 93.06066666666666 46.666666666666664Z" class="hierarchical-1:primary "/><path d="M93.06066666666666 23.333333333333332C99.50066666666666 26.677 107.166 26.677 113.606 23.333333333333332 110.26266666666666 29.773866666666667 110.26266666666666 37.438599999999994 113.606 43.879133333333336 107.16533333333332 40.53593333333333 99.50133333333333 40.53593333333333 93.06066666666666 43.879133333333336 96.404 37.438599999999994 96.404 29.773866666666667 93.06066666666666 23.333333333333332Z" class="hierarchical-1:primary "/><path d="M69.72733333333332 23.333333333333332C76.16733333333333 26.677 83.83266666666665 26.677 90.27266666666665 23.333333333333332 86.92933333333333 29.773866666666667 86.92933333333333 37.438599999999994 90.27266666666665 43.879133333333336 83.832 40.53593333333333 76.16799999999999 40.53593333333333 69.72733333333332 43.879133333333336 73.07066666666665 37.438599999999994 73.07066666666665 29.773866666666667 69.72733333333332 23.333333333333332Z" class="hierarchical-1:primary "/></g>
  <g id="Black-M" transform="matrix(1,0,0,1,2869.3999999999996,1026.77)">

  <path d="M18.448320000000002 74.13333333333333C23.600746666666666 76.80853333333333 29.732586666666666 76.80853333333333 34.88501333333333 74.13333333333333 32.21024 79.28586666666666 32.21024 85.4176 34.88501333333333 90.57013333333333 29.732533333333333 87.89546666666666 23.6008 87.89546666666666 18.448320000000002 90.57013333333333 21.123093333333333 85.4176 21.123093333333333 79.28586666666666 18.448320000000002 74.13333333333333Z" class="hierarchical-1:primary "/><path d="M37.11498666666667 74.13333333333333C42.26741333333334 76.80853333333333 48.399253333333334 76.80853333333333 53.55146666666667 74.13333333333333 50.87690666666666 79.28586666666666 50.87690666666666 85.4176 53.55146666666667 90.57013333333333 48.39914666666667 87.89546666666666 42.267466666666664 87.89546666666666 37.11498666666667 90.57013333333333 39.78976 85.4176 39.78976 79.28586666666666 37.11498666666667 74.13333333333333Z" class="hierarchical-1:primary "/><path d="M55.781866666666666 74.13333333333333C60.93386666666667 76.80853333333333 67.06613333333333 76.80853333333333 72.21813333333333 74.13333333333333 69.54346666666667 79.28586666666666 69.54346666666667 85.4176 72.21813333333333 90.57013333333333 67.0656 87.89546666666666 60.9344 87.89546666666666 55.781866666666666 90.57013333333333 58.45653333333333 85.4176 58.45653333333333 79.28586666666666 55.781866666666666 74.13333333333333Z" class="hierarchical-1:primary "/><path d="M18.448320000000002 56C23.600746666666666 58.675200000000004 29.732586666666666 58.675200000000004 34.88501333333333 56 32.21024 61.15253333333333 32.21024 67.28426666666667 34.88501333333333 72.43679999999999 29.732533333333333 69.76213333333334 23.6008 69.76213333333334 18.448320000000002 72.43679999999999 21.123093333333333 67.28426666666667 21.123093333333333 61.15253333333333 18.448320000000002 56Z" class="hierarchical-1:primary "/><path d="M74.44853333333333 74.13333333333333C79.60053333333333 76.80853333333333 85.7328 76.80853333333333 90.8848 74.13333333333333 88.21013333333333 79.28586666666666 88.21013333333333 85.4176 90.8848 90.57013333333333 85.73226666666666 87.89546666666666 79.60106666666667 87.89546666666666 74.44853333333333 90.57013333333333 77.1232 85.4176 77.1232 79.28586666666666 74.44853333333333 74.13333333333333Z" class="hierarchical-1:primary "/><path d="M55.781866666666666 56C60.93386666666667 58.675200000000004 67.06613333333333 58.675200000000004 72.21813333333333 56 69.54346666666667 61.15253333333333 69.54346666666667 67.28426666666667 72.21813333333333 72.43679999999999 67.0656 69.76213333333334 60.9344 69.76213333333334 55.781866666666666 72.43679999999999 58.45653333333333 67.28426666666667 58.45653333333333 61.15253333333333 55.781866666666666 56Z" class="hierarchical-1:primary "/><path d="M74.44853333333333 56C79.60053333333333 58.675200000000004 85.7328 58.675200000000004 90.8848 56 88.21013333333333 61.15253333333333 88.21013333333333 67.28426666666667 90.8848 72.43679999999999 85.73226666666666 69.76213333333334 79.60106666666667 69.76213333333334 74.44853333333333 72.43679999999999 77.1232 67.28426666666667 77.1232 61.15253333333333 74.44853333333333 56Z" class="hierarchical-1:primary "/><path d="M93.1152 56C98.2672 58.675200000000004 104.39946666666667 58.675200000000004 109.55146666666666 56 106.8768 61.15253333333333 106.8768 67.28426666666667 109.55146666666666 72.43679999999999 104.39893333333333 69.76213333333334 98.26773333333334 69.76213333333334 93.1152 72.43679999999999 95.78986666666667 67.28426666666667 95.78986666666667 61.15253333333333 93.1152 56Z" class="hierarchical-1:primary "/><path d="M93.1152 92.8C98.2672 95.4752 104.39946666666667 95.4752 109.55146666666666 92.8 106.8768 97.95253333333334 106.8768 104.08426666666666 109.55146666666666 109.23679999999999 104.39893333333333 106.56213333333334 98.26773333333334 106.56213333333334 93.1152 109.23679999999999 95.78986666666667 104.08426666666666 95.78986666666667 97.95253333333334 93.1152 92.8Z" class="hierarchical-1:primary "/><path d="M55.781866666666666 92.8C60.93386666666667 95.4752 67.06613333333333 95.4752 72.21813333333333 92.8 69.54346666666667 97.95253333333334 69.54346666666667 104.08426666666666 72.21813333333333 109.23679999999999 67.0656 106.56213333333334 60.9344 106.56213333333334 55.781866666666666 109.23679999999999 58.45653333333333 104.08426666666666 58.45653333333333 97.95253333333334 55.781866666666666 92.8Z" class="hierarchical-1:primary "/><path d="M74.44853333333333 37.333333333333336C79.60053333333333 40.00826666666667 85.7328 40.00826666666667 90.8848 37.333333333333336 88.21013333333333 42.48576 88.21013333333333 48.61754666666666 90.8848 53.770133333333334 85.73226666666666 51.09541333333333 79.60106666666667 51.09541333333333 74.44853333333333 53.770133333333334 77.1232 48.61754666666666 77.1232 42.48576 74.44853333333333 37.333333333333336Z" class="hierarchical-1:primary "/><path d="M74.44853333333333 18.666666666666668C79.60053333333333 21.3416 85.7328 21.3416 90.8848 18.666666666666668 88.21013333333333 23.819093333333335 88.21013333333333 29.950879999999998 90.8848 35.10330666666667 85.73226666666666 32.42874666666667 79.60106666666667 32.42874666666667 74.44853333333333 35.10330666666667 77.1232 29.950879999999998 77.1232 23.819093333333335 74.44853333333333 18.666666666666668Z" class="hierarchical-1:primary "/><path d="M55.781866666666666 18.666666666666668C60.93386666666667 21.3416 67.06613333333333 21.3416 72.21813333333333 18.666666666666668 69.54346666666667 23.819093333333335 69.54346666666667 29.950879999999998 72.21813333333333 35.10330666666667 67.0656 32.42874666666667 60.9344 32.42874666666667 55.781866666666666 35.10330666666667 58.45653333333333 29.950879999999998 58.45653333333333 23.819093333333335 55.781866666666666 18.666666666666668Z" class="hierarchical-1:primary "/></g>
  <g id="Regular-M" transform="matrix(1,0,0,1,1385.845,1026.77)">

  <path d="M18.448320000000002 74.13333333333333C23.600746666666666 76.80853333333333 29.732586666666666 76.80853333333333 34.88501333333333 74.13333333333333 32.21024 79.28586666666666 32.21024 85.4176 34.88501333333333 90.57013333333333 29.732533333333333 87.89546666666666 23.6008 87.89546666666666 18.448320000000002 90.57013333333333 21.123093333333333 85.4176 21.123093333333333 79.28586666666666 18.448320000000002 74.13333333333333Z" class="hierarchical-1:primary "/><path d="M37.11498666666667 74.13333333333333C42.26741333333334 76.80853333333333 48.399253333333334 76.80853333333333 53.55146666666667 74.13333333333333 50.87690666666666 79.28586666666666 50.87690666666666 85.4176 53.55146666666667 90.57013333333333 48.39914666666667 87.89546666666666 42.267466666666664 87.89546666666666 37.11498666666667 90.57013333333333 39.78976 85.4176 39.78976 79.28586666666666 37.11498666666667 74.13333333333333Z" class="hierarchical-1:primary "/><path d="M55.781866666666666 74.13333333333333C60.93386666666667 76.80853333333333 67.06613333333333 76.80853333333333 72.21813333333333 74.13333333333333 69.54346666666667 79.28586666666666 69.54346666666667 85.4176 72.21813333333333 90.57013333333333 67.0656 87.89546666666666 60.9344 87.89546666666666 55.781866666666666 90.57013333333333 58.45653333333333 85.4176 58.45653333333333 79.28586666666666 55.781866666666666 74.13333333333333Z" class="hierarchical-1:primary "/><path d="M18.448320000000002 56C23.600746666666666 58.675200000000004 29.732586666666666 58.675200000000004 34.88501333333333 56 32.21024 61.15253333333333 32.21024 67.28426666666667 34.88501333333333 72.43679999999999 29.732533333333333 69.76213333333334 23.6008 69.76213333333334 18.448320000000002 72.43679999999999 21.123093333333333 67.28426666666667 21.123093333333333 61.15253333333333 18.448320000000002 56Z" class="hierarchical-1:primary "/><path d="M74.44853333333333 74.13333333333333C79.60053333333333 76.80853333333333 85.7328 76.80853333333333 90.8848 74.13333333333333 88.21013333333333 79.28586666666666 88.21013333333333 85.4176 90.8848 90.57013333333333 85.73226666666666 87.89546666666666 79.60106666666667 87.89546666666666 74.44853333333333 90.57013333333333 77.1232 85.4176 77.1232 79.28586666666666 74.44853333333333 74.13333333333333Z" class="hierarchical-1:primary "/><path d="M55.781866666666666 56C60.93386666666667 58.675200000000004 67.06613333333333 58.675200000000004 72.21813333333333 56 69.54346666666667 61.15253333333333 69.54346666666667 67.28426666666667 72.21813333333333 72.43679999999999 67.0656 69.76213333333334 60.9344 69.76213333333334 55.781866666666666 72.43679999999999 58.45653333333333 67.28426666666667 58.45653333333333 61.15253333333333 55.781866666666666 56Z" class="hierarchical-1:primary "/><path d="M74.44853333333333 56C79.60053333333333 58.675200000000004 85.7328 58.675200000000004 90.8848 56 88.21013333333333 61.15253333333333 88.21013333333333 67.28426666666667 90.8848 72.43679999999999 85.73226666666666 69.76213333333334 79.60106666666667 69.76213333333334 74.44853333333333 72.43679999999999 77.1232 67.28426666666667 77.1232 61.15253333333333 74.44853333333333 56Z" class="hierarchical-1:primary "/><path d="M93.1152 56C98.2672 58.675200000000004 104.39946666666667 58.675200000000004 109.55146666666666 56 106.8768 61.15253333333333 106.8768 67.28426666666667 109.55146666666666 72.43679999999999 104.39893333333333 69.76213333333334 98.26773333333334 69.76213333333334 93.1152 72.43679999999999 95.78986666666667 67.28426666666667 95.78986666666667 61.15253333333333 93.1152 56Z" class="hierarchical-1:primary "/><path d="M93.1152 92.8C98.2672 95.4752 104.39946666666667 95.4752 109.55146666666666 92.8 106.8768 97.95253333333334 106.8768 104.08426666666666 109.55146666666666 109.23679999999999 104.39893333333333 106.56213333333334 98.26773333333334 106.56213333333334 93.1152 109.23679999999999 95.78986666666667 104.08426666666666 95.78986666666667 97.95253333333334 93.1152 92.8Z" class="hierarchical-1:primary "/><path d="M55.781866666666666 92.8C60.93386666666667 95.4752 67.06613333333333 95.4752 72.21813333333333 92.8 69.54346666666667 97.95253333333334 69.54346666666667 104.08426666666666 72.21813333333333 109.23679999999999 67.0656 106.56213333333334 60.9344 106.56213333333334 55.781866666666666 109.23679999999999 58.45653333333333 104.08426666666666 58.45653333333333 97.95253333333334 55.781866666666666 92.8Z" class="hierarchical-1:primary "/><path d="M74.44853333333333 37.333333333333336C79.60053333333333 40.00826666666667 85.7328 40.00826666666667 90.8848 37.333333333333336 88.21013333333333 42.48576 88.21013333333333 48.61754666666666 90.8848 53.770133333333334 85.73226666666666 51.09541333333333 79.60106666666667 51.09541333333333 74.44853333333333 53.770133333333334 77.1232 48.61754666666666 77.1232 42.48576 74.44853333333333 37.333333333333336Z" class="hierarchical-1:primary "/><path d="M74.44853333333333 18.666666666666668C79.60053333333333 21.3416 85.7328 21.3416 90.8848 18.666666666666668 88.21013333333333 23.819093333333335 88.21013333333333 29.950879999999998 90.8848 35.10330666666667 85.73226666666666 32.42874666666667 79.60106666666667 32.42874666666667 74.44853333333333 35.10330666666667 77.1232 29.950879999999998 77.1232 23.819093333333335 74.44853333333333 18.666666666666668Z" class="hierarchical-1:primary "/><path d="M55.781866666666666 18.666666666666668C60.93386666666667 21.3416 67.06613333333333 21.3416 72.21813333333333 18.666666666666668 69.54346666666667 23.819093333333335 69.54346666666667 29.950879999999998 72.21813333333333 35.10330666666667 67.0656 32.42874666666667 60.9344 32.42874666666667 55.781866666666666 35.10330666666667 58.45653333333333 29.950879999999998 58.45653333333333 23.819093333333335 55.781866666666666 18.666666666666668Z" class="hierarchical-1:primary "/></g>
  <g id="Ultralight-M" transform="matrix(1,0,0,1,495.711,1026.77)">

  <path d="M18.448320000000002 74.13333333333333C23.600746666666666 76.80853333333333 29.732586666666666 76.80853333333333 34.88501333333333 74.13333333333333 32.21024 79.28586666666666 32.21024 85.4176 34.88501333333333 90.57013333333333 29.732533333333333 87.89546666666666 23.6008 87.89546666666666 18.448320000000002 90.57013333333333 21.123093333333333 85.4176 21.123093333333333 79.28586666666666 18.448320000000002 74.13333333333333Z" class="hierarchical-1:primary "/><path d="M37.11498666666667 74.13333333333333C42.26741333333334 76.80853333333333 48.399253333333334 76.80853333333333 53.55146666666667 74.13333333333333 50.87690666666666 79.28586666666666 50.87690666666666 85.4176 53.55146666666667 90.57013333333333 48.39914666666667 87.89546666666666 42.267466666666664 87.89546666666666 37.11498666666667 90.57013333333333 39.78976 85.4176 39.78976 79.28586666666666 37.11498666666667 74.13333333333333Z" class="hierarchical-1:primary "/><path d="M55.781866666666666 74.13333333333333C60.93386666666667 76.80853333333333 67.06613333333333 76.80853333333333 72.21813333333333 74.13333333333333 69.54346666666667 79.28586666666666 69.54346666666667 85.4176 72.21813333333333 90.57013333333333 67.0656 87.89546666666666 60.9344 87.89546666666666 55.781866666666666 90.57013333333333 58.45653333333333 85.4176 58.45653333333333 79.28586666666666 55.781866666666666 74.13333333333333Z" class="hierarchical-1:primary "/><path d="M18.448320000000002 56C23.600746666666666 58.675200000000004 29.732586666666666 58.675200000000004 34.88501333333333 56 32.21024 61.15253333333333 32.21024 67.28426666666667 34.88501333333333 72.43679999999999 29.732533333333333 69.76213333333334 23.6008 69.76213333333334 18.448320000000002 72.43679999999999 21.123093333333333 67.28426666666667 21.123093333333333 61.15253333333333 18.448320000000002 56Z" class="hierarchical-1:primary "/><path d="M74.44853333333333 74.13333333333333C79.60053333333333 76.80853333333333 85.7328 76.80853333333333 90.8848 74.13333333333333 88.21013333333333 79.28586666666666 88.21013333333333 85.4176 90.8848 90.57013333333333 85.73226666666666 87.89546666666666 79.60106666666667 87.89546666666666 74.44853333333333 90.57013333333333 77.1232 85.4176 77.1232 79.28586666666666 74.44853333333333 74.13333333333333Z" class="hierarchical-1:primary "/><path d="M55.781866666666666 56C60.93386666666667 58.675200000000004 67.06613333333333 58.675200000000004 72.21813333333333 56 69.54346666666667 61.15253333333333 69.54346666666667 67.28426666666667 72.21813333333333 72.43679999999999 67.0656 69.76213333333334 60.9344 69.76213333333334 55.781866666666666 72.43679999999999 58.45653333333333 67.28426666666667 58.45653333333333 61.15253333333333 55.781866666666666 56Z" class="hierarchical-1:primary "/><path d="M74.44853333333333 56C79.60053333333333 58.675200000000004 85.7328 58.675200000000004 90.8848 56 88.21013333333333 61.15253333333333 88.21013333333333 67.28426666666667 90.8848 72.43679999999999 85.73226666666666 69.76213333333334 79.60106666666667 69.76213333333334 74.44853333333333 72.43679999999999 77.1232 67.28426666666667 77.1232 61.15253333333333 74.44853333333333 56Z" class="hierarchical-1:primary "/><path d="M93.1152 56C98.2672 58.675200000000004 104.39946666666667 58.675200000000004 109.55146666666666 56 106.8768 61.15253333333333 106.8768 67.28426666666667 109.55146666666666 72.43679999999999 104.39893333333333 69.76213333333334 98.26773333333334 69.76213333333334 93.1152 72.43679999999999 95.78986666666667 67.28426666666667 95.78986666666667 61.15253333333333 93.1152 56Z" class="hierarchical-1:primary "/><path d="M93.1152 92.8C98.2672 95.4752 104.39946666666667 95.4752 109.55146666666666 92.8 106.8768 97.95253333333334 106.8768 104.08426666666666 109.55146666666666 109.23679999999999 104.39893333333333 106.56213333333334 98.26773333333334 106.56213333333334 93.1152 109.23679999999999 95.78986666666667 104.08426666666666 95.78986666666667 97.95253333333334 93.1152 92.8Z" class="hierarchical-1:primary "/><path d="M55.781866666666666 92.8C60.93386666666667 95.4752 67.06613333333333 95.4752 72.21813333333333 92.8 69.54346666666667 97.95253333333334 69.54346666666667 104.08426666666666 72.21813333333333 109.23679999999999 67.0656 106.56213333333334 60.9344 106.56213333333334 55.781866666666666 109.23679999999999 58.45653333333333 104.08426666666666 58.45653333333333 97.95253333333334 55.781866666666666 92.8Z" class="hierarchical-1:primary "/><path d="M74.44853333333333 37.333333333333336C79.60053333333333 40.00826666666667 85.7328 40.00826666666667 90.8848 37.333333333333336 88.21013333333333 42.48576 88.21013333333333 48.61754666666666 90.8848 53.770133333333334 85.73226666666666 51.09541333333333 79.60106666666667 51.09541333333333 74.44853333333333 53.770133333333334 77.1232 48.61754666666666 77.1232 42.48576 74.44853333333333 37.333333333333336Z" class="hierarchical-1:primary "/><path d="M74.44853333333333 18.666666666666668C79.60053333333333 21.3416 85.7328 21.3416 90.8848 18.666666666666668 88.21013333333333 23.819093333333335 88.21013333333333 29.950879999999998 90.8848 35.10330666666667 85.73226666666666 32.42874666666667 79.60106666666667 32.42874666666667 74.44853333333333 35.10330666666667 77.1232 29.950879999999998 77.1232 23.819093333333335 74.44853333333333 18.666666666666668Z" class="hierarchical-1:primary "/><path d="M55.781866666666666 18.666666666666668C60.93386666666667 21.3416 67.06613333333333 21.3416 72.21813333333333 18.666666666666668 69.54346666666667 23.819093333333335 69.54346666666667 29.950879999999998 72.21813333333333 35.10330666666667 67.0656 32.42874666666667 60.9344 32.42874666666667 55.781866666666666 35.10330666666667 58.45653333333333 29.950879999999998 58.45653333333333 23.819093333333335 55.781866666666666 18.666666666666668Z" class="hierarchical-1:primary "/></g>
  <g id="Black-S" transform="matrix(1,0,0,1,2885.3999999999996,612.7705000000001)">

  <path d="M13.836240000000002 55.6C17.70056 57.6064 22.299440000000004 57.6064 26.163760000000003 55.6 24.15768 59.464400000000005 24.15768 64.0632 26.163760000000003 67.9276 22.299400000000002 65.9216 17.7006 65.9216 13.836240000000002 67.9276 15.84232 64.0632 15.84232 59.464400000000005 13.836240000000002 55.6Z" class="hierarchical-1:primary "/><path d="M27.83624 55.6C31.700560000000003 57.6064 36.29944 57.6064 40.1636 55.6 38.15768 59.464400000000005 38.15768 64.0632 40.1636 67.9276 36.29936 65.9216 31.700599999999998 65.9216 27.83624 67.9276 29.84232 64.0632 29.84232 59.464400000000005 27.83624 55.6Z" class="hierarchical-1:primary "/><path d="M41.8364 55.6C45.7004 57.6064 50.2996 57.6064 54.1636 55.6 52.1576 59.464400000000005 52.1576 64.0632 54.1636 67.9276 50.299200000000006 65.9216 45.7008 65.9216 41.8364 67.9276 43.8424 64.0632 43.8424 59.464400000000005 41.8364 55.6Z" class="hierarchical-1:primary "/><path d="M13.836240000000002 42C17.70056 44.006400000000006 22.299440000000004 44.006400000000006 26.163760000000003 42 24.15768 45.8644 24.15768 50.4632 26.163760000000003 54.3276 22.299400000000002 52.321600000000004 17.7006 52.321600000000004 13.836240000000002 54.3276 15.84232 50.4632 15.84232 45.8644 13.836240000000002 42Z" class="hierarchical-1:primary "/><path d="M55.836400000000005 55.6C59.7004 57.6064 64.2996 57.6064 68.1636 55.6 66.1576 59.464400000000005 66.1576 64.0632 68.1636 67.9276 64.2992 65.9216 59.70080000000001 65.9216 55.836400000000005 67.9276 57.8424 64.0632 57.8424 59.464400000000005 55.836400000000005 55.6Z" class="hierarchical-1:primary "/><path d="M41.8364 42C45.7004 44.006400000000006 50.2996 44.006400000000006 54.1636 42 52.1576 45.8644 52.1576 50.4632 54.1636 54.3276 50.299200000000006 52.321600000000004 45.7008 52.321600000000004 41.8364 54.3276 43.8424 50.4632 43.8424 45.8644 41.8364 42Z" class="hierarchical-1:primary "/><path d="M55.836400000000005 42C59.7004 44.006400000000006 64.2996 44.006400000000006 68.1636 42 66.1576 45.8644 66.1576 50.4632 68.1636 54.3276 64.2992 52.321600000000004 59.70080000000001 52.321600000000004 55.836400000000005 54.3276 57.8424 50.4632 57.8424 45.8644 55.836400000000005 42Z" class="hierarchical-1:primary "/><path d="M69.83640000000001 42C73.7004 44.006400000000006 78.2996 44.006400000000006 82.1636 42 80.1576 45.8644 80.1576 50.4632 82.1636 54.3276 78.2992 52.321600000000004 73.7008 52.321600000000004 69.83640000000001 54.3276 71.8424 50.4632 71.8424 45.8644 69.83640000000001 42Z" class="hierarchical-1:primary "/><path d="M69.83640000000001 69.60000000000001C73.7004 71.6064 78.2996 71.6064 82.1636 69.60000000000001 80.1576 73.4644 80.1576 78.0632 82.1636 81.9276 78.2992 79.92160000000001 73.7008 79.92160000000001 69.83640000000001 81.9276 71.8424 78.0632 71.8424 73.4644 69.83640000000001 69.60000000000001Z" class="hierarchical-1:primary "/><path d="M41.8364 69.60000000000001C45.7004 71.6064 50.2996 71.6064 54.1636 69.60000000000001 52.1576 73.4644 52.1576 78.0632 54.1636 81.9276 50.299200000000006 79.92160000000001 45.7008 79.92160000000001 41.8364 81.9276 43.8424 78.0632 43.8424 73.4644 41.8364 69.60000000000001Z" class="hierarchical-1:primary "/><path d="M55.836400000000005 28C59.7004 30.006200000000003 64.2996 30.006200000000003 68.1636 28 66.1576 31.86432 66.1576 36.46316 68.1636 40.327600000000004 64.2992 38.32156 59.70080000000001 38.32156 55.836400000000005 40.327600000000004 57.8424 36.46316 57.8424 31.86432 55.836400000000005 28Z" class="hierarchical-1:primary "/><path d="M55.836400000000005 14C59.7004 16.006200000000003 64.2996 16.006200000000003 68.1636 14 66.1576 17.864320000000003 66.1576 22.463160000000002 68.1636 26.327480000000005 64.2992 24.32156 59.70080000000001 24.32156 55.836400000000005 26.327480000000005 57.8424 22.463160000000002 57.8424 17.864320000000003 55.836400000000005 14Z" class="hierarchical-1:primary "/><path d="M41.8364 14C45.7004 16.006200000000003 50.2996 16.006200000000003 54.1636 14 52.1576 17.864320000000003 52.1576 22.463160000000002 54.1636 26.327480000000005 50.299200000000006 24.32156 45.7008 24.32156 41.8364 26.327480000000005 43.8424 22.463160000000002 43.8424 17.864320000000003 41.8364 14Z" class="hierarchical-1:primary "/></g>
  <g id="Regular-S" transform="matrix(1,0,0,1,1401.845,612.7705000000001)">

  <path d="M13.836240000000002 55.6C17.70056 57.6064 22.299440000000004 57.6064 26.163760000000003 55.6 24.15768 59.464400000000005 24.15768 64.0632 26.163760000000003 67.9276 22.299400000000002 65.9216 17.7006 65.9216 13.836240000000002 67.9276 15.84232 64.0632 15.84232 59.464400000000005 13.836240000000002 55.6Z" class="hierarchical-1:primary "/><path d="M27.83624 55.6C31.700560000000003 57.6064 36.29944 57.6064 40.1636 55.6 38.15768 59.464400000000005 38.15768 64.0632 40.1636 67.9276 36.29936 65.9216 31.700599999999998 65.9216 27.83624 67.9276 29.84232 64.0632 29.84232 59.464400000000005 27.83624 55.6Z" class="hierarchical-1:primary "/><path d="M41.8364 55.6C45.7004 57.6064 50.2996 57.6064 54.1636 55.6 52.1576 59.464400000000005 52.1576 64.0632 54.1636 67.9276 50.299200000000006 65.9216 45.7008 65.9216 41.8364 67.9276 43.8424 64.0632 43.8424 59.464400000000005 41.8364 55.6Z" class="hierarchical-1:primary "/><path d="M13.836240000000002 42C17.70056 44.006400000000006 22.299440000000004 44.006400000000006 26.163760000000003 42 24.15768 45.8644 24.15768 50.4632 26.163760000000003 54.3276 22.299400000000002 52.321600000000004 17.7006 52.321600000000004 13.836240000000002 54.3276 15.84232 50.4632 15.84232 45.8644 13.836240000000002 42Z" class="hierarchical-1:primary "/><path d="M55.836400000000005 55.6C59.7004 57.6064 64.2996 57.6064 68.1636 55.6 66.1576 59.464400000000005 66.1576 64.0632 68.1636 67.9276 64.2992 65.9216 59.70080000000001 65.9216 55.836400000000005 67.9276 57.8424 64.0632 57.8424 59.464400000000005 55.836400000000005 55.6Z" class="hierarchical-1:primary "/><path d="M41.8364 42C45.7004 44.006400000000006 50.2996 44.006400000000006 54.1636 42 52.1576 45.8644 52.1576 50.4632 54.1636 54.3276 50.299200000000006 52.321600000000004 45.7008 52.321600000000004 41.8364 54.3276 43.8424 50.4632 43.8424 45.8644 41.8364 42Z" class="hierarchical-1:primary "/><path d="M55.836400000000005 42C59.7004 44.006400000000006 64.2996 44.006400000000006 68.1636 42 66.1576 45.8644 66.1576 50.4632 68.1636 54.3276 64.2992 52.321600000000004 59.70080000000001 52.321600000000004 55.836400000000005 54.3276 57.8424 50.4632 57.8424 45.8644 55.836400000000005 42Z" class="hierarchical-1:primary "/><path d="M69.83640000000001 42C73.7004 44.006400000000006 78.2996 44.006400000000006 82.1636 42 80.1576 45.8644 80.1576 50.4632 82.1636 54.3276 78.2992 52.321600000000004 73.7008 52.321600000000004 69.83640000000001 54.3276 71.8424 50.4632 71.8424 45.8644 69.83640000000001 42Z" class="hierarchical-1:primary "/><path d="M69.83640000000001 69.60000000000001C73.7004 71.6064 78.2996 71.6064 82.1636 69.60000000000001 80.1576 73.4644 80.1576 78.0632 82.1636 81.9276 78.2992 79.92160000000001 73.7008 79.92160000000001 69.83640000000001 81.9276 71.8424 78.0632 71.8424 73.4644 69.83640000000001 69.60000000000001Z" class="hierarchical-1:primary "/><path d="M41.8364 69.60000000000001C45.7004 71.6064 50.2996 71.6064 54.1636 69.60000000000001 52.1576 73.4644 52.1576 78.0632 54.1636 81.9276 50.299200000000006 79.92160000000001 45.7008 79.92160000000001 41.8364 81.9276 43.8424 78.0632 43.8424 73.4644 41.8364 69.60000000000001Z" class="hierarchical-1:primary "/><path d="M55.836400000000005 28C59.7004 30.006200000000003 64.2996 30.006200000000003 68.1636 28 66.1576 31.86432 66.1576 36.46316 68.1636 40.327600000000004 64.2992 38.32156 59.70080000000001 38.32156 55.836400000000005 40.327600000000004 57.8424 36.46316 57.8424 31.86432 55.836400000000005 28Z" class="hierarchical-1:primary "/><path d="M55.836400000000005 14C59.7004 16.006200000000003 64.2996 16.006200000000003 68.1636 14 66.1576 17.864320000000003 66.1576 22.463160000000002 68.1636 26.327480000000005 64.2992 24.32156 59.70080000000001 24.32156 55.836400000000005 26.327480000000005 57.8424 22.463160000000002 57.8424 17.864320000000003 55.836400000000005 14Z" class="hierarchical-1:primary "/><path d="M41.8364 14C45.7004 16.006200000000003 50.2996 16.006200000000003 54.1636 14 52.1576 17.864320000000003 52.1576 22.463160000000002 54.1636 26.327480000000005 50.299200000000006 24.32156 45.7008 24.32156 41.8364 26.327480000000005 43.8424 22.463160000000002 43.8424 17.864320000000003 41.8364 14Z" class="hierarchical-1:primary "/></g>
  <g id="Ultralight-S" transform="matrix(1,0,0,1,511.711,612.7705000000001)">

  <path d="M13.836240000000002 55.6C17.70056 57.6064 22.299440000000004 57.6064 26.163760000000003 55.6 24.15768 59.464400000000005 24.15768 64.0632 26.163760000000003 67.9276 22.299400000000002 65.9216 17.7006 65.9216 13.836240000000002 67.9276 15.84232 64.0632 15.84232 59.464400000000005 13.836240000000002 55.6Z" class="hierarchical-1:primary "/><path d="M27.83624 55.6C31.700560000000003 57.6064 36.29944 57.6064 40.1636 55.6 38.15768 59.464400000000005 38.15768 64.0632 40.1636 67.9276 36.29936 65.9216 31.700599999999998 65.9216 27.83624 67.9276 29.84232 64.0632 29.84232 59.464400000000005 27.83624 55.6Z" class="hierarchical-1:primary "/><path d="M41.8364 55.6C45.7004 57.6064 50.2996 57.6064 54.1636 55.6 52.1576 59.464400000000005 52.1576 64.0632 54.1636 67.9276 50.299200000000006 65.9216 45.7008 65.9216 41.8364 67.9276 43.8424 64.0632 43.8424 59.464400000000005 41.8364 55.6Z" class="hierarchical-1:primary "/><path d="M13.836240000000002 42C17.70056 44.006400000000006 22.299440000000004 44.006400000000006 26.163760000000003 42 24.15768 45.8644 24.15768 50.4632 26.163760000000003 54.3276 22.299400000000002 52.321600000000004 17.7006 52.321600000000004 13.836240000000002 54.3276 15.84232 50.4632 15.84232 45.8644 13.836240000000002 42Z" class="hierarchical-1:primary "/><path d="M55.836400000000005 55.6C59.7004 57.6064 64.2996 57.6064 68.1636 55.6 66.1576 59.464400000000005 66.1576 64.0632 68.1636 67.9276 64.2992 65.9216 59.70080000000001 65.9216 55.836400000000005 67.9276 57.8424 64.0632 57.8424 59.464400000000005 55.836400000000005 55.6Z" class="hierarchical-1:primary "/><path d="M41.8364 42C45.7004 44.006400000000006 50.2996 44.006400000000006 54.1636 42 52.1576 45.8644 52.1576 50.4632 54.1636 54.3276 50.299200000000006 52.321600000000004 45.7008 52.321600000000004 41.8364 54.3276 43.8424 50.4632 43.8424 45.8644 41.8364 42Z" class="hierarchical-1:primary "/><path d="M55.836400000000005 42C59.7004 44.006400000000006 64.2996 44.006400000000006 68.1636 42 66.1576 45.8644 66.1576 50.4632 68.1636 54.3276 64.2992 52.321600000000004 59.70080000000001 52.321600000000004 55.836400000000005 54.3276 57.8424 50.4632 57.8424 45.8644 55.836400000000005 42Z" class="hierarchical-1:primary "/><path d="M69.83640000000001 42C73.7004 44.006400000000006 78.2996 44.006400000000006 82.1636 42 80.1576 45.8644 80.1576 50.4632 82.1636 54.3276 78.2992 52.321600000000004 73.7008 52.321600000000004 69.83640000000001 54.3276 71.8424 50.4632 71.8424 45.8644 69.83640000000001 42Z" class="hierarchical-1:primary "/><path d="M69.83640000000001 69.60000000000001C73.7004 71.6064 78.2996 71.6064 82.1636 69.60000000000001 80.1576 73.4644 80.1576 78.0632 82.1636 81.9276 78.2992 79.92160000000001 73.7008 79.92160000000001 69.83640000000001 81.9276 71.8424 78.0632 71.8424 73.4644 69.83640000000001 69.60000000000001Z" class="hierarchical-1:primary "/><path d="M41.8364 69.60000000000001C45.7004 71.6064 50.2996 71.6064 54.1636 69.60000000000001 52.1576 73.4644 52.1576 78.0632 54.1636 81.9276 50.299200000000006 79.92160000000001 45.7008 79.92160000000001 41.8364 81.9276 43.8424 78.0632 43.8424 73.4644 41.8364 69.60000000000001Z" class="hierarchical-1:primary "/><path d="M55.836400000000005 28C59.7004 30.006200000000003 64.2996 30.006200000000003 68.1636 28 66.1576 31.86432 66.1576 36.46316 68.1636 40.327600000000004 64.2992 38.32156 59.70080000000001 38.32156 55.836400000000005 40.327600000000004 57.8424 36.46316 57.8424 31.86432 55.836400000000005 28Z" class="hierarchical-1:primary "/><path d="M55.836400000000005 14C59.7004 16.006200000000003 64.2996 16.006200000000003 68.1636 14 66.1576 17.864320000000003 66.1576 22.463160000000002 68.1636 26.327480000000005 64.2992 24.32156 59.70080000000001 24.32156 55.836400000000005 26.327480000000005 57.8424 22.463160000000002 57.8424 17.864320000000003 55.836400000000005 14Z" class="hierarchical-1:primary "/><path d="M41.8364 14C45.7004 16.006200000000003 50.2996 16.006200000000003 54.1636 14 52.1576 17.864320000000003 52.1576 22.463160000000002 54.1636 26.327480000000005 50.299200000000006 24.32156 45.7008 24.32156 41.8364 26.327480000000005 43.8424 22.463160000000002 43.8424 17.864320000000003 41.8364 14Z" class="hierarchical-1:primary "/></g>
 </g>
</svg>