<svg width="49" height="56" viewBox="0 0 49 56" fill="none" xmlns="http://www.w3.org/2000/svg">
<g clip-path="url(#clip0_165_6)">
<path d="M24.0312 0C23.3125 0 22.6562 0.28125 21.9062 0.90625L0.84375 18C0.3125 18.4688 0 19.125 0 20.0625C0 21.6875 1.21875 22.9062 2.84375 22.9062C3.53125 22.9062 4.1875 22.6562 4.9375 22.0938L24.0312 6.53125L43.125 22.0938C43.8438 22.6562 44.5312 22.9062 45.1875 22.9062C46.8438 22.9062 48.0625 21.6875 48.0625 20.0625C48.0625 19.125 47.75 18.4688 47.2188 18L26.1562 0.875C25.4062 0.28125 24.7188 0 24.0312 0ZM24.0312 55.3125C24.7188 55.3125 25.4062 55.0312 26.1562 54.4375L47.2188 37.3125C47.75 36.8438 48.0625 36.1875 48.0625 35.25C48.0625 33.625 46.8438 32.375 45.1875 32.375C44.5312 32.375 43.8438 32.6562 43.125 33.2188L24.0312 48.7812L4.9375 33.2188C4.1875 32.6562 3.53125 32.375 2.84375 32.375C1.21875 32.375 0 33.625 0 35.25C0 36.1875 0.3125 36.8438 0.84375 37.3125L21.9062 54.4062C22.6562 55.0312 23.3125 55.3125 24.0312 55.3125Z" fill="black" fill-opacity="0.85"/>
</g>
<defs>
<clipPath id="clip0_165_6">
<rect width="48.0625" height="55.9062" fill="white"/>
</clipPath>
</defs>
</svg>
