<svg xmlns="http://www.w3.org/2000/svg" xmlns:xlink="http://www.w3.org/1999/xlink" version="1.1" width="3300" height="2200">
 <!--glyph: "", point size: 100.0, font version: "17.1d1e1", template writer version: "65.1"-->
<style>

.hierarchical-1:primary {fill:#262626;}
.SFSymbolsPreview262626 {fill:#262626;}
</style>
 <g id="Notes">
  <rect height="2200" id="artboard" style="fill:white;opacity:1" width="3300" x="0" y="0"/>
  <line style="fill:none;stroke:black;opacity:1;stroke-width:0.5;" x1="263" x2="3036" y1="292" y2="292"/>
  <text style="stroke:none;fill:black;font-family:sans-serif;font-size:13;font-weight:bold;" transform="matrix(1 0 0 1 263 322)">Weight/Scale Variations</text>
  <text style="stroke:none;fill:black;font-family:sans-serif;font-size:13;text-anchor:middle;" transform="matrix(1 0 0 1 559.711 322)">Ultralight</text>
  <text style="stroke:none;fill:black;font-family:sans-serif;font-size:13;text-anchor:middle;" transform="matrix(1 0 0 1 856.422 322)">Thin</text>
  <text style="stroke:none;fill:black;font-family:sans-serif;font-size:13;text-anchor:middle;" transform="matrix(1 0 0 1 1153.13 322)">Light</text>
  <text style="stroke:none;fill:black;font-family:sans-serif;font-size:13;text-anchor:middle;" transform="matrix(1 0 0 1 1449.84 322)">Regular</text>
  <text style="stroke:none;fill:black;font-family:sans-serif;font-size:13;text-anchor:middle;" transform="matrix(1 0 0 1 1746.56 322)">Medium</text>
  <text style="stroke:none;fill:black;font-family:sans-serif;font-size:13;text-anchor:middle;" transform="matrix(1 0 0 1 2043.27 322)">Semibold</text>
  <text style="stroke:none;fill:black;font-family:sans-serif;font-size:13;text-anchor:middle;" transform="matrix(1 0 0 1 2339.98 322)">Bold</text>
  <text style="stroke:none;fill:black;font-family:sans-serif;font-size:13;text-anchor:middle;" transform="matrix(1 0 0 1 2636.69 322)">Heavy</text>
  <text style="stroke:none;fill:black;font-family:sans-serif;font-size:13;text-anchor:middle;" transform="matrix(1 0 0 1 2933.4 322)">Black</text>
  <line style="fill:none;stroke:black;opacity:1;stroke-width:0.5;" x1="263" x2="3036" y1="1903" y2="1903"/>
  <g transform="matrix(1 0 0 1 263 1933)">
   <path d="M9.24805 0.830078Q10.8691 0.830078 12.2949 0.214844Q13.7207-0.400391 14.8096-1.49414Q15.8984-2.58789 16.5186-4.01367Q17.1387-5.43945 17.1387-7.05078Q17.1387-8.66211 16.5186-10.0879Q15.8984-11.5137 14.8047-12.6074Q13.7109-13.7012 12.2852-14.3164Q10.8594-14.9316 9.23828-14.9316Q7.62695-14.9316 6.20117-14.3164Q4.77539-13.7012 3.69141-12.6074Q2.60742-11.5137 1.9873-10.0879Q1.36719-8.66211 1.36719-7.05078Q1.36719-5.43945 1.9873-4.01367Q2.60742-2.58789 3.69629-1.49414Q4.78516-0.400391 6.21094 0.214844Q7.63672 0.830078 9.24805 0.830078ZM9.24805-0.654297Q7.91992-0.654297 6.7627-1.14746Q5.60547-1.64062 4.73145-2.51953Q3.85742-3.39844 3.36426-4.56055Q2.87109-5.72266 2.87109-7.05078Q2.87109-8.37891 3.35938-9.54102Q3.84766-10.7031 4.72168-11.582Q5.5957-12.4609 6.75293-12.9541Q7.91016-13.4473 9.23828-13.4473Q10.5762-13.4473 11.7334-12.9541Q12.8906-12.4609 13.7695-11.582Q14.6484-10.7031 15.1465-9.54102Q15.6445-8.37891 15.6445-7.05078Q15.6445-5.72266 15.1514-4.56055Q14.6582-3.39844 13.7842-2.51953Q12.9102-1.64062 11.748-1.14746Q10.5859-0.654297 9.24805-0.654297ZM5.6543-7.05078Q5.6543-6.72852 5.85938-6.52832Q6.06445-6.32812 6.40625-6.32812L8.51562-6.32812L8.51562-4.20898Q8.51562-3.88672 8.71094-3.67676Q8.90625-3.4668 9.23828-3.4668Q9.56055-3.4668 9.77051-3.67676Q9.98047-3.88672 9.98047-4.20898L9.98047-6.32812L12.0898-6.32812Q12.4219-6.32812 12.627-6.52832Q12.832-6.72852 12.832-7.05078Q12.832-7.38281 12.627-7.58789Q12.4219-7.79297 12.0898-7.79297L9.98047-7.79297L9.98047-9.90234Q9.98047-10.2344 9.77051-10.4443Q9.56055-10.6543 9.23828-10.6543Q8.90625-10.6543 8.71094-10.4443Q8.51562-10.2344 8.51562-9.90234L8.51562-7.79297L6.40625-7.79297Q6.06445-7.79297 5.85938-7.58789Q5.6543-7.38281 5.6543-7.05078Z"/>
  </g>
  <g transform="matrix(1 0 0 1 281.867 1933)">
   <path d="M11.709 2.91016Q13.75 2.91016 15.5518 2.12891Q17.3535 1.34766 18.7305-0.0292969Q20.1074-1.40625 20.8887-3.20801Q21.6699-5.00977 21.6699-7.05078Q21.6699-9.0918 20.8887-10.8936Q20.1074-12.6953 18.7305-14.0723Q17.3535-15.4492 15.5469-16.2305Q13.7402-17.0117 11.6992-17.0117Q9.6582-17.0117 7.85645-16.2305Q6.05469-15.4492 4.68262-14.0723Q3.31055-12.6953 2.5293-10.8936Q1.74805-9.0918 1.74805-7.05078Q1.74805-5.00977 2.5293-3.20801Q3.31055-1.40625 4.6875-0.0292969Q6.06445 1.34766 7.86621 2.12891Q9.66797 2.91016 11.709 2.91016ZM11.709 1.25Q9.98047 1.25 8.47656 0.605469Q6.97266-0.0390625 5.83496-1.17676Q4.69727-2.31445 4.05762-3.81836Q3.41797-5.32227 3.41797-7.05078Q3.41797-8.7793 4.05762-10.2832Q4.69727-11.7871 5.83008-12.9297Q6.96289-14.0723 8.4668-14.7119Q9.9707-15.3516 11.6992-15.3516Q13.4277-15.3516 14.9316-14.7119Q16.4355-14.0723 17.5781-12.9297Q18.7207-11.7871 19.3652-10.2832Q20.0098-8.7793 20.0098-7.05078Q20.0098-5.32227 19.3701-3.81836Q18.7305-2.31445 17.5928-1.17676Q16.4551-0.0390625 14.9463 0.605469Q13.4375 1.25 11.709 1.25ZM7.17773-7.05078Q7.17773-6.69922 7.41211-6.47461Q7.64648-6.25 8.01758-6.25L10.8887-6.25L10.8887-3.36914Q10.8887-2.99805 11.1133-2.76855Q11.3379-2.53906 11.6895-2.53906Q12.0605-2.53906 12.29-2.76855Q12.5195-2.99805 12.5195-3.36914L12.5195-6.25L15.4004-6.25Q15.7715-6.25 16.001-6.47461Q16.2305-6.69922 16.2305-7.05078Q16.2305-7.42188 16.001-7.65137Q15.7715-7.88086 15.4004-7.88086L12.5195-7.88086L12.5195-10.752Q12.5195-11.1328 12.29-11.3623Q12.0605-11.5918 11.6895-11.5918Q11.3379-11.5918 11.1133-11.3574Q10.8887-11.123 10.8887-10.752L10.8887-7.88086L8.01758-7.88086Q7.63672-7.88086 7.40723-7.65137Q7.17773-7.42188 7.17773-7.05078Z"/>
  </g>
  <g transform="matrix(1 0 0 1 305.646 1933)">
   <path d="M14.9707 5.66406Q17.0605 5.66406 18.96 5.01465Q20.8594 4.36523 22.4512 3.19336Q24.043 2.02148 25.2197 0.429688Q26.3965-1.16211 27.0459-3.06641Q27.6953-4.9707 27.6953-7.05078Q27.6953-9.14062 27.0459-11.04Q26.3965-12.9395 25.2197-14.5312Q24.043-16.123 22.4512-17.2998Q20.8594-18.4766 18.9551-19.126Q17.0508-19.7754 14.9609-19.7754Q12.8711-19.7754 10.9717-19.126Q9.07227-18.4766 7.48535-17.2998Q5.89844-16.123 4.72168-14.5312Q3.54492-12.9395 2.90039-11.04Q2.25586-9.14062 2.25586-7.05078Q2.25586-4.9707 2.90527-3.06641Q3.55469-1.16211 4.72656 0.429688Q5.89844 2.02148 7.49023 3.19336Q9.08203 4.36523 10.9814 5.01465Q12.8809 5.66406 14.9707 5.66406ZM14.9707 3.84766Q13.1641 3.84766 11.5283 3.2959Q9.89258 2.74414 8.53516 1.74805Q7.17773 0.751953 6.17676-0.610352Q5.17578-1.97266 4.62891-3.6084Q4.08203-5.24414 4.08203-7.05078Q4.08203-8.86719 4.62891-10.5029Q5.17578-12.1387 6.17188-13.501Q7.16797-14.8633 8.52539-15.8594Q9.88281-16.8555 11.5186-17.4023Q13.1543-17.9492 14.9609-17.9492Q16.7773-17.9492 18.4131-17.4023Q20.0488-16.8555 21.4111-15.8594Q22.7734-14.8633 23.7695-13.501Q24.7656-12.1387 25.3174-10.5029Q25.8691-8.86719 25.8691-7.05078Q25.8789-5.24414 25.332-3.6084Q24.7852-1.97266 23.7842-0.610352Q22.7832 0.751953 21.4209 1.74805Q20.0586 2.74414 18.4229 3.2959Q16.7871 3.84766 14.9707 3.84766ZM9.19922-7.05078Q9.19922-6.66992 9.45801-6.4209Q9.7168-6.17188 10.1172-6.17188L14.0625-6.17188L14.0625-2.2168Q14.0625-1.81641 14.3115-1.55762Q14.5605-1.29883 14.9512-1.29883Q15.3516-1.29883 15.6104-1.55273Q15.8691-1.80664 15.8691-2.2168L15.8691-6.17188L19.8242-6.17188Q20.2246-6.17188 20.4785-6.4209Q20.7324-6.66992 20.7324-7.05078Q20.7324-7.46094 20.4785-7.71484Q20.2246-7.96875 19.8242-7.96875L15.8691-7.96875L15.8691-11.9141Q15.8691-12.3242 15.6104-12.583Q15.3516-12.8418 14.9512-12.8418Q14.5605-12.8418 14.3115-12.583Q14.0625-12.3242 14.0625-11.9141L14.0625-7.96875L10.1172-7.96875Q9.70703-7.96875 9.45312-7.71484Q9.19922-7.46094 9.19922-7.05078Z"/>
  </g>
  <text style="stroke:none;fill:black;font-family:sans-serif;font-size:13;font-weight:bold;" transform="matrix(1 0 0 1 263 1953)">Design Variations</text>
  <text style="stroke:none;fill:black;font-family:sans-serif;font-size:13;" transform="matrix(1 0 0 1 263 1971)">Symbols are supported in up to nine weights and three scales.</text>
  <text style="stroke:none;fill:black;font-family:sans-serif;font-size:13;" transform="matrix(1 0 0 1 263 1989)">For optimal layout with text and other symbols, vertically align</text>
  <text style="stroke:none;fill:black;font-family:sans-serif;font-size:13;" transform="matrix(1 0 0 1 263 2007)">symbols with the adjacent text.</text>
  <line style="fill:none;stroke:#00AEEF;stroke-width:0.5;opacity:1.0;" x1="776" x2="776" y1="1919" y2="1933"/>
  <g transform="matrix(1 0 0 1 776 1933)">
   <path d="M3.31055 0.15625Q3.70117 0.15625 3.91602-0.00976562Q4.13086-0.175781 4.26758-0.585938L5.52734-4.0332L11.2891-4.0332L12.5488-0.585938Q12.6855-0.175781 12.9004-0.00976562Q13.1152 0.15625 13.4961 0.15625Q13.8867 0.15625 14.1162-0.0585938Q14.3457-0.273438 14.3457-0.644531Q14.3457-0.869141 14.2383-1.17188L9.6582-13.3691Q9.48242-13.8184 9.17969-14.043Q8.87695-14.2676 8.4082-14.2676Q7.5-14.2676 7.17773-13.3789L2.59766-1.16211Q2.49023-0.859375 2.49023-0.634766Q2.49023-0.263672 2.70996-0.0537109Q2.92969 0.15625 3.31055 0.15625ZM6.00586-5.51758L8.37891-12.0898L8.42773-12.0898L10.8008-5.51758Z"/>
  </g>
  <line style="fill:none;stroke:#00AEEF;stroke-width:0.5;opacity:1.0;" x1="793.197" x2="793.197" y1="1919" y2="1933"/>
  <text style="stroke:none;fill:black;font-family:sans-serif;font-size:13;font-weight:bold;" transform="matrix(1 0 0 1 776 1953)">Margins</text>
  <text style="stroke:none;fill:black;font-family:sans-serif;font-size:13;" transform="matrix(1 0 0 1 776 1971)">Leading and trailing margins on the left and right side of each symbol</text>
  <text style="stroke:none;fill:black;font-family:sans-serif;font-size:13;" transform="matrix(1 0 0 1 776 1989)">can be adjusted by modifying the x-location of the margin guidelines.</text>
  <text style="stroke:none;fill:black;font-family:sans-serif;font-size:13;" transform="matrix(1 0 0 1 776 2007)">Modifications are automatically applied proportionally to all</text>
  <text style="stroke:none;fill:black;font-family:sans-serif;font-size:13;" transform="matrix(1 0 0 1 776 2025)">scales and weights.</text>
  <g transform="matrix(1 0 0 1 1289 1933)">
   <path d="M2.8418 1.86523L4.54102 3.57422Q5.18555 4.22852 5.90332 4.17969Q6.62109 4.13086 7.31445 3.35938L18.0078-8.42773L17.041-9.4043L6.42578 2.27539Q6.16211 2.57812 5.89355 2.61719Q5.625 2.65625 5.27344 2.30469L4.10156 1.14258Q3.75 0.791016 3.79395 0.522461Q3.83789 0.253906 4.14062-0.0195312L15.6152-10.8203L14.6387-11.7871L3.04688-0.898438Q2.30469-0.214844 2.25098 0.498047Q2.19727 1.21094 2.8418 1.86523ZM9.25781-16.3281Q8.94531-16.0254 8.90625-15.6348Q8.86719-15.2441 9.04297-14.9512Q9.21875-14.6777 9.55566-14.541Q9.89258-14.4043 10.3809-14.5215Q11.4746-14.7754 12.5977-14.7314Q13.7207-14.6875 14.7949-13.9844L14.209-12.5293Q13.9551-11.9043 14.0674-11.4404Q14.1797-10.9766 14.5801-10.5664L16.875-8.25195Q17.2363-7.88086 17.5781-7.82227Q17.9199-7.76367 18.3398-7.8418L19.4043-8.03711L20.0684-7.36328L20.0293-6.80664Q20-6.43555 20.1221-6.12305Q20.2441-5.81055 20.6055-5.44922L21.3672-4.70703Q21.7285-4.3457 22.1533-4.33105Q22.5781-4.31641 22.9297-4.66797L25.8398-7.58789Q26.1914-7.93945 26.1816-8.35449Q26.1719-8.76953 25.8105-9.13086L25.0391-9.89258Q24.6875-10.2539 24.3799-10.3857Q24.0723-10.5176 23.7109-10.4883L23.1348-10.4395L22.4902-11.0742L22.7344-12.1973Q22.832-12.6172 22.6953-12.9834Q22.5586-13.3496 22.1191-13.7891L19.9219-15.9766Q18.6719-17.2168 17.2607-17.8369Q15.8496-18.457 14.4189-18.4814Q12.9883-18.5059 11.665-17.959Q10.3418-17.4121 9.25781-16.3281ZM10.752-15.957Q11.6602-16.6211 12.7002-16.9043Q13.7402-17.1875 14.8047-17.085Q15.8691-16.9824 16.8701-16.5137Q17.8711-16.0449 18.7012-15.2051L21.1328-12.793Q21.3086-12.6172 21.3525-12.4512Q21.3965-12.2852 21.3379-12.0312L21.0156-10.5469L22.5195-9.0625L23.5059-9.12109Q23.6914-9.13086 23.7891-9.09668Q23.8867-9.0625 24.0332-8.91602L24.6094-8.33984L22.168-5.89844L21.5918-6.47461Q21.4453-6.62109 21.4062-6.71875Q21.3672-6.81641 21.377-7.01172L21.4453-7.98828L19.9512-9.47266L18.4277-9.21875Q18.1836-9.16992 18.042-9.2041Q17.9004-9.23828 17.7148-9.41406L15.7129-11.416Q15.5176-11.5918 15.4932-11.7529Q15.4688-11.9141 15.5859-12.1875L16.4648-14.2773Q15.293-15.3711 13.8281-15.791Q12.3633-16.2109 10.8398-15.7617Q10.7227-15.7324 10.6885-15.8057Q10.6543-15.8789 10.752-15.957Z"/>
  </g>
  <text style="stroke:none;fill:black;font-family:sans-serif;font-size:13;font-weight:bold;" transform="matrix(1 0 0 1 1289 1953)">Exporting</text>
  <text style="stroke:none;fill:black;font-family:sans-serif;font-size:13;" transform="matrix(1 0 0 1 1289 1971)">Symbols should be outlined when exporting to ensure the</text>
  <text style="stroke:none;fill:black;font-family:sans-serif;font-size:13;" transform="matrix(1 0 0 1 1289 1989)">design is preserved when submitting to Xcode.</text>
  <text id="template-version" style="stroke:none;fill:black;font-family:sans-serif;font-size:13;text-anchor:end;" transform="matrix(1 0 0 1 3036 1933)">Template v.3.0</text>
  <text style="stroke:none;fill:black;font-family:sans-serif;font-size:13;text-anchor:end;" transform="matrix(1 0 0 1 3036 1951)">Requires Xcode 13 or greater</text>
  <text id="descriptive-name" style="stroke:none;fill:black;font-family:sans-serif;font-size:13;text-anchor:end;" transform="matrix(1 0 0 1 3036 1969)">Symbol moniker: dataHorizontal</text>
  <text style="stroke:none;fill:black;font-family:sans-serif;font-size:13;text-anchor:end;" transform="matrix(1 0 0 1 3036 1987)">Typeset at 100 points</text>
  <text style="stroke:none;fill:black;font-family:sans-serif;font-size:13;" transform="matrix(1 0 0 1 263 726)">Small</text>
  <text style="stroke:none;fill:black;font-family:sans-serif;font-size:13;" transform="matrix(1 0 0 1 263 1156)">Medium</text>
  <text style="stroke:none;fill:black;font-family:sans-serif;font-size:13;" transform="matrix(1 0 0 1 263 1586)">Large</text>
 </g>
 <g id="Guides">
  <g id="H-reference" style="fill:#27AAE1;stroke:none;" transform="matrix(1 0 0 1 339 696)">
   <path d="M0.976562 0L3.66211 0L29.3457-67.1387L30.0293-67.1387L30.0293-70.459L28.125-70.459ZM11.6699-24.4629L46.9727-24.4629L46.2402-26.709L12.4512-26.709ZM55.127 0L57.7637 0L30.6152-70.459L29.4434-70.459L29.4434-67.1387Z"/>
  </g>
  <line id="Baseline-S" style="fill:none;stroke:#27AAE1;opacity:1;stroke-width:0.5;" x1="263" x2="3036" y1="696" y2="696"/>
  <line id="Capline-S" style="fill:none;stroke:#27AAE1;opacity:1;stroke-width:0.5;" x1="263" x2="3036" y1="625.541" y2="625.541"/>
  <g id="H-reference" style="fill:#27AAE1;stroke:none;" transform="matrix(1 0 0 1 339 1126)">
   <path d="M0.976562 0L3.66211 0L29.3457-67.1387L30.0293-67.1387L30.0293-70.459L28.125-70.459ZM11.6699-24.4629L46.9727-24.4629L46.2402-26.709L12.4512-26.709ZM55.127 0L57.7637 0L30.6152-70.459L29.4434-70.459L29.4434-67.1387Z"/>
  </g>
  <line id="Baseline-M" style="fill:none;stroke:#27AAE1;opacity:1;stroke-width:0.5;" x1="263" x2="3036" y1="1126" y2="1126"/>
  <line id="Capline-M" style="fill:none;stroke:#27AAE1;opacity:1;stroke-width:0.5;" x1="263" x2="3036" y1="1055.54" y2="1055.54"/>
  <g id="H-reference" style="fill:#27AAE1;stroke:none;" transform="matrix(1 0 0 1 339 1556)">
   <path d="M0.976562 0L3.66211 0L29.3457-67.1387L30.0293-67.1387L30.0293-70.459L28.125-70.459ZM11.6699-24.4629L46.9727-24.4629L46.2402-26.709L12.4512-26.709ZM55.127 0L57.7637 0L30.6152-70.459L29.4434-70.459L29.4434-67.1387Z"/>
  </g>
  <line id="Baseline-L" style="fill:none;stroke:#27AAE1;opacity:1;stroke-width:0.5;" x1="263" x2="3036" y1="1556" y2="1556"/>
  <line id="Capline-L" style="fill:none;stroke:#27AAE1;opacity:1;stroke-width:0.5;" x1="263" x2="3036" y1="1485.54" y2="1485.54"/>
  <line id="left-margin-Ultralight-S" style="fill:none;stroke:#00AEEF;stroke-width:0.5;opacity:1.0;" x1="515.351" x2="515.351" y1="600.784" y2="720.121"/>
  <line id="right-margin-Ultralight-S" style="fill:none;stroke:#00AEEF;stroke-width:0.5;opacity:1.0;" x1="604.071" x2="604.071" y1="600.784" y2="720.121"/>
  <line id="left-margin-Regular-S" style="fill:none;stroke:#00AEEF;stroke-width:0.5;opacity:1.0;" x1="1401.75" x2="1401.75" y1="600.784" y2="720.121"/>
  <line id="right-margin-Regular-S" style="fill:none;stroke:#00AEEF;stroke-width:0.5;opacity:1.0;" x1="1497.94" x2="1497.94" y1="600.784" y2="720.121"/>
  <line id="left-margin-Black-S" style="fill:none;stroke:#00AEEF;stroke-width:0.5;opacity:1.0;" x1="2883.2" x2="2883.2" y1="600.784" y2="720.121"/>
  <line id="right-margin-Black-S" style="fill:none;stroke:#00AEEF;stroke-width:0.5;opacity:1.0;" x1="2983.6" x2="2983.6" y1="600.784" y2="720.121"/>
 </g>
 <g id="Symbols">
  <g id="Black-L" transform="matrix(1,0,0,1,2853.3999999999996,1440.77)">

  <path d="M70.09866666666666 30.695999999999998C70 31.344266666666663 70 32.118399999999994 70 33.666666666666664 70 35.214933333333335 70 35.989066666666666 70.09866666666666 36.63733333333333 70.66933333333333 40.3874 73.61266666666666 43.330600000000004 77.36266666666666 43.90133333333333 78.01066666666667 44 78.78533333333333 44 80.33333333333333 44H103C104.548 44 105.32266666666666 44 105.97066666666666 43.90133333333333 109.72066666666666 43.330600000000004 112.664 40.3874 113.23466666666667 36.63733333333333 113.33333333333333 35.989066666666666 113.33333333333333 35.214933333333335 113.33333333333333 33.666666666666664 113.33333333333333 32.118399999999994 113.33333333333333 31.344266666666663 113.23466666666667 30.695999999999998 112.664 26.945933333333333 109.72066666666666 24.00273333333333 105.97066666666666 23.432000000000002 105.32266666666666 23.333333333333332 104.548 23.333333333333332 103 23.333333333333332H80.33333333333333C78.78533333333333 23.333333333333332 78.01066666666667 23.333333333333332 77.36266666666666 23.432000000000002 73.61266666666666 24.00273333333333 70.66933333333333 26.945933333333333 70.09866666666666 30.695999999999998Z" class="hierarchical-1:primary "/><path d="M92.92399999999999 56.803133333333335C92.92399999999999 55.31106666666666 92.92399999999999 54.565 93.01533333333333 53.9398 93.57066666666665 50.15193333333333 96.54599999999999 47.17713333333333 100.33333333333333 46.62186666666666 100.95866666666666 46.530199999999994 101.70466666666665 46.530199999999994 103.19666666666666 46.530199999999994 104.68866666666665 46.530199999999994 105.43533333333332 46.530199999999994 106.06 46.62186666666666 109.84799999999998 47.17713333333333 112.82266666666666 50.15193333333333 113.378 53.9398 113.47 54.565 113.47 55.31106666666666 113.47 56.803133333333335 113.47 58.2952 113.47 59.04126666666666 113.378 59.666466666666665 112.82266666666666 63.45426666666666 109.84799999999998 66.42906666666667 106.06 66.98466666666667 105.43533333333332 67.076 104.68866666666665 67.076 103.19666666666666 67.076 101.70466666666665 67.076 100.95866666666666 67.076 100.33333333333333 66.98466666666667 96.54599999999999 66.42906666666667 93.57066666666665 63.45426666666666 93.01533333333333 59.666466666666665 92.92399999999999 59.04126666666666 92.92399999999999 58.2952 92.92399999999999 56.803133333333335Z" class="hierarchical-1:primary "/><path d="M23.333333333333332 80C23.333333333333332 78.508 23.333333333333332 77.762 23.425 77.13666666666666 23.980266666666665 73.34866666666666 26.955066666666667 70.374 30.742933333333333 69.81866666666666 31.368133333333333 69.72733333333332 32.11413333333333 69.72733333333332 33.60626666666666 69.72733333333332 35.09833333333333 69.72733333333332 35.84433333333333 69.72733333333332 36.46953333333333 69.81866666666666 40.2574 70.374 43.23219999999999 73.34866666666666 43.78746666666667 77.13666666666666 43.879133333333336 77.762 43.879133333333336 78.508 43.879133333333336 80 43.879133333333336 81.49199999999999 43.879133333333336 82.238 43.78746666666667 82.86333333333333 43.23219999999999 86.65133333333333 40.2574 89.62599999999999 36.46953333333333 90.18133333333333 35.84433333333333 90.27266666666665 35.09833333333333 90.27266666666665 33.60626666666666 90.27266666666665 32.11413333333333 90.27266666666665 31.368133333333333 90.27266666666665 30.742933333333333 90.18133333333333 26.955066666666667 89.62599999999999 23.980266666666665 86.65133333333333 23.425 82.86333333333333 23.333333333333332 82.238 23.333333333333332 81.49199999999999 23.333333333333332 80Z" class="hierarchical-1:primary "/><path d="M23.333333333333332 103C23.333333333333332 101.452 23.333333333333332 100.67733333333332 23.432000000000002 100.02933333333334 24.00273333333333 96.27933333333334 26.945933333333333 93.33599999999998 30.695999999999998 92.76533333333333 31.344266666666663 92.66666666666666 32.118399999999994 92.66666666666666 33.666666666666664 92.66666666666666H103C104.548 92.66666666666666 105.32266666666666 92.66666666666666 105.97066666666666 92.76533333333333 109.72066666666666 93.33599999999998 112.664 96.27933333333334 113.23466666666667 100.02933333333334 113.33333333333333 100.67733333333332 113.33333333333333 101.452 113.33333333333333 103 113.33333333333333 104.548 113.33333333333333 105.32266666666666 113.23466666666667 105.97066666666666 112.664 109.72066666666666 109.72066666666666 112.664 105.97066666666666 113.23466666666667 105.32266666666666 113.33333333333333 104.548 113.33333333333333 103 113.33333333333333H33.666666666666664C32.118399999999994 113.33333333333333 31.344266666666663 113.33333333333333 30.695999999999998 113.23466666666667 26.945933333333333 112.664 24.00273333333333 109.72066666666666 23.432000000000002 105.97066666666666 23.333333333333332 105.32266666666666 23.333333333333332 104.548 23.333333333333332 103Z" class="hierarchical-1:primary "/><path d="M70.06333333333333 77.622C70 78.14266666666666 70 78.76133333333333 70 80 70 81.23866666666666 70 81.85733333333333 70.06333333333333 82.37799999999999 70.544 86.33666666666666 73.66333333333333 89.45599999999999 77.622 89.93666666666667 78.14266666666666 90 78.76133333333333 90 80 90H126.66666666666666C127.90533333333333 90 128.524 90 129.04466666666667 89.93666666666667 133.00333333333333 89.45599999999999 136.12266666666665 86.33666666666666 136.60333333333332 82.37799999999999 136.66666666666666 81.85733333333333 136.66666666666666 81.23866666666666 136.66666666666666 80 136.66666666666666 78.76133333333333 136.66666666666666 78.14266666666666 136.60333333333332 77.622 136.12266666666665 73.66333333333333 133.00333333333333 70.544 129.04466666666667 70.06333333333333 128.524 70 127.90533333333333 70 126.66666666666666 70H80C78.76133333333333 70 78.14266666666666 70 77.622 70.06333333333333 73.66333333333333 70.544 70.544 73.66333333333333 70.06333333333333 77.622Z" class="hierarchical-1:primary "/><path d="M116.12066666666666 126.394C116.12066666666666 124.902 116.12066666666666 124.15533333333333 116.21266666666665 123.53066666666666 116.76799999999999 119.74266666666666 119.74266666666666 116.76799999999999 123.53066666666666 116.21266666666665 124.15533333333333 116.12066666666666 124.902 116.12066666666666 126.394 116.12066666666666 127.886 116.12066666666666 128.632 116.12066666666666 129.25733333333332 116.21266666666665 133.04466666666667 116.76799999999999 136.01999999999998 119.74266666666666 136.57533333333333 123.53066666666666 136.66666666666666 124.15533333333333 136.66666666666666 124.902 136.66666666666666 126.394 136.66666666666666 127.886 136.66666666666666 128.632 136.57533333333333 129.25733333333332 136.01999999999998 133.04466666666667 133.04466666666667 136.01999999999998 129.25733333333332 136.57533333333333 128.632 136.66666666666666 127.886 136.66666666666666 126.394 136.66666666666666 124.902 136.66666666666666 124.15533333333333 136.66666666666666 123.53066666666666 136.57533333333333 119.74266666666666 136.01999999999998 116.76799999999999 133.04466666666667 116.21266666666665 129.25733333333332 116.12066666666666 128.632 116.12066666666666 127.886 116.12066666666666 126.394Z" class="hierarchical-1:primary "/><path d="M69.81866666666666 123.53066666666666C69.72733333333332 124.15533333333333 69.72733333333332 124.902 69.72733333333332 126.394 69.72733333333332 127.886 69.72733333333332 128.632 69.81866666666666 129.25733333333332 70.374 133.04466666666667 73.34866666666666 136.01999999999998 77.13666666666666 136.57533333333333 77.762 136.66666666666666 78.508 136.66666666666666 80 136.66666666666666 81.49199999999999 136.66666666666666 82.238 136.66666666666666 82.86333333333333 136.57533333333333 86.65133333333333 136.01999999999998 89.62599999999999 133.04466666666667 90.18133333333333 129.25733333333332 90.27266666666665 128.632 90.27266666666665 127.886 90.27266666666665 126.394 90.27266666666665 124.902 90.27266666666665 124.15533333333333 90.18133333333333 123.53066666666666 89.62599999999999 119.74266666666666 86.65133333333333 116.76799999999999 82.86333333333333 116.21266666666665 82.238 116.12066666666666 81.49199999999999 116.12066666666666 80 116.12066666666666 78.508 116.12066666666666 77.762 116.12066666666666 77.13666666666666 116.21266666666665 73.34866666666666 116.76799999999999 70.374 119.74266666666666 69.81866666666666 123.53066666666666Z" class="hierarchical-1:primary "/></g>
  <g id="Regular-L" transform="matrix(1,0,0,1,1369.845,1440.77)">

  <path d="M70.09866666666666 30.695999999999998C70 31.344266666666663 70 32.118399999999994 70 33.666666666666664 70 35.214933333333335 70 35.989066666666666 70.09866666666666 36.63733333333333 70.66933333333333 40.3874 73.61266666666666 43.330600000000004 77.36266666666666 43.90133333333333 78.01066666666667 44 78.78533333333333 44 80.33333333333333 44H103C104.548 44 105.32266666666666 44 105.97066666666666 43.90133333333333 109.72066666666666 43.330600000000004 112.664 40.3874 113.23466666666667 36.63733333333333 113.33333333333333 35.989066666666666 113.33333333333333 35.214933333333335 113.33333333333333 33.666666666666664 113.33333333333333 32.118399999999994 113.33333333333333 31.344266666666663 113.23466666666667 30.695999999999998 112.664 26.945933333333333 109.72066666666666 24.00273333333333 105.97066666666666 23.432000000000002 105.32266666666666 23.333333333333332 104.548 23.333333333333332 103 23.333333333333332H80.33333333333333C78.78533333333333 23.333333333333332 78.01066666666667 23.333333333333332 77.36266666666666 23.432000000000002 73.61266666666666 24.00273333333333 70.66933333333333 26.945933333333333 70.09866666666666 30.695999999999998Z" class="hierarchical-1:primary "/><path d="M92.92399999999999 56.803133333333335C92.92399999999999 55.31106666666666 92.92399999999999 54.565 93.01533333333333 53.9398 93.57066666666665 50.15193333333333 96.54599999999999 47.17713333333333 100.33333333333333 46.62186666666666 100.95866666666666 46.530199999999994 101.70466666666665 46.530199999999994 103.19666666666666 46.530199999999994 104.68866666666665 46.530199999999994 105.43533333333332 46.530199999999994 106.06 46.62186666666666 109.84799999999998 47.17713333333333 112.82266666666666 50.15193333333333 113.378 53.9398 113.47 54.565 113.47 55.31106666666666 113.47 56.803133333333335 113.47 58.2952 113.47 59.04126666666666 113.378 59.666466666666665 112.82266666666666 63.45426666666666 109.84799999999998 66.42906666666667 106.06 66.98466666666667 105.43533333333332 67.076 104.68866666666665 67.076 103.19666666666666 67.076 101.70466666666665 67.076 100.95866666666666 67.076 100.33333333333333 66.98466666666667 96.54599999999999 66.42906666666667 93.57066666666665 63.45426666666666 93.01533333333333 59.666466666666665 92.92399999999999 59.04126666666666 92.92399999999999 58.2952 92.92399999999999 56.803133333333335Z" class="hierarchical-1:primary "/><path d="M23.333333333333332 80C23.333333333333332 78.508 23.333333333333332 77.762 23.425 77.13666666666666 23.980266666666665 73.34866666666666 26.955066666666667 70.374 30.742933333333333 69.81866666666666 31.368133333333333 69.72733333333332 32.11413333333333 69.72733333333332 33.60626666666666 69.72733333333332 35.09833333333333 69.72733333333332 35.84433333333333 69.72733333333332 36.46953333333333 69.81866666666666 40.2574 70.374 43.23219999999999 73.34866666666666 43.78746666666667 77.13666666666666 43.879133333333336 77.762 43.879133333333336 78.508 43.879133333333336 80 43.879133333333336 81.49199999999999 43.879133333333336 82.238 43.78746666666667 82.86333333333333 43.23219999999999 86.65133333333333 40.2574 89.62599999999999 36.46953333333333 90.18133333333333 35.84433333333333 90.27266666666665 35.09833333333333 90.27266666666665 33.60626666666666 90.27266666666665 32.11413333333333 90.27266666666665 31.368133333333333 90.27266666666665 30.742933333333333 90.18133333333333 26.955066666666667 89.62599999999999 23.980266666666665 86.65133333333333 23.425 82.86333333333333 23.333333333333332 82.238 23.333333333333332 81.49199999999999 23.333333333333332 80Z" class="hierarchical-1:primary "/><path d="M23.333333333333332 103C23.333333333333332 101.452 23.333333333333332 100.67733333333332 23.432000000000002 100.02933333333334 24.00273333333333 96.27933333333334 26.945933333333333 93.33599999999998 30.695999999999998 92.76533333333333 31.344266666666663 92.66666666666666 32.118399999999994 92.66666666666666 33.666666666666664 92.66666666666666H103C104.548 92.66666666666666 105.32266666666666 92.66666666666666 105.97066666666666 92.76533333333333 109.72066666666666 93.33599999999998 112.664 96.27933333333334 113.23466666666667 100.02933333333334 113.33333333333333 100.67733333333332 113.33333333333333 101.452 113.33333333333333 103 113.33333333333333 104.548 113.33333333333333 105.32266666666666 113.23466666666667 105.97066666666666 112.664 109.72066666666666 109.72066666666666 112.664 105.97066666666666 113.23466666666667 105.32266666666666 113.33333333333333 104.548 113.33333333333333 103 113.33333333333333H33.666666666666664C32.118399999999994 113.33333333333333 31.344266666666663 113.33333333333333 30.695999999999998 113.23466666666667 26.945933333333333 112.664 24.00273333333333 109.72066666666666 23.432000000000002 105.97066666666666 23.333333333333332 105.32266666666666 23.333333333333332 104.548 23.333333333333332 103Z" class="hierarchical-1:primary "/><path d="M70.06333333333333 77.622C70 78.14266666666666 70 78.76133333333333 70 80 70 81.23866666666666 70 81.85733333333333 70.06333333333333 82.37799999999999 70.544 86.33666666666666 73.66333333333333 89.45599999999999 77.622 89.93666666666667 78.14266666666666 90 78.76133333333333 90 80 90H126.66666666666666C127.90533333333333 90 128.524 90 129.04466666666667 89.93666666666667 133.00333333333333 89.45599999999999 136.12266666666665 86.33666666666666 136.60333333333332 82.37799999999999 136.66666666666666 81.85733333333333 136.66666666666666 81.23866666666666 136.66666666666666 80 136.66666666666666 78.76133333333333 136.66666666666666 78.14266666666666 136.60333333333332 77.622 136.12266666666665 73.66333333333333 133.00333333333333 70.544 129.04466666666667 70.06333333333333 128.524 70 127.90533333333333 70 126.66666666666666 70H80C78.76133333333333 70 78.14266666666666 70 77.622 70.06333333333333 73.66333333333333 70.544 70.544 73.66333333333333 70.06333333333333 77.622Z" class="hierarchical-1:primary "/><path d="M116.12066666666666 126.394C116.12066666666666 124.902 116.12066666666666 124.15533333333333 116.21266666666665 123.53066666666666 116.76799999999999 119.74266666666666 119.74266666666666 116.76799999999999 123.53066666666666 116.21266666666665 124.15533333333333 116.12066666666666 124.902 116.12066666666666 126.394 116.12066666666666 127.886 116.12066666666666 128.632 116.12066666666666 129.25733333333332 116.21266666666665 133.04466666666667 116.76799999999999 136.01999999999998 119.74266666666666 136.57533333333333 123.53066666666666 136.66666666666666 124.15533333333333 136.66666666666666 124.902 136.66666666666666 126.394 136.66666666666666 127.886 136.66666666666666 128.632 136.57533333333333 129.25733333333332 136.01999999999998 133.04466666666667 133.04466666666667 136.01999999999998 129.25733333333332 136.57533333333333 128.632 136.66666666666666 127.886 136.66666666666666 126.394 136.66666666666666 124.902 136.66666666666666 124.15533333333333 136.66666666666666 123.53066666666666 136.57533333333333 119.74266666666666 136.01999999999998 116.76799999999999 133.04466666666667 116.21266666666665 129.25733333333332 116.12066666666666 128.632 116.12066666666666 127.886 116.12066666666666 126.394Z" class="hierarchical-1:primary "/><path d="M69.81866666666666 123.53066666666666C69.72733333333332 124.15533333333333 69.72733333333332 124.902 69.72733333333332 126.394 69.72733333333332 127.886 69.72733333333332 128.632 69.81866666666666 129.25733333333332 70.374 133.04466666666667 73.34866666666666 136.01999999999998 77.13666666666666 136.57533333333333 77.762 136.66666666666666 78.508 136.66666666666666 80 136.66666666666666 81.49199999999999 136.66666666666666 82.238 136.66666666666666 82.86333333333333 136.57533333333333 86.65133333333333 136.01999999999998 89.62599999999999 133.04466666666667 90.18133333333333 129.25733333333332 90.27266666666665 128.632 90.27266666666665 127.886 90.27266666666665 126.394 90.27266666666665 124.902 90.27266666666665 124.15533333333333 90.18133333333333 123.53066666666666 89.62599999999999 119.74266666666666 86.65133333333333 116.76799999999999 82.86333333333333 116.21266666666665 82.238 116.12066666666666 81.49199999999999 116.12066666666666 80 116.12066666666666 78.508 116.12066666666666 77.762 116.12066666666666 77.13666666666666 116.21266666666665 73.34866666666666 116.76799999999999 70.374 119.74266666666666 69.81866666666666 123.53066666666666Z" class="hierarchical-1:primary "/></g>
  <g id="Ultralight-L" transform="matrix(1,0,0,1,479.711,1440.77)">

  <path d="M70.09866666666666 30.695999999999998C70 31.344266666666663 70 32.118399999999994 70 33.666666666666664 70 35.214933333333335 70 35.989066666666666 70.09866666666666 36.63733333333333 70.66933333333333 40.3874 73.61266666666666 43.330600000000004 77.36266666666666 43.90133333333333 78.01066666666667 44 78.78533333333333 44 80.33333333333333 44H103C104.548 44 105.32266666666666 44 105.97066666666666 43.90133333333333 109.72066666666666 43.330600000000004 112.664 40.3874 113.23466666666667 36.63733333333333 113.33333333333333 35.989066666666666 113.33333333333333 35.214933333333335 113.33333333333333 33.666666666666664 113.33333333333333 32.118399999999994 113.33333333333333 31.344266666666663 113.23466666666667 30.695999999999998 112.664 26.945933333333333 109.72066666666666 24.00273333333333 105.97066666666666 23.432000000000002 105.32266666666666 23.333333333333332 104.548 23.333333333333332 103 23.333333333333332H80.33333333333333C78.78533333333333 23.333333333333332 78.01066666666667 23.333333333333332 77.36266666666666 23.432000000000002 73.61266666666666 24.00273333333333 70.66933333333333 26.945933333333333 70.09866666666666 30.695999999999998Z" class="hierarchical-1:primary "/><path d="M92.92399999999999 56.803133333333335C92.92399999999999 55.31106666666666 92.92399999999999 54.565 93.01533333333333 53.9398 93.57066666666665 50.15193333333333 96.54599999999999 47.17713333333333 100.33333333333333 46.62186666666666 100.95866666666666 46.530199999999994 101.70466666666665 46.530199999999994 103.19666666666666 46.530199999999994 104.68866666666665 46.530199999999994 105.43533333333332 46.530199999999994 106.06 46.62186666666666 109.84799999999998 47.17713333333333 112.82266666666666 50.15193333333333 113.378 53.9398 113.47 54.565 113.47 55.31106666666666 113.47 56.803133333333335 113.47 58.2952 113.47 59.04126666666666 113.378 59.666466666666665 112.82266666666666 63.45426666666666 109.84799999999998 66.42906666666667 106.06 66.98466666666667 105.43533333333332 67.076 104.68866666666665 67.076 103.19666666666666 67.076 101.70466666666665 67.076 100.95866666666666 67.076 100.33333333333333 66.98466666666667 96.54599999999999 66.42906666666667 93.57066666666665 63.45426666666666 93.01533333333333 59.666466666666665 92.92399999999999 59.04126666666666 92.92399999999999 58.2952 92.92399999999999 56.803133333333335Z" class="hierarchical-1:primary "/><path d="M23.333333333333332 80C23.333333333333332 78.508 23.333333333333332 77.762 23.425 77.13666666666666 23.980266666666665 73.34866666666666 26.955066666666667 70.374 30.742933333333333 69.81866666666666 31.368133333333333 69.72733333333332 32.11413333333333 69.72733333333332 33.60626666666666 69.72733333333332 35.09833333333333 69.72733333333332 35.84433333333333 69.72733333333332 36.46953333333333 69.81866666666666 40.2574 70.374 43.23219999999999 73.34866666666666 43.78746666666667 77.13666666666666 43.879133333333336 77.762 43.879133333333336 78.508 43.879133333333336 80 43.879133333333336 81.49199999999999 43.879133333333336 82.238 43.78746666666667 82.86333333333333 43.23219999999999 86.65133333333333 40.2574 89.62599999999999 36.46953333333333 90.18133333333333 35.84433333333333 90.27266666666665 35.09833333333333 90.27266666666665 33.60626666666666 90.27266666666665 32.11413333333333 90.27266666666665 31.368133333333333 90.27266666666665 30.742933333333333 90.18133333333333 26.955066666666667 89.62599999999999 23.980266666666665 86.65133333333333 23.425 82.86333333333333 23.333333333333332 82.238 23.333333333333332 81.49199999999999 23.333333333333332 80Z" class="hierarchical-1:primary "/><path d="M23.333333333333332 103C23.333333333333332 101.452 23.333333333333332 100.67733333333332 23.432000000000002 100.02933333333334 24.00273333333333 96.27933333333334 26.945933333333333 93.33599999999998 30.695999999999998 92.76533333333333 31.344266666666663 92.66666666666666 32.118399999999994 92.66666666666666 33.666666666666664 92.66666666666666H103C104.548 92.66666666666666 105.32266666666666 92.66666666666666 105.97066666666666 92.76533333333333 109.72066666666666 93.33599999999998 112.664 96.27933333333334 113.23466666666667 100.02933333333334 113.33333333333333 100.67733333333332 113.33333333333333 101.452 113.33333333333333 103 113.33333333333333 104.548 113.33333333333333 105.32266666666666 113.23466666666667 105.97066666666666 112.664 109.72066666666666 109.72066666666666 112.664 105.97066666666666 113.23466666666667 105.32266666666666 113.33333333333333 104.548 113.33333333333333 103 113.33333333333333H33.666666666666664C32.118399999999994 113.33333333333333 31.344266666666663 113.33333333333333 30.695999999999998 113.23466666666667 26.945933333333333 112.664 24.00273333333333 109.72066666666666 23.432000000000002 105.97066666666666 23.333333333333332 105.32266666666666 23.333333333333332 104.548 23.333333333333332 103Z" class="hierarchical-1:primary "/><path d="M70.06333333333333 77.622C70 78.14266666666666 70 78.76133333333333 70 80 70 81.23866666666666 70 81.85733333333333 70.06333333333333 82.37799999999999 70.544 86.33666666666666 73.66333333333333 89.45599999999999 77.622 89.93666666666667 78.14266666666666 90 78.76133333333333 90 80 90H126.66666666666666C127.90533333333333 90 128.524 90 129.04466666666667 89.93666666666667 133.00333333333333 89.45599999999999 136.12266666666665 86.33666666666666 136.60333333333332 82.37799999999999 136.66666666666666 81.85733333333333 136.66666666666666 81.23866666666666 136.66666666666666 80 136.66666666666666 78.76133333333333 136.66666666666666 78.14266666666666 136.60333333333332 77.622 136.12266666666665 73.66333333333333 133.00333333333333 70.544 129.04466666666667 70.06333333333333 128.524 70 127.90533333333333 70 126.66666666666666 70H80C78.76133333333333 70 78.14266666666666 70 77.622 70.06333333333333 73.66333333333333 70.544 70.544 73.66333333333333 70.06333333333333 77.622Z" class="hierarchical-1:primary "/><path d="M116.12066666666666 126.394C116.12066666666666 124.902 116.12066666666666 124.15533333333333 116.21266666666665 123.53066666666666 116.76799999999999 119.74266666666666 119.74266666666666 116.76799999999999 123.53066666666666 116.21266666666665 124.15533333333333 116.12066666666666 124.902 116.12066666666666 126.394 116.12066666666666 127.886 116.12066666666666 128.632 116.12066666666666 129.25733333333332 116.21266666666665 133.04466666666667 116.76799999999999 136.01999999999998 119.74266666666666 136.57533333333333 123.53066666666666 136.66666666666666 124.15533333333333 136.66666666666666 124.902 136.66666666666666 126.394 136.66666666666666 127.886 136.66666666666666 128.632 136.57533333333333 129.25733333333332 136.01999999999998 133.04466666666667 133.04466666666667 136.01999999999998 129.25733333333332 136.57533333333333 128.632 136.66666666666666 127.886 136.66666666666666 126.394 136.66666666666666 124.902 136.66666666666666 124.15533333333333 136.66666666666666 123.53066666666666 136.57533333333333 119.74266666666666 136.01999999999998 116.76799999999999 133.04466666666667 116.21266666666665 129.25733333333332 116.12066666666666 128.632 116.12066666666666 127.886 116.12066666666666 126.394Z" class="hierarchical-1:primary "/><path d="M69.81866666666666 123.53066666666666C69.72733333333332 124.15533333333333 69.72733333333332 124.902 69.72733333333332 126.394 69.72733333333332 127.886 69.72733333333332 128.632 69.81866666666666 129.25733333333332 70.374 133.04466666666667 73.34866666666666 136.01999999999998 77.13666666666666 136.57533333333333 77.762 136.66666666666666 78.508 136.66666666666666 80 136.66666666666666 81.49199999999999 136.66666666666666 82.238 136.66666666666666 82.86333333333333 136.57533333333333 86.65133333333333 136.01999999999998 89.62599999999999 133.04466666666667 90.18133333333333 129.25733333333332 90.27266666666665 128.632 90.27266666666665 127.886 90.27266666666665 126.394 90.27266666666665 124.902 90.27266666666665 124.15533333333333 90.18133333333333 123.53066666666666 89.62599999999999 119.74266666666666 86.65133333333333 116.76799999999999 82.86333333333333 116.21266666666665 82.238 116.12066666666666 81.49199999999999 116.12066666666666 80 116.12066666666666 78.508 116.12066666666666 77.762 116.12066666666666 77.13666666666666 116.21266666666665 73.34866666666666 116.76799999999999 70.374 119.74266666666666 69.81866666666666 123.53066666666666Z" class="hierarchical-1:primary "/></g>
  <g id="Black-M" transform="matrix(1,0,0,1,2869.3999999999996,1026.77)">

  <path d="M56.07893333333333 24.5568C56 25.07541333333333 56 25.69472 56 26.933333333333334 56 28.171946666666667 56 28.791253333333334 56.07893333333333 29.309866666666668 56.53546666666667 32.30992 58.89013333333333 34.664480000000005 61.89013333333333 35.12106666666667 62.40853333333334 35.2 63.02826666666667 35.2 64.26666666666667 35.2H82.4C83.6384 35.2 84.25813333333333 35.2 84.77653333333333 35.12106666666667 87.77653333333333 34.664480000000005 90.1312 32.30992 90.58773333333333 29.309866666666668 90.66666666666667 28.791253333333334 90.66666666666667 28.171946666666667 90.66666666666667 26.933333333333334 90.66666666666667 25.69472 90.66666666666667 25.07541333333333 90.58773333333333 24.5568 90.1312 21.556746666666665 87.77653333333333 19.202186666666666 84.77653333333333 18.745600000000003 84.25813333333333 18.666666666666668 83.6384 18.666666666666668 82.4 18.666666666666668H64.26666666666667C63.02826666666667 18.666666666666668 62.40853333333334 18.666666666666668 61.89013333333333 18.745600000000003 58.89013333333333 19.202186666666666 56.53546666666667 21.556746666666665 56.07893333333333 24.5568Z" class="hierarchical-1:primary "/><path d="M74.33919999999999 45.44250666666667C74.33919999999999 44.24885333333333 74.33919999999999 43.652 74.41226666666667 43.15184 74.85653333333333 40.12154666666667 77.23679999999999 37.741706666666666 80.26666666666667 37.297493333333335 80.76693333333333 37.22416 81.36373333333333 37.22416 82.55733333333333 37.22416 83.75093333333332 37.22416 84.34826666666666 37.22416 84.848 37.297493333333335 87.8784 37.741706666666666 90.25813333333333 40.12154666666667 90.7024 43.15184 90.77600000000001 43.652 90.77600000000001 44.24885333333333 90.77600000000001 45.44250666666667 90.77600000000001 46.636160000000004 90.77600000000001 47.23301333333333 90.7024 47.73317333333333 90.25813333333333 50.76341333333333 87.8784 53.143253333333334 84.848 53.58773333333333 84.34826666666666 53.6608 83.75093333333332 53.6608 82.55733333333333 53.6608 81.36373333333333 53.6608 80.76693333333333 53.6608 80.26666666666667 53.58773333333333 77.23679999999999 53.143253333333334 74.85653333333333 50.76341333333333 74.41226666666667 47.73317333333333 74.33919999999999 47.23301333333333 74.33919999999999 46.636160000000004 74.33919999999999 45.44250666666667Z" class="hierarchical-1:primary "/><path d="M18.666666666666668 64C18.666666666666668 62.8064 18.666666666666668 62.2096 18.740000000000002 61.70933333333333 19.184213333333332 58.67893333333333 21.564053333333334 56.299200000000006 24.594346666666667 55.85493333333333 25.094506666666668 55.781866666666666 25.691306666666666 55.781866666666666 26.885013333333333 55.781866666666666 28.078666666666667 55.781866666666666 28.675466666666665 55.781866666666666 29.17562666666667 55.85493333333333 32.20592 56.299200000000006 34.58575999999999 58.67893333333333 35.02997333333334 61.70933333333333 35.10330666666667 62.2096 35.10330666666667 62.8064 35.10330666666667 64 35.10330666666667 65.1936 35.10330666666667 65.7904 35.02997333333334 66.29066666666667 34.58575999999999 69.32106666666667 32.20592 71.7008 29.17562666666667 72.14506666666666 28.675466666666665 72.21813333333333 28.078666666666667 72.21813333333333 26.885013333333333 72.21813333333333 25.691306666666666 72.21813333333333 25.094506666666668 72.21813333333333 24.594346666666667 72.14506666666666 21.564053333333334 71.7008 19.184213333333332 69.32106666666667 18.740000000000002 66.29066666666667 18.666666666666668 65.7904 18.666666666666668 65.1936 18.666666666666668 64Z" class="hierarchical-1:primary "/><path d="M18.666666666666668 82.4C18.666666666666668 81.16159999999999 18.666666666666668 80.54186666666666 18.745600000000003 80.02346666666668 19.202186666666666 77.02346666666668 21.556746666666665 74.66879999999999 24.5568 74.21226666666666 25.07541333333333 74.13333333333333 25.69472 74.13333333333333 26.933333333333334 74.13333333333333H82.4C83.6384 74.13333333333333 84.25813333333333 74.13333333333333 84.77653333333333 74.21226666666666 87.77653333333333 74.66879999999999 90.1312 77.02346666666668 90.58773333333333 80.02346666666668 90.66666666666667 80.54186666666666 90.66666666666667 81.16159999999999 90.66666666666667 82.4 90.66666666666667 83.6384 90.66666666666667 84.25813333333333 90.58773333333333 84.77653333333333 90.1312 87.77653333333333 87.77653333333333 90.1312 84.77653333333333 90.58773333333333 84.25813333333333 90.66666666666667 83.6384 90.66666666666667 82.4 90.66666666666667H26.933333333333334C25.69472 90.66666666666667 25.07541333333333 90.66666666666667 24.5568 90.58773333333333 21.556746666666665 90.1312 19.202186666666666 87.77653333333333 18.745600000000003 84.77653333333333 18.666666666666668 84.25813333333333 18.666666666666668 83.6384 18.666666666666668 82.4Z" class="hierarchical-1:primary "/><path d="M56.050666666666665 62.0976C56 62.514133333333334 56 63.00906666666666 56 64 56 64.99093333333333 56 65.48586666666667 56.050666666666665 65.9024 56.4352 69.06933333333333 58.93066666666667 71.56479999999999 62.0976 71.94933333333333 62.514133333333334 72 63.00906666666666 72 64 72H101.33333333333333C102.32426666666667 72 102.8192 72 103.23573333333333 71.94933333333333 106.40266666666666 71.56479999999999 108.89813333333333 69.06933333333333 109.28266666666667 65.9024 109.33333333333333 65.48586666666667 109.33333333333333 64.99093333333333 109.33333333333333 64 109.33333333333333 63.00906666666666 109.33333333333333 62.514133333333334 109.28266666666667 62.0976 108.89813333333333 58.93066666666667 106.40266666666666 56.4352 103.23573333333333 56.050666666666665 102.8192 56 102.32426666666667 56 101.33333333333333 56H64C63.00906666666666 56 62.514133333333334 56 62.0976 56.050666666666665 58.93066666666667 56.4352 56.4352 58.93066666666667 56.050666666666665 62.0976Z" class="hierarchical-1:primary "/><path d="M92.89653333333334 101.1152C92.89653333333334 99.9216 92.89653333333334 99.32426666666667 92.97013333333332 98.82453333333333 93.41439999999999 95.79413333333333 95.79413333333333 93.41439999999999 98.82453333333333 92.97013333333332 99.32426666666667 92.89653333333334 99.9216 92.89653333333334 101.1152 92.89653333333334 102.3088 92.89653333333334 102.9056 92.89653333333334 103.40586666666667 92.97013333333332 106.43573333333333 93.41439999999999 108.816 95.79413333333333 109.26026666666667 98.82453333333333 109.33333333333333 99.32426666666667 109.33333333333333 99.9216 109.33333333333333 101.1152 109.33333333333333 102.3088 109.33333333333333 102.9056 109.26026666666667 103.40586666666667 108.816 106.43573333333333 106.43573333333333 108.816 103.40586666666667 109.26026666666667 102.9056 109.33333333333333 102.3088 109.33333333333333 101.1152 109.33333333333333 99.9216 109.33333333333333 99.32426666666667 109.33333333333333 98.82453333333333 109.26026666666667 95.79413333333333 108.816 93.41439999999999 106.43573333333333 92.97013333333332 103.40586666666667 92.89653333333334 102.9056 92.89653333333334 102.3088 92.89653333333334 101.1152Z" class="hierarchical-1:primary "/><path d="M55.85493333333333 98.82453333333333C55.781866666666666 99.32426666666667 55.781866666666666 99.9216 55.781866666666666 101.1152 55.781866666666666 102.3088 55.781866666666666 102.9056 55.85493333333333 103.40586666666667 56.299200000000006 106.43573333333333 58.67893333333333 108.816 61.70933333333333 109.26026666666667 62.2096 109.33333333333333 62.8064 109.33333333333333 64 109.33333333333333 65.1936 109.33333333333333 65.7904 109.33333333333333 66.29066666666667 109.26026666666667 69.32106666666667 108.816 71.7008 106.43573333333333 72.14506666666666 103.40586666666667 72.21813333333333 102.9056 72.21813333333333 102.3088 72.21813333333333 101.1152 72.21813333333333 99.9216 72.21813333333333 99.32426666666667 72.14506666666666 98.82453333333333 71.7008 95.79413333333333 69.32106666666667 93.41439999999999 66.29066666666667 92.97013333333332 65.7904 92.89653333333334 65.1936 92.89653333333334 64 92.89653333333334 62.8064 92.89653333333334 62.2096 92.89653333333334 61.70933333333333 92.97013333333332 58.67893333333333 93.41439999999999 56.299200000000006 95.79413333333333 55.85493333333333 98.82453333333333Z" class="hierarchical-1:primary "/></g>
  <g id="Regular-M" transform="matrix(1,0,0,1,1385.845,1026.77)">

  <path d="M56.07893333333333 24.5568C56 25.07541333333333 56 25.69472 56 26.933333333333334 56 28.171946666666667 56 28.791253333333334 56.07893333333333 29.309866666666668 56.53546666666667 32.30992 58.89013333333333 34.664480000000005 61.89013333333333 35.12106666666667 62.40853333333334 35.2 63.02826666666667 35.2 64.26666666666667 35.2H82.4C83.6384 35.2 84.25813333333333 35.2 84.77653333333333 35.12106666666667 87.77653333333333 34.664480000000005 90.1312 32.30992 90.58773333333333 29.309866666666668 90.66666666666667 28.791253333333334 90.66666666666667 28.171946666666667 90.66666666666667 26.933333333333334 90.66666666666667 25.69472 90.66666666666667 25.07541333333333 90.58773333333333 24.5568 90.1312 21.556746666666665 87.77653333333333 19.202186666666666 84.77653333333333 18.745600000000003 84.25813333333333 18.666666666666668 83.6384 18.666666666666668 82.4 18.666666666666668H64.26666666666667C63.02826666666667 18.666666666666668 62.40853333333334 18.666666666666668 61.89013333333333 18.745600000000003 58.89013333333333 19.202186666666666 56.53546666666667 21.556746666666665 56.07893333333333 24.5568Z" class="hierarchical-1:primary "/><path d="M74.33919999999999 45.44250666666667C74.33919999999999 44.24885333333333 74.33919999999999 43.652 74.41226666666667 43.15184 74.85653333333333 40.12154666666667 77.23679999999999 37.741706666666666 80.26666666666667 37.297493333333335 80.76693333333333 37.22416 81.36373333333333 37.22416 82.55733333333333 37.22416 83.75093333333332 37.22416 84.34826666666666 37.22416 84.848 37.297493333333335 87.8784 37.741706666666666 90.25813333333333 40.12154666666667 90.7024 43.15184 90.77600000000001 43.652 90.77600000000001 44.24885333333333 90.77600000000001 45.44250666666667 90.77600000000001 46.636160000000004 90.77600000000001 47.23301333333333 90.7024 47.73317333333333 90.25813333333333 50.76341333333333 87.8784 53.143253333333334 84.848 53.58773333333333 84.34826666666666 53.6608 83.75093333333332 53.6608 82.55733333333333 53.6608 81.36373333333333 53.6608 80.76693333333333 53.6608 80.26666666666667 53.58773333333333 77.23679999999999 53.143253333333334 74.85653333333333 50.76341333333333 74.41226666666667 47.73317333333333 74.33919999999999 47.23301333333333 74.33919999999999 46.636160000000004 74.33919999999999 45.44250666666667Z" class="hierarchical-1:primary "/><path d="M18.666666666666668 64C18.666666666666668 62.8064 18.666666666666668 62.2096 18.740000000000002 61.70933333333333 19.184213333333332 58.67893333333333 21.564053333333334 56.299200000000006 24.594346666666667 55.85493333333333 25.094506666666668 55.781866666666666 25.691306666666666 55.781866666666666 26.885013333333333 55.781866666666666 28.078666666666667 55.781866666666666 28.675466666666665 55.781866666666666 29.17562666666667 55.85493333333333 32.20592 56.299200000000006 34.58575999999999 58.67893333333333 35.02997333333334 61.70933333333333 35.10330666666667 62.2096 35.10330666666667 62.8064 35.10330666666667 64 35.10330666666667 65.1936 35.10330666666667 65.7904 35.02997333333334 66.29066666666667 34.58575999999999 69.32106666666667 32.20592 71.7008 29.17562666666667 72.14506666666666 28.675466666666665 72.21813333333333 28.078666666666667 72.21813333333333 26.885013333333333 72.21813333333333 25.691306666666666 72.21813333333333 25.094506666666668 72.21813333333333 24.594346666666667 72.14506666666666 21.564053333333334 71.7008 19.184213333333332 69.32106666666667 18.740000000000002 66.29066666666667 18.666666666666668 65.7904 18.666666666666668 65.1936 18.666666666666668 64Z" class="hierarchical-1:primary "/><path d="M18.666666666666668 82.4C18.666666666666668 81.16159999999999 18.666666666666668 80.54186666666666 18.745600000000003 80.02346666666668 19.202186666666666 77.02346666666668 21.556746666666665 74.66879999999999 24.5568 74.21226666666666 25.07541333333333 74.13333333333333 25.69472 74.13333333333333 26.933333333333334 74.13333333333333H82.4C83.6384 74.13333333333333 84.25813333333333 74.13333333333333 84.77653333333333 74.21226666666666 87.77653333333333 74.66879999999999 90.1312 77.02346666666668 90.58773333333333 80.02346666666668 90.66666666666667 80.54186666666666 90.66666666666667 81.16159999999999 90.66666666666667 82.4 90.66666666666667 83.6384 90.66666666666667 84.25813333333333 90.58773333333333 84.77653333333333 90.1312 87.77653333333333 87.77653333333333 90.1312 84.77653333333333 90.58773333333333 84.25813333333333 90.66666666666667 83.6384 90.66666666666667 82.4 90.66666666666667H26.933333333333334C25.69472 90.66666666666667 25.07541333333333 90.66666666666667 24.5568 90.58773333333333 21.556746666666665 90.1312 19.202186666666666 87.77653333333333 18.745600000000003 84.77653333333333 18.666666666666668 84.25813333333333 18.666666666666668 83.6384 18.666666666666668 82.4Z" class="hierarchical-1:primary "/><path d="M56.050666666666665 62.0976C56 62.514133333333334 56 63.00906666666666 56 64 56 64.99093333333333 56 65.48586666666667 56.050666666666665 65.9024 56.4352 69.06933333333333 58.93066666666667 71.56479999999999 62.0976 71.94933333333333 62.514133333333334 72 63.00906666666666 72 64 72H101.33333333333333C102.32426666666667 72 102.8192 72 103.23573333333333 71.94933333333333 106.40266666666666 71.56479999999999 108.89813333333333 69.06933333333333 109.28266666666667 65.9024 109.33333333333333 65.48586666666667 109.33333333333333 64.99093333333333 109.33333333333333 64 109.33333333333333 63.00906666666666 109.33333333333333 62.514133333333334 109.28266666666667 62.0976 108.89813333333333 58.93066666666667 106.40266666666666 56.4352 103.23573333333333 56.050666666666665 102.8192 56 102.32426666666667 56 101.33333333333333 56H64C63.00906666666666 56 62.514133333333334 56 62.0976 56.050666666666665 58.93066666666667 56.4352 56.4352 58.93066666666667 56.050666666666665 62.0976Z" class="hierarchical-1:primary "/><path d="M92.89653333333334 101.1152C92.89653333333334 99.9216 92.89653333333334 99.32426666666667 92.97013333333332 98.82453333333333 93.41439999999999 95.79413333333333 95.79413333333333 93.41439999999999 98.82453333333333 92.97013333333332 99.32426666666667 92.89653333333334 99.9216 92.89653333333334 101.1152 92.89653333333334 102.3088 92.89653333333334 102.9056 92.89653333333334 103.40586666666667 92.97013333333332 106.43573333333333 93.41439999999999 108.816 95.79413333333333 109.26026666666667 98.82453333333333 109.33333333333333 99.32426666666667 109.33333333333333 99.9216 109.33333333333333 101.1152 109.33333333333333 102.3088 109.33333333333333 102.9056 109.26026666666667 103.40586666666667 108.816 106.43573333333333 106.43573333333333 108.816 103.40586666666667 109.26026666666667 102.9056 109.33333333333333 102.3088 109.33333333333333 101.1152 109.33333333333333 99.9216 109.33333333333333 99.32426666666667 109.33333333333333 98.82453333333333 109.26026666666667 95.79413333333333 108.816 93.41439999999999 106.43573333333333 92.97013333333332 103.40586666666667 92.89653333333334 102.9056 92.89653333333334 102.3088 92.89653333333334 101.1152Z" class="hierarchical-1:primary "/><path d="M55.85493333333333 98.82453333333333C55.781866666666666 99.32426666666667 55.781866666666666 99.9216 55.781866666666666 101.1152 55.781866666666666 102.3088 55.781866666666666 102.9056 55.85493333333333 103.40586666666667 56.299200000000006 106.43573333333333 58.67893333333333 108.816 61.70933333333333 109.26026666666667 62.2096 109.33333333333333 62.8064 109.33333333333333 64 109.33333333333333 65.1936 109.33333333333333 65.7904 109.33333333333333 66.29066666666667 109.26026666666667 69.32106666666667 108.816 71.7008 106.43573333333333 72.14506666666666 103.40586666666667 72.21813333333333 102.9056 72.21813333333333 102.3088 72.21813333333333 101.1152 72.21813333333333 99.9216 72.21813333333333 99.32426666666667 72.14506666666666 98.82453333333333 71.7008 95.79413333333333 69.32106666666667 93.41439999999999 66.29066666666667 92.97013333333332 65.7904 92.89653333333334 65.1936 92.89653333333334 64 92.89653333333334 62.8064 92.89653333333334 62.2096 92.89653333333334 61.70933333333333 92.97013333333332 58.67893333333333 93.41439999999999 56.299200000000006 95.79413333333333 55.85493333333333 98.82453333333333Z" class="hierarchical-1:primary "/></g>
  <g id="Ultralight-M" transform="matrix(1,0,0,1,495.711,1026.77)">

  <path d="M56.07893333333333 24.5568C56 25.07541333333333 56 25.69472 56 26.933333333333334 56 28.171946666666667 56 28.791253333333334 56.07893333333333 29.309866666666668 56.53546666666667 32.30992 58.89013333333333 34.664480000000005 61.89013333333333 35.12106666666667 62.40853333333334 35.2 63.02826666666667 35.2 64.26666666666667 35.2H82.4C83.6384 35.2 84.25813333333333 35.2 84.77653333333333 35.12106666666667 87.77653333333333 34.664480000000005 90.1312 32.30992 90.58773333333333 29.309866666666668 90.66666666666667 28.791253333333334 90.66666666666667 28.171946666666667 90.66666666666667 26.933333333333334 90.66666666666667 25.69472 90.66666666666667 25.07541333333333 90.58773333333333 24.5568 90.1312 21.556746666666665 87.77653333333333 19.202186666666666 84.77653333333333 18.745600000000003 84.25813333333333 18.666666666666668 83.6384 18.666666666666668 82.4 18.666666666666668H64.26666666666667C63.02826666666667 18.666666666666668 62.40853333333334 18.666666666666668 61.89013333333333 18.745600000000003 58.89013333333333 19.202186666666666 56.53546666666667 21.556746666666665 56.07893333333333 24.5568Z" class="hierarchical-1:primary "/><path d="M74.33919999999999 45.44250666666667C74.33919999999999 44.24885333333333 74.33919999999999 43.652 74.41226666666667 43.15184 74.85653333333333 40.12154666666667 77.23679999999999 37.741706666666666 80.26666666666667 37.297493333333335 80.76693333333333 37.22416 81.36373333333333 37.22416 82.55733333333333 37.22416 83.75093333333332 37.22416 84.34826666666666 37.22416 84.848 37.297493333333335 87.8784 37.741706666666666 90.25813333333333 40.12154666666667 90.7024 43.15184 90.77600000000001 43.652 90.77600000000001 44.24885333333333 90.77600000000001 45.44250666666667 90.77600000000001 46.636160000000004 90.77600000000001 47.23301333333333 90.7024 47.73317333333333 90.25813333333333 50.76341333333333 87.8784 53.143253333333334 84.848 53.58773333333333 84.34826666666666 53.6608 83.75093333333332 53.6608 82.55733333333333 53.6608 81.36373333333333 53.6608 80.76693333333333 53.6608 80.26666666666667 53.58773333333333 77.23679999999999 53.143253333333334 74.85653333333333 50.76341333333333 74.41226666666667 47.73317333333333 74.33919999999999 47.23301333333333 74.33919999999999 46.636160000000004 74.33919999999999 45.44250666666667Z" class="hierarchical-1:primary "/><path d="M18.666666666666668 64C18.666666666666668 62.8064 18.666666666666668 62.2096 18.740000000000002 61.70933333333333 19.184213333333332 58.67893333333333 21.564053333333334 56.299200000000006 24.594346666666667 55.85493333333333 25.094506666666668 55.781866666666666 25.691306666666666 55.781866666666666 26.885013333333333 55.781866666666666 28.078666666666667 55.781866666666666 28.675466666666665 55.781866666666666 29.17562666666667 55.85493333333333 32.20592 56.299200000000006 34.58575999999999 58.67893333333333 35.02997333333334 61.70933333333333 35.10330666666667 62.2096 35.10330666666667 62.8064 35.10330666666667 64 35.10330666666667 65.1936 35.10330666666667 65.7904 35.02997333333334 66.29066666666667 34.58575999999999 69.32106666666667 32.20592 71.7008 29.17562666666667 72.14506666666666 28.675466666666665 72.21813333333333 28.078666666666667 72.21813333333333 26.885013333333333 72.21813333333333 25.691306666666666 72.21813333333333 25.094506666666668 72.21813333333333 24.594346666666667 72.14506666666666 21.564053333333334 71.7008 19.184213333333332 69.32106666666667 18.740000000000002 66.29066666666667 18.666666666666668 65.7904 18.666666666666668 65.1936 18.666666666666668 64Z" class="hierarchical-1:primary "/><path d="M18.666666666666668 82.4C18.666666666666668 81.16159999999999 18.666666666666668 80.54186666666666 18.745600000000003 80.02346666666668 19.202186666666666 77.02346666666668 21.556746666666665 74.66879999999999 24.5568 74.21226666666666 25.07541333333333 74.13333333333333 25.69472 74.13333333333333 26.933333333333334 74.13333333333333H82.4C83.6384 74.13333333333333 84.25813333333333 74.13333333333333 84.77653333333333 74.21226666666666 87.77653333333333 74.66879999999999 90.1312 77.02346666666668 90.58773333333333 80.02346666666668 90.66666666666667 80.54186666666666 90.66666666666667 81.16159999999999 90.66666666666667 82.4 90.66666666666667 83.6384 90.66666666666667 84.25813333333333 90.58773333333333 84.77653333333333 90.1312 87.77653333333333 87.77653333333333 90.1312 84.77653333333333 90.58773333333333 84.25813333333333 90.66666666666667 83.6384 90.66666666666667 82.4 90.66666666666667H26.933333333333334C25.69472 90.66666666666667 25.07541333333333 90.66666666666667 24.5568 90.58773333333333 21.556746666666665 90.1312 19.202186666666666 87.77653333333333 18.745600000000003 84.77653333333333 18.666666666666668 84.25813333333333 18.666666666666668 83.6384 18.666666666666668 82.4Z" class="hierarchical-1:primary "/><path d="M56.050666666666665 62.0976C56 62.514133333333334 56 63.00906666666666 56 64 56 64.99093333333333 56 65.48586666666667 56.050666666666665 65.9024 56.4352 69.06933333333333 58.93066666666667 71.56479999999999 62.0976 71.94933333333333 62.514133333333334 72 63.00906666666666 72 64 72H101.33333333333333C102.32426666666667 72 102.8192 72 103.23573333333333 71.94933333333333 106.40266666666666 71.56479999999999 108.89813333333333 69.06933333333333 109.28266666666667 65.9024 109.33333333333333 65.48586666666667 109.33333333333333 64.99093333333333 109.33333333333333 64 109.33333333333333 63.00906666666666 109.33333333333333 62.514133333333334 109.28266666666667 62.0976 108.89813333333333 58.93066666666667 106.40266666666666 56.4352 103.23573333333333 56.050666666666665 102.8192 56 102.32426666666667 56 101.33333333333333 56H64C63.00906666666666 56 62.514133333333334 56 62.0976 56.050666666666665 58.93066666666667 56.4352 56.4352 58.93066666666667 56.050666666666665 62.0976Z" class="hierarchical-1:primary "/><path d="M92.89653333333334 101.1152C92.89653333333334 99.9216 92.89653333333334 99.32426666666667 92.97013333333332 98.82453333333333 93.41439999999999 95.79413333333333 95.79413333333333 93.41439999999999 98.82453333333333 92.97013333333332 99.32426666666667 92.89653333333334 99.9216 92.89653333333334 101.1152 92.89653333333334 102.3088 92.89653333333334 102.9056 92.89653333333334 103.40586666666667 92.97013333333332 106.43573333333333 93.41439999999999 108.816 95.79413333333333 109.26026666666667 98.82453333333333 109.33333333333333 99.32426666666667 109.33333333333333 99.9216 109.33333333333333 101.1152 109.33333333333333 102.3088 109.33333333333333 102.9056 109.26026666666667 103.40586666666667 108.816 106.43573333333333 106.43573333333333 108.816 103.40586666666667 109.26026666666667 102.9056 109.33333333333333 102.3088 109.33333333333333 101.1152 109.33333333333333 99.9216 109.33333333333333 99.32426666666667 109.33333333333333 98.82453333333333 109.26026666666667 95.79413333333333 108.816 93.41439999999999 106.43573333333333 92.97013333333332 103.40586666666667 92.89653333333334 102.9056 92.89653333333334 102.3088 92.89653333333334 101.1152Z" class="hierarchical-1:primary "/><path d="M55.85493333333333 98.82453333333333C55.781866666666666 99.32426666666667 55.781866666666666 99.9216 55.781866666666666 101.1152 55.781866666666666 102.3088 55.781866666666666 102.9056 55.85493333333333 103.40586666666667 56.299200000000006 106.43573333333333 58.67893333333333 108.816 61.70933333333333 109.26026666666667 62.2096 109.33333333333333 62.8064 109.33333333333333 64 109.33333333333333 65.1936 109.33333333333333 65.7904 109.33333333333333 66.29066666666667 109.26026666666667 69.32106666666667 108.816 71.7008 106.43573333333333 72.14506666666666 103.40586666666667 72.21813333333333 102.9056 72.21813333333333 102.3088 72.21813333333333 101.1152 72.21813333333333 99.9216 72.21813333333333 99.32426666666667 72.14506666666666 98.82453333333333 71.7008 95.79413333333333 69.32106666666667 93.41439999999999 66.29066666666667 92.97013333333332 65.7904 92.89653333333334 65.1936 92.89653333333334 64 92.89653333333334 62.8064 92.89653333333334 62.2096 92.89653333333334 61.70933333333333 92.97013333333332 58.67893333333333 93.41439999999999 56.299200000000006 95.79413333333333 55.85493333333333 98.82453333333333Z" class="hierarchical-1:primary "/></g>
  <g id="Black-S" transform="matrix(1,0,0,1,2885.3999999999996,612.7705000000001)">

  <path d="M42.059200000000004 18.4176C42 18.80656 42 19.27104 42 20.200000000000003 42 21.128960000000003 42 21.59344 42.059200000000004 21.982400000000002 42.4016 24.23244 44.1676 25.998360000000005 46.4176 26.3408 46.806400000000004 26.400000000000002 47.2712 26.400000000000002 48.2 26.400000000000002H61.800000000000004C62.72880000000001 26.400000000000002 63.1936 26.400000000000002 63.5824 26.3408 65.83239999999999 25.998360000000005 67.59840000000001 24.23244 67.94080000000001 21.982400000000002 68 21.59344 68 21.128960000000003 68 20.200000000000003 68 19.27104 68 18.80656 67.94080000000001 18.4176 67.59840000000001 16.16756 65.83239999999999 14.40164 63.5824 14.059200000000002 63.1936 14 62.72880000000001 14 61.800000000000004 14H48.2C47.2712 14 46.806400000000004 14 46.4176 14.059200000000002 44.1676 14.40164 42.4016 16.16756 42.059200000000004 18.4176Z" class="hierarchical-1:primary "/><path d="M55.754400000000004 34.081880000000005C55.754400000000004 33.186640000000004 55.754400000000004 32.739 55.809200000000004 32.36388 56.1424 30.091160000000002 57.9276 28.30628 60.2 27.97312 60.575199999999995 27.918120000000002 61.0228 27.918120000000002 61.918 27.918120000000002 62.813199999999995 27.918120000000002 63.2612 27.918120000000002 63.636 27.97312 65.9088 28.30628 67.6936 30.091160000000002 68.02680000000001 32.36388 68.08200000000001 32.739 68.08200000000001 33.186640000000004 68.08200000000001 34.081880000000005 68.08200000000001 34.977120000000006 68.08200000000001 35.42476 68.02680000000001 35.79988 67.6936 38.07256 65.9088 39.857440000000004 63.636 40.1908 63.2612 40.2456 62.813199999999995 40.2456 61.918 40.2456 61.0228 40.2456 60.575199999999995 40.2456 60.2 40.1908 57.9276 39.857440000000004 56.1424 38.07256 55.809200000000004 35.79988 55.754400000000004 35.42476 55.754400000000004 34.977120000000006 55.754400000000004 34.081880000000005Z" class="hierarchical-1:primary "/><path d="M14 48C14 47.104800000000004 14 46.6572 14.055000000000001 46.282000000000004 14.38816 44.0092 16.17304 42.2244 18.445760000000003 41.8912 18.82088 41.8364 19.26848 41.8364 20.16376 41.8364 21.059 41.8364 21.506600000000002 41.8364 21.88172 41.8912 24.15444 42.2244 25.93932 44.0092 26.27248 46.282000000000004 26.327480000000005 46.6572 26.327480000000005 47.104800000000004 26.327480000000005 48 26.327480000000005 48.8952 26.327480000000005 49.342800000000004 26.27248 49.718 25.93932 51.99080000000001 24.15444 53.7756 21.88172 54.1088 21.506600000000002 54.1636 21.059 54.1636 20.16376 54.1636 19.26848 54.1636 18.82088 54.1636 18.445760000000003 54.1088 16.17304 53.7756 14.38816 51.99080000000001 14.055000000000001 49.718 14 49.342800000000004 14 48.8952 14 48Z" class="hierarchical-1:primary "/><path d="M14 61.800000000000004C14 60.8712 14 60.4064 14.059200000000002 60.01760000000001 14.40164 57.76760000000001 16.16756 56.001599999999996 18.4176 55.6592 18.80656 55.6 19.27104 55.6 20.200000000000003 55.6H61.800000000000004C62.72880000000001 55.6 63.1936 55.6 63.5824 55.6592 65.83239999999999 56.001599999999996 67.59840000000001 57.76760000000001 67.94080000000001 60.01760000000001 68 60.4064 68 60.8712 68 61.800000000000004 68 62.72880000000001 68 63.1936 67.94080000000001 63.5824 67.59840000000001 65.83239999999999 65.83239999999999 67.59840000000001 63.5824 67.94080000000001 63.1936 68 62.72880000000001 68 61.800000000000004 68H20.200000000000003C19.27104 68 18.80656 68 18.4176 67.94080000000001 16.16756 67.59840000000001 14.40164 65.83239999999999 14.059200000000002 63.5824 14 63.1936 14 62.72880000000001 14 61.800000000000004Z" class="hierarchical-1:primary "/><path d="M42.038000000000004 46.57320000000001C42 46.885600000000004 42 47.2568 42 48 42 48.7432 42 49.1144 42.038000000000004 49.4268 42.32640000000001 51.802 44.19800000000001 53.6736 46.57320000000001 53.962 46.885600000000004 54 47.2568 54 48 54H76C76.7432 54 77.1144 54 77.42680000000001 53.962 79.802 53.6736 81.67360000000001 51.802 81.962 49.4268 82 49.1144 82 48.7432 82 48 82 47.2568 82 46.885600000000004 81.962 46.57320000000001 81.67360000000001 44.19800000000001 79.802 42.32640000000001 77.42680000000001 42.038000000000004 77.1144 42 76.7432 42 76 42H48C47.2568 42 46.885600000000004 42 46.57320000000001 42.038000000000004 44.19800000000001 42.32640000000001 42.32640000000001 44.19800000000001 42.038000000000004 46.57320000000001Z" class="hierarchical-1:primary "/><path d="M69.67240000000001 75.83640000000001C69.67240000000001 74.94120000000001 69.67240000000001 74.4932 69.7276 74.1184 70.0608 71.8456 71.8456 70.0608 74.1184 69.7276 74.4932 69.67240000000001 74.94120000000001 69.67240000000001 75.83640000000001 69.67240000000001 76.7316 69.67240000000001 77.17920000000001 69.67240000000001 77.5544 69.7276 79.8268 70.0608 81.61200000000001 71.8456 81.9452 74.1184 82 74.4932 82 74.94120000000001 82 75.83640000000001 82 76.7316 82 77.17920000000001 81.9452 77.5544 81.61200000000001 79.8268 79.8268 81.61200000000001 77.5544 81.9452 77.17920000000001 82 76.7316 82 75.83640000000001 82 74.94120000000001 82 74.4932 82 74.1184 81.9452 71.8456 81.61200000000001 70.0608 79.8268 69.7276 77.5544 69.67240000000001 77.17920000000001 69.67240000000001 76.7316 69.67240000000001 75.83640000000001Z" class="hierarchical-1:primary "/><path d="M41.8912 74.1184C41.8364 74.4932 41.8364 74.94120000000001 41.8364 75.83640000000001 41.8364 76.7316 41.8364 77.17920000000001 41.8912 77.5544 42.2244 79.8268 44.0092 81.61200000000001 46.282000000000004 81.9452 46.6572 82 47.104800000000004 82 48 82 48.8952 82 49.342800000000004 82 49.718 81.9452 51.99080000000001 81.61200000000001 53.7756 79.8268 54.1088 77.5544 54.1636 77.17920000000001 54.1636 76.7316 54.1636 75.83640000000001 54.1636 74.94120000000001 54.1636 74.4932 54.1088 74.1184 53.7756 71.8456 51.99080000000001 70.0608 49.718 69.7276 49.342800000000004 69.67240000000001 48.8952 69.67240000000001 48 69.67240000000001 47.104800000000004 69.67240000000001 46.6572 69.67240000000001 46.282000000000004 69.7276 44.0092 70.0608 42.2244 71.8456 41.8912 74.1184Z" class="hierarchical-1:primary "/></g>
  <g id="Regular-S" transform="matrix(1,0,0,1,1401.845,612.7705000000001)">

  <path d="M42.059200000000004 18.4176C42 18.80656 42 19.27104 42 20.200000000000003 42 21.128960000000003 42 21.59344 42.059200000000004 21.982400000000002 42.4016 24.23244 44.1676 25.998360000000005 46.4176 26.3408 46.806400000000004 26.400000000000002 47.2712 26.400000000000002 48.2 26.400000000000002H61.800000000000004C62.72880000000001 26.400000000000002 63.1936 26.400000000000002 63.5824 26.3408 65.83239999999999 25.998360000000005 67.59840000000001 24.23244 67.94080000000001 21.982400000000002 68 21.59344 68 21.128960000000003 68 20.200000000000003 68 19.27104 68 18.80656 67.94080000000001 18.4176 67.59840000000001 16.16756 65.83239999999999 14.40164 63.5824 14.059200000000002 63.1936 14 62.72880000000001 14 61.800000000000004 14H48.2C47.2712 14 46.806400000000004 14 46.4176 14.059200000000002 44.1676 14.40164 42.4016 16.16756 42.059200000000004 18.4176Z" class="hierarchical-1:primary "/><path d="M55.754400000000004 34.081880000000005C55.754400000000004 33.186640000000004 55.754400000000004 32.739 55.809200000000004 32.36388 56.1424 30.091160000000002 57.9276 28.30628 60.2 27.97312 60.575199999999995 27.918120000000002 61.0228 27.918120000000002 61.918 27.918120000000002 62.813199999999995 27.918120000000002 63.2612 27.918120000000002 63.636 27.97312 65.9088 28.30628 67.6936 30.091160000000002 68.02680000000001 32.36388 68.08200000000001 32.739 68.08200000000001 33.186640000000004 68.08200000000001 34.081880000000005 68.08200000000001 34.977120000000006 68.08200000000001 35.42476 68.02680000000001 35.79988 67.6936 38.07256 65.9088 39.857440000000004 63.636 40.1908 63.2612 40.2456 62.813199999999995 40.2456 61.918 40.2456 61.0228 40.2456 60.575199999999995 40.2456 60.2 40.1908 57.9276 39.857440000000004 56.1424 38.07256 55.809200000000004 35.79988 55.754400000000004 35.42476 55.754400000000004 34.977120000000006 55.754400000000004 34.081880000000005Z" class="hierarchical-1:primary "/><path d="M14 48C14 47.104800000000004 14 46.6572 14.055000000000001 46.282000000000004 14.38816 44.0092 16.17304 42.2244 18.445760000000003 41.8912 18.82088 41.8364 19.26848 41.8364 20.16376 41.8364 21.059 41.8364 21.506600000000002 41.8364 21.88172 41.8912 24.15444 42.2244 25.93932 44.0092 26.27248 46.282000000000004 26.327480000000005 46.6572 26.327480000000005 47.104800000000004 26.327480000000005 48 26.327480000000005 48.8952 26.327480000000005 49.342800000000004 26.27248 49.718 25.93932 51.99080000000001 24.15444 53.7756 21.88172 54.1088 21.506600000000002 54.1636 21.059 54.1636 20.16376 54.1636 19.26848 54.1636 18.82088 54.1636 18.445760000000003 54.1088 16.17304 53.7756 14.38816 51.99080000000001 14.055000000000001 49.718 14 49.342800000000004 14 48.8952 14 48Z" class="hierarchical-1:primary "/><path d="M14 61.800000000000004C14 60.8712 14 60.4064 14.059200000000002 60.01760000000001 14.40164 57.76760000000001 16.16756 56.001599999999996 18.4176 55.6592 18.80656 55.6 19.27104 55.6 20.200000000000003 55.6H61.800000000000004C62.72880000000001 55.6 63.1936 55.6 63.5824 55.6592 65.83239999999999 56.001599999999996 67.59840000000001 57.76760000000001 67.94080000000001 60.01760000000001 68 60.4064 68 60.8712 68 61.800000000000004 68 62.72880000000001 68 63.1936 67.94080000000001 63.5824 67.59840000000001 65.83239999999999 65.83239999999999 67.59840000000001 63.5824 67.94080000000001 63.1936 68 62.72880000000001 68 61.800000000000004 68H20.200000000000003C19.27104 68 18.80656 68 18.4176 67.94080000000001 16.16756 67.59840000000001 14.40164 65.83239999999999 14.059200000000002 63.5824 14 63.1936 14 62.72880000000001 14 61.800000000000004Z" class="hierarchical-1:primary "/><path d="M42.038000000000004 46.57320000000001C42 46.885600000000004 42 47.2568 42 48 42 48.7432 42 49.1144 42.038000000000004 49.4268 42.32640000000001 51.802 44.19800000000001 53.6736 46.57320000000001 53.962 46.885600000000004 54 47.2568 54 48 54H76C76.7432 54 77.1144 54 77.42680000000001 53.962 79.802 53.6736 81.67360000000001 51.802 81.962 49.4268 82 49.1144 82 48.7432 82 48 82 47.2568 82 46.885600000000004 81.962 46.57320000000001 81.67360000000001 44.19800000000001 79.802 42.32640000000001 77.42680000000001 42.038000000000004 77.1144 42 76.7432 42 76 42H48C47.2568 42 46.885600000000004 42 46.57320000000001 42.038000000000004 44.19800000000001 42.32640000000001 42.32640000000001 44.19800000000001 42.038000000000004 46.57320000000001Z" class="hierarchical-1:primary "/><path d="M69.67240000000001 75.83640000000001C69.67240000000001 74.94120000000001 69.67240000000001 74.4932 69.7276 74.1184 70.0608 71.8456 71.8456 70.0608 74.1184 69.7276 74.4932 69.67240000000001 74.94120000000001 69.67240000000001 75.83640000000001 69.67240000000001 76.7316 69.67240000000001 77.17920000000001 69.67240000000001 77.5544 69.7276 79.8268 70.0608 81.61200000000001 71.8456 81.9452 74.1184 82 74.4932 82 74.94120000000001 82 75.83640000000001 82 76.7316 82 77.17920000000001 81.9452 77.5544 81.61200000000001 79.8268 79.8268 81.61200000000001 77.5544 81.9452 77.17920000000001 82 76.7316 82 75.83640000000001 82 74.94120000000001 82 74.4932 82 74.1184 81.9452 71.8456 81.61200000000001 70.0608 79.8268 69.7276 77.5544 69.67240000000001 77.17920000000001 69.67240000000001 76.7316 69.67240000000001 75.83640000000001Z" class="hierarchical-1:primary "/><path d="M41.8912 74.1184C41.8364 74.4932 41.8364 74.94120000000001 41.8364 75.83640000000001 41.8364 76.7316 41.8364 77.17920000000001 41.8912 77.5544 42.2244 79.8268 44.0092 81.61200000000001 46.282000000000004 81.9452 46.6572 82 47.104800000000004 82 48 82 48.8952 82 49.342800000000004 82 49.718 81.9452 51.99080000000001 81.61200000000001 53.7756 79.8268 54.1088 77.5544 54.1636 77.17920000000001 54.1636 76.7316 54.1636 75.83640000000001 54.1636 74.94120000000001 54.1636 74.4932 54.1088 74.1184 53.7756 71.8456 51.99080000000001 70.0608 49.718 69.7276 49.342800000000004 69.67240000000001 48.8952 69.67240000000001 48 69.67240000000001 47.104800000000004 69.67240000000001 46.6572 69.67240000000001 46.282000000000004 69.7276 44.0092 70.0608 42.2244 71.8456 41.8912 74.1184Z" class="hierarchical-1:primary "/></g>
  <g id="Ultralight-S" transform="matrix(1,0,0,1,511.711,612.7705000000001)">

  <path d="M42.059200000000004 18.4176C42 18.80656 42 19.27104 42 20.200000000000003 42 21.128960000000003 42 21.59344 42.059200000000004 21.982400000000002 42.4016 24.23244 44.1676 25.998360000000005 46.4176 26.3408 46.806400000000004 26.400000000000002 47.2712 26.400000000000002 48.2 26.400000000000002H61.800000000000004C62.72880000000001 26.400000000000002 63.1936 26.400000000000002 63.5824 26.3408 65.83239999999999 25.998360000000005 67.59840000000001 24.23244 67.94080000000001 21.982400000000002 68 21.59344 68 21.128960000000003 68 20.200000000000003 68 19.27104 68 18.80656 67.94080000000001 18.4176 67.59840000000001 16.16756 65.83239999999999 14.40164 63.5824 14.059200000000002 63.1936 14 62.72880000000001 14 61.800000000000004 14H48.2C47.2712 14 46.806400000000004 14 46.4176 14.059200000000002 44.1676 14.40164 42.4016 16.16756 42.059200000000004 18.4176Z" class="hierarchical-1:primary "/><path d="M55.754400000000004 34.081880000000005C55.754400000000004 33.186640000000004 55.754400000000004 32.739 55.809200000000004 32.36388 56.1424 30.091160000000002 57.9276 28.30628 60.2 27.97312 60.575199999999995 27.918120000000002 61.0228 27.918120000000002 61.918 27.918120000000002 62.813199999999995 27.918120000000002 63.2612 27.918120000000002 63.636 27.97312 65.9088 28.30628 67.6936 30.091160000000002 68.02680000000001 32.36388 68.08200000000001 32.739 68.08200000000001 33.186640000000004 68.08200000000001 34.081880000000005 68.08200000000001 34.977120000000006 68.08200000000001 35.42476 68.02680000000001 35.79988 67.6936 38.07256 65.9088 39.857440000000004 63.636 40.1908 63.2612 40.2456 62.813199999999995 40.2456 61.918 40.2456 61.0228 40.2456 60.575199999999995 40.2456 60.2 40.1908 57.9276 39.857440000000004 56.1424 38.07256 55.809200000000004 35.79988 55.754400000000004 35.42476 55.754400000000004 34.977120000000006 55.754400000000004 34.081880000000005Z" class="hierarchical-1:primary "/><path d="M14 48C14 47.104800000000004 14 46.6572 14.055000000000001 46.282000000000004 14.38816 44.0092 16.17304 42.2244 18.445760000000003 41.8912 18.82088 41.8364 19.26848 41.8364 20.16376 41.8364 21.059 41.8364 21.506600000000002 41.8364 21.88172 41.8912 24.15444 42.2244 25.93932 44.0092 26.27248 46.282000000000004 26.327480000000005 46.6572 26.327480000000005 47.104800000000004 26.327480000000005 48 26.327480000000005 48.8952 26.327480000000005 49.342800000000004 26.27248 49.718 25.93932 51.99080000000001 24.15444 53.7756 21.88172 54.1088 21.506600000000002 54.1636 21.059 54.1636 20.16376 54.1636 19.26848 54.1636 18.82088 54.1636 18.445760000000003 54.1088 16.17304 53.7756 14.38816 51.99080000000001 14.055000000000001 49.718 14 49.342800000000004 14 48.8952 14 48Z" class="hierarchical-1:primary "/><path d="M14 61.800000000000004C14 60.8712 14 60.4064 14.059200000000002 60.01760000000001 14.40164 57.76760000000001 16.16756 56.001599999999996 18.4176 55.6592 18.80656 55.6 19.27104 55.6 20.200000000000003 55.6H61.800000000000004C62.72880000000001 55.6 63.1936 55.6 63.5824 55.6592 65.83239999999999 56.001599999999996 67.59840000000001 57.76760000000001 67.94080000000001 60.01760000000001 68 60.4064 68 60.8712 68 61.800000000000004 68 62.72880000000001 68 63.1936 67.94080000000001 63.5824 67.59840000000001 65.83239999999999 65.83239999999999 67.59840000000001 63.5824 67.94080000000001 63.1936 68 62.72880000000001 68 61.800000000000004 68H20.200000000000003C19.27104 68 18.80656 68 18.4176 67.94080000000001 16.16756 67.59840000000001 14.40164 65.83239999999999 14.059200000000002 63.5824 14 63.1936 14 62.72880000000001 14 61.800000000000004Z" class="hierarchical-1:primary "/><path d="M42.038000000000004 46.57320000000001C42 46.885600000000004 42 47.2568 42 48 42 48.7432 42 49.1144 42.038000000000004 49.4268 42.32640000000001 51.802 44.19800000000001 53.6736 46.57320000000001 53.962 46.885600000000004 54 47.2568 54 48 54H76C76.7432 54 77.1144 54 77.42680000000001 53.962 79.802 53.6736 81.67360000000001 51.802 81.962 49.4268 82 49.1144 82 48.7432 82 48 82 47.2568 82 46.885600000000004 81.962 46.57320000000001 81.67360000000001 44.19800000000001 79.802 42.32640000000001 77.42680000000001 42.038000000000004 77.1144 42 76.7432 42 76 42H48C47.2568 42 46.885600000000004 42 46.57320000000001 42.038000000000004 44.19800000000001 42.32640000000001 42.32640000000001 44.19800000000001 42.038000000000004 46.57320000000001Z" class="hierarchical-1:primary "/><path d="M69.67240000000001 75.83640000000001C69.67240000000001 74.94120000000001 69.67240000000001 74.4932 69.7276 74.1184 70.0608 71.8456 71.8456 70.0608 74.1184 69.7276 74.4932 69.67240000000001 74.94120000000001 69.67240000000001 75.83640000000001 69.67240000000001 76.7316 69.67240000000001 77.17920000000001 69.67240000000001 77.5544 69.7276 79.8268 70.0608 81.61200000000001 71.8456 81.9452 74.1184 82 74.4932 82 74.94120000000001 82 75.83640000000001 82 76.7316 82 77.17920000000001 81.9452 77.5544 81.61200000000001 79.8268 79.8268 81.61200000000001 77.5544 81.9452 77.17920000000001 82 76.7316 82 75.83640000000001 82 74.94120000000001 82 74.4932 82 74.1184 81.9452 71.8456 81.61200000000001 70.0608 79.8268 69.7276 77.5544 69.67240000000001 77.17920000000001 69.67240000000001 76.7316 69.67240000000001 75.83640000000001Z" class="hierarchical-1:primary "/><path d="M41.8912 74.1184C41.8364 74.4932 41.8364 74.94120000000001 41.8364 75.83640000000001 41.8364 76.7316 41.8364 77.17920000000001 41.8912 77.5544 42.2244 79.8268 44.0092 81.61200000000001 46.282000000000004 81.9452 46.6572 82 47.104800000000004 82 48 82 48.8952 82 49.342800000000004 82 49.718 81.9452 51.99080000000001 81.61200000000001 53.7756 79.8268 54.1088 77.5544 54.1636 77.17920000000001 54.1636 76.7316 54.1636 75.83640000000001 54.1636 74.94120000000001 54.1636 74.4932 54.1088 74.1184 53.7756 71.8456 51.99080000000001 70.0608 49.718 69.7276 49.342800000000004 69.67240000000001 48.8952 69.67240000000001 48 69.67240000000001 47.104800000000004 69.67240000000001 46.6572 69.67240000000001 46.282000000000004 69.7276 44.0092 70.0608 42.2244 71.8456 41.8912 74.1184Z" class="hierarchical-1:primary "/></g>
 </g>
</svg>