<svg xmlns="http://www.w3.org/2000/svg" xmlns:xlink="http://www.w3.org/1999/xlink" version="1.1" width="3300" height="2200">
 <!--glyph: "", point size: 100.0, font version: "17.1d1e1", template writer version: "65.1"-->
<style>

.hierarchical-1:primary {fill:#262626;}
.SFSymbolsPreview262626 {fill:#262626;}
</style>
 <g id="Notes">
  <rect height="2200" id="artboard" style="fill:white;opacity:1" width="3300" x="0" y="0"/>
  <line style="fill:none;stroke:black;opacity:1;stroke-width:0.5;" x1="263" x2="3036" y1="292" y2="292"/>
  <text style="stroke:none;fill:black;font-family:sans-serif;font-size:13;font-weight:bold;" transform="matrix(1 0 0 1 263 322)">Weight/Scale Variations</text>
  <text style="stroke:none;fill:black;font-family:sans-serif;font-size:13;text-anchor:middle;" transform="matrix(1 0 0 1 559.711 322)">Ultralight</text>
  <text style="stroke:none;fill:black;font-family:sans-serif;font-size:13;text-anchor:middle;" transform="matrix(1 0 0 1 856.422 322)">Thin</text>
  <text style="stroke:none;fill:black;font-family:sans-serif;font-size:13;text-anchor:middle;" transform="matrix(1 0 0 1 1153.13 322)">Light</text>
  <text style="stroke:none;fill:black;font-family:sans-serif;font-size:13;text-anchor:middle;" transform="matrix(1 0 0 1 1449.84 322)">Regular</text>
  <text style="stroke:none;fill:black;font-family:sans-serif;font-size:13;text-anchor:middle;" transform="matrix(1 0 0 1 1746.56 322)">Medium</text>
  <text style="stroke:none;fill:black;font-family:sans-serif;font-size:13;text-anchor:middle;" transform="matrix(1 0 0 1 2043.27 322)">Semibold</text>
  <text style="stroke:none;fill:black;font-family:sans-serif;font-size:13;text-anchor:middle;" transform="matrix(1 0 0 1 2339.98 322)">Bold</text>
  <text style="stroke:none;fill:black;font-family:sans-serif;font-size:13;text-anchor:middle;" transform="matrix(1 0 0 1 2636.69 322)">Heavy</text>
  <text style="stroke:none;fill:black;font-family:sans-serif;font-size:13;text-anchor:middle;" transform="matrix(1 0 0 1 2933.4 322)">Black</text>
  <line style="fill:none;stroke:black;opacity:1;stroke-width:0.5;" x1="263" x2="3036" y1="1903" y2="1903"/>
  <g transform="matrix(1 0 0 1 263 1933)">
   <path d="M9.24805 0.830078Q10.8691 0.830078 12.2949 0.214844Q13.7207-0.400391 14.8096-1.49414Q15.8984-2.58789 16.5186-4.01367Q17.1387-5.43945 17.1387-7.05078Q17.1387-8.66211 16.5186-10.0879Q15.8984-11.5137 14.8047-12.6074Q13.7109-13.7012 12.2852-14.3164Q10.8594-14.9316 9.23828-14.9316Q7.62695-14.9316 6.20117-14.3164Q4.77539-13.7012 3.69141-12.6074Q2.60742-11.5137 1.9873-10.0879Q1.36719-8.66211 1.36719-7.05078Q1.36719-5.43945 1.9873-4.01367Q2.60742-2.58789 3.69629-1.49414Q4.78516-0.400391 6.21094 0.214844Q7.63672 0.830078 9.24805 0.830078ZM9.24805-0.654297Q7.91992-0.654297 6.7627-1.14746Q5.60547-1.64062 4.73145-2.51953Q3.85742-3.39844 3.36426-4.56055Q2.87109-5.72266 2.87109-7.05078Q2.87109-8.37891 3.35938-9.54102Q3.84766-10.7031 4.72168-11.582Q5.5957-12.4609 6.75293-12.9541Q7.91016-13.4473 9.23828-13.4473Q10.5762-13.4473 11.7334-12.9541Q12.8906-12.4609 13.7695-11.582Q14.6484-10.7031 15.1465-9.54102Q15.6445-8.37891 15.6445-7.05078Q15.6445-5.72266 15.1514-4.56055Q14.6582-3.39844 13.7842-2.51953Q12.9102-1.64062 11.748-1.14746Q10.5859-0.654297 9.24805-0.654297ZM5.6543-7.05078Q5.6543-6.72852 5.85938-6.52832Q6.06445-6.32812 6.40625-6.32812L8.51562-6.32812L8.51562-4.20898Q8.51562-3.88672 8.71094-3.67676Q8.90625-3.4668 9.23828-3.4668Q9.56055-3.4668 9.77051-3.67676Q9.98047-3.88672 9.98047-4.20898L9.98047-6.32812L12.0898-6.32812Q12.4219-6.32812 12.627-6.52832Q12.832-6.72852 12.832-7.05078Q12.832-7.38281 12.627-7.58789Q12.4219-7.79297 12.0898-7.79297L9.98047-7.79297L9.98047-9.90234Q9.98047-10.2344 9.77051-10.4443Q9.56055-10.6543 9.23828-10.6543Q8.90625-10.6543 8.71094-10.4443Q8.51562-10.2344 8.51562-9.90234L8.51562-7.79297L6.40625-7.79297Q6.06445-7.79297 5.85938-7.58789Q5.6543-7.38281 5.6543-7.05078Z"/>
  </g>
  <g transform="matrix(1 0 0 1 281.867 1933)">
   <path d="M11.709 2.91016Q13.75 2.91016 15.5518 2.12891Q17.3535 1.34766 18.7305-0.0292969Q20.1074-1.40625 20.8887-3.20801Q21.6699-5.00977 21.6699-7.05078Q21.6699-9.0918 20.8887-10.8936Q20.1074-12.6953 18.7305-14.0723Q17.3535-15.4492 15.5469-16.2305Q13.7402-17.0117 11.6992-17.0117Q9.6582-17.0117 7.85645-16.2305Q6.05469-15.4492 4.68262-14.0723Q3.31055-12.6953 2.5293-10.8936Q1.74805-9.0918 1.74805-7.05078Q1.74805-5.00977 2.5293-3.20801Q3.31055-1.40625 4.6875-0.0292969Q6.06445 1.34766 7.86621 2.12891Q9.66797 2.91016 11.709 2.91016ZM11.709 1.25Q9.98047 1.25 8.47656 0.605469Q6.97266-0.0390625 5.83496-1.17676Q4.69727-2.31445 4.05762-3.81836Q3.41797-5.32227 3.41797-7.05078Q3.41797-8.7793 4.05762-10.2832Q4.69727-11.7871 5.83008-12.9297Q6.96289-14.0723 8.4668-14.7119Q9.9707-15.3516 11.6992-15.3516Q13.4277-15.3516 14.9316-14.7119Q16.4355-14.0723 17.5781-12.9297Q18.7207-11.7871 19.3652-10.2832Q20.0098-8.7793 20.0098-7.05078Q20.0098-5.32227 19.3701-3.81836Q18.7305-2.31445 17.5928-1.17676Q16.4551-0.0390625 14.9463 0.605469Q13.4375 1.25 11.709 1.25ZM7.17773-7.05078Q7.17773-6.69922 7.41211-6.47461Q7.64648-6.25 8.01758-6.25L10.8887-6.25L10.8887-3.36914Q10.8887-2.99805 11.1133-2.76855Q11.3379-2.53906 11.6895-2.53906Q12.0605-2.53906 12.29-2.76855Q12.5195-2.99805 12.5195-3.36914L12.5195-6.25L15.4004-6.25Q15.7715-6.25 16.001-6.47461Q16.2305-6.69922 16.2305-7.05078Q16.2305-7.42188 16.001-7.65137Q15.7715-7.88086 15.4004-7.88086L12.5195-7.88086L12.5195-10.752Q12.5195-11.1328 12.29-11.3623Q12.0605-11.5918 11.6895-11.5918Q11.3379-11.5918 11.1133-11.3574Q10.8887-11.123 10.8887-10.752L10.8887-7.88086L8.01758-7.88086Q7.63672-7.88086 7.40723-7.65137Q7.17773-7.42188 7.17773-7.05078Z"/>
  </g>
  <g transform="matrix(1 0 0 1 305.646 1933)">
   <path d="M14.9707 5.66406Q17.0605 5.66406 18.96 5.01465Q20.8594 4.36523 22.4512 3.19336Q24.043 2.02148 25.2197 0.429688Q26.3965-1.16211 27.0459-3.06641Q27.6953-4.9707 27.6953-7.05078Q27.6953-9.14062 27.0459-11.04Q26.3965-12.9395 25.2197-14.5312Q24.043-16.123 22.4512-17.2998Q20.8594-18.4766 18.9551-19.126Q17.0508-19.7754 14.9609-19.7754Q12.8711-19.7754 10.9717-19.126Q9.07227-18.4766 7.48535-17.2998Q5.89844-16.123 4.72168-14.5312Q3.54492-12.9395 2.90039-11.04Q2.25586-9.14062 2.25586-7.05078Q2.25586-4.9707 2.90527-3.06641Q3.55469-1.16211 4.72656 0.429688Q5.89844 2.02148 7.49023 3.19336Q9.08203 4.36523 10.9814 5.01465Q12.8809 5.66406 14.9707 5.66406ZM14.9707 3.84766Q13.1641 3.84766 11.5283 3.2959Q9.89258 2.74414 8.53516 1.74805Q7.17773 0.751953 6.17676-0.610352Q5.17578-1.97266 4.62891-3.6084Q4.08203-5.24414 4.08203-7.05078Q4.08203-8.86719 4.62891-10.5029Q5.17578-12.1387 6.17188-13.501Q7.16797-14.8633 8.52539-15.8594Q9.88281-16.8555 11.5186-17.4023Q13.1543-17.9492 14.9609-17.9492Q16.7773-17.9492 18.4131-17.4023Q20.0488-16.8555 21.4111-15.8594Q22.7734-14.8633 23.7695-13.501Q24.7656-12.1387 25.3174-10.5029Q25.8691-8.86719 25.8691-7.05078Q25.8789-5.24414 25.332-3.6084Q24.7852-1.97266 23.7842-0.610352Q22.7832 0.751953 21.4209 1.74805Q20.0586 2.74414 18.4229 3.2959Q16.7871 3.84766 14.9707 3.84766ZM9.19922-7.05078Q9.19922-6.66992 9.45801-6.4209Q9.7168-6.17188 10.1172-6.17188L14.0625-6.17188L14.0625-2.2168Q14.0625-1.81641 14.3115-1.55762Q14.5605-1.29883 14.9512-1.29883Q15.3516-1.29883 15.6104-1.55273Q15.8691-1.80664 15.8691-2.2168L15.8691-6.17188L19.8242-6.17188Q20.2246-6.17188 20.4785-6.4209Q20.7324-6.66992 20.7324-7.05078Q20.7324-7.46094 20.4785-7.71484Q20.2246-7.96875 19.8242-7.96875L15.8691-7.96875L15.8691-11.9141Q15.8691-12.3242 15.6104-12.583Q15.3516-12.8418 14.9512-12.8418Q14.5605-12.8418 14.3115-12.583Q14.0625-12.3242 14.0625-11.9141L14.0625-7.96875L10.1172-7.96875Q9.70703-7.96875 9.45312-7.71484Q9.19922-7.46094 9.19922-7.05078Z"/>
  </g>
  <text style="stroke:none;fill:black;font-family:sans-serif;font-size:13;font-weight:bold;" transform="matrix(1 0 0 1 263 1953)">Design Variations</text>
  <text style="stroke:none;fill:black;font-family:sans-serif;font-size:13;" transform="matrix(1 0 0 1 263 1971)">Symbols are supported in up to nine weights and three scales.</text>
  <text style="stroke:none;fill:black;font-family:sans-serif;font-size:13;" transform="matrix(1 0 0 1 263 1989)">For optimal layout with text and other symbols, vertically align</text>
  <text style="stroke:none;fill:black;font-family:sans-serif;font-size:13;" transform="matrix(1 0 0 1 263 2007)">symbols with the adjacent text.</text>
  <line style="fill:none;stroke:#00AEEF;stroke-width:0.5;opacity:1.0;" x1="776" x2="776" y1="1919" y2="1933"/>
  <g transform="matrix(1 0 0 1 776 1933)">
   <path d="M3.31055 0.15625Q3.70117 0.15625 3.91602-0.00976562Q4.13086-0.175781 4.26758-0.585938L5.52734-4.0332L11.2891-4.0332L12.5488-0.585938Q12.6855-0.175781 12.9004-0.00976562Q13.1152 0.15625 13.4961 0.15625Q13.8867 0.15625 14.1162-0.0585938Q14.3457-0.273438 14.3457-0.644531Q14.3457-0.869141 14.2383-1.17188L9.6582-13.3691Q9.48242-13.8184 9.17969-14.043Q8.87695-14.2676 8.4082-14.2676Q7.5-14.2676 7.17773-13.3789L2.59766-1.16211Q2.49023-0.859375 2.49023-0.634766Q2.49023-0.263672 2.70996-0.0537109Q2.92969 0.15625 3.31055 0.15625ZM6.00586-5.51758L8.37891-12.0898L8.42773-12.0898L10.8008-5.51758Z"/>
  </g>
  <line style="fill:none;stroke:#00AEEF;stroke-width:0.5;opacity:1.0;" x1="793.197" x2="793.197" y1="1919" y2="1933"/>
  <text style="stroke:none;fill:black;font-family:sans-serif;font-size:13;font-weight:bold;" transform="matrix(1 0 0 1 776 1953)">Margins</text>
  <text style="stroke:none;fill:black;font-family:sans-serif;font-size:13;" transform="matrix(1 0 0 1 776 1971)">Leading and trailing margins on the left and right side of each symbol</text>
  <text style="stroke:none;fill:black;font-family:sans-serif;font-size:13;" transform="matrix(1 0 0 1 776 1989)">can be adjusted by modifying the x-location of the margin guidelines.</text>
  <text style="stroke:none;fill:black;font-family:sans-serif;font-size:13;" transform="matrix(1 0 0 1 776 2007)">Modifications are automatically applied proportionally to all</text>
  <text style="stroke:none;fill:black;font-family:sans-serif;font-size:13;" transform="matrix(1 0 0 1 776 2025)">scales and weights.</text>
  <g transform="matrix(1 0 0 1 1289 1933)">
   <path d="M2.8418 1.86523L4.54102 3.57422Q5.18555 4.22852 5.90332 4.17969Q6.62109 4.13086 7.31445 3.35938L18.0078-8.42773L17.041-9.4043L6.42578 2.27539Q6.16211 2.57812 5.89355 2.61719Q5.625 2.65625 5.27344 2.30469L4.10156 1.14258Q3.75 0.791016 3.79395 0.522461Q3.83789 0.253906 4.14062-0.0195312L15.6152-10.8203L14.6387-11.7871L3.04688-0.898438Q2.30469-0.214844 2.25098 0.498047Q2.19727 1.21094 2.8418 1.86523ZM9.25781-16.3281Q8.94531-16.0254 8.90625-15.6348Q8.86719-15.2441 9.04297-14.9512Q9.21875-14.6777 9.55566-14.541Q9.89258-14.4043 10.3809-14.5215Q11.4746-14.7754 12.5977-14.7314Q13.7207-14.6875 14.7949-13.9844L14.209-12.5293Q13.9551-11.9043 14.0674-11.4404Q14.1797-10.9766 14.5801-10.5664L16.875-8.25195Q17.2363-7.88086 17.5781-7.82227Q17.9199-7.76367 18.3398-7.8418L19.4043-8.03711L20.0684-7.36328L20.0293-6.80664Q20-6.43555 20.1221-6.12305Q20.2441-5.81055 20.6055-5.44922L21.3672-4.70703Q21.7285-4.3457 22.1533-4.33105Q22.5781-4.31641 22.9297-4.66797L25.8398-7.58789Q26.1914-7.93945 26.1816-8.35449Q26.1719-8.76953 25.8105-9.13086L25.0391-9.89258Q24.6875-10.2539 24.3799-10.3857Q24.0723-10.5176 23.7109-10.4883L23.1348-10.4395L22.4902-11.0742L22.7344-12.1973Q22.832-12.6172 22.6953-12.9834Q22.5586-13.3496 22.1191-13.7891L19.9219-15.9766Q18.6719-17.2168 17.2607-17.8369Q15.8496-18.457 14.4189-18.4814Q12.9883-18.5059 11.665-17.959Q10.3418-17.4121 9.25781-16.3281ZM10.752-15.957Q11.6602-16.6211 12.7002-16.9043Q13.7402-17.1875 14.8047-17.085Q15.8691-16.9824 16.8701-16.5137Q17.8711-16.0449 18.7012-15.2051L21.1328-12.793Q21.3086-12.6172 21.3525-12.4512Q21.3965-12.2852 21.3379-12.0312L21.0156-10.5469L22.5195-9.0625L23.5059-9.12109Q23.6914-9.13086 23.7891-9.09668Q23.8867-9.0625 24.0332-8.91602L24.6094-8.33984L22.168-5.89844L21.5918-6.47461Q21.4453-6.62109 21.4062-6.71875Q21.3672-6.81641 21.377-7.01172L21.4453-7.98828L19.9512-9.47266L18.4277-9.21875Q18.1836-9.16992 18.042-9.2041Q17.9004-9.23828 17.7148-9.41406L15.7129-11.416Q15.5176-11.5918 15.4932-11.7529Q15.4688-11.9141 15.5859-12.1875L16.4648-14.2773Q15.293-15.3711 13.8281-15.791Q12.3633-16.2109 10.8398-15.7617Q10.7227-15.7324 10.6885-15.8057Q10.6543-15.8789 10.752-15.957Z"/>
  </g>
  <text style="stroke:none;fill:black;font-family:sans-serif;font-size:13;font-weight:bold;" transform="matrix(1 0 0 1 1289 1953)">Exporting</text>
  <text style="stroke:none;fill:black;font-family:sans-serif;font-size:13;" transform="matrix(1 0 0 1 1289 1971)">Symbols should be outlined when exporting to ensure the</text>
  <text style="stroke:none;fill:black;font-family:sans-serif;font-size:13;" transform="matrix(1 0 0 1 1289 1989)">design is preserved when submitting to Xcode.</text>
  <text id="template-version" style="stroke:none;fill:black;font-family:sans-serif;font-size:13;text-anchor:end;" transform="matrix(1 0 0 1 3036 1933)">Template v.3.0</text>
  <text style="stroke:none;fill:black;font-family:sans-serif;font-size:13;text-anchor:end;" transform="matrix(1 0 0 1 3036 1951)">Requires Xcode 13 or greater</text>
  <text id="descriptive-name" style="stroke:none;fill:black;font-family:sans-serif;font-size:13;text-anchor:end;" transform="matrix(1 0 0 1 3036 1969)">Symbol moniker: dataStars</text>
  <text style="stroke:none;fill:black;font-family:sans-serif;font-size:13;text-anchor:end;" transform="matrix(1 0 0 1 3036 1987)">Typeset at 100 points</text>
  <text style="stroke:none;fill:black;font-family:sans-serif;font-size:13;" transform="matrix(1 0 0 1 263 726)">Small</text>
  <text style="stroke:none;fill:black;font-family:sans-serif;font-size:13;" transform="matrix(1 0 0 1 263 1156)">Medium</text>
  <text style="stroke:none;fill:black;font-family:sans-serif;font-size:13;" transform="matrix(1 0 0 1 263 1586)">Large</text>
 </g>
 <g id="Guides">
  <g id="H-reference" style="fill:#27AAE1;stroke:none;" transform="matrix(1 0 0 1 339 696)">
   <path d="M0.976562 0L3.66211 0L29.3457-67.1387L30.0293-67.1387L30.0293-70.459L28.125-70.459ZM11.6699-24.4629L46.9727-24.4629L46.2402-26.709L12.4512-26.709ZM55.127 0L57.7637 0L30.6152-70.459L29.4434-70.459L29.4434-67.1387Z"/>
  </g>
  <line id="Baseline-S" style="fill:none;stroke:#27AAE1;opacity:1;stroke-width:0.5;" x1="263" x2="3036" y1="696" y2="696"/>
  <line id="Capline-S" style="fill:none;stroke:#27AAE1;opacity:1;stroke-width:0.5;" x1="263" x2="3036" y1="625.541" y2="625.541"/>
  <g id="H-reference" style="fill:#27AAE1;stroke:none;" transform="matrix(1 0 0 1 339 1126)">
   <path d="M0.976562 0L3.66211 0L29.3457-67.1387L30.0293-67.1387L30.0293-70.459L28.125-70.459ZM11.6699-24.4629L46.9727-24.4629L46.2402-26.709L12.4512-26.709ZM55.127 0L57.7637 0L30.6152-70.459L29.4434-70.459L29.4434-67.1387Z"/>
  </g>
  <line id="Baseline-M" style="fill:none;stroke:#27AAE1;opacity:1;stroke-width:0.5;" x1="263" x2="3036" y1="1126" y2="1126"/>
  <line id="Capline-M" style="fill:none;stroke:#27AAE1;opacity:1;stroke-width:0.5;" x1="263" x2="3036" y1="1055.54" y2="1055.54"/>
  <g id="H-reference" style="fill:#27AAE1;stroke:none;" transform="matrix(1 0 0 1 339 1556)">
   <path d="M0.976562 0L3.66211 0L29.3457-67.1387L30.0293-67.1387L30.0293-70.459L28.125-70.459ZM11.6699-24.4629L46.9727-24.4629L46.2402-26.709L12.4512-26.709ZM55.127 0L57.7637 0L30.6152-70.459L29.4434-70.459L29.4434-67.1387Z"/>
  </g>
  <line id="Baseline-L" style="fill:none;stroke:#27AAE1;opacity:1;stroke-width:0.5;" x1="263" x2="3036" y1="1556" y2="1556"/>
  <line id="Capline-L" style="fill:none;stroke:#27AAE1;opacity:1;stroke-width:0.5;" x1="263" x2="3036" y1="1485.54" y2="1485.54"/>
  <line id="left-margin-Ultralight-S" style="fill:none;stroke:#00AEEF;stroke-width:0.5;opacity:1.0;" x1="515.351" x2="515.351" y1="600.784" y2="720.121"/>
  <line id="right-margin-Ultralight-S" style="fill:none;stroke:#00AEEF;stroke-width:0.5;opacity:1.0;" x1="604.071" x2="604.071" y1="600.784" y2="720.121"/>
  <line id="left-margin-Regular-S" style="fill:none;stroke:#00AEEF;stroke-width:0.5;opacity:1.0;" x1="1401.75" x2="1401.75" y1="600.784" y2="720.121"/>
  <line id="right-margin-Regular-S" style="fill:none;stroke:#00AEEF;stroke-width:0.5;opacity:1.0;" x1="1497.94" x2="1497.94" y1="600.784" y2="720.121"/>
  <line id="left-margin-Black-S" style="fill:none;stroke:#00AEEF;stroke-width:0.5;opacity:1.0;" x1="2883.2" x2="2883.2" y1="600.784" y2="720.121"/>
  <line id="right-margin-Black-S" style="fill:none;stroke:#00AEEF;stroke-width:0.5;opacity:1.0;" x1="2983.6" x2="2983.6" y1="600.784" y2="720.121"/>
 </g>
 <g id="Symbols">
  <g id="Black-L" transform="matrix(1,0,0,1,2853.3999999999996,1440.77)">

  <path d="M18.805266666666665 102.93933333333332C25.723733333333332 100.75 31.14353333333333 95.33 33.33333333333333 88.41133333333332 35.523333333333326 95.33 40.943133333333336 100.74933333333333 47.8614 102.93933333333332 40.9432 105.13 35.52353333333333 110.54933333333334 33.33333333333333 117.46733333333333 31.143333333333334 110.54933333333334 25.723599999999998 105.12933333333332 18.805266666666665 102.93933333333332Z" class="hierarchical-1:primary "/><path d="M42.1386 102.93933333333332C49.057066666666664 100.75 54.476866666666666 95.33 56.666666666666664 88.41133333333332 58.85666666666666 95.33 64.27646666666666 100.74933333333333 71.19466666666666 102.93933333333332 64.27653333333333 105.13 58.85686666666667 110.54933333333334 56.666666666666664 117.46733333333333 54.47666666666667 110.54933333333334 49.05693333333333 105.12933333333332 42.1386 102.93933333333332Z" class="hierarchical-1:primary "/><path d="M65.47193333333333 102.93933333333332C72.39066666666666 100.75 77.81 95.33 80 88.41133333333332 82.19 95.33 87.60999999999999 100.74933333333333 94.52799999999999 102.93933333333332 87.60999999999999 105.13 82.19 110.54933333333334 80 117.46733333333333 77.81 110.54933333333334 72.38999999999999 105.12933333333332 65.47193333333333 102.93933333333332Z" class="hierarchical-1:primary "/><path d="M18.805266666666665 80.27266666666667C25.723733333333332 78.08333333333333 31.1436 72.66333333333333 33.33333333333333 65.7448 35.523333333333326 72.66333333333333 40.943133333333336 78.08266666666665 47.8614 80.27266666666667 40.943266666666666 82.46333333333332 35.52353333333333 87.88266666666667 33.33333333333333 94.80066666666666 31.143333333333334 87.88266666666667 25.723599999999998 82.46266666666666 18.805266666666665 80.27266666666667Z" class="hierarchical-1:primary "/><path d="M88.80533333333332 102.93933333333332C95.724 100.75 101.14333333333333 95.33 103.33333333333333 88.41133333333332 105.52333333333333 95.33 110.94333333333333 100.74933333333333 117.86133333333333 102.93933333333332 110.94333333333333 105.13 105.52333333333333 110.54933333333334 103.33333333333333 117.46733333333333 101.14333333333333 110.54933333333334 95.72333333333333 105.12933333333332 88.80533333333332 102.93933333333332Z" class="hierarchical-1:primary "/><path d="M65.47193333333333 80.27266666666667C72.39066666666666 78.08333333333333 77.81 72.66333333333333 80 65.7448 82.19 72.66333333333333 87.60999999999999 78.08266666666665 94.52799999999999 80.27266666666667 87.60999999999999 82.46333333333332 82.19 87.88266666666667 80 94.80066666666666 77.81 87.88266666666667 72.38999999999999 82.46266666666666 65.47193333333333 80.27266666666667Z" class="hierarchical-1:primary "/><path d="M88.80533333333332 80.27266666666667C95.724 78.08333333333333 101.14333333333333 72.66333333333333 103.33333333333333 65.7448 105.52333333333333 72.66333333333333 110.94333333333333 78.08266666666665 117.86133333333333 80.27266666666667 110.94333333333333 82.46333333333332 105.52333333333333 87.88266666666667 103.33333333333333 94.80066666666666 101.14333333333333 87.88266666666667 95.72333333333333 82.46266666666666 88.80533333333332 80.27266666666667Z" class="hierarchical-1:primary "/><path d="M112.13866666666667 80.27266666666667C119.05733333333333 78.08333333333333 124.47666666666666 72.66333333333333 126.66666666666666 65.7448 128.85666666666665 72.66333333333333 134.27666666666664 78.08266666666665 141.19466666666665 80.27266666666667 134.27666666666664 82.46333333333332 128.85666666666665 87.88266666666667 126.66666666666666 94.80066666666666 124.47666666666666 87.88266666666667 119.05666666666667 82.46266666666666 112.13866666666667 80.27266666666667Z" class="hierarchical-1:primary "/><path d="M112.13866666666667 126.27266666666665C119.05733333333333 124.08333333333333 124.47666666666666 118.66333333333333 126.66666666666666 111.74466666666666 128.85666666666665 118.66333333333333 134.27666666666664 124.08266666666665 141.19466666666665 126.27266666666665 134.27666666666664 128.4633333333333 128.85666666666665 133.88266666666667 126.66666666666666 140.80066666666664 124.47666666666666 133.88266666666667 119.05666666666667 128.46266666666665 112.13866666666667 126.27266666666665Z" class="hierarchical-1:primary "/><path d="M65.47193333333333 126.27266666666665C72.39066666666666 124.08333333333333 77.81 118.66333333333333 80 111.74466666666666 82.19 118.66333333333333 87.60999999999999 124.08266666666665 94.52799999999999 126.27266666666665 87.60999999999999 128.4633333333333 82.19 133.88266666666667 80 140.80066666666664 77.81 133.88266666666667 72.38999999999999 128.46266666666665 65.47193333333333 126.27266666666665Z" class="hierarchical-1:primary "/><path d="M88.80533333333332 56.93953333333333C95.724 54.7498 101.14333333333333 49.32993333333333 103.33333333333333 42.41146666666666 105.52333333333333 49.32979999999999 110.94333333333333 54.749599999999994 117.86133333333333 56.93953333333333 110.94333333333333 59.12973333333333 105.52333333333333 64.54946666666666 103.33333333333333 71.46733333333333 101.14333333333333 64.54933333333332 95.72333333333333 59.12953333333333 88.80533333333332 56.93953333333333Z" class="hierarchical-1:primary "/><path d="M88.80533333333332 33.6062C95.724 31.416466666666665 101.14333333333333 25.9966 103.33333333333333 19.078133333333334 105.52333333333333 25.996466666666667 110.94333333333333 31.416266666666665 117.86133333333333 33.6062 110.94333333333333 35.7964 105.52333333333333 41.21613333333333 103.33333333333333 48.13433333333333 101.14333333333333 41.215999999999994 95.72333333333333 35.7962 88.80533333333332 33.6062Z" class="hierarchical-1:primary "/><path d="M65.47193333333333 33.60626666666666C72.39066666666666 31.416466666666665 77.81 25.9966 80 19.078133333333334 82.19 25.996466666666667 87.60999999999999 31.416266666666665 94.52799999999999 33.60626666666666 87.60999999999999 35.7964 82.19 41.21613333333333 80 48.13433333333333 77.81 41.215999999999994 72.38999999999999 35.7962 65.47193333333333 33.60626666666666Z" class="hierarchical-1:primary "/></g>
  <g id="Regular-L" transform="matrix(1,0,0,1,1369.845,1440.77)">

  <path d="M18.805266666666665 102.93933333333332C25.723733333333332 100.75 31.14353333333333 95.33 33.33333333333333 88.41133333333332 35.523333333333326 95.33 40.943133333333336 100.74933333333333 47.8614 102.93933333333332 40.9432 105.13 35.52353333333333 110.54933333333334 33.33333333333333 117.46733333333333 31.143333333333334 110.54933333333334 25.723599999999998 105.12933333333332 18.805266666666665 102.93933333333332Z" class="hierarchical-1:primary "/><path d="M42.1386 102.93933333333332C49.057066666666664 100.75 54.476866666666666 95.33 56.666666666666664 88.41133333333332 58.85666666666666 95.33 64.27646666666666 100.74933333333333 71.19466666666666 102.93933333333332 64.27653333333333 105.13 58.85686666666667 110.54933333333334 56.666666666666664 117.46733333333333 54.47666666666667 110.54933333333334 49.05693333333333 105.12933333333332 42.1386 102.93933333333332Z" class="hierarchical-1:primary "/><path d="M65.47193333333333 102.93933333333332C72.39066666666666 100.75 77.81 95.33 80 88.41133333333332 82.19 95.33 87.60999999999999 100.74933333333333 94.52799999999999 102.93933333333332 87.60999999999999 105.13 82.19 110.54933333333334 80 117.46733333333333 77.81 110.54933333333334 72.38999999999999 105.12933333333332 65.47193333333333 102.93933333333332Z" class="hierarchical-1:primary "/><path d="M18.805266666666665 80.27266666666667C25.723733333333332 78.08333333333333 31.1436 72.66333333333333 33.33333333333333 65.7448 35.523333333333326 72.66333333333333 40.943133333333336 78.08266666666665 47.8614 80.27266666666667 40.943266666666666 82.46333333333332 35.52353333333333 87.88266666666667 33.33333333333333 94.80066666666666 31.143333333333334 87.88266666666667 25.723599999999998 82.46266666666666 18.805266666666665 80.27266666666667Z" class="hierarchical-1:primary "/><path d="M88.80533333333332 102.93933333333332C95.724 100.75 101.14333333333333 95.33 103.33333333333333 88.41133333333332 105.52333333333333 95.33 110.94333333333333 100.74933333333333 117.86133333333333 102.93933333333332 110.94333333333333 105.13 105.52333333333333 110.54933333333334 103.33333333333333 117.46733333333333 101.14333333333333 110.54933333333334 95.72333333333333 105.12933333333332 88.80533333333332 102.93933333333332Z" class="hierarchical-1:primary "/><path d="M65.47193333333333 80.27266666666667C72.39066666666666 78.08333333333333 77.81 72.66333333333333 80 65.7448 82.19 72.66333333333333 87.60999999999999 78.08266666666665 94.52799999999999 80.27266666666667 87.60999999999999 82.46333333333332 82.19 87.88266666666667 80 94.80066666666666 77.81 87.88266666666667 72.38999999999999 82.46266666666666 65.47193333333333 80.27266666666667Z" class="hierarchical-1:primary "/><path d="M88.80533333333332 80.27266666666667C95.724 78.08333333333333 101.14333333333333 72.66333333333333 103.33333333333333 65.7448 105.52333333333333 72.66333333333333 110.94333333333333 78.08266666666665 117.86133333333333 80.27266666666667 110.94333333333333 82.46333333333332 105.52333333333333 87.88266666666667 103.33333333333333 94.80066666666666 101.14333333333333 87.88266666666667 95.72333333333333 82.46266666666666 88.80533333333332 80.27266666666667Z" class="hierarchical-1:primary "/><path d="M112.13866666666667 80.27266666666667C119.05733333333333 78.08333333333333 124.47666666666666 72.66333333333333 126.66666666666666 65.7448 128.85666666666665 72.66333333333333 134.27666666666664 78.08266666666665 141.19466666666665 80.27266666666667 134.27666666666664 82.46333333333332 128.85666666666665 87.88266666666667 126.66666666666666 94.80066666666666 124.47666666666666 87.88266666666667 119.05666666666667 82.46266666666666 112.13866666666667 80.27266666666667Z" class="hierarchical-1:primary "/><path d="M112.13866666666667 126.27266666666665C119.05733333333333 124.08333333333333 124.47666666666666 118.66333333333333 126.66666666666666 111.74466666666666 128.85666666666665 118.66333333333333 134.27666666666664 124.08266666666665 141.19466666666665 126.27266666666665 134.27666666666664 128.4633333333333 128.85666666666665 133.88266666666667 126.66666666666666 140.80066666666664 124.47666666666666 133.88266666666667 119.05666666666667 128.46266666666665 112.13866666666667 126.27266666666665Z" class="hierarchical-1:primary "/><path d="M65.47193333333333 126.27266666666665C72.39066666666666 124.08333333333333 77.81 118.66333333333333 80 111.74466666666666 82.19 118.66333333333333 87.60999999999999 124.08266666666665 94.52799999999999 126.27266666666665 87.60999999999999 128.4633333333333 82.19 133.88266666666667 80 140.80066666666664 77.81 133.88266666666667 72.38999999999999 128.46266666666665 65.47193333333333 126.27266666666665Z" class="hierarchical-1:primary "/><path d="M88.80533333333332 56.93953333333333C95.724 54.7498 101.14333333333333 49.32993333333333 103.33333333333333 42.41146666666666 105.52333333333333 49.32979999999999 110.94333333333333 54.749599999999994 117.86133333333333 56.93953333333333 110.94333333333333 59.12973333333333 105.52333333333333 64.54946666666666 103.33333333333333 71.46733333333333 101.14333333333333 64.54933333333332 95.72333333333333 59.12953333333333 88.80533333333332 56.93953333333333Z" class="hierarchical-1:primary "/><path d="M88.80533333333332 33.6062C95.724 31.416466666666665 101.14333333333333 25.9966 103.33333333333333 19.078133333333334 105.52333333333333 25.996466666666667 110.94333333333333 31.416266666666665 117.86133333333333 33.6062 110.94333333333333 35.7964 105.52333333333333 41.21613333333333 103.33333333333333 48.13433333333333 101.14333333333333 41.215999999999994 95.72333333333333 35.7962 88.80533333333332 33.6062Z" class="hierarchical-1:primary "/><path d="M65.47193333333333 33.60626666666666C72.39066666666666 31.416466666666665 77.81 25.9966 80 19.078133333333334 82.19 25.996466666666667 87.60999999999999 31.416266666666665 94.52799999999999 33.60626666666666 87.60999999999999 35.7964 82.19 41.21613333333333 80 48.13433333333333 77.81 41.215999999999994 72.38999999999999 35.7962 65.47193333333333 33.60626666666666Z" class="hierarchical-1:primary "/></g>
  <g id="Ultralight-L" transform="matrix(1,0,0,1,479.711,1440.77)">

  <path d="M18.805266666666665 102.93933333333332C25.723733333333332 100.75 31.14353333333333 95.33 33.33333333333333 88.41133333333332 35.523333333333326 95.33 40.943133333333336 100.74933333333333 47.8614 102.93933333333332 40.9432 105.13 35.52353333333333 110.54933333333334 33.33333333333333 117.46733333333333 31.143333333333334 110.54933333333334 25.723599999999998 105.12933333333332 18.805266666666665 102.93933333333332Z" class="hierarchical-1:primary "/><path d="M42.1386 102.93933333333332C49.057066666666664 100.75 54.476866666666666 95.33 56.666666666666664 88.41133333333332 58.85666666666666 95.33 64.27646666666666 100.74933333333333 71.19466666666666 102.93933333333332 64.27653333333333 105.13 58.85686666666667 110.54933333333334 56.666666666666664 117.46733333333333 54.47666666666667 110.54933333333334 49.05693333333333 105.12933333333332 42.1386 102.93933333333332Z" class="hierarchical-1:primary "/><path d="M65.47193333333333 102.93933333333332C72.39066666666666 100.75 77.81 95.33 80 88.41133333333332 82.19 95.33 87.60999999999999 100.74933333333333 94.52799999999999 102.93933333333332 87.60999999999999 105.13 82.19 110.54933333333334 80 117.46733333333333 77.81 110.54933333333334 72.38999999999999 105.12933333333332 65.47193333333333 102.93933333333332Z" class="hierarchical-1:primary "/><path d="M18.805266666666665 80.27266666666667C25.723733333333332 78.08333333333333 31.1436 72.66333333333333 33.33333333333333 65.7448 35.523333333333326 72.66333333333333 40.943133333333336 78.08266666666665 47.8614 80.27266666666667 40.943266666666666 82.46333333333332 35.52353333333333 87.88266666666667 33.33333333333333 94.80066666666666 31.143333333333334 87.88266666666667 25.723599999999998 82.46266666666666 18.805266666666665 80.27266666666667Z" class="hierarchical-1:primary "/><path d="M88.80533333333332 102.93933333333332C95.724 100.75 101.14333333333333 95.33 103.33333333333333 88.41133333333332 105.52333333333333 95.33 110.94333333333333 100.74933333333333 117.86133333333333 102.93933333333332 110.94333333333333 105.13 105.52333333333333 110.54933333333334 103.33333333333333 117.46733333333333 101.14333333333333 110.54933333333334 95.72333333333333 105.12933333333332 88.80533333333332 102.93933333333332Z" class="hierarchical-1:primary "/><path d="M65.47193333333333 80.27266666666667C72.39066666666666 78.08333333333333 77.81 72.66333333333333 80 65.7448 82.19 72.66333333333333 87.60999999999999 78.08266666666665 94.52799999999999 80.27266666666667 87.60999999999999 82.46333333333332 82.19 87.88266666666667 80 94.80066666666666 77.81 87.88266666666667 72.38999999999999 82.46266666666666 65.47193333333333 80.27266666666667Z" class="hierarchical-1:primary "/><path d="M88.80533333333332 80.27266666666667C95.724 78.08333333333333 101.14333333333333 72.66333333333333 103.33333333333333 65.7448 105.52333333333333 72.66333333333333 110.94333333333333 78.08266666666665 117.86133333333333 80.27266666666667 110.94333333333333 82.46333333333332 105.52333333333333 87.88266666666667 103.33333333333333 94.80066666666666 101.14333333333333 87.88266666666667 95.72333333333333 82.46266666666666 88.80533333333332 80.27266666666667Z" class="hierarchical-1:primary "/><path d="M112.13866666666667 80.27266666666667C119.05733333333333 78.08333333333333 124.47666666666666 72.66333333333333 126.66666666666666 65.7448 128.85666666666665 72.66333333333333 134.27666666666664 78.08266666666665 141.19466666666665 80.27266666666667 134.27666666666664 82.46333333333332 128.85666666666665 87.88266666666667 126.66666666666666 94.80066666666666 124.47666666666666 87.88266666666667 119.05666666666667 82.46266666666666 112.13866666666667 80.27266666666667Z" class="hierarchical-1:primary "/><path d="M112.13866666666667 126.27266666666665C119.05733333333333 124.08333333333333 124.47666666666666 118.66333333333333 126.66666666666666 111.74466666666666 128.85666666666665 118.66333333333333 134.27666666666664 124.08266666666665 141.19466666666665 126.27266666666665 134.27666666666664 128.4633333333333 128.85666666666665 133.88266666666667 126.66666666666666 140.80066666666664 124.47666666666666 133.88266666666667 119.05666666666667 128.46266666666665 112.13866666666667 126.27266666666665Z" class="hierarchical-1:primary "/><path d="M65.47193333333333 126.27266666666665C72.39066666666666 124.08333333333333 77.81 118.66333333333333 80 111.74466666666666 82.19 118.66333333333333 87.60999999999999 124.08266666666665 94.52799999999999 126.27266666666665 87.60999999999999 128.4633333333333 82.19 133.88266666666667 80 140.80066666666664 77.81 133.88266666666667 72.38999999999999 128.46266666666665 65.47193333333333 126.27266666666665Z" class="hierarchical-1:primary "/><path d="M88.80533333333332 56.93953333333333C95.724 54.7498 101.14333333333333 49.32993333333333 103.33333333333333 42.41146666666666 105.52333333333333 49.32979999999999 110.94333333333333 54.749599999999994 117.86133333333333 56.93953333333333 110.94333333333333 59.12973333333333 105.52333333333333 64.54946666666666 103.33333333333333 71.46733333333333 101.14333333333333 64.54933333333332 95.72333333333333 59.12953333333333 88.80533333333332 56.93953333333333Z" class="hierarchical-1:primary "/><path d="M88.80533333333332 33.6062C95.724 31.416466666666665 101.14333333333333 25.9966 103.33333333333333 19.078133333333334 105.52333333333333 25.996466666666667 110.94333333333333 31.416266666666665 117.86133333333333 33.6062 110.94333333333333 35.7964 105.52333333333333 41.21613333333333 103.33333333333333 48.13433333333333 101.14333333333333 41.215999999999994 95.72333333333333 35.7962 88.80533333333332 33.6062Z" class="hierarchical-1:primary "/><path d="M65.47193333333333 33.60626666666666C72.39066666666666 31.416466666666665 77.81 25.9966 80 19.078133333333334 82.19 25.996466666666667 87.60999999999999 31.416266666666665 94.52799999999999 33.60626666666666 87.60999999999999 35.7964 82.19 41.21613333333333 80 48.13433333333333 77.81 41.215999999999994 72.38999999999999 35.7962 65.47193333333333 33.60626666666666Z" class="hierarchical-1:primary "/></g>
  <g id="Black-M" transform="matrix(1,0,0,1,2869.3999999999996,1026.77)">

  <path d="M15.044213333333332 82.35146666666667C20.578986666666665 80.6 24.914826666666666 76.264 26.666666666666668 70.72906666666665 28.418666666666663 76.264 32.75450666666667 80.59946666666666 38.289120000000004 82.35146666666667 32.75456 84.104 28.418826666666664 88.43946666666668 26.666666666666668 93.97386666666667 24.91466666666667 88.43946666666668 20.578879999999998 84.10346666666666 15.044213333333332 82.35146666666667Z" class="hierarchical-1:primary "/><path d="M33.71088 82.35146666666667C39.24565333333333 80.6 43.581493333333334 76.264 45.333333333333336 70.72906666666665 47.08533333333333 76.264 51.42117333333333 80.59946666666666 56.955733333333335 82.35146666666667 51.42122666666666 84.104 47.08549333333334 88.43946666666668 45.333333333333336 93.97386666666667 43.58133333333333 88.43946666666668 39.24554666666667 84.10346666666666 33.71088 82.35146666666667Z" class="hierarchical-1:primary "/><path d="M52.37754666666666 82.35146666666667C57.91253333333333 80.6 62.248 76.264 64 70.72906666666665 65.752 76.264 70.088 80.59946666666666 75.6224 82.35146666666667 70.088 84.104 65.752 88.43946666666668 64 93.97386666666667 62.248 88.43946666666668 57.912 84.10346666666666 52.37754666666666 82.35146666666667Z" class="hierarchical-1:primary "/><path d="M15.044213333333332 64.21813333333334C20.578986666666665 62.46666666666667 24.91488 58.13066666666667 26.666666666666668 52.595839999999995 28.418666666666663 58.13066666666667 32.75450666666667 62.46613333333333 38.289120000000004 64.21813333333334 32.75461333333333 65.97066666666666 28.418826666666664 70.30613333333334 26.666666666666668 75.84053333333333 24.91466666666667 70.30613333333334 20.578879999999998 65.97013333333334 15.044213333333332 64.21813333333334Z" class="hierarchical-1:primary "/><path d="M71.04426666666666 82.35146666666667C76.5792 80.6 80.91466666666666 76.264 82.66666666666667 70.72906666666665 84.41866666666667 76.264 88.75466666666667 80.59946666666666 94.28906666666667 82.35146666666667 88.75466666666667 84.104 84.41866666666667 88.43946666666668 82.66666666666667 93.97386666666667 80.91466666666666 88.43946666666668 76.57866666666666 84.10346666666666 71.04426666666666 82.35146666666667Z" class="hierarchical-1:primary "/><path d="M52.37754666666666 64.21813333333334C57.91253333333333 62.46666666666667 62.248 58.13066666666667 64 52.595839999999995 65.752 58.13066666666667 70.088 62.46613333333333 75.6224 64.21813333333334 70.088 65.97066666666666 65.752 70.30613333333334 64 75.84053333333333 62.248 70.30613333333334 57.912 65.97013333333334 52.37754666666666 64.21813333333334Z" class="hierarchical-1:primary "/><path d="M71.04426666666666 64.21813333333334C76.5792 62.46666666666667 80.91466666666666 58.13066666666667 82.66666666666667 52.595839999999995 84.41866666666667 58.13066666666667 88.75466666666667 62.46613333333333 94.28906666666667 64.21813333333334 88.75466666666667 65.97066666666666 84.41866666666667 70.30613333333334 82.66666666666667 75.84053333333333 80.91466666666666 70.30613333333334 76.57866666666666 65.97013333333334 71.04426666666666 64.21813333333334Z" class="hierarchical-1:primary "/><path d="M89.71093333333333 64.21813333333334C95.24586666666667 62.46666666666667 99.58133333333333 58.13066666666667 101.33333333333333 52.595839999999995 103.08533333333332 58.13066666666667 107.42133333333332 62.46613333333333 112.95573333333333 64.21813333333334 107.42133333333332 65.97066666666666 103.08533333333332 70.30613333333334 101.33333333333333 75.84053333333333 99.58133333333333 70.30613333333334 95.24533333333333 65.97013333333334 89.71093333333333 64.21813333333334Z" class="hierarchical-1:primary "/><path d="M89.71093333333333 101.01813333333332C95.24586666666667 99.26666666666667 99.58133333333333 94.93066666666667 101.33333333333333 89.39573333333333 103.08533333333332 94.93066666666667 107.42133333333332 99.26613333333333 112.95573333333333 101.01813333333332 107.42133333333332 102.77066666666666 103.08533333333332 107.10613333333333 101.33333333333333 112.64053333333332 99.58133333333333 107.10613333333333 95.24533333333333 102.77013333333332 89.71093333333333 101.01813333333332Z" class="hierarchical-1:primary "/><path d="M52.37754666666666 101.01813333333332C57.91253333333333 99.26666666666667 62.248 94.93066666666667 64 89.39573333333333 65.752 94.93066666666667 70.088 99.26613333333333 75.6224 101.01813333333332 70.088 102.77066666666666 65.752 107.10613333333333 64 112.64053333333332 62.248 107.10613333333333 57.912 102.77013333333332 52.37754666666666 101.01813333333332Z" class="hierarchical-1:primary "/><path d="M71.04426666666666 45.551626666666664C76.5792 43.79984 80.91466666666666 39.463946666666665 82.66666666666667 33.92917333333333 84.41866666666667 39.46384 88.75466666666667 43.799679999999995 94.28906666666667 45.551626666666664 88.75466666666667 47.30378666666666 84.41866666666667 51.63957333333334 82.66666666666667 57.17386666666666 80.91466666666666 51.639466666666664 76.57866666666666 47.303626666666666 71.04426666666666 45.551626666666664Z" class="hierarchical-1:primary "/><path d="M71.04426666666666 26.88496C76.5792 25.133173333333332 80.91466666666666 20.79728 82.66666666666667 15.262506666666667 84.41866666666667 20.797173333333333 88.75466666666667 25.133013333333334 94.28906666666667 26.88496 88.75466666666667 28.63712 84.41866666666667 32.97290666666667 82.66666666666667 38.507466666666666 80.91466666666666 32.9728 76.57866666666666 28.63696 71.04426666666666 26.88496Z" class="hierarchical-1:primary "/><path d="M52.37754666666666 26.885013333333333C57.91253333333333 25.133173333333332 62.248 20.79728 64 15.262506666666667 65.752 20.797173333333333 70.088 25.133013333333334 75.6224 26.885013333333333 70.088 28.63712 65.752 32.97290666666667 64 38.507466666666666 62.248 32.9728 57.912 28.63696 52.37754666666666 26.885013333333333Z" class="hierarchical-1:primary "/></g>
  <g id="Regular-M" transform="matrix(1,0,0,1,1385.845,1026.77)">

  <path d="M15.044213333333332 82.35146666666667C20.578986666666665 80.6 24.914826666666666 76.264 26.666666666666668 70.72906666666665 28.418666666666663 76.264 32.75450666666667 80.59946666666666 38.289120000000004 82.35146666666667 32.75456 84.104 28.418826666666664 88.43946666666668 26.666666666666668 93.97386666666667 24.91466666666667 88.43946666666668 20.578879999999998 84.10346666666666 15.044213333333332 82.35146666666667Z" class="hierarchical-1:primary "/><path d="M33.71088 82.35146666666667C39.24565333333333 80.6 43.581493333333334 76.264 45.333333333333336 70.72906666666665 47.08533333333333 76.264 51.42117333333333 80.59946666666666 56.955733333333335 82.35146666666667 51.42122666666666 84.104 47.08549333333334 88.43946666666668 45.333333333333336 93.97386666666667 43.58133333333333 88.43946666666668 39.24554666666667 84.10346666666666 33.71088 82.35146666666667Z" class="hierarchical-1:primary "/><path d="M52.37754666666666 82.35146666666667C57.91253333333333 80.6 62.248 76.264 64 70.72906666666665 65.752 76.264 70.088 80.59946666666666 75.6224 82.35146666666667 70.088 84.104 65.752 88.43946666666668 64 93.97386666666667 62.248 88.43946666666668 57.912 84.10346666666666 52.37754666666666 82.35146666666667Z" class="hierarchical-1:primary "/><path d="M15.044213333333332 64.21813333333334C20.578986666666665 62.46666666666667 24.91488 58.13066666666667 26.666666666666668 52.595839999999995 28.418666666666663 58.13066666666667 32.75450666666667 62.46613333333333 38.289120000000004 64.21813333333334 32.75461333333333 65.97066666666666 28.418826666666664 70.30613333333334 26.666666666666668 75.84053333333333 24.91466666666667 70.30613333333334 20.578879999999998 65.97013333333334 15.044213333333332 64.21813333333334Z" class="hierarchical-1:primary "/><path d="M71.04426666666666 82.35146666666667C76.5792 80.6 80.91466666666666 76.264 82.66666666666667 70.72906666666665 84.41866666666667 76.264 88.75466666666667 80.59946666666666 94.28906666666667 82.35146666666667 88.75466666666667 84.104 84.41866666666667 88.43946666666668 82.66666666666667 93.97386666666667 80.91466666666666 88.43946666666668 76.57866666666666 84.10346666666666 71.04426666666666 82.35146666666667Z" class="hierarchical-1:primary "/><path d="M52.37754666666666 64.21813333333334C57.91253333333333 62.46666666666667 62.248 58.13066666666667 64 52.595839999999995 65.752 58.13066666666667 70.088 62.46613333333333 75.6224 64.21813333333334 70.088 65.97066666666666 65.752 70.30613333333334 64 75.84053333333333 62.248 70.30613333333334 57.912 65.97013333333334 52.37754666666666 64.21813333333334Z" class="hierarchical-1:primary "/><path d="M71.04426666666666 64.21813333333334C76.5792 62.46666666666667 80.91466666666666 58.13066666666667 82.66666666666667 52.595839999999995 84.41866666666667 58.13066666666667 88.75466666666667 62.46613333333333 94.28906666666667 64.21813333333334 88.75466666666667 65.97066666666666 84.41866666666667 70.30613333333334 82.66666666666667 75.84053333333333 80.91466666666666 70.30613333333334 76.57866666666666 65.97013333333334 71.04426666666666 64.21813333333334Z" class="hierarchical-1:primary "/><path d="M89.71093333333333 64.21813333333334C95.24586666666667 62.46666666666667 99.58133333333333 58.13066666666667 101.33333333333333 52.595839999999995 103.08533333333332 58.13066666666667 107.42133333333332 62.46613333333333 112.95573333333333 64.21813333333334 107.42133333333332 65.97066666666666 103.08533333333332 70.30613333333334 101.33333333333333 75.84053333333333 99.58133333333333 70.30613333333334 95.24533333333333 65.97013333333334 89.71093333333333 64.21813333333334Z" class="hierarchical-1:primary "/><path d="M89.71093333333333 101.01813333333332C95.24586666666667 99.26666666666667 99.58133333333333 94.93066666666667 101.33333333333333 89.39573333333333 103.08533333333332 94.93066666666667 107.42133333333332 99.26613333333333 112.95573333333333 101.01813333333332 107.42133333333332 102.77066666666666 103.08533333333332 107.10613333333333 101.33333333333333 112.64053333333332 99.58133333333333 107.10613333333333 95.24533333333333 102.77013333333332 89.71093333333333 101.01813333333332Z" class="hierarchical-1:primary "/><path d="M52.37754666666666 101.01813333333332C57.91253333333333 99.26666666666667 62.248 94.93066666666667 64 89.39573333333333 65.752 94.93066666666667 70.088 99.26613333333333 75.6224 101.01813333333332 70.088 102.77066666666666 65.752 107.10613333333333 64 112.64053333333332 62.248 107.10613333333333 57.912 102.77013333333332 52.37754666666666 101.01813333333332Z" class="hierarchical-1:primary "/><path d="M71.04426666666666 45.551626666666664C76.5792 43.79984 80.91466666666666 39.463946666666665 82.66666666666667 33.92917333333333 84.41866666666667 39.46384 88.75466666666667 43.799679999999995 94.28906666666667 45.551626666666664 88.75466666666667 47.30378666666666 84.41866666666667 51.63957333333334 82.66666666666667 57.17386666666666 80.91466666666666 51.639466666666664 76.57866666666666 47.303626666666666 71.04426666666666 45.551626666666664Z" class="hierarchical-1:primary "/><path d="M71.04426666666666 26.88496C76.5792 25.133173333333332 80.91466666666666 20.79728 82.66666666666667 15.262506666666667 84.41866666666667 20.797173333333333 88.75466666666667 25.133013333333334 94.28906666666667 26.88496 88.75466666666667 28.63712 84.41866666666667 32.97290666666667 82.66666666666667 38.507466666666666 80.91466666666666 32.9728 76.57866666666666 28.63696 71.04426666666666 26.88496Z" class="hierarchical-1:primary "/><path d="M52.37754666666666 26.885013333333333C57.91253333333333 25.133173333333332 62.248 20.79728 64 15.262506666666667 65.752 20.797173333333333 70.088 25.133013333333334 75.6224 26.885013333333333 70.088 28.63712 65.752 32.97290666666667 64 38.507466666666666 62.248 32.9728 57.912 28.63696 52.37754666666666 26.885013333333333Z" class="hierarchical-1:primary "/></g>
  <g id="Ultralight-M" transform="matrix(1,0,0,1,495.711,1026.77)">

  <path d="M15.044213333333332 82.35146666666667C20.578986666666665 80.6 24.914826666666666 76.264 26.666666666666668 70.72906666666665 28.418666666666663 76.264 32.75450666666667 80.59946666666666 38.289120000000004 82.35146666666667 32.75456 84.104 28.418826666666664 88.43946666666668 26.666666666666668 93.97386666666667 24.91466666666667 88.43946666666668 20.578879999999998 84.10346666666666 15.044213333333332 82.35146666666667Z" class="hierarchical-1:primary "/><path d="M33.71088 82.35146666666667C39.24565333333333 80.6 43.581493333333334 76.264 45.333333333333336 70.72906666666665 47.08533333333333 76.264 51.42117333333333 80.59946666666666 56.955733333333335 82.35146666666667 51.42122666666666 84.104 47.08549333333334 88.43946666666668 45.333333333333336 93.97386666666667 43.58133333333333 88.43946666666668 39.24554666666667 84.10346666666666 33.71088 82.35146666666667Z" class="hierarchical-1:primary "/><path d="M52.37754666666666 82.35146666666667C57.91253333333333 80.6 62.248 76.264 64 70.72906666666665 65.752 76.264 70.088 80.59946666666666 75.6224 82.35146666666667 70.088 84.104 65.752 88.43946666666668 64 93.97386666666667 62.248 88.43946666666668 57.912 84.10346666666666 52.37754666666666 82.35146666666667Z" class="hierarchical-1:primary "/><path d="M15.044213333333332 64.21813333333334C20.578986666666665 62.46666666666667 24.91488 58.13066666666667 26.666666666666668 52.595839999999995 28.418666666666663 58.13066666666667 32.75450666666667 62.46613333333333 38.289120000000004 64.21813333333334 32.75461333333333 65.97066666666666 28.418826666666664 70.30613333333334 26.666666666666668 75.84053333333333 24.91466666666667 70.30613333333334 20.578879999999998 65.97013333333334 15.044213333333332 64.21813333333334Z" class="hierarchical-1:primary "/><path d="M71.04426666666666 82.35146666666667C76.5792 80.6 80.91466666666666 76.264 82.66666666666667 70.72906666666665 84.41866666666667 76.264 88.75466666666667 80.59946666666666 94.28906666666667 82.35146666666667 88.75466666666667 84.104 84.41866666666667 88.43946666666668 82.66666666666667 93.97386666666667 80.91466666666666 88.43946666666668 76.57866666666666 84.10346666666666 71.04426666666666 82.35146666666667Z" class="hierarchical-1:primary "/><path d="M52.37754666666666 64.21813333333334C57.91253333333333 62.46666666666667 62.248 58.13066666666667 64 52.595839999999995 65.752 58.13066666666667 70.088 62.46613333333333 75.6224 64.21813333333334 70.088 65.97066666666666 65.752 70.30613333333334 64 75.84053333333333 62.248 70.30613333333334 57.912 65.97013333333334 52.37754666666666 64.21813333333334Z" class="hierarchical-1:primary "/><path d="M71.04426666666666 64.21813333333334C76.5792 62.46666666666667 80.91466666666666 58.13066666666667 82.66666666666667 52.595839999999995 84.41866666666667 58.13066666666667 88.75466666666667 62.46613333333333 94.28906666666667 64.21813333333334 88.75466666666667 65.97066666666666 84.41866666666667 70.30613333333334 82.66666666666667 75.84053333333333 80.91466666666666 70.30613333333334 76.57866666666666 65.97013333333334 71.04426666666666 64.21813333333334Z" class="hierarchical-1:primary "/><path d="M89.71093333333333 64.21813333333334C95.24586666666667 62.46666666666667 99.58133333333333 58.13066666666667 101.33333333333333 52.595839999999995 103.08533333333332 58.13066666666667 107.42133333333332 62.46613333333333 112.95573333333333 64.21813333333334 107.42133333333332 65.97066666666666 103.08533333333332 70.30613333333334 101.33333333333333 75.84053333333333 99.58133333333333 70.30613333333334 95.24533333333333 65.97013333333334 89.71093333333333 64.21813333333334Z" class="hierarchical-1:primary "/><path d="M89.71093333333333 101.01813333333332C95.24586666666667 99.26666666666667 99.58133333333333 94.93066666666667 101.33333333333333 89.39573333333333 103.08533333333332 94.93066666666667 107.42133333333332 99.26613333333333 112.95573333333333 101.01813333333332 107.42133333333332 102.77066666666666 103.08533333333332 107.10613333333333 101.33333333333333 112.64053333333332 99.58133333333333 107.10613333333333 95.24533333333333 102.77013333333332 89.71093333333333 101.01813333333332Z" class="hierarchical-1:primary "/><path d="M52.37754666666666 101.01813333333332C57.91253333333333 99.26666666666667 62.248 94.93066666666667 64 89.39573333333333 65.752 94.93066666666667 70.088 99.26613333333333 75.6224 101.01813333333332 70.088 102.77066666666666 65.752 107.10613333333333 64 112.64053333333332 62.248 107.10613333333333 57.912 102.77013333333332 52.37754666666666 101.01813333333332Z" class="hierarchical-1:primary "/><path d="M71.04426666666666 45.551626666666664C76.5792 43.79984 80.91466666666666 39.463946666666665 82.66666666666667 33.92917333333333 84.41866666666667 39.46384 88.75466666666667 43.799679999999995 94.28906666666667 45.551626666666664 88.75466666666667 47.30378666666666 84.41866666666667 51.63957333333334 82.66666666666667 57.17386666666666 80.91466666666666 51.639466666666664 76.57866666666666 47.303626666666666 71.04426666666666 45.551626666666664Z" class="hierarchical-1:primary "/><path d="M71.04426666666666 26.88496C76.5792 25.133173333333332 80.91466666666666 20.79728 82.66666666666667 15.262506666666667 84.41866666666667 20.797173333333333 88.75466666666667 25.133013333333334 94.28906666666667 26.88496 88.75466666666667 28.63712 84.41866666666667 32.97290666666667 82.66666666666667 38.507466666666666 80.91466666666666 32.9728 76.57866666666666 28.63696 71.04426666666666 26.88496Z" class="hierarchical-1:primary "/><path d="M52.37754666666666 26.885013333333333C57.91253333333333 25.133173333333332 62.248 20.79728 64 15.262506666666667 65.752 20.797173333333333 70.088 25.133013333333334 75.6224 26.885013333333333 70.088 28.63712 65.752 32.97290666666667 64 38.507466666666666 62.248 32.9728 57.912 28.63696 52.37754666666666 26.885013333333333Z" class="hierarchical-1:primary "/></g>
  <g id="Black-S" transform="matrix(1,0,0,1,2885.3999999999996,612.7705000000001)">

  <path d="M11.28316 61.7636C15.43424 60.45 18.68612 57.19800000000001 20 53.0468 21.314 57.19800000000001 24.565880000000003 60.449600000000004 28.716840000000005 61.7636 24.565920000000002 63.078 21.314120000000003 66.32960000000001 20 70.4804 18.686000000000003 66.32960000000001 15.43416 63.0776 11.28316 61.7636Z" class="hierarchical-1:primary "/><path d="M25.283160000000002 61.7636C29.434240000000003 60.45 32.68612 57.19800000000001 34 53.0468 35.314 57.19800000000001 38.56588 60.449600000000004 42.716800000000006 61.7636 38.565920000000006 63.078 35.31412 66.32960000000001 34 70.4804 32.686 66.32960000000001 29.434160000000006 63.0776 25.283160000000002 61.7636Z" class="hierarchical-1:primary "/><path d="M39.28316 61.7636C43.434400000000004 60.45 46.68600000000001 57.19800000000001 48 53.0468 49.314 57.19800000000001 52.566 60.449600000000004 56.716800000000006 61.7636 52.566 63.078 49.314 66.32960000000001 48 70.4804 46.68600000000001 66.32960000000001 43.434 63.0776 39.28316 61.7636Z" class="hierarchical-1:primary "/><path d="M11.28316 48.1636C15.43424 46.85 18.68616 43.598000000000006 20 39.44688 21.314 43.598000000000006 24.565880000000003 46.8496 28.716840000000005 48.1636 24.565960000000004 49.478 21.314120000000003 52.729600000000005 20 56.8804 18.686000000000003 52.729600000000005 15.43416 49.4776 11.28316 48.1636Z" class="hierarchical-1:primary "/><path d="M53.2832 61.7636C57.43440000000001 60.45 60.68600000000001 57.19800000000001 62 53.0468 63.314 57.19800000000001 66.566 60.449600000000004 70.7168 61.7636 66.566 63.078 63.314 66.32960000000001 62 70.4804 60.68600000000001 66.32960000000001 57.434000000000005 63.0776 53.2832 61.7636Z" class="hierarchical-1:primary "/><path d="M39.28316 48.1636C43.434400000000004 46.85 46.68600000000001 43.598000000000006 48 39.44688 49.314 43.598000000000006 52.566 46.8496 56.716800000000006 48.1636 52.566 49.478 49.314 52.729600000000005 48 56.8804 46.68600000000001 52.729600000000005 43.434 49.4776 39.28316 48.1636Z" class="hierarchical-1:primary "/><path d="M53.2832 48.1636C57.43440000000001 46.85 60.68600000000001 43.598000000000006 62 39.44688 63.314 43.598000000000006 66.566 46.8496 70.7168 48.1636 66.566 49.478 63.314 52.729600000000005 62 56.8804 60.68600000000001 52.729600000000005 57.434000000000005 49.4776 53.2832 48.1636Z" class="hierarchical-1:primary "/><path d="M67.28320000000001 48.1636C71.43440000000001 46.85 74.686 43.598000000000006 76 39.44688 77.31400000000001 43.598000000000006 80.566 46.8496 84.7168 48.1636 80.566 49.478 77.31400000000001 52.729600000000005 76 56.8804 74.686 52.729600000000005 71.43400000000001 49.4776 67.28320000000001 48.1636Z" class="hierarchical-1:primary "/><path d="M67.28320000000001 75.7636C71.43440000000001 74.45 74.686 71.19800000000001 76 67.0468 77.31400000000001 71.19800000000001 80.566 74.4496 84.7168 75.7636 80.566 77.078 77.31400000000001 80.32960000000001 76 84.4804 74.686 80.32960000000001 71.43400000000001 77.0776 67.28320000000001 75.7636Z" class="hierarchical-1:primary "/><path d="M39.28316 75.7636C43.434400000000004 74.45 46.68600000000001 71.19800000000001 48 67.0468 49.314 71.19800000000001 52.566 74.4496 56.716800000000006 75.7636 52.566 77.078 49.314 80.32960000000001 48 84.4804 46.68600000000001 80.32960000000001 43.434 77.0776 39.28316 75.7636Z" class="hierarchical-1:primary "/><path d="M53.2832 34.163720000000005C57.43440000000001 32.849880000000006 60.68600000000001 29.59796 62 25.44688 63.314 29.59788 66.566 32.849759999999996 70.7168 34.163720000000005 66.566 35.47784 63.314 38.72968 62 42.8804 60.68600000000001 38.729600000000005 57.434000000000005 35.47772 53.2832 34.163720000000005Z" class="hierarchical-1:primary "/><path d="M53.2832 20.16372C57.43440000000001 18.84988 60.68600000000001 15.59796 62 11.44688 63.314 15.597880000000002 66.566 18.84976 70.7168 20.16372 66.566 21.47784 63.314 24.729680000000002 62 28.8806 60.68600000000001 24.7296 57.434000000000005 21.47772 53.2832 20.16372Z" class="hierarchical-1:primary "/><path d="M39.28316 20.16376C43.434400000000004 18.84988 46.68600000000001 15.59796 48 11.44688 49.314 15.597880000000002 52.566 18.84976 56.716800000000006 20.16376 52.566 21.47784 49.314 24.729680000000002 48 28.8806 46.68600000000001 24.7296 43.434 21.47772 39.28316 20.16376Z" class="hierarchical-1:primary "/></g>
  <g id="Regular-S" transform="matrix(1,0,0,1,1401.845,612.7705000000001)">

  <path d="M11.28316 61.7636C15.43424 60.45 18.68612 57.19800000000001 20 53.0468 21.314 57.19800000000001 24.565880000000003 60.449600000000004 28.716840000000005 61.7636 24.565920000000002 63.078 21.314120000000003 66.32960000000001 20 70.4804 18.686000000000003 66.32960000000001 15.43416 63.0776 11.28316 61.7636Z" class="hierarchical-1:primary "/><path d="M25.283160000000002 61.7636C29.434240000000003 60.45 32.68612 57.19800000000001 34 53.0468 35.314 57.19800000000001 38.56588 60.449600000000004 42.716800000000006 61.7636 38.565920000000006 63.078 35.31412 66.32960000000001 34 70.4804 32.686 66.32960000000001 29.434160000000006 63.0776 25.283160000000002 61.7636Z" class="hierarchical-1:primary "/><path d="M39.28316 61.7636C43.434400000000004 60.45 46.68600000000001 57.19800000000001 48 53.0468 49.314 57.19800000000001 52.566 60.449600000000004 56.716800000000006 61.7636 52.566 63.078 49.314 66.32960000000001 48 70.4804 46.68600000000001 66.32960000000001 43.434 63.0776 39.28316 61.7636Z" class="hierarchical-1:primary "/><path d="M11.28316 48.1636C15.43424 46.85 18.68616 43.598000000000006 20 39.44688 21.314 43.598000000000006 24.565880000000003 46.8496 28.716840000000005 48.1636 24.565960000000004 49.478 21.314120000000003 52.729600000000005 20 56.8804 18.686000000000003 52.729600000000005 15.43416 49.4776 11.28316 48.1636Z" class="hierarchical-1:primary "/><path d="M53.2832 61.7636C57.43440000000001 60.45 60.68600000000001 57.19800000000001 62 53.0468 63.314 57.19800000000001 66.566 60.449600000000004 70.7168 61.7636 66.566 63.078 63.314 66.32960000000001 62 70.4804 60.68600000000001 66.32960000000001 57.434000000000005 63.0776 53.2832 61.7636Z" class="hierarchical-1:primary "/><path d="M39.28316 48.1636C43.434400000000004 46.85 46.68600000000001 43.598000000000006 48 39.44688 49.314 43.598000000000006 52.566 46.8496 56.716800000000006 48.1636 52.566 49.478 49.314 52.729600000000005 48 56.8804 46.68600000000001 52.729600000000005 43.434 49.4776 39.28316 48.1636Z" class="hierarchical-1:primary "/><path d="M53.2832 48.1636C57.43440000000001 46.85 60.68600000000001 43.598000000000006 62 39.44688 63.314 43.598000000000006 66.566 46.8496 70.7168 48.1636 66.566 49.478 63.314 52.729600000000005 62 56.8804 60.68600000000001 52.729600000000005 57.434000000000005 49.4776 53.2832 48.1636Z" class="hierarchical-1:primary "/><path d="M67.28320000000001 48.1636C71.43440000000001 46.85 74.686 43.598000000000006 76 39.44688 77.31400000000001 43.598000000000006 80.566 46.8496 84.7168 48.1636 80.566 49.478 77.31400000000001 52.729600000000005 76 56.8804 74.686 52.729600000000005 71.43400000000001 49.4776 67.28320000000001 48.1636Z" class="hierarchical-1:primary "/><path d="M67.28320000000001 75.7636C71.43440000000001 74.45 74.686 71.19800000000001 76 67.0468 77.31400000000001 71.19800000000001 80.566 74.4496 84.7168 75.7636 80.566 77.078 77.31400000000001 80.32960000000001 76 84.4804 74.686 80.32960000000001 71.43400000000001 77.0776 67.28320000000001 75.7636Z" class="hierarchical-1:primary "/><path d="M39.28316 75.7636C43.434400000000004 74.45 46.68600000000001 71.19800000000001 48 67.0468 49.314 71.19800000000001 52.566 74.4496 56.716800000000006 75.7636 52.566 77.078 49.314 80.32960000000001 48 84.4804 46.68600000000001 80.32960000000001 43.434 77.0776 39.28316 75.7636Z" class="hierarchical-1:primary "/><path d="M53.2832 34.163720000000005C57.43440000000001 32.849880000000006 60.68600000000001 29.59796 62 25.44688 63.314 29.59788 66.566 32.849759999999996 70.7168 34.163720000000005 66.566 35.47784 63.314 38.72968 62 42.8804 60.68600000000001 38.729600000000005 57.434000000000005 35.47772 53.2832 34.163720000000005Z" class="hierarchical-1:primary "/><path d="M53.2832 20.16372C57.43440000000001 18.84988 60.68600000000001 15.59796 62 11.44688 63.314 15.597880000000002 66.566 18.84976 70.7168 20.16372 66.566 21.47784 63.314 24.729680000000002 62 28.8806 60.68600000000001 24.7296 57.434000000000005 21.47772 53.2832 20.16372Z" class="hierarchical-1:primary "/><path d="M39.28316 20.16376C43.434400000000004 18.84988 46.68600000000001 15.59796 48 11.44688 49.314 15.597880000000002 52.566 18.84976 56.716800000000006 20.16376 52.566 21.47784 49.314 24.729680000000002 48 28.8806 46.68600000000001 24.7296 43.434 21.47772 39.28316 20.16376Z" class="hierarchical-1:primary "/></g>
  <g id="Ultralight-S" transform="matrix(1,0,0,1,511.711,612.7705000000001)">

  <path d="M11.28316 61.7636C15.43424 60.45 18.68612 57.19800000000001 20 53.0468 21.314 57.19800000000001 24.565880000000003 60.449600000000004 28.716840000000005 61.7636 24.565920000000002 63.078 21.314120000000003 66.32960000000001 20 70.4804 18.686000000000003 66.32960000000001 15.43416 63.0776 11.28316 61.7636Z" class="hierarchical-1:primary "/><path d="M25.283160000000002 61.7636C29.434240000000003 60.45 32.68612 57.19800000000001 34 53.0468 35.314 57.19800000000001 38.56588 60.449600000000004 42.716800000000006 61.7636 38.565920000000006 63.078 35.31412 66.32960000000001 34 70.4804 32.686 66.32960000000001 29.434160000000006 63.0776 25.283160000000002 61.7636Z" class="hierarchical-1:primary "/><path d="M39.28316 61.7636C43.434400000000004 60.45 46.68600000000001 57.19800000000001 48 53.0468 49.314 57.19800000000001 52.566 60.449600000000004 56.716800000000006 61.7636 52.566 63.078 49.314 66.32960000000001 48 70.4804 46.68600000000001 66.32960000000001 43.434 63.0776 39.28316 61.7636Z" class="hierarchical-1:primary "/><path d="M11.28316 48.1636C15.43424 46.85 18.68616 43.598000000000006 20 39.44688 21.314 43.598000000000006 24.565880000000003 46.8496 28.716840000000005 48.1636 24.565960000000004 49.478 21.314120000000003 52.729600000000005 20 56.8804 18.686000000000003 52.729600000000005 15.43416 49.4776 11.28316 48.1636Z" class="hierarchical-1:primary "/><path d="M53.2832 61.7636C57.43440000000001 60.45 60.68600000000001 57.19800000000001 62 53.0468 63.314 57.19800000000001 66.566 60.449600000000004 70.7168 61.7636 66.566 63.078 63.314 66.32960000000001 62 70.4804 60.68600000000001 66.32960000000001 57.434000000000005 63.0776 53.2832 61.7636Z" class="hierarchical-1:primary "/><path d="M39.28316 48.1636C43.434400000000004 46.85 46.68600000000001 43.598000000000006 48 39.44688 49.314 43.598000000000006 52.566 46.8496 56.716800000000006 48.1636 52.566 49.478 49.314 52.729600000000005 48 56.8804 46.68600000000001 52.729600000000005 43.434 49.4776 39.28316 48.1636Z" class="hierarchical-1:primary "/><path d="M53.2832 48.1636C57.43440000000001 46.85 60.68600000000001 43.598000000000006 62 39.44688 63.314 43.598000000000006 66.566 46.8496 70.7168 48.1636 66.566 49.478 63.314 52.729600000000005 62 56.8804 60.68600000000001 52.729600000000005 57.434000000000005 49.4776 53.2832 48.1636Z" class="hierarchical-1:primary "/><path d="M67.28320000000001 48.1636C71.43440000000001 46.85 74.686 43.598000000000006 76 39.44688 77.31400000000001 43.598000000000006 80.566 46.8496 84.7168 48.1636 80.566 49.478 77.31400000000001 52.729600000000005 76 56.8804 74.686 52.729600000000005 71.43400000000001 49.4776 67.28320000000001 48.1636Z" class="hierarchical-1:primary "/><path d="M67.28320000000001 75.7636C71.43440000000001 74.45 74.686 71.19800000000001 76 67.0468 77.31400000000001 71.19800000000001 80.566 74.4496 84.7168 75.7636 80.566 77.078 77.31400000000001 80.32960000000001 76 84.4804 74.686 80.32960000000001 71.43400000000001 77.0776 67.28320000000001 75.7636Z" class="hierarchical-1:primary "/><path d="M39.28316 75.7636C43.434400000000004 74.45 46.68600000000001 71.19800000000001 48 67.0468 49.314 71.19800000000001 52.566 74.4496 56.716800000000006 75.7636 52.566 77.078 49.314 80.32960000000001 48 84.4804 46.68600000000001 80.32960000000001 43.434 77.0776 39.28316 75.7636Z" class="hierarchical-1:primary "/><path d="M53.2832 34.163720000000005C57.43440000000001 32.849880000000006 60.68600000000001 29.59796 62 25.44688 63.314 29.59788 66.566 32.849759999999996 70.7168 34.163720000000005 66.566 35.47784 63.314 38.72968 62 42.8804 60.68600000000001 38.729600000000005 57.434000000000005 35.47772 53.2832 34.163720000000005Z" class="hierarchical-1:primary "/><path d="M53.2832 20.16372C57.43440000000001 18.84988 60.68600000000001 15.59796 62 11.44688 63.314 15.597880000000002 66.566 18.84976 70.7168 20.16372 66.566 21.47784 63.314 24.729680000000002 62 28.8806 60.68600000000001 24.7296 57.434000000000005 21.47772 53.2832 20.16372Z" class="hierarchical-1:primary "/><path d="M39.28316 20.16376C43.434400000000004 18.84988 46.68600000000001 15.59796 48 11.44688 49.314 15.597880000000002 52.566 18.84976 56.716800000000006 20.16376 52.566 21.47784 49.314 24.729680000000002 48 28.8806 46.68600000000001 24.7296 43.434 21.47772 39.28316 20.16376Z" class="hierarchical-1:primary "/></g>
 </g>
</svg>