<?xml version="1.0" encoding="UTF-8"?>
<svg width="168px" height="111px" viewBox="0 0 168 111" version="1.1" xmlns="http://www.w3.org/2000/svg" xmlns:xlink="http://www.w3.org/1999/xlink">
    <!-- Generator: Sketch 52.6 (67491) - http://www.bohemiancoding.com/sketch -->
    <title>Shape</title>
    <desc>Created with Sketch.</desc>
    <g id="Page-1" stroke="none" stroke-width="1" fill="none" fill-rule="evenodd">
        <path d="M140.389706,91.8423314 C142.131279,91.2210746 143.636035,90.3344544 144.903985,89.1824672 C147.656181,86.6819787 149.032258,82.8960848 149.032258,77.8246716 L149.032258,33.1753284 C149.032258,28.1039152 147.656181,24.3180213 144.903985,21.8175328 C143.636035,20.6655456 142.131279,19.7789254 140.389706,19.1576686 C137.837022,18.7473002 134.357916,18.5777311 128.977837,18.5777311 L43.0221632,18.5777311 C32.4325325,18.5777311 29.2076916,19.234679 25.9160505,21.091752 C23.4895312,22.4607418 21.6808511,24.3687582 20.3831344,26.9285467 C19.8985458,27.8844134 19.5001628,28.8349404 19.1772451,29.9436569 C19.0375762,30.9556431 18.9677419,32.0328665 18.9677419,33.1753284 L18.9677419,77.8246716 C18.9677419,78.9671335 19.0375762,80.0443569 19.1772451,81.0563431 C19.5001628,82.1650596 19.8985458,83.1155866 20.3831344,84.0714533 C20.6515488,84.6009094 20.9418227,85.102482 21.254902,85.5771687 L21.254902,82.7058824 C21.254902,70.6607795 29.1531185,60.4439332 40.0967737,56.864793 C35.8337768,54.0301627 33.0196078,49.1508748 33.0196078,43.6071429 C33.0196078,34.8494847 40.0425922,27.75 48.7058824,27.75 C57.3691725,27.75 64.3921569,34.8494847 64.3921569,43.6071429 C64.3921569,49.1508748 61.5779879,54.0301627 57.314991,56.864793 C68.2586462,60.4439332 76.1568627,70.6607795 76.1568627,82.7058824 L76.1568627,92.4222689 L128.977837,92.4222689 C134.357916,92.4222689 137.837022,92.2526998 140.389706,91.8423314 Z M33.9187856,111 C22.6868509,111 14.2258349,108.323461 8.53548387,102.970303 C2.84513284,97.6171444 0,89.6931802 0,79.1981725 L0,31.8018275 C0,21.3068198 2.84513284,13.3828556 8.53548387,8.02969732 C14.2258349,2.67653901 22.6868509,0 33.9187856,0 L134.081214,0 C145.313149,0 153.774165,2.67653901 159.464516,8.02969732 C165.154867,13.3828556 168,21.3068198 168,31.8018275 L168,79.1981725 C168,89.6931802 165.154867,97.6171444 159.464516,102.970303 C153.774165,108.323461 145.313149,111 134.081214,111 L33.9187856,111 Z M88.6453738,81.8446917 C87.9560321,81.8446917 87.3815893,81.6124116 86.9220282,81.1478446 C86.4624671,80.6832775 86.23269,80.1025774 86.23269,79.4057268 L86.23269,60.3585728 C86.23269,59.6617222 86.4624671,59.0810221 86.9220282,58.6164551 C87.3815893,58.151888 87.9560321,57.919608 88.6453738,57.919608 L107.54473,57.919608 C108.195775,57.919608 108.75107,58.151888 109.210631,58.6164551 C109.670192,59.0810221 109.899969,59.6617222 109.899969,60.3585728 L109.899969,79.4057268 C109.899969,80.1025774 109.670192,80.6832775 109.210631,81.1478446 C108.75107,81.6124116 108.195775,81.8446917 107.54473,81.8446917 L88.6453738,81.8446917 Z M90.9431679,77.0829032 L105.132047,77.0829032 L105.132047,62.6813965 L90.9431679,62.6813965 L90.9431679,77.0829032 Z M95.1366422,72.9018206 L95.1366422,66.9205497 L101.053462,66.9205497 L101.053462,72.9018206 L95.1366422,72.9018206 Z M88.6453738,53.1578195 C87.9560321,53.1578195 87.3815893,52.9352178 86.9220282,52.4900077 C86.4624671,52.0447976 86.23269,51.4737758 86.23269,50.7769252 L86.23269,31.7297712 C86.23269,30.9942067 86.4624671,30.4038283 86.9220282,29.9586182 C87.3815893,29.5134081 87.9560321,29.2908064 88.6453738,29.2908064 L107.54473,29.2908064 C108.195775,29.2908064 108.75107,29.5134081 109.210631,29.9586182 C109.670192,30.4038283 109.899969,30.9942067 109.899969,31.7297712 L109.899969,50.7769252 C109.899969,51.4737758 109.670192,52.0447976 109.210631,52.4900077 C108.75107,52.9352178 108.195775,53.1578195 107.54473,53.1578195 L88.6453738,53.1578195 Z M90.9431679,48.396031 L105.132047,48.396031 L105.132047,33.9945243 L90.9431679,33.9945243 L90.9431679,48.396031 Z M95.1366422,44.2149484 L95.1366422,38.1756069 L101.053462,38.1756069 L101.053462,44.2149484 L95.1366422,44.2149484 Z M116.965686,53.1578195 C116.276345,53.1578195 115.701902,52.9352178 115.242341,52.4900077 C114.78278,52.0447976 114.553002,51.4737758 114.553002,50.7769252 L114.553002,31.7297712 C114.553002,30.9942067 114.78278,30.4038283 115.242341,29.9586182 C115.701902,29.5134081 116.276345,29.2908064 116.965686,29.2908064 L135.865043,29.2908064 C136.554385,29.2908064 137.128827,29.5134081 137.588388,29.9586182 C138.04795,30.4038283 138.277727,30.9942067 138.277727,31.7297712 L138.277727,50.7769252 C138.277727,51.4737758 138.04795,52.0447976 137.588388,52.4900077 C137.128827,52.9352178 136.554385,53.1578195 135.865043,53.1578195 L116.965686,53.1578195 Z M119.26348,48.396031 L133.509804,48.396031 L133.509804,33.9945243 L119.26348,33.9945243 L119.26348,48.396031 Z M123.456955,44.2149484 L123.456955,38.1756069 L129.373775,38.1756069 L129.373775,44.2149484 L123.456955,44.2149484 Z M115.242341,81.089774 L115.242341,75.1665737 L121.159161,75.1665737 L121.159161,81.089774 L115.242341,81.089774 Z M131.614124,81.089774 L131.614124,75.1665737 L137.588388,75.1665737 L137.588388,81.089774 L131.614124,81.089774 Z M123.456955,72.9018206 L123.456955,66.9205497 L129.373775,66.9205497 L129.373775,72.9018206 L123.456955,72.9018206 Z M115.242341,64.597726 L115.242341,58.6164551 L121.159161,58.6164551 L121.159161,64.597726 L115.242341,64.597726 Z M131.614124,64.597726 L131.614124,58.6164551 L137.588388,58.6164551 L137.588388,64.597726 L131.614124,64.597726 Z" id="Shape" fill="#FF7F00" transform="translate(84.000000, 55.500000) rotate(-360.000000) translate(-84.000000, -55.500000) "></path>
    </g>
</svg>