<?xml version="1.0" encoding="UTF-8"?>
<!--Generator: Apple Native CoreSVG 175.5-->
<!DOCTYPE svg
PUBLIC "-//W3C//DTD SVG 1.1//EN"
       "http://www.w3.org/Graphics/SVG/1.1/DTD/svg11.dtd">
<svg version="1.1" xmlns="http://www.w3.org/2000/svg" xmlns:xlink="http://www.w3.org/1999/xlink" width="3300" height="2200">
 <!--glyph: "", point size: 100.0, font version: "18.0d12e2", template writer version: "101"-->
 <style>.monochrome-0 {fill:#000000;-sfsymbols-variable-threshold:0.0}
.monochrome-1 {fill:#000000}

.multicolor-0:tintColor {fill:#007AFF;-sfsymbols-variable-threshold:0.0}
.multicolor-1:tintColor {fill:#007AFF}

.hierarchical-0:secondary {fill:#4D4D4D;-sfsymbols-variable-threshold:0.0}
.hierarchical-1:primary {fill:#212121}

.SFSymbolsPreview007AFF {fill:#007AFF;opacity:1.0}
</style>
 <g id="Notes">
  <rect height="2200" id="artboard" style="fill:white;opacity:1" width="3300" x="0" y="0"/>
  <line style="fill:none;stroke:black;opacity:1;stroke-width:0.5;" x1="263" x2="3036" y1="292" y2="292"/>
  <text style="stroke:none;fill:black;font-family:sans-serif;font-size:13;font-weight:bold;" transform="matrix(1 0 0 1 263 322)">Weight/Scale Variations</text>
  <text style="stroke:none;fill:black;font-family:sans-serif;font-size:13;text-anchor:middle;" transform="matrix(1 0 0 1 559.711 322)">Ultralight</text>
  <text style="stroke:none;fill:black;font-family:sans-serif;font-size:13;text-anchor:middle;" transform="matrix(1 0 0 1 856.422 322)">Thin</text>
  <text style="stroke:none;fill:black;font-family:sans-serif;font-size:13;text-anchor:middle;" transform="matrix(1 0 0 1 1153.13 322)">Light</text>
  <text style="stroke:none;fill:black;font-family:sans-serif;font-size:13;text-anchor:middle;" transform="matrix(1 0 0 1 1449.84 322)">Regular</text>
  <text style="stroke:none;fill:black;font-family:sans-serif;font-size:13;text-anchor:middle;" transform="matrix(1 0 0 1 1746.56 322)">Medium</text>
  <text style="stroke:none;fill:black;font-family:sans-serif;font-size:13;text-anchor:middle;" transform="matrix(1 0 0 1 2043.27 322)">Semibold</text>
  <text style="stroke:none;fill:black;font-family:sans-serif;font-size:13;text-anchor:middle;" transform="matrix(1 0 0 1 2339.98 322)">Bold</text>
  <text style="stroke:none;fill:black;font-family:sans-serif;font-size:13;text-anchor:middle;" transform="matrix(1 0 0 1 2636.69 322)">Heavy</text>
  <text style="stroke:none;fill:black;font-family:sans-serif;font-size:13;text-anchor:middle;" transform="matrix(1 0 0 1 2933.4 322)">Black</text>
  <line style="fill:none;stroke:black;opacity:1;stroke-width:0.5;" x1="263" x2="3036" y1="1903" y2="1903"/>
  <g transform="matrix(1 0 0 1 263 1933)">
   <path d="M9.24805 0.830078C13.5547 0.830078 17.1387-2.74414 17.1387-7.05078C17.1387-11.3574 13.5449-14.9316 9.23828-14.9316C4.94141-14.9316 1.36719-11.3574 1.36719-7.05078C1.36719-2.74414 4.95117 0.830078 9.24805 0.830078ZM9.24805-0.654297C5.70312-0.654297 2.87109-3.49609 2.87109-7.05078C2.87109-10.6055 5.69336-13.4473 9.23828-13.4473C12.793-13.4473 15.6445-10.6055 15.6445-7.05078C15.6445-3.49609 12.8027-0.654297 9.24805-0.654297ZM5.6543-7.05078C5.6543-6.62109 5.95703-6.32812 6.40625-6.32812L8.50586-6.32812L8.50586-4.20898C8.50586-3.76953 8.79883-3.4668 9.22852-3.4668C9.67773-3.4668 9.9707-3.76953 9.9707-4.20898L9.9707-6.32812L12.0898-6.32812C12.5293-6.32812 12.832-6.62109 12.832-7.05078C12.832-7.49023 12.5293-7.79297 12.0898-7.79297L9.9707-7.79297L9.9707-9.90234C9.9707-10.3516 9.67773-10.6543 9.22852-10.6543C8.79883-10.6543 8.50586-10.3516 8.50586-9.90234L8.50586-7.79297L6.40625-7.79297C5.95703-7.79297 5.6543-7.49023 5.6543-7.05078Z"/>
  </g>
  <g transform="matrix(1 0 0 1 281.867 1933)">
   <path d="M11.709 2.91016C17.1582 2.91016 21.6699-1.61133 21.6699-7.05078C21.6699-12.5 17.1484-17.0117 11.6992-17.0117C6.25977-17.0117 1.74805-12.5 1.74805-7.05078C1.74805-1.61133 6.26953 2.91016 11.709 2.91016ZM11.709 1.25C7.09961 1.25 3.41797-2.44141 3.41797-7.05078C3.41797-11.6602 7.08984-15.3516 11.6992-15.3516C16.3086-15.3516 20.0098-11.6602 20.0098-7.05078C20.0098-2.44141 16.3184 1.25 11.709 1.25ZM7.17773-7.05078C7.17773-6.57227 7.50977-6.25 8.00781-6.25L10.8789-6.25L10.8789-3.36914C10.8789-2.88086 11.2109-2.53906 11.6895-2.53906C12.1777-2.53906 12.5195-2.87109 12.5195-3.36914L12.5195-6.25L15.4004-6.25C15.8887-6.25 16.2305-6.57227 16.2305-7.05078C16.2305-7.53906 15.8887-7.88086 15.4004-7.88086L12.5195-7.88086L12.5195-10.752C12.5195-11.25 12.1777-11.5918 11.6895-11.5918C11.2109-11.5918 10.8789-11.25 10.8789-10.752L10.8789-7.88086L8.00781-7.88086C7.50977-7.88086 7.17773-7.53906 7.17773-7.05078Z"/>
  </g>
  <g transform="matrix(1 0 0 1 305.646 1933)">
   <path d="M14.9707 5.66406C21.9336 5.66406 27.6953-0.0976562 27.6953-7.05078C27.6953-14.0137 21.9238-19.7754 14.9609-19.7754C8.00781-19.7754 2.25586-14.0137 2.25586-7.05078C2.25586-0.0976562 8.01758 5.66406 14.9707 5.66406ZM14.9707 3.84766C8.93555 3.84766 4.08203-1.01562 4.08203-7.05078C4.08203-13.0957 8.92578-17.9492 14.9609-17.9492C21.0059-17.9492 25.8691-13.0957 25.8691-7.05078C25.8691-1.01562 21.0156 3.84766 14.9707 3.84766ZM9.19922-7.05078C9.19922-6.5332 9.57031-6.17188 10.1172-6.17188L14.0625-6.17188L14.0625-2.2168C14.0625-1.67969 14.4336-1.29883 14.9512-1.29883C15.4883-1.29883 15.8594-1.66992 15.8594-2.2168L15.8594-6.17188L19.8145-6.17188C20.3516-6.17188 20.7324-6.5332 20.7324-7.05078C20.7324-7.59766 20.3613-7.96875 19.8145-7.96875L15.8594-7.96875L15.8594-11.9141C15.8594-12.4609 15.4883-12.8418 14.9512-12.8418C14.4336-12.8418 14.0625-12.4609 14.0625-11.9141L14.0625-7.96875L10.1172-7.96875C9.57031-7.96875 9.19922-7.59766 9.19922-7.05078Z"/>
  </g>
  <text style="stroke:none;fill:black;font-family:sans-serif;font-size:13;font-weight:bold;" transform="matrix(1 0 0 1 263 1953)">Design Variations</text>
  <text style="stroke:none;fill:black;font-family:sans-serif;font-size:13;" transform="matrix(1 0 0 1 263 1971)">Symbols are supported in up to nine weights and three scales.</text>
  <text style="stroke:none;fill:black;font-family:sans-serif;font-size:13;" transform="matrix(1 0 0 1 263 1989)">For optimal layout with text and other symbols, vertically align</text>
  <text style="stroke:none;fill:black;font-family:sans-serif;font-size:13;" transform="matrix(1 0 0 1 263 2007)">symbols with the adjacent text.</text>
  <line style="fill:none;stroke:#00AEEF;stroke-width:0.5;opacity:1.0;" x1="776" x2="776" y1="1919" y2="1933"/>
  <g transform="matrix(1 0 0 1 776 1933)">
   <path d="M3.31055 0.15625C3.82812 0.15625 4.08203-0.0390625 4.26758-0.585938L5.52734-4.0332L11.2891-4.0332L12.5488-0.585938C12.7344-0.0390625 12.9883 0.15625 13.4961 0.15625C14.0137 0.15625 14.3457-0.15625 14.3457-0.644531C14.3457-0.810547 14.3164-0.966797 14.2383-1.17188L9.6582-13.3691C9.43359-13.9648 9.0332-14.2676 8.4082-14.2676C7.80273-14.2676 7.39258-13.9746 7.17773-13.3789L2.59766-1.16211C2.51953-0.957031 2.49023-0.800781 2.49023-0.634766C2.49023-0.146484 2.80273 0.15625 3.31055 0.15625ZM6.00586-5.51758L8.37891-12.0898L8.42773-12.0898L10.8008-5.51758Z"/>
  </g>
  <line style="fill:none;stroke:#00AEEF;stroke-width:0.5;opacity:1.0;" x1="793.197" x2="793.197" y1="1919" y2="1933"/>
  <text style="stroke:none;fill:black;font-family:sans-serif;font-size:13;font-weight:bold;" transform="matrix(1 0 0 1 776 1953)">Margins</text>
  <text style="stroke:none;fill:black;font-family:sans-serif;font-size:13;" transform="matrix(1 0 0 1 776 1971)">Leading and trailing margins on the left and right side of each symbol</text>
  <text style="stroke:none;fill:black;font-family:sans-serif;font-size:13;" transform="matrix(1 0 0 1 776 1989)">can be adjusted by modifying the x-location of the margin guidelines.</text>
  <text style="stroke:none;fill:black;font-family:sans-serif;font-size:13;" transform="matrix(1 0 0 1 776 2007)">Modifications are automatically applied proportionally to all</text>
  <text style="stroke:none;fill:black;font-family:sans-serif;font-size:13;" transform="matrix(1 0 0 1 776 2025)">scales and weights.</text>
  <g transform="matrix(1 0 0 1 1289 1933)">
   <path d="M2.8418 1.86523L4.54102 3.57422C5.40039 4.44336 6.38672 4.38477 7.31445 3.35938L18.0078-8.42773L17.041-9.4043L6.42578 2.27539C6.07422 2.67578 5.74219 2.77344 5.27344 2.30469L4.10156 1.14258C3.63281 0.683594 3.74023 0.341797 4.14062-0.0195312L15.6152-10.8203L14.6387-11.7871L3.04688-0.898438C2.06055 0.0195312 1.98242 0.996094 2.8418 1.86523ZM9.25781-16.3281C8.83789-15.918 8.80859-15.3418 9.04297-14.9512C9.27734-14.5898 9.73633-14.3555 10.3809-14.5215C11.8457-14.8633 13.3691-14.9219 14.7949-13.9844L14.209-12.5293C13.8672-11.6992 14.043-11.1133 14.5801-10.5664L16.875-8.25195C17.3633-7.76367 17.7734-7.74414 18.3398-7.8418L19.4043-8.03711L20.0684-7.36328L20.0293-6.80664C19.9902-6.30859 20.1172-5.92773 20.6055-5.44922L21.3672-4.70703C21.8457-4.22852 22.4609-4.19922 22.9297-4.66797L25.8398-7.58789C26.3086-8.05664 26.2891-8.65234 25.8105-9.13086L25.0391-9.89258C24.5605-10.3711 24.1895-10.5273 23.7109-10.4883L23.1348-10.4395L22.4902-11.0742L22.7344-12.1973C22.8613-12.7637 22.7051-13.2031 22.1191-13.7891L19.9219-15.9766C16.582-19.2969 12.1484-19.2188 9.25781-16.3281ZM10.752-15.957C13.1836-17.7344 16.4746-17.4316 18.7012-15.2051L21.1328-12.793C21.3672-12.5586 21.4062-12.373 21.3379-12.0312L21.0156-10.5469L22.5195-9.0625L23.5059-9.12109C23.7598-9.13086 23.8379-9.11133 24.0332-8.91602L24.6094-8.33984L22.168-5.89844L21.5918-6.47461C21.3965-6.66992 21.3672-6.74805 21.377-7.01172L21.4453-7.98828L19.9512-9.47266L18.4277-9.21875C18.1055-9.15039 17.959-9.17969 17.7148-9.41406L15.7129-11.416C15.459-11.6504 15.4297-11.8164 15.5859-12.1875L16.4648-14.2773C14.9023-15.7324 12.8711-16.3574 10.8398-15.7617C10.6836-15.7227 10.625-15.8496 10.752-15.957Z"/>
  </g>
  <text style="stroke:none;fill:black;font-family:sans-serif;font-size:13;font-weight:bold;" transform="matrix(1 0 0 1 1289 1953)">Exporting</text>
  <text style="stroke:none;fill:black;font-family:sans-serif;font-size:13;" transform="matrix(1 0 0 1 1289 1971)">Symbols should be outlined when exporting to ensure the</text>
  <text style="stroke:none;fill:black;font-family:sans-serif;font-size:13;" transform="matrix(1 0 0 1 1289 1989)">design is preserved when submitting to Xcode.</text>
  <text id="template-version" style="stroke:none;fill:black;font-family:sans-serif;font-size:13;text-anchor:end;" transform="matrix(1 0 0 1 3036 1933)">Template v.4.0</text>
  <text style="stroke:none;fill:black;font-family:sans-serif;font-size:13;text-anchor:end;" transform="matrix(1 0 0 1 3036 1951)">Requires Xcode 14 or greater</text>
  <text id="descriptive-name" style="stroke:none;fill:black;font-family:sans-serif;font-size:13;text-anchor:end;" transform="matrix(1 0 0 1 3036 1969)">Generated from coffee.heart</text>
  <text style="stroke:none;fill:black;font-family:sans-serif;font-size:13;text-anchor:end;" transform="matrix(1 0 0 1 3036 1987)">Typeset at 100 points</text>
  <text style="stroke:none;fill:black;font-family:sans-serif;font-size:13;" transform="matrix(1 0 0 1 263 726)">Small</text>
  <text style="stroke:none;fill:black;font-family:sans-serif;font-size:13;" transform="matrix(1 0 0 1 263 1156)">Medium</text>
  <text style="stroke:none;fill:black;font-family:sans-serif;font-size:13;" transform="matrix(1 0 0 1 263 1586)">Large</text>
 </g>
 <g id="Guides">
  <g id="H-reference" style="fill:#27AAE1;stroke:none;" transform="matrix(1 0 0 1 339 696)">
   <path d="M0.993654 0L3.63775 0L29.3281-67.1323L30.0303-67.1323L30.0303-70.459L28.1226-70.459ZM11.6885-24.4799L46.9815-24.4799L46.2315-26.7285L12.4385-26.7285ZM55.1196 0L57.7637 0L30.6382-70.459L29.4326-70.459L29.4326-67.1323Z"/>
  </g>
  <line id="Baseline-S" style="fill:none;stroke:#27AAE1;opacity:1;stroke-width:0.5;" x1="263" x2="3036" y1="696" y2="696"/>
  <line id="Capline-S" style="fill:none;stroke:#27AAE1;opacity:1;stroke-width:0.5;" x1="263" x2="3036" y1="625.541" y2="625.541"/>
  <g id="H-reference" style="fill:#27AAE1;stroke:none;" transform="matrix(1 0 0 1 339 1126)">
   <path d="M0.993654 0L3.63775 0L29.3281-67.1323L30.0303-67.1323L30.0303-70.459L28.1226-70.459ZM11.6885-24.4799L46.9815-24.4799L46.2315-26.7285L12.4385-26.7285ZM55.1196 0L57.7637 0L30.6382-70.459L29.4326-70.459L29.4326-67.1323Z"/>
  </g>
  <line id="Baseline-M" style="fill:none;stroke:#27AAE1;opacity:1;stroke-width:0.5;" x1="263" x2="3036" y1="1126" y2="1126"/>
  <line id="Capline-M" style="fill:none;stroke:#27AAE1;opacity:1;stroke-width:0.5;" x1="263" x2="3036" y1="1055.54" y2="1055.54"/>
  <g id="H-reference" style="fill:#27AAE1;stroke:none;" transform="matrix(1 0 0 1 339 1556)">
   <path d="M0.993654 0L3.63775 0L29.3281-67.1323L30.0303-67.1323L30.0303-70.459L28.1226-70.459ZM11.6885-24.4799L46.9815-24.4799L46.2315-26.7285L12.4385-26.7285ZM55.1196 0L57.7637 0L30.6382-70.459L29.4326-70.459L29.4326-67.1323Z"/>
  </g>
  <line id="Baseline-L" style="fill:none;stroke:#27AAE1;opacity:1;stroke-width:0.5;" x1="263" x2="3036" y1="1556" y2="1556"/>
  <line id="Capline-L" style="fill:none;stroke:#27AAE1;opacity:1;stroke-width:0.5;" x1="263" x2="3036" y1="1485.54" y2="1485.54"/>
  <line id="left-margin-Ultralight-S" style="fill:none;stroke:#FF3B30;stroke-width:0.5;opacity:1.0;" x1="515.84" x2="515.84" y1="600.785" y2="720.121"/>
  <line id="right-margin-Ultralight-S" style="fill:none;stroke:#00AEEF;stroke-width:0.5;opacity:1.0;" x1="603.582" x2="603.582" y1="600.785" y2="720.121"/>
  <line id="left-margin-Regular-S" style="fill:none;stroke:#00AEEF;stroke-width:0.5;opacity:1.0;" x1="1403.07" x2="1403.07" y1="600.785" y2="720.121"/>
  <line id="right-margin-Regular-S" style="fill:none;stroke:#00AEEF;stroke-width:0.5;opacity:1.0;" x1="1496.62" x2="1496.62" y1="600.785" y2="720.121"/>
  <line id="left-margin-Black-S" style="fill:none;stroke:#00AEEF;stroke-width:0.5;opacity:1.0;" x1="2881.72" x2="2881.72" y1="600.785" y2="720.121"/>
  <line id="right-margin-Black-S" style="fill:none;stroke:#00AEEF;stroke-width:0.5;opacity:1.0;" x1="2985.08" x2="2985.08" y1="600.785" y2="720.121"/>
 </g>
 <g id="Symbols">
  <g id="Black-S" transform="matrix(1 0 0 1 2881.72 696)">
   <path class="monochrome-0 multicolor-0:tintColor hierarchical-0:secondary SFSymbolsPreview007AFF" d="M48.3581-2.59655C46.373-1.30446 44.6403-0.549376 43.0467-0.549376C41.4518-0.549376 39.7219-1.30512 37.7411-2.59873C36.2962-3.54238 34.7666-4.76549 33.5622-5.90524C31.3557-7.92217 29.5317-9.99625 28.1014-12.1318C26.5137-14.4342 25.5209-16.7993 25.1629-19.2186C24.9209-20.8549 24.9916-22.398 25.3961-23.8324L25.4017-23.8522C25.8251-25.3099 26.5487-26.5961 27.5622-27.6798L27.5766-27.695C28.5902-28.7613 29.8313-29.5765 31.277-30.1364C32.6789-30.6751 34.1998-30.9412 35.819-30.9412C37.8973-30.9412 39.7902-30.4705 41.4414-29.5171L41.4539-29.5099C42.0253-29.1757 42.557-28.8008 43.0476-28.3863C43.5444-28.8065 44.0828-29.1852 44.6613-29.5212L44.6736-29.5283C46.3221-30.4738 48.2065-30.9412 50.2712-30.9412C51.9027-30.9412 53.4279-30.675 54.833-30.1323C56.2653-29.5748 57.5022-28.7602 58.5148-27.6958L58.5292-27.6806C59.5406-26.6003 60.2664-25.3187 60.697-23.8661L60.7029-23.8462C61.1168-22.4081 61.1924-20.8608 60.9508-19.2203C60.5944-16.8007 59.603-14.4354 58.0167-12.1328C56.587-9.99612 54.7611-7.92125 52.5503-5.90375C51.3458-4.76592 49.8095-3.54132 48.3581-2.59655ZM30.3354-19.9838C30.5706-18.3943 31.2555-16.7652 32.4146-15.0876C32.4221-15.0767 32.4296-15.0657 32.4369-15.0547C33.6267-13.2756 35.1836-11.5053 37.1058-9.75011C37.1179-9.73908 37.1299-9.72793 37.1418-9.71668C38.1282-8.78137 39.4211-7.74664 40.6002-6.97657C41.7865-6.20179 42.7563-5.77813 43.0467-5.77813C43.3388-5.77813 44.314-6.20306 45.5056-6.97874C46.6907-7.7501 47.989-8.78586 48.9739-9.71817C48.9858-9.72942 48.9978-9.74057 49.0099-9.7516C50.9347-11.5062 52.492-13.2757 53.6798-15.0538C53.6872-15.0648 53.6946-15.0757 53.7021-15.0866C54.86-16.764 55.5438-18.3928 55.7778-19.9822C55.9144-20.9092 55.8763-21.7049 55.6809-22.3901C55.4797-23.0637 55.1629-23.6233 54.7192-24.0995C54.2483-24.5922 53.6623-24.9771 52.9427-25.2572C52.1652-25.5575 51.2775-25.7124 50.2712-25.7124C49.0932-25.7124 48.108-25.4688 47.2813-24.9962C46.4314-24.5013 45.7718-23.8609 45.2725-23.0506C44.2497-21.3908 41.8356-21.394 40.8173-23.0566C40.328-23.8554 39.673-24.4929 38.8209-24.9924C37.9958-25.4672 37.0068-25.7124 35.819-25.7124C34.8239-25.7124 33.938-25.5574 33.1591-25.2581C32.4292-24.9754 31.8426-24.5912 31.3738-24.1003C30.9337-23.6274 30.6216-23.0725 30.4259-22.4038C30.2335-21.7151 30.1976-20.915 30.3354-19.9838Z"/>
   <path class="monochrome-1 multicolor-1:tintColor hierarchical-1:primary SFSymbolsPreview007AFF" d="M82.2054-52.5277C86.958-52.445 90.7501-50.1112 92.845-46.1222C94.7828-42.4322 95.1236-37.5982 93.8637-32.475C91.3483-22.247 82.4865-13.7888 73.6761-13.5825C73.4752-13.5778 73.2757-13.5776 73.0777-13.5818C65.8543-0.740099 54.9326 7 42.9622 7C21.3393 7 4.28-18.0069 4.28-48.4856C4.28-56.3585 8.80904-62.7399 16.6483-67.061C23.4915-70.833 32.6605-72.8982 42.2519-72.9963C51.8072-73.0941 61.0945-71.2309 68.1619-67.6499C75.2276-64.0697 79.8638-58.9091 81.2266-52.5128C81.5539-52.5283 81.8803-52.5333 82.2054-52.5277ZM79.5692-47.0277C78.0004-46.6751 76.4881-47.8087 76.3866-49.4135C76.0307-55.0425 72.3359-59.6732 65.7985-62.9857C59.5358-66.1591 51.0695-67.8575 42.3054-67.7679C33.5253-67.678 25.1957-65.8019 19.1724-62.4818C12.8792-59.0129 9.50876-54.264 9.50876-48.4856C9.50876-20.5644 24.7457 1.77124 42.9622 1.77124C53.2504 1.77124 62.9191-5.38066 69.2883-17.5608C69.8203-18.5782 70.9539-19.1295 72.0827-18.9197C72.5385-18.835 73.0288-18.7975 73.5537-18.8098C79.8004-18.9561 86.7967-25.6336 88.7862-33.7237C89.7602-37.6843 89.5105-41.2256 88.2157-43.6911C87.0097-45.9877 84.9582-47.2502 82.1145-47.2997C81.2898-47.314 80.4371-47.2228 79.5692-47.0277ZM42.9256-39.8941C35.6597-39.8941 28.8186-41.073 23.6709-43.1703C21.0306-44.2461 18.8691-45.5496 17.307-47.0544C15.4969-48.798 14.4761-50.8305 14.4761-53.0345C14.4761-55.2896 15.6082-57.3311 17.5786-59.0739C19.2262-60.5312 21.4864-61.8036 24.2184-62.8634C29.4617-64.8973 36.261-66.0719 42.9256-66.0719C49.5901-66.0719 56.3895-64.8973 61.6327-62.8634C64.3648-61.8036 66.625-60.5312 68.2726-59.0739C70.2429-57.3311 71.3751-55.2896 71.3751-53.0345C71.3751-50.8305 70.3542-48.798 68.5442-47.0544C66.9821-45.5496 64.8206-44.2461 62.1802-43.1703C57.0325-41.073 50.1914-39.8941 42.9256-39.8941ZM42.9256-45.1228C49.5501-45.1228 55.7275-46.1874 60.2073-48.0126C64.1448-49.6168 66.1463-51.5448 66.1463-53.0345C66.1463-54.4055 63.9339-56.3624 59.7417-57.9886C55.1262-59.779 48.9661-60.8431 42.9256-60.8431C36.885-60.8431 30.725-59.779 26.1094-57.9886C21.9172-56.3624 19.7048-54.4055 19.7048-53.0345C19.7048-51.5448 21.7063-49.6168 25.6438-48.0126C30.1237-46.1874 36.301-45.1228 42.9256-45.1228ZM76.0303-40.8611C76.1477-42.0113 77.0066-42.9478 78.1424-43.1639C78.8915-43.3065 79.6271-43.3477 80.3309-43.276C82.7584-43.0286 84.5633-41.4068 85.2896-39.0201C85.9025-37.0062 85.7375-34.5366 84.8685-31.9148C83.4914-27.76 80.0323-24.3313 76.2189-23.3882C74.2305-22.8965 72.4746-24.7787 73.103-26.7282C74.5381-31.1805 75.5273-35.933 76.0303-40.8611Z"/>
  </g>
  <g id="Regular-S" transform="matrix(1 0 0 1 1403.07 696)">
   <path class="monochrome-0 multicolor-0:tintColor hierarchical-0:secondary SFSymbolsPreview007AFF" d="M45.0081-2.59655C43.023-1.30446 41.2903-0.549376 39.6967-0.549376C38.1018-0.549376 36.3719-1.30512 34.3911-2.59873C32.9462-3.54238 31.4166-4.76549 30.2122-5.90524C28.0057-7.92217 26.1817-9.99625 24.7514-12.1318C23.1637-14.4342 22.1709-16.7993 21.8129-19.2186C21.5709-20.8549 21.6416-22.398 22.0461-23.8324L22.0517-23.8522C22.4751-25.3099 23.1987-26.5961 24.2122-27.6798L24.2266-27.695C25.2402-28.7613 26.4813-29.5765 27.927-30.1364C29.3289-30.6751 30.8498-30.9412 32.469-30.9412C34.5473-30.9412 36.4402-30.4705 38.0914-29.5171L38.1039-29.5099C38.6753-29.1757 39.207-28.8008 39.6976-28.3863C40.1944-28.8065 40.7328-29.1852 41.3113-29.5212L41.3236-29.5283C42.9721-30.4738 44.8565-30.9412 46.9212-30.9412C48.5527-30.9412 50.0779-30.675 51.483-30.1323C52.9153-29.5748 54.1522-28.7602 55.1648-27.6958L55.1792-27.6806C56.1906-26.6003 56.9164-25.3187 57.347-23.8661L57.3529-23.8462C57.7668-22.4081 57.8424-20.8608 57.6008-19.2203C57.2444-16.8007 56.253-14.4354 54.6667-12.1328C53.237-9.99612 51.4111-7.92125 49.2003-5.90375C47.9958-4.76592 46.4595-3.54132 45.0081-2.59655ZM26.9854-19.9838C27.2206-18.3943 27.9055-16.7652 29.0646-15.0876C29.0721-15.0767 29.0796-15.0657 29.0869-15.0547C30.2767-13.2756 31.8336-11.5053 33.7558-9.75011C33.7679-9.73908 33.7799-9.72793 33.7918-9.71668C34.7782-8.78137 36.0711-7.74664 37.2502-6.97657C38.4365-6.20179 39.4063-5.77813 39.6967-5.77813C39.9888-5.77813 40.964-6.20306 42.1556-6.97874C43.3407-7.7501 44.639-8.78586 45.6239-9.71817C45.6358-9.72942 45.6478-9.74057 45.6599-9.7516C47.5847-11.5062 49.142-13.2757 50.3298-15.0538C50.3372-15.0648 50.3446-15.0757 50.3521-15.0866C51.51-16.764 52.1938-18.3928 52.4278-19.9822C52.5644-20.9092 52.5263-21.7049 52.3309-22.3901C52.1297-23.0637 51.8129-23.6233 51.3692-24.0995C50.8983-24.5922 50.3123-24.9771 49.5927-25.2572C48.8152-25.5575 47.9275-25.7124 46.9212-25.7124C45.7432-25.7124 44.758-25.4688 43.9313-24.9962C43.0814-24.5013 42.4218-23.8609 41.9225-23.0506C40.8997-21.3908 38.4856-21.394 37.4673-23.0566C36.978-23.8554 36.3229-24.4929 35.4709-24.9924C34.6458-25.4672 33.6568-25.7124 32.469-25.7124C31.4739-25.7124 30.588-25.5574 29.8091-25.2581C29.0792-24.9754 28.4926-24.5912 28.0238-24.1003C27.5837-23.6274 27.2716-23.0725 27.0759-22.4038C26.8835-21.7151 26.8476-20.915 26.9854-19.9838Z"/>
   <path class="monochrome-1 multicolor-1:tintColor hierarchical-1:primary SFSymbolsPreview007AFF" d="M78.8554-52.5277C83.608-52.445 87.4001-50.1112 89.495-46.1222C91.4328-42.4322 91.7736-37.5982 90.5137-32.475C87.9983-22.247 79.1365-13.7888 70.3261-13.5825C70.1252-13.5778 69.9257-13.5776 69.7277-13.5818C62.5043-0.740099 51.5826 7 39.6122 7C17.9893 7 0.93-18.0069 0.93-48.4856C0.93-56.3585 5.45904-62.7399 13.2983-67.061C20.1415-70.833 29.3105-72.8982 38.9019-72.9963C48.4572-73.0941 57.7445-71.2309 64.8119-67.6499C71.8776-64.0697 76.5138-58.9091 77.8766-52.5128C78.2039-52.5283 78.5303-52.5333 78.8554-52.5277ZM76.2192-47.0277C74.6504-46.6751 73.1381-47.8087 73.0366-49.4135C72.6807-55.0425 68.9859-59.6732 62.4485-62.9857C56.1858-66.1591 47.7195-67.8575 38.9554-67.7679C30.1753-67.678 21.8457-65.8019 15.8224-62.4818C9.52919-59.0129 6.15876-54.264 6.15876-48.4856C6.15876-20.5644 21.3957 1.77124 39.6122 1.77124C49.9004 1.77124 59.5691-5.38066 65.9383-17.5608C66.4703-18.5782 67.6039-19.1295 68.7327-18.9197C69.1885-18.835 69.6788-18.7975 70.2037-18.8098C76.4504-18.9561 83.4467-25.6336 85.4362-33.7237C86.4102-37.6843 86.1605-41.2256 84.8657-43.6911C83.6597-45.9877 81.6082-47.2502 78.7645-47.2997C77.9398-47.314 77.0871-47.2228 76.2192-47.0277ZM39.5756-39.8941C32.3097-39.8941 25.4686-41.073 20.3209-43.1703C17.6806-44.2461 15.5191-45.5496 13.957-47.0544C12.1469-48.798 11.1261-50.8305 11.1261-53.0345C11.1261-55.2896 12.2582-57.3311 14.2286-59.0739C15.8762-60.5312 18.1364-61.8036 20.8684-62.8634C26.1117-64.8973 32.911-66.0719 39.5756-66.0719C46.2401-66.0719 53.0395-64.8973 58.2827-62.8634C61.0148-61.8036 63.275-60.5312 64.9226-59.0739C66.8929-57.3311 68.0251-55.2896 68.0251-53.0345C68.0251-50.8305 67.0042-48.798 65.1942-47.0544C63.6321-45.5496 61.4706-44.2461 58.8302-43.1703C53.6825-41.073 46.8414-39.8941 39.5756-39.8941ZM39.5756-45.1228C46.2001-45.1228 52.3775-46.1874 56.8573-48.0126C60.7948-49.6168 62.7963-51.5448 62.7963-53.0345C62.7963-54.4055 60.5839-56.3624 56.3917-57.9886C51.7762-59.779 45.6161-60.8431 39.5756-60.8431C33.535-60.8431 27.375-59.779 22.7594-57.9886C18.5672-56.3624 16.3548-54.4055 16.3548-53.0345C16.3548-51.5448 18.3563-49.6168 22.2938-48.0126C26.7737-46.1874 32.951-45.1228 39.5756-45.1228ZM72.6803-40.8611C72.7977-42.0113 73.6566-42.9478 74.7924-43.1639C75.5415-43.3065 76.2771-43.3477 76.9809-43.276C79.4084-43.0286 81.2133-41.4068 81.9396-39.0201C82.5525-37.0062 82.3875-34.5366 81.5185-31.9148C80.1414-27.76 76.6823-24.3313 72.8689-23.3882C70.8805-22.8965 69.1246-24.7787 69.753-26.7282C71.1881-31.1805 72.1773-35.933 72.6803-40.8611Z"/>
  </g>
  <g id="Ultralight-S" transform="matrix(1 0 0 1 515.84 696)">
   <path class="monochrome-0 multicolor-0:tintColor hierarchical-0:secondary SFSymbolsPreview007AFF" d="M41.2381-4.59655C39.253-3.30446 37.5203-2.54938 35.9267-2.54938C34.3318-2.54938 32.6019-3.30512 30.6211-4.59873C29.1762-5.54238 27.6466-6.76549 26.4422-7.90524C24.2357-9.92217 22.4117-11.9963 20.9814-14.1318C19.3937-16.4342 18.4009-18.7993 18.0429-21.2186C17.8009-22.8549 17.8716-24.398 18.2761-25.8324L18.2817-25.8522C18.7051-27.3099 19.4287-28.5961 20.4422-29.6798L20.4566-29.695C21.4702-30.7613 22.7113-31.5765 24.157-32.1364C25.5589-32.6751 27.0798-32.9412 28.699-32.9412C30.7773-32.9412 32.6702-32.4705 34.3214-31.5171L34.3339-31.5099C34.9053-31.1757 35.437-30.8008 35.9276-30.3863C36.4244-30.8065 36.9628-31.1852 37.5413-31.5212L37.5536-31.5283C39.2021-32.4738 41.0865-32.9412 43.1512-32.9412C44.7827-32.9412 46.3079-32.675 47.713-32.1323C49.1453-31.5748 50.3822-30.7602 51.3948-29.6958L51.4092-29.6806C52.4206-28.6003 53.1464-27.3187 53.577-25.8661L53.5829-25.8462C53.9968-24.4081 54.0724-22.8608 53.8308-21.2203C53.4744-18.8007 52.483-16.4354 50.8967-14.1328C49.467-11.9961 47.6411-9.92125 45.4303-7.90375C44.2258-6.76592 42.6895-5.54132 41.2381-4.59655ZM23.2154-21.9838C23.4506-20.3943 24.1355-18.7652 25.2946-17.0876C25.3021-17.0767 25.3096-17.0657 25.3169-17.0547C26.5067-15.2756 28.0636-13.5053 29.9858-11.7501C29.9979-11.7391 30.0099-11.7279 30.0218-11.7167C31.0082-10.7814 32.3011-9.74664 33.4802-8.97657C34.6665-8.20179 35.6363-7.77813 35.9267-7.77813C36.2188-7.77813 37.194-8.20306 38.3856-8.97874C39.5707-9.7501 40.869-10.7859 41.8539-11.7182C41.8658-11.7294 41.8778-11.7406 41.8899-11.7516C43.8147-13.5062 45.372-15.2757 46.5598-17.0538C46.5672-17.0648 46.5746-17.0757 46.5821-17.0866C47.74-18.764 48.4238-20.3928 48.6578-21.9822C48.7944-22.9092 48.7563-23.7049 48.5609-24.3901C48.3597-25.0637 48.0429-25.6233 47.5992-26.0995C47.1283-26.5922 46.5423-26.9771 45.8227-27.2572C45.0452-27.5575 44.1575-27.7124 43.1512-27.7124C41.9732-27.7124 40.988-27.4688 40.1613-26.9962C39.3114-26.5013 38.6518-25.8609 38.1525-25.0506C37.1297-23.3908 34.7156-23.394 33.6973-25.0566C33.208-25.8554 32.553-26.4929 31.7009-26.9924C30.8758-27.4672 29.8868-27.7124 28.699-27.7124C27.7039-27.7124 26.818-27.5574 26.0391-27.2581C25.3092-26.9754 24.7226-26.5912 24.2538-26.1003C23.8137-25.6274 23.5016-25.0725 23.3059-24.4038C23.1135-23.7151 23.0776-22.915 23.2154-21.9838Z"/>
   <path class="monochrome-1 multicolor-1:tintColor hierarchical-1:primary SFSymbolsPreview007AFF" d="M75.0854-54.5277C79.838-54.445 83.6301-52.1112 85.725-48.1222C87.6628-44.4322 88.0036-39.5982 86.7437-34.475C84.2283-24.247 75.3665-15.7888 66.5561-15.5825C66.3552-15.5778 66.1557-15.5776 65.9577-15.5818C58.7343-2.7401 47.8126 5 35.8422 5C14.2193 5-2.84-20.0069-2.84-50.4856C-2.84-58.3585 1.68904-64.7399 9.52826-69.061C16.3715-72.833 25.5405-74.8982 35.1319-74.9963C44.6872-75.0941 53.9745-73.2309 61.0419-69.6499C68.1076-66.0697 72.7438-60.9091 74.1066-54.5128C74.4339-54.5283 74.7603-54.5333 75.0854-54.5277ZM72.4492-49.0277C70.8804-48.6751 69.3681-49.8087 69.2666-51.4135C68.9107-57.0425 65.2159-61.6732 58.6785-64.9857C52.4158-68.1591 43.9495-69.8575 35.1854-69.7679C26.4053-69.678 18.0757-67.8019 12.0524-64.4818C5.75919-61.0129 2.38876-56.264 2.38876-50.4856C2.38876-22.5644 17.6257-0.228757 35.8422-0.228757C46.1304-0.228757 55.7991-7.38066 62.1683-19.5608C62.7003-20.5782 63.8339-21.1295 64.9627-20.9197C65.4185-20.835 65.9088-20.7975 66.4337-20.8098C72.6804-20.9561 79.6767-27.6336 81.6662-35.7237C82.6402-39.6843 82.3905-43.2256 81.0957-45.6911C79.8897-47.9877 77.8382-49.2502 74.9945-49.2997C74.1698-49.314 73.3171-49.2228 72.4492-49.0277ZM35.8056-41.8941C28.5397-41.8941 21.6986-43.073 16.5509-45.1703C13.9106-46.2461 11.7491-47.5496 10.187-49.0544C8.3769-50.798 7.35608-52.8305 7.35608-55.0345C7.35608-57.2896 8.48824-59.3311 10.4586-61.0739C12.1062-62.5312 14.3664-63.8036 17.0984-64.8634C22.3417-66.8973 29.141-68.0719 35.8056-68.0719C42.4701-68.0719 49.2695-66.8973 54.5127-64.8634C57.2448-63.8036 59.505-62.5312 61.1526-61.0739C63.1229-59.3311 64.2551-57.2896 64.2551-55.0345C64.2551-52.8305 63.2342-50.798 61.4242-49.0544C59.8621-47.5496 57.7006-46.2461 55.0602-45.1703C49.9125-43.073 43.0714-41.8941 35.8056-41.8941ZM35.8056-47.1228C42.4301-47.1228 48.6075-48.1874 53.0873-50.0126C57.0248-51.6168 59.0263-53.5448 59.0263-55.0345C59.0263-56.4055 56.8139-58.3624 52.6217-59.9886C48.0062-61.779 41.8461-62.8431 35.8056-62.8431C29.765-62.8431 23.605-61.779 18.9894-59.9886C14.7972-58.3624 12.5848-56.4055 12.5848-55.0345C12.5848-53.5448 14.5863-51.6168 18.5238-50.0126C23.0037-48.1874 29.181-47.1228 35.8056-47.1228ZM68.9103-42.8611C69.0277-44.0113 69.8866-44.9478 71.0224-45.1639C71.7715-45.3065 72.5071-45.3477 73.2109-45.276C75.6384-45.0286 77.4433-43.4068 78.1696-41.0201C78.7825-39.0062 78.6175-36.5366 77.7485-33.9148C76.3714-29.76 72.9123-26.3313 69.0989-25.3882C67.1105-24.8965 65.3546-26.7787 65.983-28.7282C67.4181-33.1805 68.4073-37.933 68.9103-42.8611Z"/>
  </g>
 </g>
</svg>
