<svg xmlns="http://www.w3.org/2000/svg" xmlns:xlink="http://www.w3.org/1999/xlink" version="1.1" width="3300" height="2200">
 <!--glyph: "", point size: 100.0, font version: "17.1d1e1", template writer version: "65.1"-->
<style>

.hierarchical-1:primary {fill:#262626;}
.SFSymbolsPreview262626 {fill:#262626;}
</style>
 <g id="Notes">
  <rect height="2200" id="artboard" style="fill:white;opacity:1" width="3300" x="0" y="0"/>
  <line style="fill:none;stroke:black;opacity:1;stroke-width:0.5;" x1="263" x2="3036" y1="292" y2="292"/>
  <text style="stroke:none;fill:black;font-family:sans-serif;font-size:13;font-weight:bold;" transform="matrix(1 0 0 1 263 322)">Weight/Scale Variations</text>
  <text style="stroke:none;fill:black;font-family:sans-serif;font-size:13;text-anchor:middle;" transform="matrix(1 0 0 1 559.711 322)">Ultralight</text>
  <text style="stroke:none;fill:black;font-family:sans-serif;font-size:13;text-anchor:middle;" transform="matrix(1 0 0 1 856.422 322)">Thin</text>
  <text style="stroke:none;fill:black;font-family:sans-serif;font-size:13;text-anchor:middle;" transform="matrix(1 0 0 1 1153.13 322)">Light</text>
  <text style="stroke:none;fill:black;font-family:sans-serif;font-size:13;text-anchor:middle;" transform="matrix(1 0 0 1 1449.84 322)">Regular</text>
  <text style="stroke:none;fill:black;font-family:sans-serif;font-size:13;text-anchor:middle;" transform="matrix(1 0 0 1 1746.56 322)">Medium</text>
  <text style="stroke:none;fill:black;font-family:sans-serif;font-size:13;text-anchor:middle;" transform="matrix(1 0 0 1 2043.27 322)">Semibold</text>
  <text style="stroke:none;fill:black;font-family:sans-serif;font-size:13;text-anchor:middle;" transform="matrix(1 0 0 1 2339.98 322)">Bold</text>
  <text style="stroke:none;fill:black;font-family:sans-serif;font-size:13;text-anchor:middle;" transform="matrix(1 0 0 1 2636.69 322)">Heavy</text>
  <text style="stroke:none;fill:black;font-family:sans-serif;font-size:13;text-anchor:middle;" transform="matrix(1 0 0 1 2933.4 322)">Black</text>
  <line style="fill:none;stroke:black;opacity:1;stroke-width:0.5;" x1="263" x2="3036" y1="1903" y2="1903"/>
  <g transform="matrix(1 0 0 1 263 1933)">
   <path d="M9.24805 0.830078Q10.8691 0.830078 12.2949 0.214844Q13.7207-0.400391 14.8096-1.49414Q15.8984-2.58789 16.5186-4.01367Q17.1387-5.43945 17.1387-7.05078Q17.1387-8.66211 16.5186-10.0879Q15.8984-11.5137 14.8047-12.6074Q13.7109-13.7012 12.2852-14.3164Q10.8594-14.9316 9.23828-14.9316Q7.62695-14.9316 6.20117-14.3164Q4.77539-13.7012 3.69141-12.6074Q2.60742-11.5137 1.9873-10.0879Q1.36719-8.66211 1.36719-7.05078Q1.36719-5.43945 1.9873-4.01367Q2.60742-2.58789 3.69629-1.49414Q4.78516-0.400391 6.21094 0.214844Q7.63672 0.830078 9.24805 0.830078ZM9.24805-0.654297Q7.91992-0.654297 6.7627-1.14746Q5.60547-1.64062 4.73145-2.51953Q3.85742-3.39844 3.36426-4.56055Q2.87109-5.72266 2.87109-7.05078Q2.87109-8.37891 3.35938-9.54102Q3.84766-10.7031 4.72168-11.582Q5.5957-12.4609 6.75293-12.9541Q7.91016-13.4473 9.23828-13.4473Q10.5762-13.4473 11.7334-12.9541Q12.8906-12.4609 13.7695-11.582Q14.6484-10.7031 15.1465-9.54102Q15.6445-8.37891 15.6445-7.05078Q15.6445-5.72266 15.1514-4.56055Q14.6582-3.39844 13.7842-2.51953Q12.9102-1.64062 11.748-1.14746Q10.5859-0.654297 9.24805-0.654297ZM5.6543-7.05078Q5.6543-6.72852 5.85938-6.52832Q6.06445-6.32812 6.40625-6.32812L8.51562-6.32812L8.51562-4.20898Q8.51562-3.88672 8.71094-3.67676Q8.90625-3.4668 9.23828-3.4668Q9.56055-3.4668 9.77051-3.67676Q9.98047-3.88672 9.98047-4.20898L9.98047-6.32812L12.0898-6.32812Q12.4219-6.32812 12.627-6.52832Q12.832-6.72852 12.832-7.05078Q12.832-7.38281 12.627-7.58789Q12.4219-7.79297 12.0898-7.79297L9.98047-7.79297L9.98047-9.90234Q9.98047-10.2344 9.77051-10.4443Q9.56055-10.6543 9.23828-10.6543Q8.90625-10.6543 8.71094-10.4443Q8.51562-10.2344 8.51562-9.90234L8.51562-7.79297L6.40625-7.79297Q6.06445-7.79297 5.85938-7.58789Q5.6543-7.38281 5.6543-7.05078Z"/>
  </g>
  <g transform="matrix(1 0 0 1 281.867 1933)">
   <path d="M11.709 2.91016Q13.75 2.91016 15.5518 2.12891Q17.3535 1.34766 18.7305-0.0292969Q20.1074-1.40625 20.8887-3.20801Q21.6699-5.00977 21.6699-7.05078Q21.6699-9.0918 20.8887-10.8936Q20.1074-12.6953 18.7305-14.0723Q17.3535-15.4492 15.5469-16.2305Q13.7402-17.0117 11.6992-17.0117Q9.6582-17.0117 7.85645-16.2305Q6.05469-15.4492 4.68262-14.0723Q3.31055-12.6953 2.5293-10.8936Q1.74805-9.0918 1.74805-7.05078Q1.74805-5.00977 2.5293-3.20801Q3.31055-1.40625 4.6875-0.0292969Q6.06445 1.34766 7.86621 2.12891Q9.66797 2.91016 11.709 2.91016ZM11.709 1.25Q9.98047 1.25 8.47656 0.605469Q6.97266-0.0390625 5.83496-1.17676Q4.69727-2.31445 4.05762-3.81836Q3.41797-5.32227 3.41797-7.05078Q3.41797-8.7793 4.05762-10.2832Q4.69727-11.7871 5.83008-12.9297Q6.96289-14.0723 8.4668-14.7119Q9.9707-15.3516 11.6992-15.3516Q13.4277-15.3516 14.9316-14.7119Q16.4355-14.0723 17.5781-12.9297Q18.7207-11.7871 19.3652-10.2832Q20.0098-8.7793 20.0098-7.05078Q20.0098-5.32227 19.3701-3.81836Q18.7305-2.31445 17.5928-1.17676Q16.4551-0.0390625 14.9463 0.605469Q13.4375 1.25 11.709 1.25ZM7.17773-7.05078Q7.17773-6.69922 7.41211-6.47461Q7.64648-6.25 8.01758-6.25L10.8887-6.25L10.8887-3.36914Q10.8887-2.99805 11.1133-2.76855Q11.3379-2.53906 11.6895-2.53906Q12.0605-2.53906 12.29-2.76855Q12.5195-2.99805 12.5195-3.36914L12.5195-6.25L15.4004-6.25Q15.7715-6.25 16.001-6.47461Q16.2305-6.69922 16.2305-7.05078Q16.2305-7.42188 16.001-7.65137Q15.7715-7.88086 15.4004-7.88086L12.5195-7.88086L12.5195-10.752Q12.5195-11.1328 12.29-11.3623Q12.0605-11.5918 11.6895-11.5918Q11.3379-11.5918 11.1133-11.3574Q10.8887-11.123 10.8887-10.752L10.8887-7.88086L8.01758-7.88086Q7.63672-7.88086 7.40723-7.65137Q7.17773-7.42188 7.17773-7.05078Z"/>
  </g>
  <g transform="matrix(1 0 0 1 305.646 1933)">
   <path d="M14.9707 5.66406Q17.0605 5.66406 18.96 5.01465Q20.8594 4.36523 22.4512 3.19336Q24.043 2.02148 25.2197 0.429688Q26.3965-1.16211 27.0459-3.06641Q27.6953-4.9707 27.6953-7.05078Q27.6953-9.14062 27.0459-11.04Q26.3965-12.9395 25.2197-14.5312Q24.043-16.123 22.4512-17.2998Q20.8594-18.4766 18.9551-19.126Q17.0508-19.7754 14.9609-19.7754Q12.8711-19.7754 10.9717-19.126Q9.07227-18.4766 7.48535-17.2998Q5.89844-16.123 4.72168-14.5312Q3.54492-12.9395 2.90039-11.04Q2.25586-9.14062 2.25586-7.05078Q2.25586-4.9707 2.90527-3.06641Q3.55469-1.16211 4.72656 0.429688Q5.89844 2.02148 7.49023 3.19336Q9.08203 4.36523 10.9814 5.01465Q12.8809 5.66406 14.9707 5.66406ZM14.9707 3.84766Q13.1641 3.84766 11.5283 3.2959Q9.89258 2.74414 8.53516 1.74805Q7.17773 0.751953 6.17676-0.610352Q5.17578-1.97266 4.62891-3.6084Q4.08203-5.24414 4.08203-7.05078Q4.08203-8.86719 4.62891-10.5029Q5.17578-12.1387 6.17188-13.501Q7.16797-14.8633 8.52539-15.8594Q9.88281-16.8555 11.5186-17.4023Q13.1543-17.9492 14.9609-17.9492Q16.7773-17.9492 18.4131-17.4023Q20.0488-16.8555 21.4111-15.8594Q22.7734-14.8633 23.7695-13.501Q24.7656-12.1387 25.3174-10.5029Q25.8691-8.86719 25.8691-7.05078Q25.8789-5.24414 25.332-3.6084Q24.7852-1.97266 23.7842-0.610352Q22.7832 0.751953 21.4209 1.74805Q20.0586 2.74414 18.4229 3.2959Q16.7871 3.84766 14.9707 3.84766ZM9.19922-7.05078Q9.19922-6.66992 9.45801-6.4209Q9.7168-6.17188 10.1172-6.17188L14.0625-6.17188L14.0625-2.2168Q14.0625-1.81641 14.3115-1.55762Q14.5605-1.29883 14.9512-1.29883Q15.3516-1.29883 15.6104-1.55273Q15.8691-1.80664 15.8691-2.2168L15.8691-6.17188L19.8242-6.17188Q20.2246-6.17188 20.4785-6.4209Q20.7324-6.66992 20.7324-7.05078Q20.7324-7.46094 20.4785-7.71484Q20.2246-7.96875 19.8242-7.96875L15.8691-7.96875L15.8691-11.9141Q15.8691-12.3242 15.6104-12.583Q15.3516-12.8418 14.9512-12.8418Q14.5605-12.8418 14.3115-12.583Q14.0625-12.3242 14.0625-11.9141L14.0625-7.96875L10.1172-7.96875Q9.70703-7.96875 9.45312-7.71484Q9.19922-7.46094 9.19922-7.05078Z"/>
  </g>
  <text style="stroke:none;fill:black;font-family:sans-serif;font-size:13;font-weight:bold;" transform="matrix(1 0 0 1 263 1953)">Design Variations</text>
  <text style="stroke:none;fill:black;font-family:sans-serif;font-size:13;" transform="matrix(1 0 0 1 263 1971)">Symbols are supported in up to nine weights and three scales.</text>
  <text style="stroke:none;fill:black;font-family:sans-serif;font-size:13;" transform="matrix(1 0 0 1 263 1989)">For optimal layout with text and other symbols, vertically align</text>
  <text style="stroke:none;fill:black;font-family:sans-serif;font-size:13;" transform="matrix(1 0 0 1 263 2007)">symbols with the adjacent text.</text>
  <line style="fill:none;stroke:#00AEEF;stroke-width:0.5;opacity:1.0;" x1="776" x2="776" y1="1919" y2="1933"/>
  <g transform="matrix(1 0 0 1 776 1933)">
   <path d="M3.31055 0.15625Q3.70117 0.15625 3.91602-0.00976562Q4.13086-0.175781 4.26758-0.585938L5.52734-4.0332L11.2891-4.0332L12.5488-0.585938Q12.6855-0.175781 12.9004-0.00976562Q13.1152 0.15625 13.4961 0.15625Q13.8867 0.15625 14.1162-0.0585938Q14.3457-0.273438 14.3457-0.644531Q14.3457-0.869141 14.2383-1.17188L9.6582-13.3691Q9.48242-13.8184 9.17969-14.043Q8.87695-14.2676 8.4082-14.2676Q7.5-14.2676 7.17773-13.3789L2.59766-1.16211Q2.49023-0.859375 2.49023-0.634766Q2.49023-0.263672 2.70996-0.0537109Q2.92969 0.15625 3.31055 0.15625ZM6.00586-5.51758L8.37891-12.0898L8.42773-12.0898L10.8008-5.51758Z"/>
  </g>
  <line style="fill:none;stroke:#00AEEF;stroke-width:0.5;opacity:1.0;" x1="793.197" x2="793.197" y1="1919" y2="1933"/>
  <text style="stroke:none;fill:black;font-family:sans-serif;font-size:13;font-weight:bold;" transform="matrix(1 0 0 1 776 1953)">Margins</text>
  <text style="stroke:none;fill:black;font-family:sans-serif;font-size:13;" transform="matrix(1 0 0 1 776 1971)">Leading and trailing margins on the left and right side of each symbol</text>
  <text style="stroke:none;fill:black;font-family:sans-serif;font-size:13;" transform="matrix(1 0 0 1 776 1989)">can be adjusted by modifying the x-location of the margin guidelines.</text>
  <text style="stroke:none;fill:black;font-family:sans-serif;font-size:13;" transform="matrix(1 0 0 1 776 2007)">Modifications are automatically applied proportionally to all</text>
  <text style="stroke:none;fill:black;font-family:sans-serif;font-size:13;" transform="matrix(1 0 0 1 776 2025)">scales and weights.</text>
  <g transform="matrix(1 0 0 1 1289 1933)">
   <path d="M2.8418 1.86523L4.54102 3.57422Q5.18555 4.22852 5.90332 4.17969Q6.62109 4.13086 7.31445 3.35938L18.0078-8.42773L17.041-9.4043L6.42578 2.27539Q6.16211 2.57812 5.89355 2.61719Q5.625 2.65625 5.27344 2.30469L4.10156 1.14258Q3.75 0.791016 3.79395 0.522461Q3.83789 0.253906 4.14062-0.0195312L15.6152-10.8203L14.6387-11.7871L3.04688-0.898438Q2.30469-0.214844 2.25098 0.498047Q2.19727 1.21094 2.8418 1.86523ZM9.25781-16.3281Q8.94531-16.0254 8.90625-15.6348Q8.86719-15.2441 9.04297-14.9512Q9.21875-14.6777 9.55566-14.541Q9.89258-14.4043 10.3809-14.5215Q11.4746-14.7754 12.5977-14.7314Q13.7207-14.6875 14.7949-13.9844L14.209-12.5293Q13.9551-11.9043 14.0674-11.4404Q14.1797-10.9766 14.5801-10.5664L16.875-8.25195Q17.2363-7.88086 17.5781-7.82227Q17.9199-7.76367 18.3398-7.8418L19.4043-8.03711L20.0684-7.36328L20.0293-6.80664Q20-6.43555 20.1221-6.12305Q20.2441-5.81055 20.6055-5.44922L21.3672-4.70703Q21.7285-4.3457 22.1533-4.33105Q22.5781-4.31641 22.9297-4.66797L25.8398-7.58789Q26.1914-7.93945 26.1816-8.35449Q26.1719-8.76953 25.8105-9.13086L25.0391-9.89258Q24.6875-10.2539 24.3799-10.3857Q24.0723-10.5176 23.7109-10.4883L23.1348-10.4395L22.4902-11.0742L22.7344-12.1973Q22.832-12.6172 22.6953-12.9834Q22.5586-13.3496 22.1191-13.7891L19.9219-15.9766Q18.6719-17.2168 17.2607-17.8369Q15.8496-18.457 14.4189-18.4814Q12.9883-18.5059 11.665-17.959Q10.3418-17.4121 9.25781-16.3281ZM10.752-15.957Q11.6602-16.6211 12.7002-16.9043Q13.7402-17.1875 14.8047-17.085Q15.8691-16.9824 16.8701-16.5137Q17.8711-16.0449 18.7012-15.2051L21.1328-12.793Q21.3086-12.6172 21.3525-12.4512Q21.3965-12.2852 21.3379-12.0312L21.0156-10.5469L22.5195-9.0625L23.5059-9.12109Q23.6914-9.13086 23.7891-9.09668Q23.8867-9.0625 24.0332-8.91602L24.6094-8.33984L22.168-5.89844L21.5918-6.47461Q21.4453-6.62109 21.4062-6.71875Q21.3672-6.81641 21.377-7.01172L21.4453-7.98828L19.9512-9.47266L18.4277-9.21875Q18.1836-9.16992 18.042-9.2041Q17.9004-9.23828 17.7148-9.41406L15.7129-11.416Q15.5176-11.5918 15.4932-11.7529Q15.4688-11.9141 15.5859-12.1875L16.4648-14.2773Q15.293-15.3711 13.8281-15.791Q12.3633-16.2109 10.8398-15.7617Q10.7227-15.7324 10.6885-15.8057Q10.6543-15.8789 10.752-15.957Z"/>
  </g>
  <text style="stroke:none;fill:black;font-family:sans-serif;font-size:13;font-weight:bold;" transform="matrix(1 0 0 1 1289 1953)">Exporting</text>
  <text style="stroke:none;fill:black;font-family:sans-serif;font-size:13;" transform="matrix(1 0 0 1 1289 1971)">Symbols should be outlined when exporting to ensure the</text>
  <text style="stroke:none;fill:black;font-family:sans-serif;font-size:13;" transform="matrix(1 0 0 1 1289 1989)">design is preserved when submitting to Xcode.</text>
  <text id="template-version" style="stroke:none;fill:black;font-family:sans-serif;font-size:13;text-anchor:end;" transform="matrix(1 0 0 1 3036 1933)">Template v.3.0</text>
  <text style="stroke:none;fill:black;font-family:sans-serif;font-size:13;text-anchor:end;" transform="matrix(1 0 0 1 3036 1951)">Requires Xcode 13 or greater</text>
  <text id="descriptive-name" style="stroke:none;fill:black;font-family:sans-serif;font-size:13;text-anchor:end;" transform="matrix(1 0 0 1 3036 1969)">Symbol moniker: whatsapp</text>
  <text style="stroke:none;fill:black;font-family:sans-serif;font-size:13;text-anchor:end;" transform="matrix(1 0 0 1 3036 1987)">Typeset at 100 points</text>
  <text style="stroke:none;fill:black;font-family:sans-serif;font-size:13;" transform="matrix(1 0 0 1 263 726)">Small</text>
  <text style="stroke:none;fill:black;font-family:sans-serif;font-size:13;" transform="matrix(1 0 0 1 263 1156)">Medium</text>
  <text style="stroke:none;fill:black;font-family:sans-serif;font-size:13;" transform="matrix(1 0 0 1 263 1586)">Large</text>
 </g>
 <g id="Guides">
  <g id="H-reference" style="fill:#27AAE1;stroke:none;" transform="matrix(1 0 0 1 339 696)">
   <path d="M0.976562 0L3.66211 0L29.3457-67.1387L30.0293-67.1387L30.0293-70.459L28.125-70.459ZM11.6699-24.4629L46.9727-24.4629L46.2402-26.709L12.4512-26.709ZM55.127 0L57.7637 0L30.6152-70.459L29.4434-70.459L29.4434-67.1387Z"/>
  </g>
  <line id="Baseline-S" style="fill:none;stroke:#27AAE1;opacity:1;stroke-width:0.5;" x1="263" x2="3036" y1="696" y2="696"/>
  <line id="Capline-S" style="fill:none;stroke:#27AAE1;opacity:1;stroke-width:0.5;" x1="263" x2="3036" y1="625.541" y2="625.541"/>
  <g id="H-reference" style="fill:#27AAE1;stroke:none;" transform="matrix(1 0 0 1 339 1126)">
   <path d="M0.976562 0L3.66211 0L29.3457-67.1387L30.0293-67.1387L30.0293-70.459L28.125-70.459ZM11.6699-24.4629L46.9727-24.4629L46.2402-26.709L12.4512-26.709ZM55.127 0L57.7637 0L30.6152-70.459L29.4434-70.459L29.4434-67.1387Z"/>
  </g>
  <line id="Baseline-M" style="fill:none;stroke:#27AAE1;opacity:1;stroke-width:0.5;" x1="263" x2="3036" y1="1126" y2="1126"/>
  <line id="Capline-M" style="fill:none;stroke:#27AAE1;opacity:1;stroke-width:0.5;" x1="263" x2="3036" y1="1055.54" y2="1055.54"/>
  <g id="H-reference" style="fill:#27AAE1;stroke:none;" transform="matrix(1 0 0 1 339 1556)">
   <path d="M0.976562 0L3.66211 0L29.3457-67.1387L30.0293-67.1387L30.0293-70.459L28.125-70.459ZM11.6699-24.4629L46.9727-24.4629L46.2402-26.709L12.4512-26.709ZM55.127 0L57.7637 0L30.6152-70.459L29.4434-70.459L29.4434-67.1387Z"/>
  </g>
  <line id="Baseline-L" style="fill:none;stroke:#27AAE1;opacity:1;stroke-width:0.5;" x1="263" x2="3036" y1="1556" y2="1556"/>
  <line id="Capline-L" style="fill:none;stroke:#27AAE1;opacity:1;stroke-width:0.5;" x1="263" x2="3036" y1="1485.54" y2="1485.54"/>
  <line id="left-margin-Ultralight-S" style="fill:none;stroke:#00AEEF;stroke-width:0.5;opacity:1.0;" x1="515.351" x2="515.351" y1="600.784" y2="720.121"/>
  <line id="right-margin-Ultralight-S" style="fill:none;stroke:#00AEEF;stroke-width:0.5;opacity:1.0;" x1="604.071" x2="604.071" y1="600.784" y2="720.121"/>
  <line id="left-margin-Regular-S" style="fill:none;stroke:#00AEEF;stroke-width:0.5;opacity:1.0;" x1="1401.75" x2="1401.75" y1="600.784" y2="720.121"/>
  <line id="right-margin-Regular-S" style="fill:none;stroke:#00AEEF;stroke-width:0.5;opacity:1.0;" x1="1497.94" x2="1497.94" y1="600.784" y2="720.121"/>
  <line id="left-margin-Black-S" style="fill:none;stroke:#00AEEF;stroke-width:0.5;opacity:1.0;" x1="2883.2" x2="2883.2" y1="600.784" y2="720.121"/>
  <line id="right-margin-Black-S" style="fill:none;stroke:#00AEEF;stroke-width:0.5;opacity:1.0;" x1="2983.6" x2="2983.6" y1="600.784" y2="720.121"/>
 </g>
 <g id="Symbols">
  <g id="Black-L" transform="matrix(1,0,0,1,2853.3999999999996,1440.77)">

  <path d="M80 25C49.625 25 25 49.625 25 80 25 90.16266666666667 27.76813333333333 99.67433333333334 32.57813333333334 107.84166666666667L25.537100000000002 134.209 53.193333333333335 128.02233333333334C61.126000000000005 132.46 70.265 135 80 135 110.375 135 135 110.375 135 80 135 49.625 110.375 25 80 25ZM80 35C104.85233333333333 35 125 55.147666666666666 125 80 125 104.85233333333333 104.85233333333333 125 80 125 70.67266666666667 125 62.00933333333333 122.16233333333334 54.82433333333333 117.30466666666668L39.477666666666664 120.73733333333335 43.38366666666667 106.09866666666667C38.126333333333335 98.73366666666668 35 89.74000000000001 35 80 35 55.147666666666666 55.147666666666666 35 80 35ZM61.18166666666667 54.340666666666664C60.264 54.340666666666664 58.78933333333334 54.68 57.534333333333336 56.04500000000001 56.30166666666667 57.412333333333336 52.78333333333334 60.697 52.78333333333334 67.412 52.78333333333334 74.102 57.64266666666667 80.59200000000001 58.32533333333333 81.48433333333334 59.00766666666667 82.402 67.75133333333333 96.598 81.61133333333333 102.05566666666668 93.10133333333333 106.58066666666667 95.449 105.68433333333334 97.964 105.44933333333333 100.459 105.23433333333334 106.02066666666667 102.16666666666667 107.15333333333334 98.98933333333333 108.28333333333333 95.80933333333333 108.28233333333333 93.08233333333334 107.92966666666668 92.50966666666667 107.58733333333335 91.95466666666667 106.692 91.61033333333334 105.327 90.92766666666668 103.962 90.24266666666668 97.26566666666668 86.944 96.01066666666667 86.494 94.77333333333333 86.044 93.85633333333334 85.808 92.964 87.173 92.04633333333334 88.538 89.44533333333334 91.61 88.63266666666667 92.50500000000001 87.84533333333334 93.42233333333334 87.05833333333334 93.52933333333334 85.69333333333333 92.84666666666666 84.32833333333333 92.16433333333333 79.93866666666668 90.73133333333334 74.73633333333333 86.084 70.68866666666668 82.48133333333334 67.95533333333334 78.02 67.168 76.66000000000001 66.378 75.29766666666667 67.08133333333335 74.55466666666666 67.76366666666667 73.872 68.38366666666667 73.277 69.132 72.29133333333334 69.81433333333334 71.504 70.47433333333333 70.694 70.70733333333334 70.141 71.15733333333334 69.22366666666667 71.62966666666668 68.331 71.38966666666667 67.51833333333335 71.04966666666668 66.836 70.71233333333333 66.15100000000001 68.06566666666667 59.41366666666667 66.85066666666667 56.72866666666667 65.83066666666666 54.468666666666664 64.76433333333334 54.40233333333333 63.784333333333336 54.38 62.991666666666674 54.34 62.074 54.340666666666664 61.18166666666667 54.340666666666664Z" class="hierarchical-1:primary "/></g>
  <g id="Regular-L" transform="matrix(1,0,0,1,1369.845,1440.77)">

  <path d="M80 25C49.625 25 25 49.625 25 80 25 90.16266666666667 27.76813333333333 99.67433333333334 32.57813333333334 107.84166666666667L25.537100000000002 134.209 53.193333333333335 128.02233333333334C61.126000000000005 132.46 70.265 135 80 135 110.375 135 135 110.375 135 80 135 49.625 110.375 25 80 25ZM80 35C104.85233333333333 35 125 55.147666666666666 125 80 125 104.85233333333333 104.85233333333333 125 80 125 70.67266666666667 125 62.00933333333333 122.16233333333334 54.82433333333333 117.30466666666668L39.477666666666664 120.73733333333335 43.38366666666667 106.09866666666667C38.126333333333335 98.73366666666668 35 89.74000000000001 35 80 35 55.147666666666666 55.147666666666666 35 80 35ZM61.18166666666667 54.340666666666664C60.264 54.340666666666664 58.78933333333334 54.68 57.534333333333336 56.04500000000001 56.30166666666667 57.412333333333336 52.78333333333334 60.697 52.78333333333334 67.412 52.78333333333334 74.102 57.64266666666667 80.59200000000001 58.32533333333333 81.48433333333334 59.00766666666667 82.402 67.75133333333333 96.598 81.61133333333333 102.05566666666668 93.10133333333333 106.58066666666667 95.449 105.68433333333334 97.964 105.44933333333333 100.459 105.23433333333334 106.02066666666667 102.16666666666667 107.15333333333334 98.98933333333333 108.28333333333333 95.80933333333333 108.28233333333333 93.08233333333334 107.92966666666668 92.50966666666667 107.58733333333335 91.95466666666667 106.692 91.61033333333334 105.327 90.92766666666668 103.962 90.24266666666668 97.26566666666668 86.944 96.01066666666667 86.494 94.77333333333333 86.044 93.85633333333334 85.808 92.964 87.173 92.04633333333334 88.538 89.44533333333334 91.61 88.63266666666667 92.50500000000001 87.84533333333334 93.42233333333334 87.05833333333334 93.52933333333334 85.69333333333333 92.84666666666666 84.32833333333333 92.16433333333333 79.93866666666668 90.73133333333334 74.73633333333333 86.084 70.68866666666668 82.48133333333334 67.95533333333334 78.02 67.168 76.66000000000001 66.378 75.29766666666667 67.08133333333335 74.55466666666666 67.76366666666667 73.872 68.38366666666667 73.277 69.132 72.29133333333334 69.81433333333334 71.504 70.47433333333333 70.694 70.70733333333334 70.141 71.15733333333334 69.22366666666667 71.62966666666668 68.331 71.38966666666667 67.51833333333335 71.04966666666668 66.836 70.71233333333333 66.15100000000001 68.06566666666667 59.41366666666667 66.85066666666667 56.72866666666667 65.83066666666666 54.468666666666664 64.76433333333334 54.40233333333333 63.784333333333336 54.38 62.991666666666674 54.34 62.074 54.340666666666664 61.18166666666667 54.340666666666664Z" class="hierarchical-1:primary "/></g>
  <g id="Ultralight-L" transform="matrix(1,0,0,1,479.711,1440.77)">

  <path d="M80 25C49.625 25 25 49.625 25 80 25 90.16266666666667 27.76813333333333 99.67433333333334 32.57813333333334 107.84166666666667L25.537100000000002 134.209 53.193333333333335 128.02233333333334C61.126000000000005 132.46 70.265 135 80 135 110.375 135 135 110.375 135 80 135 49.625 110.375 25 80 25ZM80 35C104.85233333333333 35 125 55.147666666666666 125 80 125 104.85233333333333 104.85233333333333 125 80 125 70.67266666666667 125 62.00933333333333 122.16233333333334 54.82433333333333 117.30466666666668L39.477666666666664 120.73733333333335 43.38366666666667 106.09866666666667C38.126333333333335 98.73366666666668 35 89.74000000000001 35 80 35 55.147666666666666 55.147666666666666 35 80 35ZM61.18166666666667 54.340666666666664C60.264 54.340666666666664 58.78933333333334 54.68 57.534333333333336 56.04500000000001 56.30166666666667 57.412333333333336 52.78333333333334 60.697 52.78333333333334 67.412 52.78333333333334 74.102 57.64266666666667 80.59200000000001 58.32533333333333 81.48433333333334 59.00766666666667 82.402 67.75133333333333 96.598 81.61133333333333 102.05566666666668 93.10133333333333 106.58066666666667 95.449 105.68433333333334 97.964 105.44933333333333 100.459 105.23433333333334 106.02066666666667 102.16666666666667 107.15333333333334 98.98933333333333 108.28333333333333 95.80933333333333 108.28233333333333 93.08233333333334 107.92966666666668 92.50966666666667 107.58733333333335 91.95466666666667 106.692 91.61033333333334 105.327 90.92766666666668 103.962 90.24266666666668 97.26566666666668 86.944 96.01066666666667 86.494 94.77333333333333 86.044 93.85633333333334 85.808 92.964 87.173 92.04633333333334 88.538 89.44533333333334 91.61 88.63266666666667 92.50500000000001 87.84533333333334 93.42233333333334 87.05833333333334 93.52933333333334 85.69333333333333 92.84666666666666 84.32833333333333 92.16433333333333 79.93866666666668 90.73133333333334 74.73633333333333 86.084 70.68866666666668 82.48133333333334 67.95533333333334 78.02 67.168 76.66000000000001 66.378 75.29766666666667 67.08133333333335 74.55466666666666 67.76366666666667 73.872 68.38366666666667 73.277 69.132 72.29133333333334 69.81433333333334 71.504 70.47433333333333 70.694 70.70733333333334 70.141 71.15733333333334 69.22366666666667 71.62966666666668 68.331 71.38966666666667 67.51833333333335 71.04966666666668 66.836 70.71233333333333 66.15100000000001 68.06566666666667 59.41366666666667 66.85066666666667 56.72866666666667 65.83066666666666 54.468666666666664 64.76433333333334 54.40233333333333 63.784333333333336 54.38 62.991666666666674 54.34 62.074 54.340666666666664 61.18166666666667 54.340666666666664Z" class="hierarchical-1:primary "/></g>
  <g id="Black-M" transform="matrix(1,0,0,1,2869.3999999999996,1026.77)">

  <path d="M64 20C39.699999999999996 20 20 39.699999999999996 20 64 20 72.13013333333333 22.214506666666665 79.73946666666666 26.062506666666668 86.27333333333333L20.429679999999998 107.3672 42.55466666666666 102.41786666666667C48.900800000000004 105.96799999999999 56.211999999999996 108 64 108 88.29999999999998 108 108 88.29999999999998 108 64 108 39.699999999999996 88.29999999999998 20 64 20ZM64 28C83.88186666666667 28 100 44.11813333333333 100 64 100 83.88186666666667 83.88186666666667 100 64 100 56.53813333333333 100 49.60746666666666 97.72986666666665 43.85946666666666 93.84373333333333L31.58213333333333 96.58986666666667 34.70693333333333 84.87893333333332C30.501066666666667 78.98693333333333 28 71.792 28 64 28 44.11813333333333 44.11813333333333 28 64 28ZM48.94533333333334 43.47253333333333C48.2112 43.47253333333333 47.03146666666667 43.744 46.02746666666667 44.836 45.04133333333333 45.92986666666667 42.22666666666667 48.557599999999994 42.22666666666667 53.9296 42.22666666666667 59.2816 46.11413333333333 64.4736 46.66026666666666 65.18746666666667 47.206133333333334 65.9216 54.20106666666666 77.27839999999999 65.28906666666666 81.64453333333333 74.48106666666666 85.26453333333333 76.35919999999999 84.54746666666666 78.37119999999999 84.35946666666666 80.3672 84.18746666666667 84.81653333333333 81.73333333333332 85.72266666666667 79.19146666666666 86.62666666666667 76.64746666666666 86.62586666666665 74.46586666666667 86.34373333333333 74.00773333333333 86.06986666666667 73.56373333333333 85.35359999999999 73.28826666666666 84.26159999999999 72.74213333333333 83.1696 72.19413333333333 77.81253333333333 69.5552 76.80853333333333 69.1952 75.81866666666666 68.83519999999999 75.08506666666666 68.6464 74.37119999999999 69.7384 73.63706666666667 70.8304 71.55626666666666 73.288 70.90613333333333 74.00399999999999 70.27626666666666 74.73786666666666 69.64666666666666 74.82346666666666 68.55466666666666 74.27733333333333 67.46266666666666 73.73146666666666 63.95093333333333 72.58506666666666 59.78906666666666 68.8672 56.55093333333333 65.98506666666665 54.364266666666666 62.416 53.7344 61.328 53.102399999999996 60.23813333333334 53.66506666666667 59.64373333333333 54.21093333333333 59.0976 54.70693333333333 58.6216 55.3056 57.83306666666667 55.85146666666666 57.203199999999995 56.37946666666666 56.5552 56.565866666666665 56.1128 56.925866666666664 55.37893333333333 57.303733333333334 54.6648 57.111733333333326 54.01466666666667 56.839733333333335 53.468799999999995 56.56986666666666 52.9208 54.45253333333333 47.53093333333334 53.48053333333333 45.38293333333333 52.664533333333324 43.57493333333333 51.81146666666667 43.52186666666666 51.02746666666667 43.504 50.39333333333333 43.471999999999994 49.6592 43.47253333333333 48.94533333333334 43.47253333333333Z" class="hierarchical-1:primary "/></g>
  <g id="Regular-M" transform="matrix(1,0,0,1,1385.845,1026.77)">

  <path d="M64 20C39.699999999999996 20 20 39.699999999999996 20 64 20 72.13013333333333 22.214506666666665 79.73946666666666 26.062506666666668 86.27333333333333L20.429679999999998 107.3672 42.55466666666666 102.41786666666667C48.900800000000004 105.96799999999999 56.211999999999996 108 64 108 88.29999999999998 108 108 88.29999999999998 108 64 108 39.699999999999996 88.29999999999998 20 64 20ZM64 28C83.88186666666667 28 100 44.11813333333333 100 64 100 83.88186666666667 83.88186666666667 100 64 100 56.53813333333333 100 49.60746666666666 97.72986666666665 43.85946666666666 93.84373333333333L31.58213333333333 96.58986666666667 34.70693333333333 84.87893333333332C30.501066666666667 78.98693333333333 28 71.792 28 64 28 44.11813333333333 44.11813333333333 28 64 28ZM48.94533333333334 43.47253333333333C48.2112 43.47253333333333 47.03146666666667 43.744 46.02746666666667 44.836 45.04133333333333 45.92986666666667 42.22666666666667 48.557599999999994 42.22666666666667 53.9296 42.22666666666667 59.2816 46.11413333333333 64.4736 46.66026666666666 65.18746666666667 47.206133333333334 65.9216 54.20106666666666 77.27839999999999 65.28906666666666 81.64453333333333 74.48106666666666 85.26453333333333 76.35919999999999 84.54746666666666 78.37119999999999 84.35946666666666 80.3672 84.18746666666667 84.81653333333333 81.73333333333332 85.72266666666667 79.19146666666666 86.62666666666667 76.64746666666666 86.62586666666665 74.46586666666667 86.34373333333333 74.00773333333333 86.06986666666667 73.56373333333333 85.35359999999999 73.28826666666666 84.26159999999999 72.74213333333333 83.1696 72.19413333333333 77.81253333333333 69.5552 76.80853333333333 69.1952 75.81866666666666 68.83519999999999 75.08506666666666 68.6464 74.37119999999999 69.7384 73.63706666666667 70.8304 71.55626666666666 73.288 70.90613333333333 74.00399999999999 70.27626666666666 74.73786666666666 69.64666666666666 74.82346666666666 68.55466666666666 74.27733333333333 67.46266666666666 73.73146666666666 63.95093333333333 72.58506666666666 59.78906666666666 68.8672 56.55093333333333 65.98506666666665 54.364266666666666 62.416 53.7344 61.328 53.102399999999996 60.23813333333334 53.66506666666667 59.64373333333333 54.21093333333333 59.0976 54.70693333333333 58.6216 55.3056 57.83306666666667 55.85146666666666 57.203199999999995 56.37946666666666 56.5552 56.565866666666665 56.1128 56.925866666666664 55.37893333333333 57.303733333333334 54.6648 57.111733333333326 54.01466666666667 56.839733333333335 53.468799999999995 56.56986666666666 52.9208 54.45253333333333 47.53093333333334 53.48053333333333 45.38293333333333 52.664533333333324 43.57493333333333 51.81146666666667 43.52186666666666 51.02746666666667 43.504 50.39333333333333 43.471999999999994 49.6592 43.47253333333333 48.94533333333334 43.47253333333333Z" class="hierarchical-1:primary "/></g>
  <g id="Ultralight-M" transform="matrix(1,0,0,1,495.711,1026.77)">

  <path d="M64 20C39.699999999999996 20 20 39.699999999999996 20 64 20 72.13013333333333 22.214506666666665 79.73946666666666 26.062506666666668 86.27333333333333L20.429679999999998 107.3672 42.55466666666666 102.41786666666667C48.900800000000004 105.96799999999999 56.211999999999996 108 64 108 88.29999999999998 108 108 88.29999999999998 108 64 108 39.699999999999996 88.29999999999998 20 64 20ZM64 28C83.88186666666667 28 100 44.11813333333333 100 64 100 83.88186666666667 83.88186666666667 100 64 100 56.53813333333333 100 49.60746666666666 97.72986666666665 43.85946666666666 93.84373333333333L31.58213333333333 96.58986666666667 34.70693333333333 84.87893333333332C30.501066666666667 78.98693333333333 28 71.792 28 64 28 44.11813333333333 44.11813333333333 28 64 28ZM48.94533333333334 43.47253333333333C48.2112 43.47253333333333 47.03146666666667 43.744 46.02746666666667 44.836 45.04133333333333 45.92986666666667 42.22666666666667 48.557599999999994 42.22666666666667 53.9296 42.22666666666667 59.2816 46.11413333333333 64.4736 46.66026666666666 65.18746666666667 47.206133333333334 65.9216 54.20106666666666 77.27839999999999 65.28906666666666 81.64453333333333 74.48106666666666 85.26453333333333 76.35919999999999 84.54746666666666 78.37119999999999 84.35946666666666 80.3672 84.18746666666667 84.81653333333333 81.73333333333332 85.72266666666667 79.19146666666666 86.62666666666667 76.64746666666666 86.62586666666665 74.46586666666667 86.34373333333333 74.00773333333333 86.06986666666667 73.56373333333333 85.35359999999999 73.28826666666666 84.26159999999999 72.74213333333333 83.1696 72.19413333333333 77.81253333333333 69.5552 76.80853333333333 69.1952 75.81866666666666 68.83519999999999 75.08506666666666 68.6464 74.37119999999999 69.7384 73.63706666666667 70.8304 71.55626666666666 73.288 70.90613333333333 74.00399999999999 70.27626666666666 74.73786666666666 69.64666666666666 74.82346666666666 68.55466666666666 74.27733333333333 67.46266666666666 73.73146666666666 63.95093333333333 72.58506666666666 59.78906666666666 68.8672 56.55093333333333 65.98506666666665 54.364266666666666 62.416 53.7344 61.328 53.102399999999996 60.23813333333334 53.66506666666667 59.64373333333333 54.21093333333333 59.0976 54.70693333333333 58.6216 55.3056 57.83306666666667 55.85146666666666 57.203199999999995 56.37946666666666 56.5552 56.565866666666665 56.1128 56.925866666666664 55.37893333333333 57.303733333333334 54.6648 57.111733333333326 54.01466666666667 56.839733333333335 53.468799999999995 56.56986666666666 52.9208 54.45253333333333 47.53093333333334 53.48053333333333 45.38293333333333 52.664533333333324 43.57493333333333 51.81146666666667 43.52186666666666 51.02746666666667 43.504 50.39333333333333 43.471999999999994 49.6592 43.47253333333333 48.94533333333334 43.47253333333333Z" class="hierarchical-1:primary "/></g>
  <g id="Black-S" transform="matrix(1,0,0,1,2885.3999999999996,612.7705000000001)">

  <path d="M48 15C29.775 15 15 29.775 15 48 15 54.0976 16.66088 59.8046 19.54688 64.705L15.32226 80.5254 31.916 76.8134C36.6756 79.476 42.159 81 48 81 66.225 81 81 66.225 81 48 81 29.775 66.225 15 48 15ZM48 21C62.9114 21 75 33.0886 75 48 75 62.9114 62.9114 75 48 75 42.4036 75 37.2056 73.2974 32.8946 70.3828L23.6866 72.4424 26.0302 63.6592C22.8758 59.2402 21 53.844 21 48 21 33.0886 33.0886 21 48 21ZM36.709 32.6044C36.1584 32.6044 35.2736 32.808 34.5206 33.627 33.781 34.4474 31.67 36.4182 31.67 40.4472 31.67 44.4612 34.5856 48.3552 34.9952 48.8906 35.4046 49.4412 40.6508 57.9588 48.9668 61.2334 55.8608 63.9484 57.2694 63.4106 58.7784 63.2696 60.2754 63.1406 63.6124 61.3 64.292 59.3936 64.97 57.4856 64.9694 55.8494 64.7578 55.5058 64.5524 55.1728 64.0152 54.9662 63.1962 54.5566 62.3772 54.1456 58.3594 52.1664 57.6064 51.8964 56.864 51.6264 56.3138 51.4848 55.7784 52.3038 55.2278 53.1228 53.6672 54.966 53.1796 55.503 52.7072 56.0534 52.235 56.1176 51.416 55.708 50.597 55.2986 47.9632 54.4388 44.8418 51.6504 42.4132 49.4888 40.7732 46.812 40.3008 45.996 39.8268 45.1786 40.2488 44.7328 40.6582 44.3232 41.0302 43.9662 41.4792 43.3748 41.8886 42.9024 42.2846 42.4164 42.4244 42.0846 42.6944 41.5342 42.9778 40.9986 42.8338 40.511 42.6298 40.1016 42.4274 39.6906 40.8394 35.6482 40.1104 34.0372 39.4984 32.6812 38.8586 32.6414 38.2706 32.628 37.795 32.604 37.2444 32.6044 36.709 32.6044Z" class="hierarchical-1:primary "/></g>
  <g id="Regular-S" transform="matrix(1,0,0,1,1401.845,612.7705000000001)">

  <path d="M48 15C29.775 15 15 29.775 15 48 15 54.0976 16.66088 59.8046 19.54688 64.705L15.32226 80.5254 31.916 76.8134C36.6756 79.476 42.159 81 48 81 66.225 81 81 66.225 81 48 81 29.775 66.225 15 48 15ZM48 21C62.9114 21 75 33.0886 75 48 75 62.9114 62.9114 75 48 75 42.4036 75 37.2056 73.2974 32.8946 70.3828L23.6866 72.4424 26.0302 63.6592C22.8758 59.2402 21 53.844 21 48 21 33.0886 33.0886 21 48 21ZM36.709 32.6044C36.1584 32.6044 35.2736 32.808 34.5206 33.627 33.781 34.4474 31.67 36.4182 31.67 40.4472 31.67 44.4612 34.5856 48.3552 34.9952 48.8906 35.4046 49.4412 40.6508 57.9588 48.9668 61.2334 55.8608 63.9484 57.2694 63.4106 58.7784 63.2696 60.2754 63.1406 63.6124 61.3 64.292 59.3936 64.97 57.4856 64.9694 55.8494 64.7578 55.5058 64.5524 55.1728 64.0152 54.9662 63.1962 54.5566 62.3772 54.1456 58.3594 52.1664 57.6064 51.8964 56.864 51.6264 56.3138 51.4848 55.7784 52.3038 55.2278 53.1228 53.6672 54.966 53.1796 55.503 52.7072 56.0534 52.235 56.1176 51.416 55.708 50.597 55.2986 47.9632 54.4388 44.8418 51.6504 42.4132 49.4888 40.7732 46.812 40.3008 45.996 39.8268 45.1786 40.2488 44.7328 40.6582 44.3232 41.0302 43.9662 41.4792 43.3748 41.8886 42.9024 42.2846 42.4164 42.4244 42.0846 42.6944 41.5342 42.9778 40.9986 42.8338 40.511 42.6298 40.1016 42.4274 39.6906 40.8394 35.6482 40.1104 34.0372 39.4984 32.6812 38.8586 32.6414 38.2706 32.628 37.795 32.604 37.2444 32.6044 36.709 32.6044Z" class="hierarchical-1:primary "/></g>
  <g id="Ultralight-S" transform="matrix(1,0,0,1,511.711,612.7705000000001)">

  <path d="M48 15C29.775 15 15 29.775 15 48 15 54.0976 16.66088 59.8046 19.54688 64.705L15.32226 80.5254 31.916 76.8134C36.6756 79.476 42.159 81 48 81 66.225 81 81 66.225 81 48 81 29.775 66.225 15 48 15ZM48 21C62.9114 21 75 33.0886 75 48 75 62.9114 62.9114 75 48 75 42.4036 75 37.2056 73.2974 32.8946 70.3828L23.6866 72.4424 26.0302 63.6592C22.8758 59.2402 21 53.844 21 48 21 33.0886 33.0886 21 48 21ZM36.709 32.6044C36.1584 32.6044 35.2736 32.808 34.5206 33.627 33.781 34.4474 31.67 36.4182 31.67 40.4472 31.67 44.4612 34.5856 48.3552 34.9952 48.8906 35.4046 49.4412 40.6508 57.9588 48.9668 61.2334 55.8608 63.9484 57.2694 63.4106 58.7784 63.2696 60.2754 63.1406 63.6124 61.3 64.292 59.3936 64.97 57.4856 64.9694 55.8494 64.7578 55.5058 64.5524 55.1728 64.0152 54.9662 63.1962 54.5566 62.3772 54.1456 58.3594 52.1664 57.6064 51.8964 56.864 51.6264 56.3138 51.4848 55.7784 52.3038 55.2278 53.1228 53.6672 54.966 53.1796 55.503 52.7072 56.0534 52.235 56.1176 51.416 55.708 50.597 55.2986 47.9632 54.4388 44.8418 51.6504 42.4132 49.4888 40.7732 46.812 40.3008 45.996 39.8268 45.1786 40.2488 44.7328 40.6582 44.3232 41.0302 43.9662 41.4792 43.3748 41.8886 42.9024 42.2846 42.4164 42.4244 42.0846 42.6944 41.5342 42.9778 40.9986 42.8338 40.511 42.6298 40.1016 42.4274 39.6906 40.8394 35.6482 40.1104 34.0372 39.4984 32.6812 38.8586 32.6414 38.2706 32.628 37.795 32.604 37.2444 32.6044 36.709 32.6044Z" class="hierarchical-1:primary "/></g>
 </g>
</svg>