<?xml version="1.0" encoding="UTF-8"?>
<!--Generator: Apple Native CoreSVG 175.5-->
<!DOCTYPE svg
PUBLIC "-//W3C//DTD SVG 1.1//EN"
       "http://www.w3.org/Graphics/SVG/1.1/DTD/svg11.dtd">
<svg version="1.1" xmlns="http://www.w3.org/2000/svg" xmlns:xlink="http://www.w3.org/1999/xlink" width="3300" height="2200">
 <!--glyph: "", point size: 100.0, font version: "18.0d12e2", template writer version: "101"-->
 <style>.monochrome-0 {fill:#000000}

.SFSymbolsPreview000000 {fill:#000000;opacity:1.0}
</style>
 <g id="Notes">
  <rect height="2200" id="artboard" style="fill:white;opacity:1" width="3300" x="0" y="0"/>
  <line style="fill:none;stroke:black;opacity:1;stroke-width:0.5;" x1="263" x2="3036" y1="292" y2="292"/>
  <text style="stroke:none;fill:black;font-family:sans-serif;font-size:13;font-weight:bold;" transform="matrix(1 0 0 1 263 322)">Weight/Scale Variations</text>
  <text style="stroke:none;fill:black;font-family:sans-serif;font-size:13;text-anchor:middle;" transform="matrix(1 0 0 1 559.711 322)">Ultralight</text>
  <text style="stroke:none;fill:black;font-family:sans-serif;font-size:13;text-anchor:middle;" transform="matrix(1 0 0 1 856.422 322)">Thin</text>
  <text style="stroke:none;fill:black;font-family:sans-serif;font-size:13;text-anchor:middle;" transform="matrix(1 0 0 1 1153.13 322)">Light</text>
  <text style="stroke:none;fill:black;font-family:sans-serif;font-size:13;text-anchor:middle;" transform="matrix(1 0 0 1 1449.84 322)">Regular</text>
  <text style="stroke:none;fill:black;font-family:sans-serif;font-size:13;text-anchor:middle;" transform="matrix(1 0 0 1 1746.56 322)">Medium</text>
  <text style="stroke:none;fill:black;font-family:sans-serif;font-size:13;text-anchor:middle;" transform="matrix(1 0 0 1 2043.27 322)">Semibold</text>
  <text style="stroke:none;fill:black;font-family:sans-serif;font-size:13;text-anchor:middle;" transform="matrix(1 0 0 1 2339.98 322)">Bold</text>
  <text style="stroke:none;fill:black;font-family:sans-serif;font-size:13;text-anchor:middle;" transform="matrix(1 0 0 1 2636.69 322)">Heavy</text>
  <text style="stroke:none;fill:black;font-family:sans-serif;font-size:13;text-anchor:middle;" transform="matrix(1 0 0 1 2933.4 322)">Black</text>
  <line style="fill:none;stroke:black;opacity:1;stroke-width:0.5;" x1="263" x2="3036" y1="1903" y2="1903"/>
  <g transform="matrix(1 0 0 1 263 1933)">
   <path d="M9.24805 0.830078C13.5547 0.830078 17.1387-2.74414 17.1387-7.05078C17.1387-11.3574 13.5449-14.9316 9.23828-14.9316C4.94141-14.9316 1.36719-11.3574 1.36719-7.05078C1.36719-2.74414 4.95117 0.830078 9.24805 0.830078ZM9.24805-0.654297C5.70312-0.654297 2.87109-3.49609 2.87109-7.05078C2.87109-10.6055 5.69336-13.4473 9.23828-13.4473C12.793-13.4473 15.6445-10.6055 15.6445-7.05078C15.6445-3.49609 12.8027-0.654297 9.24805-0.654297ZM5.6543-7.05078C5.6543-6.62109 5.95703-6.32812 6.40625-6.32812L8.50586-6.32812L8.50586-4.20898C8.50586-3.76953 8.79883-3.4668 9.22852-3.4668C9.67773-3.4668 9.9707-3.76953 9.9707-4.20898L9.9707-6.32812L12.0898-6.32812C12.5293-6.32812 12.832-6.62109 12.832-7.05078C12.832-7.49023 12.5293-7.79297 12.0898-7.79297L9.9707-7.79297L9.9707-9.90234C9.9707-10.3516 9.67773-10.6543 9.22852-10.6543C8.79883-10.6543 8.50586-10.3516 8.50586-9.90234L8.50586-7.79297L6.40625-7.79297C5.95703-7.79297 5.6543-7.49023 5.6543-7.05078Z"/>
  </g>
  <g transform="matrix(1 0 0 1 281.867 1933)">
   <path d="M11.709 2.91016C17.1582 2.91016 21.6699-1.61133 21.6699-7.05078C21.6699-12.5 17.1484-17.0117 11.6992-17.0117C6.25977-17.0117 1.74805-12.5 1.74805-7.05078C1.74805-1.61133 6.26953 2.91016 11.709 2.91016ZM11.709 1.25C7.09961 1.25 3.41797-2.44141 3.41797-7.05078C3.41797-11.6602 7.08984-15.3516 11.6992-15.3516C16.3086-15.3516 20.0098-11.6602 20.0098-7.05078C20.0098-2.44141 16.3184 1.25 11.709 1.25ZM7.17773-7.05078C7.17773-6.57227 7.50977-6.25 8.00781-6.25L10.8789-6.25L10.8789-3.36914C10.8789-2.88086 11.2109-2.53906 11.6895-2.53906C12.1777-2.53906 12.5195-2.87109 12.5195-3.36914L12.5195-6.25L15.4004-6.25C15.8887-6.25 16.2305-6.57227 16.2305-7.05078C16.2305-7.53906 15.8887-7.88086 15.4004-7.88086L12.5195-7.88086L12.5195-10.752C12.5195-11.25 12.1777-11.5918 11.6895-11.5918C11.2109-11.5918 10.8789-11.25 10.8789-10.752L10.8789-7.88086L8.00781-7.88086C7.50977-7.88086 7.17773-7.53906 7.17773-7.05078Z"/>
  </g>
  <g transform="matrix(1 0 0 1 305.646 1933)">
   <path d="M14.9707 5.66406C21.9336 5.66406 27.6953-0.0976562 27.6953-7.05078C27.6953-14.0137 21.9238-19.7754 14.9609-19.7754C8.00781-19.7754 2.25586-14.0137 2.25586-7.05078C2.25586-0.0976562 8.01758 5.66406 14.9707 5.66406ZM14.9707 3.84766C8.93555 3.84766 4.08203-1.01562 4.08203-7.05078C4.08203-13.0957 8.92578-17.9492 14.9609-17.9492C21.0059-17.9492 25.8691-13.0957 25.8691-7.05078C25.8691-1.01562 21.0156 3.84766 14.9707 3.84766ZM9.19922-7.05078C9.19922-6.5332 9.57031-6.17188 10.1172-6.17188L14.0625-6.17188L14.0625-2.2168C14.0625-1.67969 14.4336-1.29883 14.9512-1.29883C15.4883-1.29883 15.8594-1.66992 15.8594-2.2168L15.8594-6.17188L19.8145-6.17188C20.3516-6.17188 20.7324-6.5332 20.7324-7.05078C20.7324-7.59766 20.3613-7.96875 19.8145-7.96875L15.8594-7.96875L15.8594-11.9141C15.8594-12.4609 15.4883-12.8418 14.9512-12.8418C14.4336-12.8418 14.0625-12.4609 14.0625-11.9141L14.0625-7.96875L10.1172-7.96875C9.57031-7.96875 9.19922-7.59766 9.19922-7.05078Z"/>
  </g>
  <text style="stroke:none;fill:black;font-family:sans-serif;font-size:13;font-weight:bold;" transform="matrix(1 0 0 1 263 1953)">Design Variations</text>
  <text style="stroke:none;fill:black;font-family:sans-serif;font-size:13;" transform="matrix(1 0 0 1 263 1971)">Symbols are supported in up to nine weights and three scales.</text>
  <text style="stroke:none;fill:black;font-family:sans-serif;font-size:13;" transform="matrix(1 0 0 1 263 1989)">For optimal layout with text and other symbols, vertically align</text>
  <text style="stroke:none;fill:black;font-family:sans-serif;font-size:13;" transform="matrix(1 0 0 1 263 2007)">symbols with the adjacent text.</text>
  <line style="fill:none;stroke:#00AEEF;stroke-width:0.5;opacity:1.0;" x1="776" x2="776" y1="1919" y2="1933"/>
  <g transform="matrix(1 0 0 1 776 1933)">
   <path d="M3.31055 0.15625C3.82812 0.15625 4.08203-0.0390625 4.26758-0.585938L5.52734-4.0332L11.2891-4.0332L12.5488-0.585938C12.7344-0.0390625 12.9883 0.15625 13.4961 0.15625C14.0137 0.15625 14.3457-0.15625 14.3457-0.644531C14.3457-0.810547 14.3164-0.966797 14.2383-1.17188L9.6582-13.3691C9.43359-13.9648 9.0332-14.2676 8.4082-14.2676C7.80273-14.2676 7.39258-13.9746 7.17773-13.3789L2.59766-1.16211C2.51953-0.957031 2.49023-0.800781 2.49023-0.634766C2.49023-0.146484 2.80273 0.15625 3.31055 0.15625ZM6.00586-5.51758L8.37891-12.0898L8.42773-12.0898L10.8008-5.51758Z"/>
  </g>
  <line style="fill:none;stroke:#00AEEF;stroke-width:0.5;opacity:1.0;" x1="793.197" x2="793.197" y1="1919" y2="1933"/>
  <text style="stroke:none;fill:black;font-family:sans-serif;font-size:13;font-weight:bold;" transform="matrix(1 0 0 1 776 1953)">Margins</text>
  <text style="stroke:none;fill:black;font-family:sans-serif;font-size:13;" transform="matrix(1 0 0 1 776 1971)">Leading and trailing margins on the left and right side of each symbol</text>
  <text style="stroke:none;fill:black;font-family:sans-serif;font-size:13;" transform="matrix(1 0 0 1 776 1989)">can be adjusted by modifying the x-location of the margin guidelines.</text>
  <text style="stroke:none;fill:black;font-family:sans-serif;font-size:13;" transform="matrix(1 0 0 1 776 2007)">Modifications are automatically applied proportionally to all</text>
  <text style="stroke:none;fill:black;font-family:sans-serif;font-size:13;" transform="matrix(1 0 0 1 776 2025)">scales and weights.</text>
  <g transform="matrix(1 0 0 1 1289 1933)">
   <path d="M2.8418 1.86523L4.54102 3.57422C5.40039 4.44336 6.38672 4.38477 7.31445 3.35938L18.0078-8.42773L17.041-9.4043L6.42578 2.27539C6.07422 2.67578 5.74219 2.77344 5.27344 2.30469L4.10156 1.14258C3.63281 0.683594 3.74023 0.341797 4.14062-0.0195312L15.6152-10.8203L14.6387-11.7871L3.04688-0.898438C2.06055 0.0195312 1.98242 0.996094 2.8418 1.86523ZM9.25781-16.3281C8.83789-15.918 8.80859-15.3418 9.04297-14.9512C9.27734-14.5898 9.73633-14.3555 10.3809-14.5215C11.8457-14.8633 13.3691-14.9219 14.7949-13.9844L14.209-12.5293C13.8672-11.6992 14.043-11.1133 14.5801-10.5664L16.875-8.25195C17.3633-7.76367 17.7734-7.74414 18.3398-7.8418L19.4043-8.03711L20.0684-7.36328L20.0293-6.80664C19.9902-6.30859 20.1172-5.92773 20.6055-5.44922L21.3672-4.70703C21.8457-4.22852 22.4609-4.19922 22.9297-4.66797L25.8398-7.58789C26.3086-8.05664 26.2891-8.65234 25.8105-9.13086L25.0391-9.89258C24.5605-10.3711 24.1895-10.5273 23.7109-10.4883L23.1348-10.4395L22.4902-11.0742L22.7344-12.1973C22.8613-12.7637 22.7051-13.2031 22.1191-13.7891L19.9219-15.9766C16.582-19.2969 12.1484-19.2188 9.25781-16.3281ZM10.752-15.957C13.1836-17.7344 16.4746-17.4316 18.7012-15.2051L21.1328-12.793C21.3672-12.5586 21.4062-12.373 21.3379-12.0312L21.0156-10.5469L22.5195-9.0625L23.5059-9.12109C23.7598-9.13086 23.8379-9.11133 24.0332-8.91602L24.6094-8.33984L22.168-5.89844L21.5918-6.47461C21.3965-6.66992 21.3672-6.74805 21.377-7.01172L21.4453-7.98828L19.9512-9.47266L18.4277-9.21875C18.1055-9.15039 17.959-9.17969 17.7148-9.41406L15.7129-11.416C15.459-11.6504 15.4297-11.8164 15.5859-12.1875L16.4648-14.2773C14.9023-15.7324 12.8711-16.3574 10.8398-15.7617C10.6836-15.7227 10.625-15.8496 10.752-15.957Z"/>
  </g>
  <text style="stroke:none;fill:black;font-family:sans-serif;font-size:13;font-weight:bold;" transform="matrix(1 0 0 1 1289 1953)">Exporting</text>
  <text style="stroke:none;fill:black;font-family:sans-serif;font-size:13;" transform="matrix(1 0 0 1 1289 1971)">Symbols should be outlined when exporting to ensure the</text>
  <text style="stroke:none;fill:black;font-family:sans-serif;font-size:13;" transform="matrix(1 0 0 1 1289 1989)">design is preserved when submitting to Xcode.</text>
  <text id="template-version" style="stroke:none;fill:black;font-family:sans-serif;font-size:13;text-anchor:end;" transform="matrix(1 0 0 1 3036 1933)">Template v.4.0</text>
  <text style="stroke:none;fill:black;font-family:sans-serif;font-size:13;text-anchor:end;" transform="matrix(1 0 0 1 3036 1951)">Requires Xcode 14 or greater</text>
  <text id="descriptive-name" style="stroke:none;fill:black;font-family:sans-serif;font-size:13;text-anchor:end;" transform="matrix(1 0 0 1 3036 1969)">Generated from svg</text>
  <text style="stroke:none;fill:black;font-family:sans-serif;font-size:13;text-anchor:end;" transform="matrix(1 0 0 1 3036 1987)">Typeset at 100 points</text>
  <text style="stroke:none;fill:black;font-family:sans-serif;font-size:13;" transform="matrix(1 0 0 1 263 726)">Small</text>
  <text style="stroke:none;fill:black;font-family:sans-serif;font-size:13;" transform="matrix(1 0 0 1 263 1156)">Medium</text>
  <text style="stroke:none;fill:black;font-family:sans-serif;font-size:13;" transform="matrix(1 0 0 1 263 1586)">Large</text>
 </g>
 <g id="Guides">
  <g id="H-reference" style="fill:#27AAE1;stroke:none;" transform="matrix(1 0 0 1 339 696)">
   <path d="M0.993654 0L3.63775 0L29.3281-67.1323L30.0303-67.1323L30.0303-70.459L28.1226-70.459ZM11.6885-24.4799L46.9815-24.4799L46.2315-26.7285L12.4385-26.7285ZM55.1196 0L57.7637 0L30.6382-70.459L29.4326-70.459L29.4326-67.1323Z"/>
  </g>
  <line id="Baseline-S" style="fill:none;stroke:#27AAE1;opacity:1;stroke-width:0.5;" x1="263" x2="3036" y1="696" y2="696"/>
  <line id="Capline-S" style="fill:none;stroke:#27AAE1;opacity:1;stroke-width:0.5;" x1="263" x2="3036" y1="625.541" y2="625.541"/>
  <g id="H-reference" style="fill:#27AAE1;stroke:none;" transform="matrix(1 0 0 1 339 1126)">
   <path d="M0.993654 0L3.63775 0L29.3281-67.1323L30.0303-67.1323L30.0303-70.459L28.1226-70.459ZM11.6885-24.4799L46.9815-24.4799L46.2315-26.7285L12.4385-26.7285ZM55.1196 0L57.7637 0L30.6382-70.459L29.4326-70.459L29.4326-67.1323Z"/>
  </g>
  <line id="Baseline-M" style="fill:none;stroke:#27AAE1;opacity:1;stroke-width:0.5;" x1="263" x2="3036" y1="1126" y2="1126"/>
  <line id="Capline-M" style="fill:none;stroke:#27AAE1;opacity:1;stroke-width:0.5;" x1="263" x2="3036" y1="1055.54" y2="1055.54"/>
  <g id="H-reference" style="fill:#27AAE1;stroke:none;" transform="matrix(1 0 0 1 339 1556)">
   <path d="M0.993654 0L3.63775 0L29.3281-67.1323L30.0303-67.1323L30.0303-70.459L28.1226-70.459ZM11.6885-24.4799L46.9815-24.4799L46.2315-26.7285L12.4385-26.7285ZM55.1196 0L57.7637 0L30.6382-70.459L29.4326-70.459L29.4326-67.1323Z"/>
  </g>
  <line id="Baseline-L" style="fill:none;stroke:#27AAE1;opacity:1;stroke-width:0.5;" x1="263" x2="3036" y1="1556" y2="1556"/>
  <line id="Capline-L" style="fill:none;stroke:#27AAE1;opacity:1;stroke-width:0.5;" x1="263" x2="3036" y1="1485.54" y2="1485.54"/>
  <line id="left-margin-Ultralight-S" style="fill:none;stroke:#FF3B30;stroke-width:0.5;opacity:1.0;" x1="519.288" x2="519.288" y1="600.785" y2="720.121"/>
  <line id="right-margin-Ultralight-S" style="fill:none;stroke:#FF3B30;stroke-width:0.5;opacity:1.0;" x1="600.134" x2="600.134" y1="600.785" y2="720.121"/>
  <line id="left-margin-Regular-S" style="fill:none;stroke:#FF3B30;stroke-width:0.5;opacity:1.0;" x1="1407.56" x2="1407.56" y1="600.785" y2="720.121"/>
  <line id="right-margin-Regular-S" style="fill:none;stroke:#FF3B30;stroke-width:0.5;opacity:1.0;" x1="1492.13" x2="1492.13" y1="600.785" y2="720.121"/>
  <line id="left-margin-Black-S" style="fill:none;stroke:#FF3B30;stroke-width:0.5;opacity:1.0;" x1="2887.7" x2="2887.7" y1="600.785" y2="720.121"/>
  <line id="right-margin-Black-S" style="fill:none;stroke:#FF3B30;stroke-width:0.5;opacity:1.0;" x1="2979.1" x2="2979.1" y1="600.785" y2="720.121"/>
 </g>
 <g id="Symbols">
  <g id="Black-S" transform="matrix(1 0 0 1 2887.7 696)">
   <path class="monochrome-0 SFSymbolsPreview000000" d="M25.517-78.4132L25.8815-78.416L43.9479-78.416C48.5087-78.416 51.1281-77.7689 54.1897-74.7205L74.7096-53.7578C78.0788-50.291 78.6647-47.9473 78.6647-42.5762L78.6647-36.541C78.6647-34.5859 77.0791-33.001 75.124-33.001C73.2342-33.001 71.6903-34.4819 71.5895-36.3465L71.5842-36.541L71.5846-41.9902L50.3932-41.9902C45.3151-41.9902 42.7272-44.5781 42.7272-49.6562L42.7272-71.3848L26.2721-71.3848C22.5612-71.3848 20.6569-69.3828 20.6569-65.8672L20.6561-36.5165C20.656-34.5749 19.0821-33.001 17.1405-33.001C15.1989-33.001 13.625-34.5749 13.625-36.5165L13.625-65.9648C13.625-74.1417 17.5583-78.2912 25.517-78.4132ZM78.3925 9.0117C88.0605 9.0117 93.6757 3.4941 93.6757-4.2696L93.6757-7.1016C93.6757-9.4942 92.2597-10.8613 89.9647-10.8613L80.5897-10.8613C79.0273-10.8613 78.0507-9.836 78.0507-8.4199C78.0507-7.1016 79.0273-5.9297 80.5897-5.9297L86.7909-5.9297L86.7909-3.293C86.7909 0.6133 84.0077 3.2988 78.4901 3.2988C72.5819 3.2988 68.7245-1.7305 68.7245-9.4453C68.7245-17.1602 72.5331-22.2871 78.3437-22.2871C82.3476-22.2871 85.3261-20.5293 87.0839-17.0137C87.8163-15.5977 88.6464-14.9629 89.9159-14.9629C91.7226-14.9629 92.8944-16.086 92.8944-17.8926C92.8944-18.5762 92.7968-19.1133 92.5038-19.7969C90.453-24.8262 85.1796-28 78.246-28C68.0897-28 61.6444-20.8223 61.6444-9.4453C61.6444 1.9316 68.0897 9.0117 78.3925 9.0117ZM11.6163 9.0117C20.4053 9.0117 26.1671 4.7637 26.1671-1.9746C26.1671-7.10421 22.4486-9.97457 15.8898-11.7871L10.4444-13.2539C7.02638-14.1817 5.61038-15.5 5.61038-17.6973C5.61038-20.7246 7.85648-22.4824 11.7139-22.4824C15.376-22.4824 17.5245-21.2129 18.9893-18.1856C19.6241-16.7696 20.503-16.0371 22.1632-16.0371C23.921-16.0371 25.2393-17.0137 25.2393-19.0156C25.2393-19.5528 25.0928-20.1875 24.7999-20.9688C23.2862-24.9238 18.6475-27.9512 12.0069-27.9512C3.95028-27.9512-1.66502-23.5078-1.66502-17.2578C-1.66502-12.3262 1.65528-9.4942 7.61238-7.7852L13.2276-6.2227L13.8441-6.03423C17.6184-4.85154 18.9405-3.84965 18.9405-1.4375C18.9405 1.834 15.962 3.3965 12.0069 3.3965C8.24708 3.3965 5.75688 2.1269 4.29208-0.8028C3.51078-2.3164 2.58308-3 1.06938-3C-0.83492-3-2.05562-1.8281-2.05562 0.0273C-2.05562 0.7109-1.90912 1.3945-1.56732 2.0781C-0.15132 5.5937 4.43848 9.0117 11.6163 9.0117ZM45.1753 8.6719C47.5852 8.6719 49.1263 7.48298 50.1968 4.79528L60.7027-22.6758C60.9468-23.4082 61.0445-23.8965 61.0445-24.5312C61.0445-26.4844 59.5308-27.8027 57.5288-27.8027C55.6245-27.8027 54.5015-26.9238 53.8179-24.873L45.273 0.3711L45.0288 0.3711L36.4839-24.873C35.7515-26.9238 34.6773-27.8027 32.773-27.8027C30.771-27.8027 29.2574-26.4844 29.2574-24.5312C29.2574-23.8965 29.355-23.4082 29.5992-22.6758L40.0484 4.5703C41.1714 7.5977 42.5874 8.6719 45.1753 8.6719ZM49.2702-70.0664L49.2702-50.5352C49.2702-49.168 49.8561-48.582 51.2233-48.582L70.2662-48.582L49.2702-70.0664Z"/>
  </g>
  <g id="Regular-S" transform="matrix(1 0 0 1 1407.56 696)">
   <path class="monochrome-0 SFSymbolsPreview000000" d="M21.657-76.4132L22.0215-76.416L40.0879-76.416C44.6487-76.416 47.2681-75.7689 50.3297-72.7205L70.8496-51.7578C74.2188-48.291 74.8047-45.9473 74.8047-40.5762L74.8047-34.541C74.8047-32.5859 73.2191-31.001 71.264-31.001C69.3742-31.001 67.8303-32.4819 67.7295-34.3465L67.7242-34.541L67.7246-39.9902L46.5332-39.9902C41.4551-39.9902 38.8672-42.5781 38.8672-47.6562L38.8672-69.3848L22.4121-69.3848C18.7012-69.3848 16.7969-67.3828 16.7969-63.8672L16.7961-34.5165C16.796-32.5749 15.2221-31.001 13.2805-31.001C11.3389-31.001 9.765-32.5749 9.765-34.5165L9.765-63.9648C9.765-72.1417 13.6983-76.2912 21.657-76.4132ZM74.5325 11.0117C84.2005 11.0117 89.8157 5.4941 89.8157-2.2696L89.8157-5.1016C89.8157-7.4942 88.3997-8.8613 86.1047-8.8613L76.7297-8.8613C75.1673-8.8613 74.1907-7.836 74.1907-6.4199C74.1907-5.1016 75.1673-3.9297 76.7297-3.9297L82.9309-3.9297L82.9309-1.293C82.9309 2.6133 80.1477 5.2988 74.6301 5.2988C68.7219 5.2988 64.8645 0.2695 64.8645-7.4453C64.8645-15.1602 68.6731-20.2871 74.4837-20.2871C78.4876-20.2871 81.4661-18.5293 83.2239-15.0137C83.9563-13.5977 84.7864-12.9629 86.0559-12.9629C87.8626-12.9629 89.0344-14.086 89.0344-15.8926C89.0344-16.5762 88.9368-17.1133 88.6438-17.7969C86.593-22.8262 81.3196-26 74.386-26C64.2297-26 57.7844-18.8223 57.7844-7.4453C57.7844 3.9316 64.2297 11.0117 74.5325 11.0117ZM7.75628 11.0117C16.5453 11.0117 22.3071 6.7637 22.3071 0.0254C22.3071-5.10421 18.5886-7.97457 12.0298-9.78709L6.58438-11.2539C3.16638-12.1817 1.75038-13.5 1.75038-15.6973C1.75038-18.7246 3.99648-20.4824 7.85388-20.4824C11.516-20.4824 13.6645-19.2129 15.1293-16.1856C15.7641-14.7696 16.643-14.0371 18.3032-14.0371C20.061-14.0371 21.3793-15.0137 21.3793-17.0156C21.3793-17.5528 21.2328-18.1875 20.9399-18.9688C19.4262-22.9238 14.7875-25.9512 8.14688-25.9512C0.09028-25.9512-5.52502-21.5078-5.52502-15.2578C-5.52502-10.3262-2.20472-7.4942 3.75238-5.7852L9.36758-4.2227L9.98407-4.03423C13.7584-2.85154 15.0805-1.84965 15.0805 0.5625C15.0805 3.834 12.102 5.3965 8.14688 5.3965C4.38708 5.3965 1.89688 4.1269 0.43208 1.1972C-0.34922-0.3164-1.27692-1-2.79062-1C-4.69492-1-5.91562 0.1719-5.91562 2.0273C-5.91562 2.7109-5.76912 3.3945-5.42732 4.0781C-4.01132 7.5937 0.57848 11.0117 7.75628 11.0117ZM41.3153 10.6719C43.7252 10.6719 45.2663 9.48298 46.3368 6.79528L56.8427-20.6758C57.0868-21.4082 57.1845-21.8965 57.1845-22.5312C57.1845-24.4844 55.6708-25.8027 53.6688-25.8027C51.7645-25.8027 50.6415-24.9238 49.9579-22.873L41.413 2.3711L41.1688 2.3711L32.6239-22.873C31.8915-24.9238 30.8173-25.8027 28.913-25.8027C26.911-25.8027 25.3974-24.4844 25.3974-22.5312C25.3974-21.8965 25.495-21.4082 25.7392-20.6758L36.1884 6.5703C37.3114 9.5977 38.7274 10.6719 41.3153 10.6719ZM45.4102-68.0664L45.4102-48.5352C45.4102-47.168 45.9961-46.582 47.3633-46.582L66.4062-46.582L45.4102-68.0664Z"/>
  </g>
  <g id="Ultralight-S" transform="matrix(1 0 0 1 519.288 696)">
   <path class="monochrome-0 SFSymbolsPreview000000" d="M19.929-77.4132L20.2935-77.416L38.3599-77.416C42.9207-77.416 45.5401-76.7689 48.6017-73.7205L69.1216-52.7578C72.4908-49.291 73.0767-46.9473 73.0767-41.5762L73.0767-35.541C73.0767-33.5859 71.4911-32.001 69.536-32.001C67.6462-32.001 66.1023-33.4819 66.0015-35.3465L65.9962-35.541L65.9966-40.9902L44.8052-40.9902C39.7271-40.9902 37.1392-43.5781 37.1392-48.6562L37.1392-70.3848L20.6841-70.3848C16.9732-70.3848 15.0689-68.3828 15.0689-64.8672L15.0681-35.5165C15.068-33.5749 13.4941-32.001 11.5525-32.001C9.61094-32.001 8.037-33.5749 8.037-35.5165L8.037-64.9648C8.037-73.1417 11.9703-77.2912 19.929-77.4132ZM72.8045 10.0117C82.4725 10.0117 88.0877 4.4941 88.0877-3.2696L88.0877-6.1016C88.0877-8.4942 86.6717-9.8613 84.3767-9.8613L75.0017-9.8613C73.4393-9.8613 72.4627-8.836 72.4627-7.4199C72.4627-6.1016 73.4393-4.9297 75.0017-4.9297L81.2029-4.9297L81.2029-2.293C81.2029 1.6133 78.4197 4.2988 72.9021 4.2988C66.9939 4.2988 63.1365-0.7305 63.1365-8.4453C63.1365-16.1602 66.9451-21.2871 72.7557-21.2871C76.7596-21.2871 79.7381-19.5293 81.4959-16.0137C82.2283-14.5977 83.0584-13.9629 84.3279-13.9629C86.1346-13.9629 87.3064-15.086 87.3064-16.8926C87.3064-17.5762 87.2088-18.1133 86.9158-18.7969C84.865-23.8262 79.5916-27 72.658-27C62.5017-27 56.0564-19.8223 56.0564-8.4453C56.0564 2.9316 62.5017 10.0117 72.8045 10.0117ZM6.02828 10.0117C14.8173 10.0117 20.5791 5.7637 20.5791-0.9746C20.5791-6.10421 16.8606-8.97457 10.3018-10.7871L4.85638-12.2539C1.43838-13.1817 0.02238-14.5 0.02238-16.6973C0.02238-19.7246 2.26848-21.4824 6.12588-21.4824C9.78798-21.4824 11.9365-20.2129 13.4013-17.1856C14.0361-15.7696 14.915-15.0371 16.5752-15.0371C18.333-15.0371 19.6513-16.0137 19.6513-18.0156C19.6513-18.5528 19.5048-19.1875 19.2119-19.9688C17.6982-23.9238 13.0595-26.9512 6.41888-26.9512C-1.63772-26.9512-7.25302-22.5078-7.25302-16.2578C-7.25302-11.3262-3.93272-8.4942 2.02438-6.7852L7.63958-5.2227L8.25607-5.03423C12.0304-3.85154 13.3525-2.84965 13.3525-0.4375C13.3525 2.834 10.374 4.3965 6.41888 4.3965C2.65908 4.3965 0.16888 3.1269-1.29592 0.1972C-2.07722-1.3164-3.00492-2-4.51862-2C-6.42292-2-7.64362-0.8281-7.64362 1.0273C-7.64362 1.7109-7.49712 2.3945-7.15532 3.0781C-5.73932 6.5937-1.14952 10.0117 6.02828 10.0117ZM39.5873 9.6719C41.9972 9.6719 43.5383 8.48298 44.6088 5.79528L55.1147-21.6758C55.3588-22.4082 55.4565-22.8965 55.4565-23.5312C55.4565-25.4844 53.9428-26.8027 51.9408-26.8027C50.0365-26.8027 48.9135-25.9238 48.2299-23.873L39.685 1.3711L39.4408 1.3711L30.8959-23.873C30.1635-25.9238 29.0893-26.8027 27.185-26.8027C25.183-26.8027 23.6694-25.4844 23.6694-23.5312C23.6694-22.8965 23.767-22.4082 24.0112-21.6758L34.4604 5.5703C35.5834 8.5977 36.9994 9.6719 39.5873 9.6719ZM43.6822-69.0664L43.6822-49.5352C43.6822-48.168 44.2681-47.582 45.6353-47.582L64.6782-47.582L43.6822-69.0664Z"/>
  </g>
 </g>
</svg>
